<svg width="32" height="32" viewBox="0 0 32 32" fill="none" xmlns="http://www.w3.org/2000/svg">
<path d="M14.7236 0.0803547C14.0423 0.230354 13.2986 0.524105 12.7361 0.867855C12.2673 1.14911 11.6423 1.74911 6.78605 6.5991C0.911054 12.4554 0.848554 12.5241 0.436054 13.5991C0.111054 14.4366 0.0423039 14.7741 0.0110539 15.6866C-0.0326961 16.7179 0.0485539 17.2741 0.342304 18.0991C0.798554 19.3804 0.573554 19.1304 6.58605 25.1554C12.2736 30.8616 12.4611 31.0366 13.3923 31.4491C14.1736 31.7929 14.7861 31.9304 15.6986 31.9616C16.7298 32.0054 17.2923 31.9241 18.1111 31.6304C19.3923 31.1741 19.1423 31.3991 25.1673 25.3866C31.0861 19.4866 31.1298 19.4429 31.5548 18.3429C31.8736 17.5241 31.9423 17.1804 31.9736 16.2741C32.0173 15.2429 31.9361 14.6866 31.6423 13.8616C31.1861 12.5804 31.4111 12.8304 25.3986 6.80536C19.5111 0.899105 19.4486 0.836605 18.3736 0.424105C17.4798 0.0803547 17.2173 0.0303555 16.1486 0.00535393C15.4111 -0.0133953 15.0361 0.0116043 14.7236 0.0803547ZM17.1548 1.41785C17.4236 1.4866 17.9173 1.6741 18.2423 1.83035L18.8361 2.12411L24.1986 7.4741C27.2298 10.4991 29.6736 12.9804 29.8173 13.1866C30.9798 14.8866 30.9798 17.0804 29.8173 18.7741C29.5111 19.2179 19.1486 29.5679 18.7236 29.8491C17.0861 30.9491 14.8986 30.9491 13.2611 29.8491C12.8361 29.5679 2.47355 19.2179 2.1673 18.7741C0.998554 17.0741 0.998554 14.8866 2.1673 13.1866C2.47355 12.7429 12.8361 2.39285 13.2611 2.1116C14.3736 1.3616 15.8736 1.0991 17.1548 1.41785Z" fill="#174B24"/>
<path d="M10.5109 10.4992L5.36719 15.6367V15.9805V16.3242L10.5109 21.4617L15.6484 26.6055H15.9922H16.3359L21.4734 21.4617L26.6172 16.3242V15.9867V15.6492L25.1984 14.218L23.7797 12.793L24.3609 12.2055C24.9047 11.6555 24.9484 11.5992 24.9484 11.3617C24.9484 11.0492 24.8172 10.8367 24.5547 10.7305C24.2234 10.593 23.9672 10.718 23.3672 11.3242L22.8359 11.8555L19.5859 8.60547L16.3297 5.35547H15.9922H15.6484L10.5109 10.4992ZM18.9484 9.90547L21.8672 12.8242L18.9297 15.7617L15.9922 18.6992L14.3172 17.0242L12.6422 15.3555H12.3234C12.0422 15.3555 11.9859 15.3805 11.8422 15.5492C11.7234 15.6867 11.6797 15.8117 11.6797 15.9992C11.6797 16.2555 11.6984 16.2742 13.6984 18.2742L15.7109 20.293H15.9922H16.2734L19.5359 17.0305L22.8047 13.7617L23.9172 14.8742L25.0234 15.9805L20.5047 20.4992L15.9922 25.0117L11.4797 20.4992L6.96094 15.9805L11.4609 11.4805C13.9359 9.00547 15.9734 6.98047 15.9922 6.98047C16.0109 6.98047 17.3359 8.29297 18.9484 9.90547Z" fill="#174B24"/>
</svg>
