<svg width="25" height="24" viewBox="0 0 25 24" fill="none" xmlns="http://www.w3.org/2000/svg">
<path d="M9.35938 2.41875C8.84844 2.55938 8.46406 2.90156 8.25313 3.4125C8.15469 3.65625 8.14063 3.75 8.14063 4.48594V5.29219L5.31875 5.30625L2.49219 5.32031L2.20156 5.45625C1.85938 5.61094 1.48906 5.98125 1.32969 6.31406L1.22656 6.53906V13.4766V20.4141L1.32969 20.6391C1.48906 20.9719 1.85938 21.3422 2.20156 21.4969L2.49219 21.6328H12.5H22.5078L22.7984 21.4969C23.1406 21.3422 23.5109 20.9719 23.6703 20.6391L23.7734 20.4141V13.4766V6.53906L23.6703 6.31406C23.5109 5.98125 23.1406 5.61094 22.7984 5.45625L22.5078 5.32031L19.6859 5.30625L16.8594 5.29219V4.48594C16.8594 3.75 16.8453 3.65625 16.7469 3.4125C16.5313 2.89219 16.1516 2.55469 15.6172 2.41406C15.2141 2.31094 9.75313 2.31563 9.35938 2.41875ZM15.5328 3.46875C15.8141 3.6375 15.875 3.84375 15.875 4.61719V5.29688H12.5H9.125V4.60313C9.125 3.825 9.16719 3.675 9.45313 3.47813L9.60781 3.375H12.4953C15.2797 3.375 15.3875 3.37969 15.5328 3.46875ZM22.4938 6.44531C22.7938 6.67031 22.7891 6.63281 22.7891 8.67188C22.7891 10.3266 22.7797 10.5563 22.7047 10.8281C22.3953 11.9156 21.5375 12.7781 20.4688 13.0734C20.1313 13.1672 20.0047 13.1719 17.3234 13.1719H14.525L14.5063 12.3469L14.4922 11.5219L14.3375 11.3859L14.1875 11.25H12.4859H10.7844L10.6438 11.3953L10.5078 11.5359L10.4938 12.3563L10.475 13.1719H7.67656C4.99531 13.1719 4.86875 13.1672 4.53125 13.0734C3.47188 12.7828 2.61406 11.925 2.3 10.8516C2.23438 10.6125 2.21563 10.3031 2.20156 8.80781C2.1875 7.62656 2.19688 6.98438 2.22969 6.85781C2.28125 6.66094 2.46875 6.44063 2.63281 6.37031C2.68438 6.35156 7.14688 6.3375 12.5469 6.34219C22.2875 6.35156 22.3672 6.35156 22.4938 6.44531ZM13.4844 13.6875V15.1406H12.5H11.5156V13.6875V12.2344H12.5H13.4844V13.6875ZM3.07344 13.5234C3.44844 13.7672 3.81875 13.9313 4.32031 14.0813C4.63438 14.1703 4.78438 14.175 7.56875 14.1938L10.4844 14.2078L10.4891 14.9438C10.4891 15.8063 10.5313 15.9703 10.7656 16.0875C10.9109 16.1625 11.0984 16.1719 12.5 16.1719C13.9016 16.1719 14.0891 16.1625 14.2344 16.0875C14.4688 15.9703 14.5109 15.8063 14.5109 14.9391L14.5156 14.2031H17.2063C18.8656 14.2031 20.0375 14.1844 20.2625 14.1516C21.0594 14.0438 21.8797 13.65 22.4891 13.0828L22.8125 12.7875L22.8031 16.4578C22.7891 20.0391 22.7844 20.1375 22.6953 20.2875C22.6438 20.3719 22.5359 20.4844 22.4563 20.5359C22.3109 20.625 22.1094 20.625 12.5 20.625C2.89063 20.625 2.68906 20.625 2.54375 20.5359C2.46406 20.4844 2.35625 20.3719 2.30469 20.2875C2.21563 20.1375 2.21094 20.0391 2.19688 16.4578L2.1875 12.7828L2.45938 13.0406C2.60938 13.1859 2.88594 13.4016 3.07344 13.5234Z" fill="white"/>
</svg>
