<svg width="210" height="44" viewBox="0 0 210 44" fill="none" xmlns="http://www.w3.org/2000/svg">
<rect width="210" height="44" rx="22" fill="white" fill-opacity="0.08"/>
<rect x="0.5" y="0.5" width="209" height="43" rx="21.5" stroke="white" stroke-opacity="0.12"/>
<path d="M17.232 29V17.08H21.136C22.3733 17.08 23.4453 17.3307 24.352 17.832C25.2693 18.3227 25.9787 19.016 26.48 19.912C26.9813 20.808 27.232 21.848 27.232 23.032C27.232 24.2053 26.9813 25.2453 26.48 26.152C25.9787 27.048 25.2693 27.7467 24.352 28.248C23.4453 28.7493 22.3733 29 21.136 29H17.232ZM19.12 27.32H21.168C22.0107 27.32 22.7413 27.144 23.36 26.792C23.9893 26.44 24.4747 25.944 24.816 25.304C25.1573 24.664 25.328 23.9067 25.328 23.032C25.328 22.1573 25.152 21.4053 24.8 20.776C24.4587 20.136 23.9787 19.64 23.36 19.288C22.7413 18.936 22.0107 18.76 21.168 18.76H19.12V27.32ZM32.9794 29.192C32.1154 29.192 31.3474 28.9947 30.6754 28.6C30.014 28.1947 29.4967 27.6507 29.1234 26.968C28.75 26.2747 28.5634 25.5013 28.5634 24.648C28.5634 23.7733 28.75 23 29.1234 22.328C29.5074 21.656 30.0194 21.128 30.6594 20.744C31.2994 20.3493 32.0247 20.152 32.8354 20.152C33.486 20.152 34.0674 20.264 34.5794 20.488C35.0914 20.712 35.5234 21.0213 35.8754 21.416C36.2274 21.8 36.494 22.2427 36.6754 22.744C36.8674 23.2453 36.9634 23.7787 36.9634 24.344C36.9634 24.4827 36.958 24.6267 36.9474 24.776C36.9367 24.9253 36.9154 25.064 36.8834 25.192H29.9874V23.752H35.8594L34.9954 24.408C35.102 23.8853 35.0647 23.4213 34.8834 23.016C34.7127 22.6 34.446 22.2747 34.0834 22.04C33.7314 21.7947 33.3154 21.672 32.8354 21.672C32.3554 21.672 31.9287 21.7947 31.5554 22.04C31.182 22.2747 30.894 22.616 30.6914 23.064C30.4887 23.5013 30.4087 24.0347 30.4514 24.664C30.398 25.2507 30.478 25.7627 30.6914 26.2C30.9154 26.6373 31.2247 26.9787 31.6194 27.224C32.0247 27.4693 32.4834 27.592 32.9954 27.592C33.518 27.592 33.9607 27.4747 34.3234 27.24C34.6967 27.0053 34.99 26.7013 35.2034 26.328L36.6754 27.048C36.5047 27.4533 36.238 27.8213 35.8754 28.152C35.5234 28.472 35.0967 28.728 34.5954 28.92C34.1047 29.1013 33.566 29.192 32.9794 29.192ZM41.9279 29.192C41.0425 29.192 40.2639 28.9733 39.5919 28.536C38.9305 28.0987 38.4665 27.512 38.1999 26.776L39.5919 26.12C39.8265 26.6107 40.1465 27 40.5519 27.288C40.9679 27.576 41.4265 27.72 41.9279 27.72C42.3545 27.72 42.7012 27.624 42.9679 27.432C43.2345 27.24 43.3679 26.9787 43.3679 26.648C43.3679 26.4347 43.3092 26.264 43.1919 26.136C43.0745 25.9973 42.9252 25.8853 42.7439 25.8C42.5732 25.7147 42.3972 25.6507 42.2159 25.608L40.8559 25.224C40.1092 25.0107 39.5492 24.6907 39.1759 24.264C38.8132 23.8267 38.6319 23.32 38.6319 22.744C38.6319 22.2213 38.7652 21.768 39.0319 21.384C39.2985 20.9893 39.6665 20.6853 40.1359 20.472C40.6052 20.2587 41.1332 20.152 41.7199 20.152C42.5092 20.152 43.2132 20.3493 43.8319 20.744C44.4505 21.128 44.8879 21.6667 45.1439 22.36L43.7519 23.016C43.5812 22.6 43.3092 22.2693 42.9359 22.024C42.5732 21.7787 42.1625 21.656 41.7039 21.656C41.3092 21.656 40.9945 21.752 40.7599 21.944C40.5252 22.1253 40.4079 22.3653 40.4079 22.664C40.4079 22.8667 40.4612 23.0373 40.5679 23.176C40.6745 23.304 40.8132 23.4107 40.9839 23.496C41.1545 23.5707 41.3305 23.6347 41.5119 23.688L42.9199 24.104C43.6345 24.3067 44.1839 24.6267 44.5679 25.064C44.9519 25.4907 45.1439 26.0027 45.1439 26.6C45.1439 27.112 45.0052 27.5653 44.7279 27.96C44.4612 28.344 44.0879 28.648 43.6079 28.872C43.1279 29.0853 42.5679 29.192 41.9279 29.192ZM46.9154 29V20.344H48.7234V29H46.9154ZM46.9154 19.16V17.08H48.7234V19.16H46.9154ZM55.0133 32.52C54.3839 32.52 53.8026 32.4187 53.2693 32.216C52.7359 32.0133 52.2773 31.7307 51.8932 31.368C51.5093 31.016 51.2213 30.6 51.0293 30.12L52.6933 29.432C52.8426 29.8373 53.1146 30.1733 53.5093 30.44C53.9146 30.7067 54.4106 30.84 54.9973 30.84C55.4559 30.84 55.8666 30.7493 56.2293 30.568C56.5919 30.3973 56.8799 30.1413 57.0933 29.8C57.3066 29.4693 57.4133 29.0693 57.4133 28.6V26.648L57.7333 27.016C57.4346 27.5707 57.0186 27.992 56.4853 28.28C55.9626 28.568 55.3706 28.712 54.7093 28.712C53.9093 28.712 53.1893 28.5253 52.5493 28.152C51.9093 27.7787 51.4026 27.2667 51.0293 26.616C50.6666 25.9653 50.4853 25.2347 50.4853 24.424C50.4853 23.6027 50.6666 22.872 51.0293 22.232C51.4026 21.592 51.9039 21.0853 52.5333 20.712C53.1626 20.3387 53.8826 20.152 54.6933 20.152C55.3546 20.152 55.9413 20.296 56.4533 20.584C56.9759 20.8613 57.4026 21.2667 57.7333 21.8L57.4933 22.248V20.344H59.2053V28.6C59.2053 29.3467 59.0239 30.0133 58.6613 30.6C58.3093 31.1973 57.8186 31.6667 57.1893 32.008C56.5599 32.3493 55.8346 32.52 55.0133 32.52ZM54.9173 27.032C55.3973 27.032 55.8239 26.92 56.1973 26.696C56.5706 26.4613 56.8639 26.152 57.0773 25.768C57.3013 25.3733 57.4133 24.9307 57.4133 24.44C57.4133 23.9493 57.3013 23.5067 57.0773 23.112C56.8533 22.7173 56.5546 22.408 56.1813 22.184C55.8079 21.9493 55.3866 21.832 54.9173 21.832C54.4266 21.832 53.9893 21.9493 53.6053 22.184C53.2213 22.408 52.9173 22.7173 52.6933 23.112C52.4799 23.496 52.3733 23.9387 52.3733 24.44C52.3733 24.92 52.4799 25.3573 52.6933 25.752C52.9173 26.1467 53.2213 26.4613 53.6053 26.696C53.9893 26.92 54.4266 27.032 54.9173 27.032ZM61.3216 29V20.344H63.0496V22.04L62.8416 21.816C63.055 21.272 63.3963 20.8613 63.8656 20.584C64.335 20.296 64.879 20.152 65.4976 20.152C66.1376 20.152 66.703 20.2907 67.1936 20.568C67.6843 20.8453 68.0683 21.2293 68.3456 21.72C68.623 22.2107 68.7616 22.776 68.7616 23.416V29H66.9696V23.896C66.9696 23.4587 66.8896 23.0907 66.7296 22.792C66.5696 22.4827 66.3403 22.248 66.0416 22.088C65.7536 21.9173 65.423 21.832 65.0496 21.832C64.6763 21.832 64.3403 21.9173 64.0416 22.088C63.7536 22.248 63.5296 22.4827 63.3696 22.792C63.2096 23.1013 63.1296 23.4693 63.1296 23.896V29H61.3216ZM77.1255 29.192C76.4215 29.192 75.8028 29.064 75.2695 28.808C74.7362 28.5413 74.3148 28.1733 74.0055 27.704C73.7068 27.224 73.5575 26.6693 73.5575 26.04C73.5575 25.5067 73.6535 25.0427 73.8455 24.648C74.0375 24.2427 74.2775 23.9013 74.5655 23.624C74.8535 23.336 75.1415 23.096 75.4295 22.904C75.7175 22.712 75.9575 22.5627 76.1495 22.456L77.1255 21.912C77.4455 21.7307 77.7495 21.5387 78.0375 21.336C78.3255 21.1333 78.5602 20.904 78.7415 20.648C78.9228 20.392 79.0135 20.104 79.0135 19.784C79.0135 19.4 78.8855 19.08 78.6295 18.824C78.3735 18.5573 78.0535 18.424 77.6695 18.424C77.2855 18.424 76.9655 18.552 76.7095 18.808C76.4535 19.064 76.3255 19.3947 76.3255 19.8C76.3255 20.0773 76.3895 20.3493 76.5175 20.616C76.6562 20.8827 76.8162 21.1333 76.9975 21.368C77.1895 21.592 77.3762 21.8053 77.5575 22.008L83.9575 29H81.7015L76.2135 23.096C75.9575 22.8187 75.7015 22.5253 75.4455 22.216C75.2002 21.896 74.9922 21.544 74.8215 21.16C74.6615 20.776 74.5815 20.3493 74.5815 19.88C74.5815 19.272 74.7202 18.744 74.9975 18.296C75.2855 17.848 75.6588 17.5013 76.1175 17.256C76.5868 17.0107 77.0988 16.888 77.6535 16.888C78.2188 16.888 78.7308 17.016 79.1895 17.272C79.6482 17.5173 80.0108 17.8587 80.2775 18.296C80.5548 18.7333 80.6935 19.2293 80.6935 19.784C80.6935 20.36 80.5602 20.856 80.2935 21.272C80.0268 21.688 79.7015 22.04 79.3175 22.328C78.9442 22.616 78.5922 22.8613 78.2615 23.064L77.2855 23.64C77.0295 23.7893 76.7575 23.976 76.4695 24.2C76.1922 24.4133 75.9575 24.6693 75.7655 24.968C75.5735 25.256 75.4775 25.6027 75.4775 26.008C75.4775 26.5093 75.6322 26.8987 75.9415 27.176C76.2615 27.4533 76.6775 27.592 77.1895 27.592C77.5202 27.592 77.8135 27.5387 78.0695 27.432C78.3255 27.3253 78.5495 27.1867 78.7415 27.016C78.9442 26.8453 79.1202 26.6587 79.2695 26.456C79.4295 26.2427 79.5735 26.0453 79.7015 25.864L81.5575 23.144H83.4935L81.3495 26.472C81.1788 26.728 80.9762 27.016 80.7415 27.336C80.5068 27.6453 80.2242 27.944 79.8935 28.232C79.5628 28.5093 79.1682 28.7387 78.7095 28.92C78.2615 29.1013 77.7335 29.192 77.1255 29.192ZM88.857 29V17.08H92.761C93.9983 17.08 95.0703 17.3307 95.977 17.832C96.8943 18.3227 97.6037 19.016 98.105 19.912C98.6063 20.808 98.857 21.848 98.857 23.032C98.857 24.2053 98.6063 25.2453 98.105 26.152C97.6037 27.048 96.8943 27.7467 95.977 28.248C95.0703 28.7493 93.9983 29 92.761 29H88.857ZM90.745 27.32H92.793C93.6357 27.32 94.3663 27.144 94.985 26.792C95.6143 26.44 96.0997 25.944 96.441 25.304C96.7823 24.664 96.953 23.9067 96.953 23.032C96.953 22.1573 96.777 21.4053 96.425 20.776C96.0837 20.136 95.6037 19.64 94.985 19.288C94.3663 18.936 93.6357 18.76 92.793 18.76H90.745V27.32ZM104.604 29.192C103.74 29.192 102.972 28.9947 102.3 28.6C101.639 28.1947 101.122 27.6507 100.748 26.968C100.375 26.2747 100.188 25.5013 100.188 24.648C100.188 23.7733 100.375 23 100.748 22.328C101.132 21.656 101.644 21.128 102.284 20.744C102.924 20.3493 103.65 20.152 104.46 20.152C105.111 20.152 105.692 20.264 106.204 20.488C106.716 20.712 107.148 21.0213 107.5 21.416C107.852 21.8 108.119 22.2427 108.3 22.744C108.492 23.2453 108.588 23.7787 108.588 24.344C108.588 24.4827 108.583 24.6267 108.572 24.776C108.562 24.9253 108.54 25.064 108.508 25.192H101.612V23.752H107.484L106.62 24.408C106.727 23.8853 106.69 23.4213 106.508 23.016C106.338 22.6 106.071 22.2747 105.708 22.04C105.356 21.7947 104.94 21.672 104.46 21.672C103.98 21.672 103.554 21.7947 103.18 22.04C102.807 22.2747 102.519 22.616 102.316 23.064C102.114 23.5013 102.034 24.0347 102.076 24.664C102.023 25.2507 102.103 25.7627 102.316 26.2C102.54 26.6373 102.85 26.9787 103.244 27.224C103.65 27.4693 104.108 27.592 104.62 27.592C105.143 27.592 105.586 27.4747 105.948 27.24C106.322 27.0053 106.615 26.7013 106.828 26.328L108.3 27.048C108.13 27.4533 107.863 27.8213 107.5 28.152C107.148 28.472 106.722 28.728 106.22 28.92C105.73 29.1013 105.191 29.192 104.604 29.192ZM112.709 29L109.317 20.344H111.285L113.893 27.4H113.173L115.781 20.344H117.765L114.357 29H112.709ZM122.901 29.192C122.037 29.192 121.269 28.9947 120.597 28.6C119.936 28.1947 119.419 27.6507 119.045 26.968C118.672 26.2747 118.485 25.5013 118.485 24.648C118.485 23.7733 118.672 23 119.045 22.328C119.429 21.656 119.941 21.128 120.581 20.744C121.221 20.3493 121.947 20.152 122.757 20.152C123.408 20.152 123.989 20.264 124.501 20.488C125.013 20.712 125.445 21.0213 125.797 21.416C126.149 21.8 126.416 22.2427 126.597 22.744C126.789 23.2453 126.885 23.7787 126.885 24.344C126.885 24.4827 126.88 24.6267 126.869 24.776C126.859 24.9253 126.837 25.064 126.805 25.192H119.909V23.752H125.781L124.917 24.408C125.024 23.8853 124.987 23.4213 124.805 23.016C124.635 22.6 124.368 22.2747 124.005 22.04C123.653 21.7947 123.237 21.672 122.757 21.672C122.277 21.672 121.851 21.7947 121.477 22.04C121.104 22.2747 120.816 22.616 120.613 23.064C120.411 23.5013 120.331 24.0347 120.373 24.664C120.32 25.2507 120.4 25.7627 120.613 26.2C120.837 26.6373 121.147 26.9787 121.541 27.224C121.947 27.4693 122.405 27.592 122.917 27.592C123.44 27.592 123.883 27.4747 124.245 27.24C124.619 27.0053 124.912 26.7013 125.125 26.328L126.597 27.048C126.427 27.4533 126.16 27.8213 125.797 28.152C125.445 28.472 125.019 28.728 124.517 28.92C124.027 29.1013 123.488 29.192 122.901 29.192ZM128.65 29V16.888H130.458V29H128.65ZM136.748 29.192C135.916 29.192 135.153 28.9947 134.46 28.6C133.777 28.2053 133.233 27.6667 132.828 26.984C132.422 26.3013 132.22 25.528 132.22 24.664C132.22 23.7893 132.422 23.016 132.828 22.344C133.233 21.6613 133.777 21.128 134.46 20.744C135.142 20.3493 135.905 20.152 136.748 20.152C137.601 20.152 138.364 20.3493 139.036 20.744C139.718 21.128 140.257 21.6613 140.652 22.344C141.057 23.016 141.26 23.7893 141.26 24.664C141.26 25.5387 141.057 26.3173 140.652 27C140.246 27.6827 139.702 28.2213 139.02 28.616C138.337 29 137.58 29.192 136.748 29.192ZM136.748 27.512C137.26 27.512 137.713 27.3893 138.108 27.144C138.502 26.8987 138.812 26.5627 139.036 26.136C139.27 25.6987 139.388 25.208 139.388 24.664C139.388 24.12 139.27 23.6347 139.036 23.208C138.812 22.7813 138.502 22.4453 138.108 22.2C137.713 21.9547 137.26 21.832 136.748 21.832C136.246 21.832 135.793 21.9547 135.388 22.2C134.993 22.4453 134.678 22.7813 134.444 23.208C134.22 23.6347 134.108 24.12 134.108 24.664C134.108 25.208 134.22 25.6987 134.444 26.136C134.678 26.5627 134.993 26.8987 135.388 27.144C135.793 27.3893 136.246 27.512 136.748 27.512ZM143.025 32.2V20.344H144.753V22.136L144.545 21.72C144.865 21.2293 145.291 20.8453 145.825 20.568C146.358 20.2907 146.966 20.152 147.649 20.152C148.47 20.152 149.206 20.3493 149.857 20.744C150.518 21.1387 151.035 21.6773 151.409 22.36C151.793 23.0427 151.985 23.8107 151.985 24.664C151.985 25.5173 151.793 26.2853 151.409 26.968C151.035 27.6507 150.523 28.1947 149.873 28.6C149.222 28.9947 148.481 29.192 147.649 29.192C146.977 29.192 146.363 29.0533 145.809 28.776C145.265 28.4987 144.843 28.0987 144.545 27.576L144.833 27.24V32.2H143.025ZM147.473 27.512C147.985 27.512 148.438 27.3893 148.833 27.144C149.227 26.8987 149.537 26.5627 149.761 26.136C149.995 25.6987 150.113 25.208 150.113 24.664C150.113 24.12 149.995 23.6347 149.761 23.208C149.537 22.7813 149.227 22.4453 148.833 22.2C148.438 21.9547 147.985 21.832 147.473 21.832C146.971 21.832 146.518 21.9547 146.113 22.2C145.718 22.4453 145.403 22.7813 145.169 23.208C144.945 23.6347 144.833 24.12 144.833 24.664C144.833 25.208 144.945 25.6987 145.169 26.136C145.403 26.5627 145.718 26.8987 146.113 27.144C146.518 27.3893 146.971 27.512 147.473 27.512ZM153.743 29V20.344H155.472V22.216L155.248 21.928C155.429 21.3413 155.76 20.8987 156.24 20.6C156.72 20.3013 157.269 20.152 157.888 20.152C158.581 20.152 159.194 20.3387 159.728 20.712C160.272 21.0747 160.634 21.56 160.816 22.168L160.304 22.216C160.56 21.5227 160.949 21.0053 161.472 20.664C162.005 20.3227 162.613 20.152 163.296 20.152C163.893 20.152 164.432 20.2907 164.912 20.568C165.402 20.8453 165.792 21.2293 166.08 21.72C166.368 22.2107 166.512 22.7707 166.512 23.4V29H164.704V23.896C164.704 23.4587 164.624 23.0907 164.464 22.792C164.314 22.4827 164.101 22.248 163.824 22.088C163.557 21.9173 163.242 21.832 162.88 21.832C162.517 21.832 162.197 21.9173 161.92 22.088C161.642 22.248 161.424 22.4827 161.264 22.792C161.104 23.1013 161.024 23.4693 161.024 23.896V29H159.232V23.896C159.232 23.4587 159.152 23.0907 158.992 22.792C158.842 22.4827 158.629 22.248 158.352 22.088C158.085 21.9173 157.765 21.832 157.391 21.832C157.029 21.832 156.709 21.9173 156.432 22.088C156.154 22.248 155.936 22.4827 155.776 22.792C155.626 23.1013 155.552 23.4693 155.552 23.896V29H153.743ZM172.511 29.192C171.647 29.192 170.879 28.9947 170.207 28.6C169.545 28.1947 169.028 27.6507 168.655 26.968C168.281 26.2747 168.095 25.5013 168.095 24.648C168.095 23.7733 168.281 23 168.655 22.328C169.039 21.656 169.551 21.128 170.191 20.744C170.831 20.3493 171.556 20.152 172.367 20.152C173.017 20.152 173.599 20.264 174.111 20.488C174.623 20.712 175.055 21.0213 175.407 21.416C175.759 21.8 176.025 22.2427 176.207 22.744C176.399 23.2453 176.495 23.7787 176.495 24.344C176.495 24.4827 176.489 24.6267 176.479 24.776C176.468 24.9253 176.447 25.064 176.415 25.192H169.519V23.752H175.391L174.527 24.408C174.633 23.8853 174.596 23.4213 174.415 23.016C174.244 22.6 173.977 22.2747 173.615 22.04C173.263 21.7947 172.847 21.672 172.367 21.672C171.887 21.672 171.46 21.7947 171.087 22.04C170.713 22.2747 170.425 22.616 170.223 23.064C170.02 23.5013 169.94 24.0347 169.983 24.664C169.929 25.2507 170.009 25.7627 170.223 26.2C170.447 26.6373 170.756 26.9787 171.151 27.224C171.556 27.4693 172.015 27.592 172.527 27.592C173.049 27.592 173.492 27.4747 173.855 27.24C174.228 27.0053 174.521 26.7013 174.735 26.328L176.207 27.048C176.036 27.4533 175.769 27.8213 175.407 28.152C175.055 28.472 174.628 28.728 174.127 28.92C173.636 29.1013 173.097 29.192 172.511 29.192ZM178.259 29V20.344H179.987V22.04L179.779 21.816C179.992 21.272 180.334 20.8613 180.803 20.584C181.272 20.296 181.816 20.152 182.435 20.152C183.075 20.152 183.64 20.2907 184.131 20.568C184.622 20.8453 185.006 21.2293 185.283 21.72C185.56 22.2107 185.699 22.776 185.699 23.416V29H183.907V23.896C183.907 23.4587 183.827 23.0907 183.667 22.792C183.507 22.4827 183.278 22.248 182.979 22.088C182.691 21.9173 182.36 21.832 181.987 21.832C181.614 21.832 181.278 21.9173 180.979 22.088C180.691 22.248 180.467 22.4827 180.307 22.792C180.147 23.1013 180.067 23.4693 180.067 23.896V29H178.259ZM191.378 29.096C190.471 29.096 189.767 28.84 189.266 28.328C188.765 27.816 188.514 27.096 188.514 26.168V21.976H186.994V20.344H187.234C187.639 20.344 187.954 20.2267 188.178 19.992C188.402 19.7573 188.514 19.4373 188.514 19.032V18.36H190.322V20.344H192.29V21.976H190.322V26.088C190.322 26.3867 190.37 26.6427 190.466 26.856C190.562 27.0587 190.717 27.2187 190.93 27.336C191.143 27.4427 191.421 27.496 191.762 27.496C191.847 27.496 191.943 27.4907 192.05 27.48C192.157 27.4693 192.258 27.4587 192.354 27.448V29C192.205 29.0213 192.039 29.0427 191.858 29.064C191.677 29.0853 191.517 29.096 191.378 29.096Z" fill="white"/>
</svg>
