<svg width="20" height="21" viewBox="0 0 20 21" fill="none" xmlns="http://www.w3.org/2000/svg">
<path d="M18.3332 6.44922V14.7826C18.3332 15.3351 18.1137 15.865 17.723 16.2557C17.3323 16.6464 16.8024 16.8659 16.2498 16.8659H3.74984C3.1973 16.8659 2.6674 16.6464 2.2767 16.2557C1.886 15.865 1.6665 15.3351 1.6665 14.7826V6.44922" stroke="white" stroke-width="1.4" stroke-linecap="round" stroke-linejoin="round"/>
<path d="M18.3332 6.44857C18.3332 5.89603 18.1137 5.36613 17.723 4.97543C17.3323 4.58473 16.8024 4.36523 16.2498 4.36523H3.74984C3.1973 4.36523 2.6674 4.58473 2.2767 4.97543C1.886 5.36613 1.6665 5.89603 1.6665 6.44857L8.89567 10.9625C9.22678 11.1694 9.60938 11.2791 9.99984 11.2791C10.3903 11.2791 10.7729 11.1694 11.104 10.9625L18.3332 6.44857Z" stroke="white" stroke-width="1.4" stroke-linecap="round" stroke-linejoin="round"/>
</svg>
