<svg width="44" height="44" viewBox="0 0 44 44" fill="none" xmlns="http://www.w3.org/2000/svg">
<rect width="44" height="44" rx="22" fill="white" fill-opacity="0.1"/>
<path d="M30.3307 17.9492V26.2826C30.3307 26.8351 30.1112 27.365 29.7205 27.7557C29.3298 28.1464 28.7999 28.3659 28.2474 28.3659H15.7474C15.1949 28.3659 14.665 28.1464 14.2743 27.7557C13.8836 27.365 13.6641 26.8351 13.6641 26.2826V17.9492" stroke="white" stroke-width="1.4" stroke-linecap="round" stroke-linejoin="round"/>
<path d="M30.3307 17.9486C30.3307 17.396 30.1112 16.8661 29.7205 16.4754C29.3298 16.0847 28.7999 15.8652 28.2474 15.8652H15.7474C15.1949 15.8652 14.665 16.0847 14.2743 16.4754C13.8836 16.8661 13.6641 17.396 13.6641 17.9486L20.8932 22.4625C21.2243 22.6694 21.6069 22.7791 21.9974 22.7791C22.3879 22.7791 22.7705 22.6694 23.1016 22.4625L30.3307 17.9486Z" stroke="white" stroke-width="1.4" stroke-linecap="round" stroke-linejoin="round"/>
</svg>
