<svg width="48" height="48" viewBox="0 0 48 48" fill="none" xmlns="http://www.w3.org/2000/svg">
<path d="M37.4719 3.54375C37.2656 3.77812 37.275 4.24687 37.4813 4.43437C37.6125 4.54688 38.0531 4.64062 39.0844 4.75312C40.2094 4.875 40.4813 4.93125 40.3875 5.025C40.3219 5.08125 35.5031 8.89687 29.6719 13.5C23.85 18.1031 18.8531 22.0594 18.5906 22.2844C18.1781 22.6312 18.0938 22.7531 18.0938 23.0062C18.0938 23.3812 18.3375 23.625 18.7125 23.625C18.9281 23.625 21.1594 21.9 30.1313 14.8031C36.2625 9.95625 41.2875 6.00937 41.3156 6.0375C41.3344 6.05625 41.2875 6.69375 41.2031 7.44375C41.0531 8.70937 41.0531 8.83125 41.1938 9.04687C41.3156 9.23437 41.4281 9.28125 41.7094 9.28125C41.925 9.28125 42.1219 9.225 42.1969 9.13125C42.3563 8.93437 42.8625 4.45312 42.75 4.17188C42.7031 4.05937 42.5906 3.92812 42.4969 3.89062C42.3 3.81562 38.4656 3.38437 37.9594 3.375C37.7531 3.375 37.5656 3.44062 37.4719 3.54375Z" fill="#D0FF2A"/>
<path d="M6.39317 11.0181C3.93692 11.5806 2.1838 13.2119 1.7338 15.3587C1.57442 16.1087 1.55567 17.0181 1.6963 17.7775C1.81817 18.49 2.4088 19.6994 2.91505 20.2994C3.56192 21.0681 3.6838 21.4431 3.74942 22.8306C3.80567 24.0962 3.92755 24.5087 4.29317 24.7712C4.42442 24.8556 4.48067 25.0525 4.51817 25.465C4.5838 26.1494 4.79005 26.5806 5.21192 26.9369C5.39005 27.0869 5.53067 27.2744 5.53067 27.3681C5.53067 27.6587 6.09317 28.39 6.54317 28.6806C7.9588 29.5806 9.9838 29.1212 10.6963 27.7337C10.79 27.5369 10.8744 27.3306 10.8744 27.265C10.8744 27.1994 11.0244 27.0212 11.2119 26.8712C11.6338 26.5431 11.8119 26.1212 11.8119 25.4931C11.8119 25.0712 11.8588 24.9587 12.1307 24.6494C12.4963 24.2462 12.5338 24.0869 12.59 22.6712C12.6369 21.5462 12.7869 21.1337 13.3682 20.4587C14.3338 19.3244 14.765 18.1712 14.7557 16.69C14.7463 13.9712 13.2557 12.0587 10.4525 11.1587C9.6088 10.8869 7.3213 10.8119 6.39317 11.0181ZM9.84317 12.3306C10.715 12.565 11.6619 13.09 12.215 13.6525C13.7619 15.19 13.9213 17.5994 12.5994 19.2962C11.5119 20.6837 11.3432 21.1244 11.3432 22.6056C11.3432 24.0869 11.5307 24.0025 8.21193 24.0025C6.28067 24.0025 5.51192 23.965 5.34317 23.8806C5.11817 23.7681 5.1088 23.7119 5.0338 22.5681C4.94005 21.0869 4.78067 20.6275 4.00255 19.5681C3.07442 18.34 2.95255 17.9837 2.95255 16.6431C2.95255 15.5744 2.9713 15.49 3.25255 14.89C3.91817 13.4837 5.2963 12.5181 7.10567 12.19C7.6963 12.0775 9.20567 12.1525 9.84317 12.3306ZM10.5932 25.39C10.5932 25.4837 10.5275 25.6525 10.4432 25.765C10.3026 25.9712 10.265 25.9712 8.15567 25.9712C6.13067 25.9712 5.99942 25.9619 5.90567 25.7931C5.8588 25.69 5.81192 25.5212 5.81192 25.4181C5.81192 25.2212 5.84942 25.2212 8.20255 25.2212C10.4338 25.2212 10.5932 25.2306 10.5932 25.39ZM9.2713 27.4337C8.8213 27.9775 7.48067 27.9681 7.0213 27.415C6.92755 27.3025 7.0963 27.2837 8.15567 27.2837C9.2713 27.2837 9.3838 27.3025 9.2713 27.4337Z" fill="#D0FF2A"/>
<path d="M36.7123 14.082C36.5811 14.2695 36.5623 15.8258 36.5623 28.8477V43.407H34.6873H32.8123V34.182V24.9477L32.5686 24.7602C32.3248 24.5727 32.2123 24.5633 29.3436 24.5633C26.4748 24.5633 26.3623 24.5727 26.1186 24.7602L25.8748 24.9477V34.182V43.407H23.9998H22.1248V36.9102C22.1248 31.182 22.1061 30.3945 21.9748 30.207C21.8342 30.0008 21.8342 30.0008 18.6655 30.0008C15.7123 30.0008 15.4873 30.0102 15.3467 30.1695C15.1967 30.3289 15.1873 30.9289 15.1873 36.8727V43.407H13.3123H11.4373V37.9695C11.4373 32.6539 11.4373 32.532 11.2498 32.3445C11.0717 32.1664 10.9405 32.157 7.94046 32.157C5.02484 32.157 4.79984 32.1664 4.65921 32.3258C4.51859 32.4852 4.49984 33.0102 4.49984 37.9508V43.407H3.14984C1.72484 43.407 1.59359 43.4445 1.45296 43.8758C1.39671 44.0633 1.53734 44.4289 1.72484 44.5508C1.85609 44.6445 46.1436 44.6445 46.2748 44.5508C46.4623 44.4289 46.603 44.0633 46.5467 43.8758C46.4061 43.4445 46.2748 43.407 44.8498 43.407H43.4998V28.8008C43.4998 14.757 43.4905 14.1758 43.3311 14.0352C43.1717 13.8945 42.8061 13.8758 40.003 13.8758C36.853 13.8758 36.853 13.8758 36.7123 14.082ZM42.2811 29.2508V43.407H40.078H37.8748V29.2508V15.0945H40.078H42.2811V29.2508ZM31.4998 34.6414V43.407H29.3436H27.1873V34.6414V25.8758H29.3436H31.4998V34.6414ZM20.8123 37.3133V43.407H18.6561H16.4998V37.3133V31.2195H18.6561H20.8123V37.3133ZM10.1248 38.3914V43.407H7.92171H5.71859V38.3914V33.3758H7.92171H10.1248V38.3914Z" fill="#D0FF2A"/>
</svg>
