<svg width="48" height="52" viewBox="0 0 48 52" fill="none" xmlns="http://www.w3.org/2000/svg">
<g clip-path="url(#clip0_2140_1732)">
<path d="M23.0719 0.242402C22.8844 0.486151 22.875 0.598651 22.875 3.51428C22.875 6.4299 22.8844 6.5424 23.0719 6.78615C23.3156 7.08615 23.8594 7.12365 24.1969 6.85178L24.4219 6.67365V3.51428V0.354901L24.1969 0.176776C23.8594 -0.0950985 23.3156 -0.0575986 23.0719 0.242402Z" fill="#D0FF2A"/>
<path d="M34.8375 3.11069C34.4531 3.46695 31.7812 8.19195 31.7812 8.52945C31.7812 9.12007 32.4844 9.47632 32.9625 9.13882C33.075 9.06382 33.375 8.63257 33.6375 8.18257C33.8906 7.73257 34.5563 6.57944 35.1 5.63257C35.7281 4.53569 36.0938 3.79507 36.0938 3.63569C36.0938 3.01694 35.3063 2.68882 34.8375 3.11069Z" fill="#D0FF2A"/>
<path d="M11.5315 3.46906C11.1378 3.86281 11.2409 4.15343 12.7596 6.77843C13.5378 8.12843 14.2503 9.30968 14.344 9.40343C14.6065 9.67531 15.1784 9.63781 15.4409 9.32843C15.694 9.03781 15.7128 8.81281 15.5065 8.40968C15.094 7.61281 12.7878 3.67531 12.6284 3.48781C12.3753 3.21593 11.794 3.20656 11.5315 3.46906Z" fill="#D0FF2A"/>
<path d="M43.6781 11.3236C43.6031 11.3611 42.4125 12.0361 41.0438 12.833C38.5688 14.258 38.3438 14.4361 38.3438 14.8955C38.3438 14.9892 38.4281 15.1767 38.5406 15.3174C38.925 15.8049 39.1969 15.7111 41.925 14.1455C43.2844 13.3674 44.4656 12.6455 44.5594 12.5424C44.8594 12.1861 44.7563 11.6049 44.3344 11.3892C44.0531 11.2392 43.9125 11.2299 43.6781 11.3236Z" fill="#D0FF2A"/>
<path d="M3.14043 12.1406C2.85918 12.4125 2.83106 12.8344 3.07481 13.1062C3.34668 13.4344 8.25918 16.2188 8.55918 16.2188C9.17793 16.2188 9.52481 15.3469 9.07481 14.9344C8.95293 14.8219 7.75293 14.1 6.41231 13.3219C3.75918 11.7937 3.55293 11.7188 3.14043 12.1406Z" fill="#D0FF2A"/>
<path d="M23.2221 12.75C22.6971 12.8906 22.1721 13.1812 21.7502 13.5844L21.3658 13.95L21.0939 13.725C20.5502 13.2656 19.9877 13.0781 19.1252 13.0781C18.4127 13.0781 18.2627 13.1062 17.7002 13.3875C16.9502 13.7531 16.3971 14.3438 16.1252 15.0562C15.9752 15.4594 15.9377 15.7969 15.9377 16.6406V17.7187H14.8127C13.9127 17.7187 13.5939 17.7562 13.1814 17.9156C12.4596 18.1781 11.7939 18.8156 11.4189 19.575L11.1096 20.2031L11.0814 25.575C11.0533 31.5375 11.0533 31.5375 11.6439 32.3719C11.8127 32.6156 12.7783 33.4969 13.7814 34.3406C14.7939 35.1844 15.6752 36 15.7502 36.15C15.8721 36.375 15.9002 37.35 15.9377 42.075C15.9846 47.5406 15.9939 47.7375 16.1627 47.8687C16.2658 47.9437 16.5189 48 16.7252 48C16.9408 48 20.9252 47.325 25.5939 46.5094C33.7877 45.0656 34.0877 45.0094 34.2846 44.7656C34.4814 44.5406 34.5002 44.4281 34.5096 43.3312C34.5096 42.675 34.5471 40.6875 34.5752 38.9062C34.6502 35.1937 34.5189 35.7 35.7658 34.1625C37.0033 32.6437 36.8908 33.6094 36.8908 24.1406V15.9844L36.6283 15.45C35.7846 13.7344 33.6846 13.1156 32.0533 14.0906L31.5564 14.3906L31.1533 13.9594C30.5439 13.3125 29.7752 12.9937 28.8283 12.9937C28.0127 12.9937 27.4877 13.1625 26.8596 13.6406L26.5314 13.8937L26.0627 13.4719C25.8002 13.2375 25.3971 12.975 25.1439 12.8906C24.5908 12.7031 23.6908 12.6375 23.2221 12.75ZM24.7502 14.4375C25.2283 14.6812 25.4814 15.0562 25.6033 15.7031C25.6596 16.0312 25.6877 17.55 25.6689 19.6687C25.6408 23.025 25.6314 23.1187 25.4346 23.5031C24.7971 24.6937 23.0533 24.6375 22.4908 23.4C22.2471 22.8656 22.2658 22.7344 22.6314 22.5C23.1283 22.2 23.9252 21.2812 24.2064 20.7C24.5439 20.0156 24.7502 19.2094 24.7502 18.6094C24.7408 17.8031 24.4502 17.625 23.1471 17.625H22.3127V16.6406C22.3127 15.5812 22.4252 15.15 22.8096 14.7281C23.2689 14.2406 24.1033 14.1094 24.7502 14.4375ZM29.6721 14.7469C29.8971 14.8781 30.1408 15.1219 30.2814 15.375L30.5158 15.7969V19.5937C30.5158 23.1281 30.5064 23.4187 30.3377 23.7469C30.0564 24.3187 29.6158 24.6 28.9314 24.6375C28.2658 24.675 27.9377 24.5156 27.5064 23.9437L27.2346 23.5969L27.2064 19.8375C27.1783 15.825 27.1971 15.6 27.6283 15.0844C28.1158 14.5031 28.9877 14.3625 29.6721 14.7469ZM19.8752 14.8125C20.5408 15.15 20.8127 15.8156 20.8127 17.1187V17.7187H19.1252H17.4377V16.875C17.4377 15.9656 17.5689 15.5062 17.9346 15.1031C18.3939 14.6156 19.2283 14.4844 19.8752 14.8125ZM34.5377 15.4125C34.7627 15.5437 35.0252 15.8062 35.1564 16.05L35.3908 16.4531L35.4189 19.5187C35.4564 23.1 35.4096 23.4844 34.8846 24.0094C34.2377 24.6656 33.3564 24.6844 32.6533 24.0656C32.0721 23.55 32.0627 23.5125 32.0627 19.875C32.0627 16.35 32.0814 16.1906 32.5596 15.6656C33.0377 15.15 33.9002 15.0375 34.5377 15.4125ZM23.0627 19.4531C22.7533 20.2594 22.3502 20.7937 21.7221 21.2156C20.8783 21.7875 20.5314 21.8437 17.7096 21.8437C15.2252 21.8437 15.1971 21.8437 14.9533 22.0594C14.7658 22.2187 14.7002 22.3594 14.7002 22.6219C14.7002 23.1094 14.9252 23.325 15.4783 23.4L15.9377 23.4656V25.1437C15.9377 26.0719 15.9752 26.9062 16.0314 27C16.2471 27.4031 17.1283 27.4031 17.3439 27C17.4002 26.9062 17.4377 26.0625 17.4377 25.1344V23.4375H18.4033C18.9377 23.4375 19.6971 23.4094 20.0908 23.3812C20.7471 23.325 20.8127 23.3344 20.8596 23.4937C21.0096 24 21.5252 24.8719 21.8252 25.1344C22.9408 26.1094 24.7127 26.2031 25.8377 25.35C26.0627 25.1719 26.2689 25.0312 26.2877 25.0312C26.3064 25.0312 26.4752 25.1719 26.6533 25.35C27.8346 26.4656 29.7377 26.5125 30.9096 25.4625L31.3596 25.05L31.6408 25.2844C31.8002 25.4156 32.1564 25.6312 32.4377 25.7625C33.1221 26.1 34.3033 26.1187 34.9971 25.8094L35.4377 25.6031V28.5C35.4377 30.1594 35.4002 31.5938 35.3439 31.8562C35.2596 32.2125 35.0721 32.5125 34.4439 33.2906C33.4971 34.4344 33.1783 35.0437 33.1221 35.85C33.0939 36.1594 33.0471 38.0437 33.0189 40.0312L32.9533 43.6312L25.3596 44.9719C21.1877 45.7031 17.6908 46.3031 17.6064 46.3125C17.4471 46.3125 17.4377 46.0125 17.4377 41.2969C17.4377 35.85 17.4377 35.8594 16.9033 35.0437C16.7627 34.8469 15.8252 33.9844 14.8033 33.1219C13.6408 32.1469 12.8908 31.4531 12.8064 31.2656C12.6752 30.9937 12.6564 30.2625 12.6564 25.8C12.6564 22.3781 12.6939 20.55 12.7596 20.3719C12.9002 19.9969 13.2939 19.6031 13.7346 19.3969C14.0814 19.2375 14.4283 19.2187 18.6283 19.2187H23.1564L23.0627 19.4531Z" fill="#D0FF2A"/>
<path d="M41.2685 22.9406C41.0622 23.025 40.856 23.5313 40.9216 23.8219C41.0435 24.3656 41.081 24.375 44.4841 24.375H47.5966L47.7935 24.1594C48.0747 23.8594 48.0653 23.3438 47.7841 23.0813C47.5685 22.875 47.5216 22.875 44.4747 22.8844C42.7778 22.8844 41.3341 22.9125 41.2685 22.9406Z" fill="#D0FF2A"/>
<path d="M0.403293 23.625C-0.0185816 23.7937 -0.140457 24.4688 0.178293 24.8531L0.356418 25.0781H3.51579H6.67517L6.90017 24.8156C7.24704 24.4125 7.14392 23.8406 6.68454 23.6344C6.41267 23.5125 0.712668 23.5031 0.403293 23.625Z" fill="#D0FF2A"/>
<path d="M38.9248 31.9969C38.6717 32.2594 38.653 32.7188 38.8873 32.9813C39.0936 33.225 44.053 36.0938 44.2686 36.0938C44.7092 36.0938 45.0936 35.7 45.0936 35.2406C45.0936 34.9031 44.6248 34.5656 42.178 33.1594C39.5811 31.6688 39.3186 31.575 38.9248 31.9969Z" fill="#D0FF2A"/>
<path d="M6.13132 33.7781C4.78132 34.5656 3.59069 35.2875 3.47819 35.3813C3.03757 35.7844 3.39382 36.6562 4.01257 36.6562C4.18132 36.6562 5.15632 36.15 6.79694 35.1938C8.19382 34.3969 9.39382 33.675 9.46882 33.6C9.69382 33.375 9.64694 32.7281 9.38444 32.5219C8.96257 32.1844 8.70944 32.2781 6.13132 33.7781Z" fill="#D0FF2A"/>
</g>
<line y1="51.5" x2="48" y2="51.5" stroke="#ABC452"/>
<defs>
<clipPath id="clip0_2140_1732">
<rect width="48" height="48" fill="white"/>
</clipPath>
</defs>
</svg>
