<svg width="48" height="52" viewBox="0 0 48 52" fill="none" xmlns="http://www.w3.org/2000/svg">
<path d="M17.9054 3.19687C15.4117 3.83437 13.4242 5.78437 12.8804 8.10937C12.6836 8.9625 12.7398 10.8844 12.9742 11.5781C13.8179 13.9781 15.7211 16.1625 18.9273 18.3562C20.5398 19.4719 23.5492 21.0938 23.9992 21.0938C24.4492 21.0938 26.9523 19.7531 28.8273 18.5062C32.0523 16.3594 34.1054 14.1094 34.9398 11.8125C35.1742 11.1656 35.1929 10.9969 35.1929 9.65625C35.2023 8.37187 35.1742 8.12812 34.9867 7.59375C34.2836 5.60625 32.5961 3.99375 30.5148 3.30937C29.6054 3.01875 27.8992 2.90625 26.9711 3.09375C26.1929 3.24375 25.1617 3.675 24.5242 4.125L23.9992 4.5L23.5492 4.18125C22.8836 3.7125 22.1898 3.38437 21.3929 3.17812C20.4367 2.93437 18.8711 2.94375 17.9054 3.19687ZM21.3367 4.875C21.9273 5.07187 22.6961 5.52187 23.3898 6.09375C23.8961 6.49687 24.1961 6.44062 25.0586 5.78437C25.8742 5.15625 26.3523 4.92188 27.1211 4.725C29.4461 4.125 32.0711 5.30625 33.1211 7.41562C33.5617 8.325 33.6836 8.925 33.6367 10.0219C33.6086 10.7625 33.5429 11.0437 33.3086 11.5875C32.3148 13.9312 29.2304 16.65 25.0961 18.8438L24.0086 19.4156L23.4179 19.1156C20.9054 17.85 18.6367 16.2844 16.9492 14.6437C15.8242 13.5562 15.1117 12.5812 14.6898 11.5875C14.3148 10.7344 14.2304 9.34687 14.4836 8.475C14.9898 6.74062 16.3398 5.33437 18.0461 4.78125C18.9461 4.48125 20.2773 4.52812 21.3367 4.875Z" fill="#D0FF2A"/>
<path d="M10.0777 8.24218C9.65587 8.4953 8.09962 10.1453 7.33087 11.1391C5.09962 14.0359 3.60899 17.6078 3.14962 21.1891C2.96212 22.6141 2.95274 25.3891 3.13087 26.7203C3.29024 27.8922 3.61837 29.4391 3.81524 29.9266C4.05899 30.5453 4.93087 30.6391 5.24024 30.0766C5.36212 29.8609 5.37149 29.7484 5.25899 29.2797C4.67774 26.6453 4.67774 26.6078 4.62149 24.6391C4.56524 22.5109 4.64962 21.5266 5.02462 19.8203C5.82149 16.2203 7.61212 12.9672 10.3027 10.2391C11.2027 9.32968 11.3434 9.14218 11.3434 8.87968C11.334 8.54218 11.2121 8.33593 10.9027 8.17655C10.6215 8.01718 10.4059 8.03593 10.0777 8.24218Z" fill="#D0FF2A"/>
<path d="M37.0781 8.17453C36.7875 8.34328 36.6656 8.54953 36.6562 8.88703C36.6562 9.15891 36.7781 9.31828 37.5937 10.1339C40.3969 12.9558 42.1594 16.1339 42.975 19.8183C43.35 21.5245 43.4344 22.5089 43.3781 24.637C43.3219 26.6058 43.3219 26.6433 42.7406 29.2777C42.6281 29.7464 42.6375 29.8589 42.7594 30.0745C43.0312 30.5714 43.7156 30.5808 44.0719 30.0933C44.2875 29.8027 44.6719 28.1714 44.8687 26.6714C45.0656 25.2183 45.0094 21.862 44.7656 20.5308C43.9687 16.1152 42.1219 12.487 39.0656 9.30891C37.8844 8.09016 37.5562 7.90266 37.0781 8.17453Z" fill="#D0FF2A"/>
<path d="M22.5933 24.8062C21.5808 25.0687 20.7183 25.575 19.9589 26.3438C19.1058 27.2062 18.6558 28.0406 18.412 29.2406C18.037 31.1437 18.7214 33.225 20.1745 34.5375C20.6714 34.9875 20.7183 35.0625 20.5589 35.1375C20.4652 35.1844 19.5933 35.4844 18.6089 35.8125C16.4058 36.5344 15.9089 36.7969 15.1589 37.5844C14.0527 38.7656 13.7527 39.7781 13.7995 42.15C13.8277 43.6406 13.8277 43.6594 14.1089 44.1094C14.2964 44.4094 14.5308 44.6344 14.8027 44.7844L15.2152 45H23.9714C31.0964 45 32.7839 44.9719 33.0277 44.8781C33.5339 44.6625 34.0027 44.0625 34.1245 43.4344C34.3027 42.6094 34.1902 40.2562 33.9464 39.4594C33.5995 38.3531 32.7652 37.3031 31.762 36.7125C31.5183 36.5719 30.4495 36.1687 29.3714 35.8125C28.3027 35.4469 27.3652 35.1375 27.2902 35.1094C27.2058 35.0719 27.3089 34.95 27.5902 34.7344C28.4433 34.0875 29.2683 32.7562 29.5402 31.5937C29.6995 30.8719 29.6808 29.5969 29.4839 28.875C28.9683 26.8875 27.3652 25.3031 25.3589 24.7969C24.6652 24.6187 23.2777 24.6281 22.5933 24.8062ZM25.6308 26.6062C27.1495 27.3187 28.0495 28.7062 28.0495 30.3281C28.0402 33.3187 24.9089 35.3062 22.2652 33.9937C18.9277 32.3437 19.2183 27.6937 22.7339 26.4375C23.5777 26.1469 24.787 26.2125 25.6308 26.6062ZM24.8995 36.1031C25.5839 36.225 30.1683 37.725 30.7777 38.0344C31.4058 38.3437 31.9402 38.9156 32.2777 39.6281C32.5402 40.2094 32.5589 40.3312 32.6058 41.625C32.6339 42.5719 32.6152 43.0594 32.5402 43.2L32.4277 43.4062H24.0183C17.5964 43.4062 15.5714 43.3781 15.487 43.2937C15.412 43.2187 15.3745 42.7687 15.3745 41.8969C15.3745 40.3594 15.5527 39.6375 16.1152 38.925C16.687 38.2031 17.1745 37.9687 19.987 37.0312C23.2027 35.9719 23.6714 35.8781 24.8995 36.1031Z" fill="#D0FF2A"/>
<path d="M10.181 26.5875C7.87479 27.1406 6.31854 29.4563 6.64667 31.8188C6.77792 32.7656 7.22792 33.7313 7.88417 34.4438C8.21229 34.8 8.32479 34.9781 8.23104 35.0156C8.16542 35.0344 7.48104 35.2781 6.70292 35.5406C5.93417 35.7938 5.09979 36.1406 4.85604 36.2906C4.22792 36.6938 3.68417 37.3219 3.34667 38.0438C3.05604 38.6625 3.04667 38.7 3.01854 40.2469C2.99979 41.1188 3.00917 41.9344 3.03729 42.0563C3.12167 42.375 3.64667 42.9469 4.00292 43.0875C4.23729 43.1906 5.12792 43.2188 8.10917 43.2188H11.9154L12.1404 42.9844C12.3748 42.7594 12.4404 42.375 12.3185 42.0469C12.1592 41.6531 11.906 41.625 8.16542 41.625H4.59354L4.53729 41.3813C4.43417 40.9875 4.56542 39.2438 4.72479 38.8688C5.13729 37.875 5.53104 37.6406 8.24042 36.7313C10.4154 36.0094 10.5935 35.9719 11.3435 35.9719C11.9435 35.9719 12.3185 36.0375 12.8904 36.2156C13.9967 36.5813 14.3435 36.5531 14.5873 36.075C14.7467 35.7656 14.6998 35.4 14.4654 35.1375C14.3342 34.9875 14.3529 34.9313 14.756 34.4906C15.656 33.4875 16.0498 32.475 16.0498 31.1719C16.0498 28.0781 13.2092 25.8563 10.181 26.5875ZM12.7029 28.3969C13.7623 28.9219 14.3529 29.8219 14.4185 31.0219C14.4748 32.0156 14.2217 32.6719 13.5092 33.3844C12.0092 34.8844 9.61854 34.5094 8.57792 32.6156C8.23104 31.9781 8.14667 30.9188 8.38104 30.225C8.99979 28.3969 10.9967 27.5531 12.7029 28.3969Z" fill="#D0FF2A"/>
<path d="M35.6711 26.55C34.5367 26.7656 33.3555 27.5813 32.6711 28.6219C31.6773 30.1406 31.6961 32.2969 32.718 33.825C32.9336 34.1344 33.243 34.5188 33.4117 34.6688L33.7211 34.9406L33.4961 35.1938C33.2148 35.5313 33.2148 35.9438 33.5148 36.2344C33.7961 36.5156 34.1242 36.5344 34.8555 36.2906C35.1461 36.1875 35.7273 36.0656 36.1398 36.0094C36.8242 35.9156 36.9648 35.925 37.8273 36.1406C39.168 36.4688 41.9805 37.4625 42.393 37.7438C42.7586 38.0063 43.143 38.5031 43.3117 38.9531C43.443 39.2906 43.5461 41.0344 43.4617 41.3719L43.4055 41.6156L39.693 41.6438L35.9805 41.6719L35.8023 41.8969C35.5492 42.2063 35.568 42.7594 35.8398 43.0125C36.0555 43.2188 36.0836 43.2188 39.8711 43.2188C42.8711 43.2188 43.7617 43.1906 43.9961 43.0875C44.3523 42.9469 44.8773 42.375 44.9617 42.0563C44.9898 41.9344 44.9992 41.1188 44.9805 40.2469C44.9523 38.7 44.943 38.6625 44.6523 38.0438C44.3148 37.3219 43.7711 36.6938 43.143 36.2906C42.8992 36.1406 42.0742 35.7938 41.2961 35.5406C40.5273 35.2781 39.8336 35.0344 39.768 35.0156C39.6742 34.9781 39.7867 34.8 40.1148 34.4438C41.1555 33.3094 41.6055 31.7625 41.3055 30.3188C41.1086 29.325 40.6961 28.5281 40.0492 27.8719C38.9148 26.7281 37.3117 26.2406 35.6711 26.55ZM37.8273 28.3031C38.5211 28.6125 39.0273 29.0719 39.3742 29.7281C39.8055 30.5344 39.8711 31.4719 39.5523 32.2969C39.1117 33.4688 37.9023 34.3125 36.6555 34.3125C34.968 34.3125 33.5523 32.8875 33.5617 31.1906C33.5805 28.9688 35.8492 27.4313 37.8273 28.3031Z" fill="#D0FF2A"/>
<line y1="51.5" x2="48" y2="51.5" stroke="#ABC452"/>
</svg>
