<svg width="338" height="56" viewBox="0 0 338 56" fill="none" xmlns="http://www.w3.org/2000/svg">
<rect x="0.5" width="337" height="56" rx="28" fill="white" fill-opacity="0.08"/>
<rect x="1" y="0.5" width="336" height="55" rx="27.5" stroke="white" stroke-opacity="0.12"/>
<rect x="16.5" y="12" width="32" height="32" rx="16" fill="#FCE803"/>
<path d="M32.2318 18.3749C31.8643 18.5271 31.5348 18.8566 30.8759 19.5155C30.2171 20.1743 29.8875 20.504 29.7352 20.8714C29.5323 21.3615 29.5323 21.9122 29.7352 22.4022C29.8875 22.7698 30.217 23.0993 30.8759 23.7582C31.5345 24.4168 31.8644 24.7467 32.2318 24.8989C32.7219 25.1018 33.2725 25.1018 33.7626 24.8988C34.1301 24.7466 34.4596 24.4171 35.1185 23.7582C35.7775 23.0993 36.106 22.7698 36.2582 22.4022C36.4612 21.9122 36.4612 21.3615 36.2582 20.8714C36.106 20.5039 35.7775 20.1745 35.1185 19.5155C34.4596 18.8566 34.1301 18.5271 33.7626 18.3749C33.2725 18.1719 32.7219 18.1719 32.2318 18.3749Z" stroke="#17191E" stroke-width="2" stroke-linecap="round" stroke-linejoin="round"/>
<path d="M25.8676 24.7387C25.5 24.8909 25.1706 25.2204 24.5116 25.8793C23.8529 26.5381 23.5232 26.8677 23.371 27.2352C23.168 27.7253 23.168 28.276 23.371 28.766C23.5232 29.1336 23.8527 29.463 24.5116 30.122C25.1702 30.7805 25.5001 31.1104 25.8675 31.2626C26.3576 31.4656 26.9083 31.4656 27.3983 31.2626C27.7659 31.1104 28.0953 30.7809 28.7543 30.122C29.4132 29.463 29.7417 29.1336 29.894 28.766C30.097 28.276 30.097 27.7253 29.894 27.2352C29.7417 26.8677 29.4132 26.5383 28.7543 25.8793C28.0953 25.2204 27.7659 24.8909 27.3983 24.7387C26.9083 24.5357 26.3576 24.5357 25.8676 24.7387Z" stroke="#17191E" stroke-width="2" stroke-linecap="round" stroke-linejoin="round"/>
<path d="M37.2401 25.8793C36.5814 26.5381 36.2517 26.8677 36.0995 27.2352C35.8965 27.7253 35.8965 28.276 36.0995 28.766C36.2517 29.1336 36.5812 29.463 37.2402 30.122C37.8987 30.7805 38.2286 31.1104 38.5961 31.2626C39.0861 31.4656 39.6368 31.4656 40.1269 31.2626C40.4944 31.1104 40.8239 30.7809 41.4828 30.122C42.1417 29.463 42.4702 29.1335 42.6225 28.766C42.8255 28.276 42.8255 27.7253 42.6225 27.2352C42.4702 26.8677 42.1417 26.5382 41.4828 25.8793C40.8239 25.2204 40.4944 24.8909 40.1269 24.7387C39.6368 24.5357 39.0861 24.5357 38.5961 24.7387C38.2285 24.8909 37.8991 25.2204 37.2401 25.8793Z" stroke="#17191E" stroke-width="2" stroke-linecap="round" stroke-linejoin="round"/>
<path d="M32.2318 31.1029C31.8643 31.2552 31.5348 31.5846 30.8759 32.2436C30.2171 32.9023 29.8875 33.232 29.7352 33.5995C29.5323 34.0895 29.5323 34.6402 29.7352 35.1303C29.8875 35.4978 30.217 35.8273 30.8759 36.4862C31.5345 37.1448 31.8644 37.4747 32.2318 37.6269C32.7219 37.8299 33.2725 37.8299 33.7626 37.6269C34.1301 37.4746 34.4596 37.1452 35.1185 36.4862C35.7775 35.8273 36.106 35.4978 36.2582 35.1303C36.4612 34.6402 36.4612 34.0895 36.2582 33.5995C36.106 33.2319 35.7775 32.9025 35.1185 32.2436C34.4596 31.5846 34.1301 31.2552 33.7626 31.1029C33.2725 30.8999 32.7219 30.8999 32.2318 31.1029Z" stroke="#17191E" stroke-width="2" stroke-linecap="round" stroke-linejoin="round"/>
<path d="M61.956 35L58.676 23.08H60.676L63.332 33.4H62.836L65.588 23.08H67.556L70.308 33.4H69.796L72.468 23.08H74.452L71.188 35H69.06L66.292 24.84H66.852L64.068 35H61.956ZM75.681 35V22.888H77.489V28.04L77.201 27.816C77.4143 27.272 77.7557 26.8613 78.225 26.584C78.6943 26.296 79.2383 26.152 79.857 26.152C80.497 26.152 81.0623 26.2907 81.553 26.568C82.0437 26.8453 82.4277 27.2293 82.705 27.72C82.9823 28.2107 83.121 28.7707 83.121 29.4V35H81.329V29.896C81.329 29.4587 81.2437 29.0907 81.073 28.792C80.913 28.4827 80.689 28.248 80.401 28.088C80.113 27.9173 79.7823 27.832 79.409 27.832C79.0463 27.832 78.7157 27.9173 78.417 28.088C78.129 28.248 77.8997 28.4827 77.729 28.792C77.569 29.1013 77.489 29.4693 77.489 29.896V35H75.681ZM89.12 35.192C88.256 35.192 87.488 34.9947 86.816 34.6C86.1547 34.1947 85.6373 33.6507 85.264 32.968C84.8907 32.2747 84.704 31.5013 84.704 30.648C84.704 29.7733 84.8907 29 85.264 28.328C85.648 27.656 86.16 27.128 86.8 26.744C87.44 26.3493 88.1653 26.152 88.976 26.152C89.6267 26.152 90.208 26.264 90.72 26.488C91.232 26.712 91.664 27.0213 92.016 27.416C92.368 27.8 92.6347 28.2427 92.816 28.744C93.008 29.2453 93.104 29.7787 93.104 30.344C93.104 30.4827 93.0987 30.6267 93.088 30.776C93.0773 30.9253 93.056 31.064 93.024 31.192H86.128V29.752H92L91.136 30.408C91.2427 29.8853 91.2053 29.4213 91.024 29.016C90.8533 28.6 90.5867 28.2747 90.224 28.04C89.872 27.7947 89.456 27.672 88.976 27.672C88.496 27.672 88.0693 27.7947 87.696 28.04C87.3227 28.2747 87.0347 28.616 86.832 29.064C86.6293 29.5013 86.5493 30.0347 86.592 30.664C86.5387 31.2507 86.6187 31.7627 86.832 32.2C87.056 32.6373 87.3653 32.9787 87.76 33.224C88.1653 33.4693 88.624 33.592 89.136 33.592C89.6587 33.592 90.1013 33.4747 90.464 33.24C90.8373 33.0053 91.1307 32.7013 91.344 32.328L92.816 33.048C92.6453 33.4533 92.3787 33.8213 92.016 34.152C91.664 34.472 91.2373 34.728 90.736 34.92C90.2453 35.1013 89.7067 35.192 89.12 35.192ZM94.8685 35V26.344H96.5965V28.088L96.4365 27.832C96.6285 27.2667 96.9378 26.8613 97.3645 26.616C97.7912 26.36 98.3032 26.232 98.9005 26.232H99.4285V27.88H98.6765C98.0792 27.88 97.5938 28.0667 97.2205 28.44C96.8578 28.8027 96.6765 29.3253 96.6765 30.008V35H94.8685ZM104.729 35.192C103.865 35.192 103.097 34.9947 102.425 34.6C101.764 34.1947 101.247 33.6507 100.873 32.968C100.5 32.2747 100.313 31.5013 100.313 30.648C100.313 29.7733 100.5 29 100.873 28.328C101.257 27.656 101.769 27.128 102.409 26.744C103.049 26.3493 103.775 26.152 104.585 26.152C105.236 26.152 105.817 26.264 106.329 26.488C106.841 26.712 107.273 27.0213 107.625 27.416C107.977 27.8 108.244 28.2427 108.425 28.744C108.617 29.2453 108.713 29.7787 108.713 30.344C108.713 30.4827 108.708 30.6267 108.697 30.776C108.687 30.9253 108.665 31.064 108.633 31.192H101.737V29.752H107.609L106.745 30.408C106.852 29.8853 106.815 29.4213 106.633 29.016C106.463 28.6 106.196 28.2747 105.833 28.04C105.481 27.7947 105.065 27.672 104.585 27.672C104.105 27.672 103.679 27.7947 103.305 28.04C102.932 28.2747 102.644 28.616 102.441 29.064C102.239 29.5013 102.159 30.0347 102.201 30.664C102.148 31.2507 102.228 31.7627 102.441 32.2C102.665 32.6373 102.975 32.9787 103.369 33.224C103.775 33.4693 104.233 33.592 104.745 33.592C105.268 33.592 105.711 33.4747 106.073 33.24C106.447 33.0053 106.74 32.7013 106.953 32.328L108.425 33.048C108.255 33.4533 107.988 33.8213 107.625 34.152C107.273 34.472 106.847 34.728 106.345 34.92C105.855 35.1013 105.316 35.192 104.729 35.192ZM117.275 35.192C116.443 35.192 115.696 34.9947 115.035 34.6C114.384 34.1947 113.867 33.6507 113.483 32.968C113.109 32.2853 112.923 31.5173 112.923 30.664C112.923 29.8107 113.115 29.0427 113.499 28.36C113.883 27.6773 114.4 27.1387 115.051 26.744C115.701 26.3493 116.437 26.152 117.259 26.152C117.952 26.152 118.565 26.2907 119.099 26.568C119.632 26.8453 120.053 27.2293 120.363 27.72L120.091 28.136V22.888H121.883V35H120.171V33.24L120.379 33.576C120.08 34.0987 119.653 34.4987 119.099 34.776C118.544 35.0533 117.936 35.192 117.275 35.192ZM117.451 33.512C117.952 33.512 118.4 33.3893 118.795 33.144C119.2 32.8987 119.515 32.5627 119.739 32.136C119.973 31.6987 120.091 31.208 120.091 30.664C120.091 30.12 119.973 29.6347 119.739 29.208C119.515 28.7813 119.2 28.4453 118.795 28.2C118.4 27.9547 117.952 27.832 117.451 27.832C116.949 27.832 116.496 27.9547 116.091 28.2C115.685 28.4453 115.371 28.7813 115.147 29.208C114.923 29.6347 114.811 30.12 114.811 30.664C114.811 31.208 114.923 31.6987 115.147 32.136C115.371 32.5627 115.68 32.8987 116.075 33.144C116.48 33.3893 116.939 33.512 117.451 33.512ZM128.058 35.192C127.194 35.192 126.426 34.9947 125.754 34.6C125.092 34.1947 124.575 33.6507 124.202 32.968C123.828 32.2747 123.642 31.5013 123.642 30.648C123.642 29.7733 123.828 29 124.202 28.328C124.586 27.656 125.098 27.128 125.738 26.744C126.378 26.3493 127.103 26.152 127.914 26.152C128.564 26.152 129.146 26.264 129.658 26.488C130.17 26.712 130.602 27.0213 130.954 27.416C131.306 27.8 131.572 28.2427 131.753 28.744C131.946 29.2453 132.042 29.7787 132.042 30.344C132.042 30.4827 132.036 30.6267 132.026 30.776C132.015 30.9253 131.994 31.064 131.962 31.192H125.066V29.752H130.938L130.074 30.408C130.18 29.8853 130.143 29.4213 129.962 29.016C129.791 28.6 129.524 28.2747 129.162 28.04C128.81 27.7947 128.394 27.672 127.914 27.672C127.434 27.672 127.007 27.7947 126.634 28.04C126.26 28.2747 125.972 28.616 125.77 29.064C125.567 29.5013 125.487 30.0347 125.53 30.664C125.476 31.2507 125.556 31.7627 125.77 32.2C125.994 32.6373 126.303 32.9787 126.698 33.224C127.103 33.4693 127.562 33.592 128.074 33.592C128.596 33.592 129.039 33.4747 129.402 33.24C129.775 33.0053 130.068 32.7013 130.282 32.328L131.753 33.048C131.583 33.4533 131.316 33.8213 130.954 34.152C130.602 34.472 130.175 34.728 129.674 34.92C129.183 35.1013 128.644 35.192 128.058 35.192ZM137.006 35.192C136.121 35.192 135.342 34.9733 134.67 34.536C134.009 34.0987 133.545 33.512 133.278 32.776L134.67 32.12C134.905 32.6107 135.225 33 135.63 33.288C136.046 33.576 136.505 33.72 137.006 33.72C137.433 33.72 137.779 33.624 138.046 33.432C138.313 33.24 138.446 32.9787 138.446 32.648C138.446 32.4347 138.387 32.264 138.27 32.136C138.153 31.9973 138.003 31.8853 137.822 31.8C137.651 31.7147 137.475 31.6507 137.294 31.608L135.934 31.224C135.187 31.0107 134.627 30.6907 134.254 30.264C133.891 29.8267 133.71 29.32 133.71 28.744C133.71 28.2213 133.843 27.768 134.11 27.384C134.377 26.9893 134.745 26.6853 135.214 26.472C135.683 26.2587 136.211 26.152 136.798 26.152C137.587 26.152 138.291 26.3493 138.91 26.744C139.529 27.128 139.966 27.6667 140.222 28.36L138.83 29.016C138.659 28.6 138.387 28.2693 138.014 28.024C137.651 27.7787 137.241 27.656 136.782 27.656C136.387 27.656 136.073 27.752 135.838 27.944C135.603 28.1253 135.486 28.3653 135.486 28.664C135.486 28.8667 135.539 29.0373 135.646 29.176C135.753 29.304 135.891 29.4107 136.062 29.496C136.233 29.5707 136.409 29.6347 136.59 29.688L137.998 30.104C138.713 30.3067 139.262 30.6267 139.646 31.064C140.03 31.4907 140.222 32.0027 140.222 32.6C140.222 33.112 140.083 33.5653 139.806 33.96C139.539 34.344 139.166 34.648 138.686 34.872C138.206 35.0853 137.646 35.192 137.006 35.192ZM141.993 35V26.344H143.802V35H141.993ZM141.993 25.16V23.08H143.802V25.16H141.993ZM150.091 38.52C149.462 38.52 148.881 38.4187 148.347 38.216C147.814 38.0133 147.355 37.7307 146.971 37.368C146.587 37.016 146.299 36.6 146.107 36.12L147.771 35.432C147.921 35.8373 148.193 36.1733 148.587 36.44C148.993 36.7067 149.489 36.84 150.075 36.84C150.534 36.84 150.945 36.7493 151.307 36.568C151.67 36.3973 151.958 36.1413 152.171 35.8C152.385 35.4693 152.491 35.0693 152.491 34.6V32.648L152.811 33.016C152.513 33.5707 152.097 33.992 151.563 34.28C151.041 34.568 150.449 34.712 149.787 34.712C148.987 34.712 148.267 34.5253 147.627 34.152C146.987 33.7787 146.481 33.2667 146.107 32.616C145.745 31.9653 145.563 31.2347 145.563 30.424C145.563 29.6027 145.745 28.872 146.107 28.232C146.481 27.592 146.982 27.0853 147.611 26.712C148.241 26.3387 148.961 26.152 149.771 26.152C150.433 26.152 151.019 26.296 151.531 26.584C152.054 26.8613 152.481 27.2667 152.811 27.8L152.571 28.248V26.344H154.283V34.6C154.283 35.3467 154.102 36.0133 153.739 36.6C153.387 37.1973 152.897 37.6667 152.267 38.008C151.638 38.3493 150.913 38.52 150.091 38.52ZM149.995 33.032C150.475 33.032 150.902 32.92 151.275 32.696C151.649 32.4613 151.942 32.152 152.155 31.768C152.379 31.3733 152.491 30.9307 152.491 30.44C152.491 29.9493 152.379 29.5067 152.155 29.112C151.931 28.7173 151.633 28.408 151.259 28.184C150.886 27.9493 150.465 27.832 149.995 27.832C149.505 27.832 149.067 27.9493 148.683 28.184C148.299 28.408 147.995 28.7173 147.771 29.112C147.558 29.496 147.451 29.9387 147.451 30.44C147.451 30.92 147.558 31.3573 147.771 31.752C147.995 32.1467 148.299 32.4613 148.683 32.696C149.067 32.92 149.505 33.032 149.995 33.032ZM156.4 35V26.344H158.128V28.04L157.92 27.816C158.133 27.272 158.474 26.8613 158.944 26.584C159.413 26.296 159.957 26.152 160.576 26.152C161.216 26.152 161.781 26.2907 162.272 26.568C162.762 26.8453 163.146 27.2293 163.424 27.72C163.701 28.2107 163.84 28.776 163.84 29.416V35H162.048V29.896C162.048 29.4587 161.968 29.0907 161.808 28.792C161.648 28.4827 161.418 28.248 161.12 28.088C160.832 27.9173 160.501 27.832 160.128 27.832C159.754 27.832 159.418 27.9173 159.12 28.088C158.832 28.248 158.608 28.4827 158.448 28.792C158.288 29.1013 158.208 29.4693 158.208 29.896V35H156.4ZM168.572 35V26.344H170.3V28.216L170.076 27.928C170.257 27.3413 170.588 26.8987 171.068 26.6C171.548 26.3013 172.097 26.152 172.716 26.152C173.409 26.152 174.022 26.3387 174.556 26.712C175.1 27.0747 175.462 27.56 175.644 28.168L175.132 28.216C175.388 27.5227 175.777 27.0053 176.3 26.664C176.833 26.3227 177.441 26.152 178.124 26.152C178.721 26.152 179.26 26.2907 179.74 26.568C180.23 26.8453 180.62 27.2293 180.908 27.72C181.196 28.2107 181.34 28.7707 181.34 29.4V35H179.532V29.896C179.532 29.4587 179.452 29.0907 179.292 28.792C179.142 28.4827 178.929 28.248 178.652 28.088C178.385 27.9173 178.07 27.832 177.708 27.832C177.345 27.832 177.025 27.9173 176.748 28.088C176.47 28.248 176.252 28.4827 176.092 28.792C175.932 29.1013 175.852 29.4693 175.852 29.896V35H174.06V29.896C174.06 29.4587 173.98 29.0907 173.82 28.792C173.67 28.4827 173.457 28.248 173.18 28.088C172.913 27.9173 172.593 27.832 172.22 27.832C171.857 27.832 171.537 27.9173 171.26 28.088C170.982 28.248 170.764 28.4827 170.604 28.792C170.454 29.1013 170.38 29.4693 170.38 29.896V35H168.572ZM187.339 35.192C186.475 35.192 185.707 34.9947 185.035 34.6C184.373 34.1947 183.856 33.6507 183.483 32.968C183.109 32.2747 182.923 31.5013 182.923 30.648C182.923 29.7733 183.109 29 183.483 28.328C183.867 27.656 184.379 27.128 185.019 26.744C185.659 26.3493 186.384 26.152 187.195 26.152C187.845 26.152 188.427 26.264 188.939 26.488C189.451 26.712 189.883 27.0213 190.235 27.416C190.587 27.8 190.853 28.2427 191.035 28.744C191.227 29.2453 191.323 29.7787 191.323 30.344C191.323 30.4827 191.317 30.6267 191.307 30.776C191.296 30.9253 191.275 31.064 191.243 31.192H184.347V29.752H190.219L189.355 30.408C189.461 29.8853 189.424 29.4213 189.243 29.016C189.072 28.6 188.805 28.2747 188.443 28.04C188.091 27.7947 187.675 27.672 187.195 27.672C186.715 27.672 186.288 27.7947 185.915 28.04C185.541 28.2747 185.253 28.616 185.051 29.064C184.848 29.5013 184.768 30.0347 184.811 30.664C184.757 31.2507 184.837 31.7627 185.051 32.2C185.275 32.6373 185.584 32.9787 185.979 33.224C186.384 33.4693 186.843 33.592 187.355 33.592C187.877 33.592 188.32 33.4747 188.683 33.24C189.056 33.0053 189.349 32.7013 189.563 32.328L191.035 33.048C190.864 33.4533 190.597 33.8213 190.235 34.152C189.883 34.472 189.456 34.728 188.955 34.92C188.464 35.1013 187.925 35.192 187.339 35.192ZM197.151 35.192C196.287 35.192 195.519 34.9947 194.847 34.6C194.186 34.1947 193.669 33.6507 193.295 32.968C192.922 32.2747 192.735 31.5013 192.735 30.648C192.735 29.7733 192.922 29 193.295 28.328C193.679 27.656 194.191 27.128 194.831 26.744C195.471 26.3493 196.197 26.152 197.007 26.152C197.658 26.152 198.239 26.264 198.751 26.488C199.263 26.712 199.695 27.0213 200.047 27.416C200.399 27.8 200.666 28.2427 200.847 28.744C201.039 29.2453 201.135 29.7787 201.135 30.344C201.135 30.4827 201.13 30.6267 201.119 30.776C201.109 30.9253 201.087 31.064 201.055 31.192H194.159V29.752H200.031L199.167 30.408C199.274 29.8853 199.237 29.4213 199.055 29.016C198.885 28.6 198.618 28.2747 198.255 28.04C197.903 27.7947 197.487 27.672 197.007 27.672C196.527 27.672 196.101 27.7947 195.727 28.04C195.354 28.2747 195.066 28.616 194.863 29.064C194.661 29.5013 194.581 30.0347 194.623 30.664C194.57 31.2507 194.65 31.7627 194.863 32.2C195.087 32.6373 195.397 32.9787 195.791 33.224C196.197 33.4693 196.655 33.592 197.167 33.592C197.69 33.592 198.133 33.4747 198.495 33.24C198.869 33.0053 199.162 32.7013 199.375 32.328L200.847 33.048C200.677 33.4533 200.41 33.8213 200.047 34.152C199.695 34.472 199.269 34.728 198.767 34.92C198.277 35.1013 197.738 35.192 197.151 35.192ZM206.644 35.096C205.737 35.096 205.033 34.84 204.532 34.328C204.03 33.816 203.78 33.096 203.78 32.168V27.976H202.26V26.344H202.5C202.905 26.344 203.22 26.2267 203.444 25.992C203.668 25.7573 203.78 25.4373 203.78 25.032V24.36H205.588V26.344H207.556V27.976H205.588V32.088C205.588 32.3867 205.636 32.6427 205.732 32.856C205.828 33.0587 205.982 33.2187 206.196 33.336C206.409 33.4427 206.686 33.496 207.028 33.496C207.113 33.496 207.209 33.4907 207.316 33.48C207.422 33.4693 207.524 33.4587 207.62 33.448V35C207.47 35.0213 207.305 35.0427 207.124 35.064C206.942 35.0853 206.782 35.096 206.644 35.096ZM212.584 35.192C211.699 35.192 210.92 34.9733 210.248 34.536C209.587 34.0987 209.123 33.512 208.856 32.776L210.248 32.12C210.483 32.6107 210.803 33 211.208 33.288C211.624 33.576 212.083 33.72 212.584 33.72C213.011 33.72 213.357 33.624 213.624 33.432C213.891 33.24 214.024 32.9787 214.024 32.648C214.024 32.4347 213.965 32.264 213.848 32.136C213.731 31.9973 213.581 31.8853 213.4 31.8C213.229 31.7147 213.053 31.6507 212.872 31.608L211.512 31.224C210.765 31.0107 210.205 30.6907 209.832 30.264C209.469 29.8267 209.288 29.32 209.288 28.744C209.288 28.2213 209.421 27.768 209.688 27.384C209.955 26.9893 210.323 26.6853 210.792 26.472C211.261 26.2587 211.789 26.152 212.376 26.152C213.165 26.152 213.869 26.3493 214.488 26.744C215.107 27.128 215.544 27.6667 215.8 28.36L214.408 29.016C214.237 28.6 213.965 28.2693 213.592 28.024C213.229 27.7787 212.819 27.656 212.36 27.656C211.965 27.656 211.651 27.752 211.416 27.944C211.181 28.1253 211.064 28.3653 211.064 28.664C211.064 28.8667 211.117 29.0373 211.224 29.176C211.331 29.304 211.469 29.4107 211.64 29.496C211.811 29.5707 211.987 29.6347 212.168 29.688L213.576 30.104C214.291 30.3067 214.84 30.6267 215.224 31.064C215.608 31.4907 215.8 32.0027 215.8 32.6C215.8 33.112 215.661 33.5653 215.384 33.96C215.117 34.344 214.744 34.648 214.264 34.872C213.784 35.0853 213.224 35.192 212.584 35.192ZM220.368 38.2V26.344H222.097V28.136L221.889 27.72C222.209 27.2293 222.635 26.8453 223.169 26.568C223.702 26.2907 224.31 26.152 224.993 26.152C225.814 26.152 226.55 26.3493 227.201 26.744C227.862 27.1387 228.379 27.6773 228.753 28.36C229.137 29.0427 229.329 29.8107 229.329 30.664C229.329 31.5173 229.137 32.2853 228.753 32.968C228.379 33.6507 227.867 34.1947 227.217 34.6C226.566 34.9947 225.825 35.192 224.993 35.192C224.321 35.192 223.707 35.0533 223.153 34.776C222.609 34.4987 222.187 34.0987 221.889 33.576L222.177 33.24V38.2H220.368ZM224.817 33.512C225.329 33.512 225.782 33.3893 226.177 33.144C226.571 32.8987 226.881 32.5627 227.105 32.136C227.339 31.6987 227.457 31.208 227.457 30.664C227.457 30.12 227.339 29.6347 227.105 29.208C226.881 28.7813 226.571 28.4453 226.177 28.2C225.782 27.9547 225.329 27.832 224.817 27.832C224.315 27.832 223.862 27.9547 223.457 28.2C223.062 28.4453 222.747 28.7813 222.513 29.208C222.289 29.6347 222.177 30.12 222.177 30.664C222.177 31.208 222.289 31.6987 222.513 32.136C222.747 32.5627 223.062 32.8987 223.457 33.144C223.862 33.3893 224.315 33.512 224.817 33.512ZM235.151 35.192C234.287 35.192 233.519 34.9947 232.847 34.6C232.186 34.1947 231.669 33.6507 231.295 32.968C230.922 32.2747 230.735 31.5013 230.735 30.648C230.735 29.7733 230.922 29 231.295 28.328C231.679 27.656 232.191 27.128 232.831 26.744C233.471 26.3493 234.197 26.152 235.007 26.152C235.658 26.152 236.239 26.264 236.751 26.488C237.263 26.712 237.695 27.0213 238.047 27.416C238.399 27.8 238.666 28.2427 238.847 28.744C239.039 29.2453 239.135 29.7787 239.135 30.344C239.135 30.4827 239.13 30.6267 239.119 30.776C239.109 30.9253 239.087 31.064 239.055 31.192H232.159V29.752H238.031L237.167 30.408C237.274 29.8853 237.237 29.4213 237.055 29.016C236.885 28.6 236.618 28.2747 236.255 28.04C235.903 27.7947 235.487 27.672 235.007 27.672C234.527 27.672 234.101 27.7947 233.727 28.04C233.354 28.2747 233.066 28.616 232.863 29.064C232.661 29.5013 232.581 30.0347 232.623 30.664C232.57 31.2507 232.65 31.7627 232.863 32.2C233.087 32.6373 233.397 32.9787 233.791 33.224C234.197 33.4693 234.655 33.592 235.167 33.592C235.69 33.592 236.133 33.4747 236.495 33.24C236.869 33.0053 237.162 32.7013 237.375 32.328L238.847 33.048C238.677 33.4533 238.41 33.8213 238.047 34.152C237.695 34.472 237.269 34.728 236.767 34.92C236.277 35.1013 235.738 35.192 235.151 35.192ZM240.9 35V26.344H242.628V28.088L242.468 27.832C242.66 27.2667 242.969 26.8613 243.396 26.616C243.822 26.36 244.334 26.232 244.932 26.232H245.46V27.88H244.708C244.11 27.88 243.625 28.0667 243.252 28.44C242.889 28.8027 242.708 29.3253 242.708 30.008V35H240.9ZM247.673 35V27.976H246.073V26.344H247.673V25.896C247.673 25.2453 247.806 24.7013 248.073 24.264C248.339 23.816 248.707 23.4747 249.177 23.24C249.657 23.0053 250.206 22.888 250.825 22.888C250.942 22.888 251.075 22.8987 251.225 22.92C251.374 22.9307 251.497 22.9467 251.593 22.968V24.536C251.507 24.5147 251.411 24.504 251.305 24.504C251.198 24.4933 251.113 24.488 251.049 24.488C250.569 24.488 250.185 24.6 249.897 24.824C249.609 25.0373 249.465 25.3947 249.465 25.896V26.344H251.449V27.976H249.465V35H247.673ZM256.982 35.192C256.15 35.192 255.387 34.9947 254.694 34.6C254.011 34.2053 253.467 33.6667 253.062 32.984C252.657 32.3013 252.454 31.528 252.454 30.664C252.454 29.7893 252.657 29.016 253.062 28.344C253.467 27.6613 254.011 27.128 254.694 26.744C255.377 26.3493 256.139 26.152 256.982 26.152C257.835 26.152 258.598 26.3493 259.27 26.744C259.953 27.128 260.491 27.6613 260.886 28.344C261.291 29.016 261.494 29.7893 261.494 30.664C261.494 31.5387 261.291 32.3173 260.886 33C260.481 33.6827 259.937 34.2213 259.254 34.616C258.571 35 257.814 35.192 256.982 35.192ZM256.982 33.512C257.494 33.512 257.947 33.3893 258.342 33.144C258.737 32.8987 259.046 32.5627 259.27 32.136C259.505 31.6987 259.622 31.208 259.622 30.664C259.622 30.12 259.505 29.6347 259.27 29.208C259.046 28.7813 258.737 28.4453 258.342 28.2C257.947 27.9547 257.494 27.832 256.982 27.832C256.481 27.832 256.027 27.9547 255.622 28.2C255.227 28.4453 254.913 28.7813 254.678 29.208C254.454 29.6347 254.342 30.12 254.342 30.664C254.342 31.208 254.454 31.6987 254.678 32.136C254.913 32.5627 255.227 32.8987 255.622 33.144C256.027 33.3893 256.481 33.512 256.982 33.512ZM263.259 35V26.344H264.987V28.088L264.827 27.832C265.019 27.2667 265.328 26.8613 265.755 26.616C266.182 26.36 266.694 26.232 267.291 26.232H267.819V27.88H267.067C266.47 27.88 265.984 28.0667 265.611 28.44C265.248 28.8027 265.067 29.3253 265.067 30.008V35H263.259ZM269.056 35V26.344H270.784V28.216L270.56 27.928C270.741 27.3413 271.072 26.8987 271.552 26.6C272.032 26.3013 272.581 26.152 273.2 26.152C273.893 26.152 274.507 26.3387 275.04 26.712C275.584 27.0747 275.947 27.56 276.128 28.168L275.616 28.216C275.872 27.5227 276.261 27.0053 276.784 26.664C277.317 26.3227 277.925 26.152 278.608 26.152C279.205 26.152 279.744 26.2907 280.224 26.568C280.715 26.8453 281.104 27.2293 281.392 27.72C281.68 28.2107 281.824 28.7707 281.824 29.4V35H280.016V29.896C280.016 29.4587 279.936 29.0907 279.776 28.792C279.627 28.4827 279.413 28.248 279.136 28.088C278.869 27.9173 278.555 27.832 278.192 27.832C277.829 27.832 277.509 27.9173 277.232 28.088C276.955 28.248 276.736 28.4827 276.576 28.792C276.416 29.1013 276.336 29.4693 276.336 29.896V35H274.544V29.896C274.544 29.4587 274.464 29.0907 274.304 28.792C274.155 28.4827 273.941 28.248 273.664 28.088C273.397 27.9173 273.077 27.832 272.704 27.832C272.341 27.832 272.021 27.9173 271.744 28.088C271.467 28.248 271.248 28.4827 271.088 28.792C270.939 29.1013 270.864 29.4693 270.864 29.896V35H269.056ZM286.351 35.192C285.764 35.192 285.247 35.0907 284.799 34.888C284.362 34.6747 284.02 34.3867 283.775 34.024C283.53 33.6507 283.407 33.2133 283.407 32.712C283.407 32.2427 283.508 31.8213 283.711 31.448C283.924 31.0747 284.25 30.76 284.687 30.504C285.124 30.248 285.674 30.0667 286.335 29.96L289.343 29.464V30.888L286.687 31.352C286.207 31.4373 285.855 31.592 285.631 31.816C285.407 32.0293 285.295 32.3067 285.295 32.648C285.295 32.9787 285.418 33.2507 285.663 33.464C285.919 33.6667 286.244 33.768 286.639 33.768C287.13 33.768 287.556 33.6613 287.919 33.448C288.292 33.2347 288.58 32.952 288.783 32.6C288.986 32.2373 289.087 31.8373 289.087 31.4V29.176C289.087 28.7493 288.927 28.4027 288.607 28.136C288.298 27.8587 287.882 27.72 287.359 27.72C286.879 27.72 286.458 27.848 286.095 28.104C285.743 28.3493 285.482 28.6693 285.311 29.064L283.807 28.312C283.967 27.8853 284.228 27.512 284.591 27.192C284.954 26.8613 285.375 26.6053 285.855 26.424C286.346 26.2427 286.863 26.152 287.407 26.152C288.09 26.152 288.692 26.28 289.215 26.536C289.748 26.792 290.159 27.1493 290.447 27.608C290.746 28.056 290.895 28.5787 290.895 29.176V35H289.167V33.432L289.535 33.48C289.332 33.832 289.071 34.136 288.751 34.392C288.442 34.648 288.084 34.8453 287.679 34.984C287.284 35.1227 286.842 35.192 286.351 35.192ZM293.009 35V26.344H294.737V28.04L294.529 27.816C294.742 27.272 295.084 26.8613 295.553 26.584C296.022 26.296 296.566 26.152 297.185 26.152C297.825 26.152 298.39 26.2907 298.881 26.568C299.372 26.8453 299.756 27.2293 300.033 27.72C300.31 28.2107 300.449 28.776 300.449 29.416V35H298.657V29.896C298.657 29.4587 298.577 29.0907 298.417 28.792C298.257 28.4827 298.028 28.248 297.729 28.088C297.441 27.9173 297.11 27.832 296.737 27.832C296.364 27.832 296.028 27.9173 295.729 28.088C295.441 28.248 295.217 28.4827 295.057 28.792C294.897 29.1013 294.817 29.4693 294.817 29.896V35H293.009ZM306.496 35.192C305.632 35.192 304.864 34.9947 304.192 34.6C303.531 34.1947 303.003 33.6507 302.608 32.968C302.224 32.2853 302.032 31.512 302.032 30.648C302.032 29.7947 302.224 29.0267 302.608 28.344C302.992 27.6613 303.52 27.128 304.192 26.744C304.864 26.3493 305.632 26.152 306.496 26.152C307.083 26.152 307.632 26.2587 308.144 26.472C308.656 26.6747 309.099 26.9573 309.472 27.32C309.856 27.6827 310.139 28.104 310.32 28.584L308.736 29.32C308.555 28.872 308.261 28.5147 307.856 28.248C307.461 27.9707 307.008 27.832 306.496 27.832C306.005 27.832 305.563 27.9547 305.168 28.2C304.784 28.4347 304.48 28.7707 304.256 29.208C304.032 29.6347 303.92 30.12 303.92 30.664C303.92 31.208 304.032 31.6987 304.256 32.136C304.48 32.5627 304.784 32.8987 305.168 33.144C305.563 33.3893 306.005 33.512 306.496 33.512C307.019 33.512 307.472 33.3787 307.856 33.112C308.251 32.8347 308.544 32.4667 308.736 32.008L310.32 32.76C310.149 33.2187 309.872 33.6347 309.488 34.008C309.115 34.3707 308.672 34.6587 308.16 34.872C307.648 35.0853 307.093 35.192 306.496 35.192ZM316.151 35.192C315.287 35.192 314.519 34.9947 313.847 34.6C313.186 34.1947 312.669 33.6507 312.295 32.968C311.922 32.2747 311.735 31.5013 311.735 30.648C311.735 29.7733 311.922 29 312.295 28.328C312.679 27.656 313.191 27.128 313.831 26.744C314.471 26.3493 315.197 26.152 316.007 26.152C316.658 26.152 317.239 26.264 317.751 26.488C318.263 26.712 318.695 27.0213 319.047 27.416C319.399 27.8 319.666 28.2427 319.847 28.744C320.039 29.2453 320.135 29.7787 320.135 30.344C320.135 30.4827 320.13 30.6267 320.119 30.776C320.109 30.9253 320.087 31.064 320.055 31.192H313.159V29.752H319.031L318.167 30.408C318.274 29.8853 318.237 29.4213 318.055 29.016C317.885 28.6 317.618 28.2747 317.255 28.04C316.903 27.7947 316.487 27.672 316.007 27.672C315.527 27.672 315.101 27.7947 314.727 28.04C314.354 28.2747 314.066 28.616 313.863 29.064C313.661 29.5013 313.581 30.0347 313.623 30.664C313.57 31.2507 313.65 31.7627 313.863 32.2C314.087 32.6373 314.397 32.9787 314.791 33.224C315.197 33.4693 315.655 33.592 316.167 33.592C316.69 33.592 317.133 33.4747 317.495 33.24C317.869 33.0053 318.162 32.7013 318.375 32.328L319.847 33.048C319.677 33.4533 319.41 33.8213 319.047 34.152C318.695 34.472 318.269 34.728 317.767 34.92C317.277 35.1013 316.738 35.192 316.151 35.192Z" fill="white"/>
</svg>
