<svg width="107" height="106" viewBox="0 0 107 106" fill="none" xmlns="http://www.w3.org/2000/svg">
<g clip-path="url(#clip0_312_1718)">
<path d="M50.3516 1.38711C43.5402 4.84454 28.1992 13.2707 27.5781 13.8711C27.1848 14.2852 26.6465 14.9891 26.4395 15.4238C26.0461 16.2106 26.0254 16.8731 25.9219 30.6406L25.8184 45.0293L14.0797 51.3438C7.62031 54.8219 2.11328 57.8859 1.82344 58.1551C1.53359 58.4449 1.05742 59.1281 0.767578 59.7078L0.25 60.743V75.4422V90.1621L0.746875 91.1973C0.995313 91.777 1.53359 92.5223 1.92695 92.8535C2.32031 93.2055 7.84805 96.1246 14.2246 99.375L25.8184 105.275H27.5781H29.3379L33.6855 103.019C36.0871 101.797 38.2195 100.596 38.4473 100.389C39.3996 99.4578 38.6543 97.7188 37.2879 97.7188C36.9359 97.7188 35.1555 98.4848 33.1059 99.5199C31.1598 100.514 29.4828 101.363 29.4 101.404C29.2965 101.445 29.2344 95.2965 29.2344 87.7191V73.9723L40.4141 68.2789L51.5938 62.5855L51.5523 76.3738L51.4902 90.1621L47.184 92.3566C44.8238 93.5574 42.7328 94.6754 42.5672 94.8617C42.1324 95.2965 42.1531 96.6008 42.6086 97.1184C43.3125 97.8844 44.1613 97.6566 48.716 95.3379C51.0762 94.1371 53.1258 93.1641 53.2707 93.1641C53.3949 93.1641 58.8398 95.8969 65.3406 99.2301L77.1621 105.275H78.9219H80.6816L92.2754 99.375C98.652 96.1246 104.18 93.2055 104.573 92.8535C104.966 92.5223 105.505 91.777 105.753 91.1973L106.25 90.1621V75.4629V60.7637L105.753 59.7285C105.484 59.1488 105.008 58.4449 104.677 58.1344C104.345 57.8445 102.13 56.5402 99.7285 55.2773C97.3477 53.9938 95.1738 52.8137 94.9254 52.6688L94.4699 52.3789L94.8633 51.2609C95.7535 48.673 95.9398 44.2219 95.2359 42.1516C94.7184 40.5988 93.3934 40.1848 92.3582 41.2199C91.9856 41.5926 91.9441 41.8203 92.0477 42.7313C92.1305 43.3109 92.234 44.5324 92.2961 45.4434C92.7309 51.7164 87.9898 57.7824 81.6133 59.1281C78.5285 59.7906 74.9262 59.1695 72.1313 57.5133C70.3094 56.4574 68.177 54.1801 67.1832 52.2547C66.0652 50.1016 65.6305 48.3625 65.6305 46.0645C65.6098 42.2965 66.8313 39.3981 69.6055 36.6445C71.5516 34.6777 73.3941 33.6012 75.8164 33.0008C77.4313 32.5867 79.9984 32.5453 81.7168 32.8973C83.6008 33.2906 86.4785 34.7813 88.0934 36.2305C89.7082 37.659 90.3914 37.8246 91.2402 36.9551C92.3168 35.8992 91.7371 34.7191 89.232 32.7938C86.2922 30.5164 82.7934 29.3777 78.8391 29.3777C75.9406 29.3777 73.9324 29.8746 71.2617 31.1996C69.5848 32.0277 69.0051 32.4832 67.2246 34.2637C65.4441 36.0441 64.9887 36.6238 64.1605 38.3008C62.7734 41.075 62.318 43.0004 62.318 46.0645C62.3387 48.4246 62.4629 49.1906 63.291 52.0684C63.3945 52.4203 62.877 52.7723 59.2539 54.6977C56.9766 55.9398 55.0719 56.9336 55.0098 56.9336C54.9477 56.9336 54.9063 50.8055 54.9063 43.2902V29.6676L65.941 24.0363C72.0277 20.9516 77.0586 18.4258 77.1207 18.4258C77.2035 18.4258 77.2656 19.6887 77.2656 21.2414V24.057L77.8867 24.6781C78.425 25.1957 78.632 25.2785 79.191 25.175C80.4746 24.9266 80.5781 24.5953 80.5781 20.5168C80.5781 16.1898 80.3711 15.2996 79.0461 13.9953C78.425 13.3742 75.0504 11.4695 66.6035 6.93555L55.0098 0.724615L53.457 0.662506C52.0078 0.600396 51.8008 0.641803 50.3516 1.38711ZM64.5332 9.66836C70.3922 12.8152 75.1332 15.4652 75.0504 15.5481C74.9469 15.6309 70.0195 18.1981 64.0777 21.2207L53.25 26.7484L42.443 21.2207C36.4805 18.1981 31.5531 15.6309 31.4496 15.5481C31.2012 15.2996 52.4219 3.97501 53.1879 3.9543C53.6848 3.9336 56.5832 5.40352 64.5332 9.66836ZM51.5938 43.3109C51.5938 51.7992 51.5109 56.9336 51.4074 56.8922C51.2832 56.8508 46.2523 54.1801 40.2277 50.9297L29.2344 45.0293V31.6551V18.2809L40.4141 23.9742L51.5938 29.6469V43.3109ZM38.7164 53.9316C44.6582 57.1199 49.4406 59.7906 49.3578 59.8734C49.275 59.9563 44.3477 62.5027 38.3852 65.5254L27.5574 71.0531L21.2016 67.8234C17.7027 66.043 12.7754 63.5379 10.2496 62.2543C7.70313 60.9914 5.63281 59.8941 5.63281 59.8113C5.63281 59.5836 27.2676 48.0313 27.5988 48.0934C27.7852 48.1141 32.7953 50.7434 38.7164 53.9316ZM66.0238 56.6023C67.2867 58.2379 69.4398 59.9355 71.5723 60.9707C73.9117 62.1094 75.3816 62.5027 77.9281 62.6684C83.0832 62.9996 87.6379 61.157 91.3023 57.2234L92.9793 55.443L96.9129 57.5754C99.0867 58.7348 100.867 59.7492 100.867 59.8113C100.867 59.8734 98.9211 60.9086 96.5609 62.1094C94.2008 63.3102 89.2734 65.8152 85.609 67.6785L78.9633 71.0738L68.1355 65.5254C62.173 62.5027 57.225 59.9355 57.1422 59.8734C56.9973 59.7285 64.4918 55.5672 64.9473 55.5051C65.0715 55.5051 65.5477 55.9813 66.0238 56.6023ZM22.982 72.523L25.9219 74.0137V87.7191C25.9219 95.2758 25.8598 101.445 25.777 101.445C25.6734 101.425 20.8082 98.9609 14.9492 95.959C7.70313 92.2531 4.16289 90.3277 3.87305 89.9551C3.47969 89.4168 3.45898 89.0441 3.39688 75.9598L3.33477 62.5027L11.6781 66.7676C16.2742 69.107 21.3465 71.6949 22.982 72.523ZM66.7691 68.6309L77.2656 73.9516V87.7191V101.466L67.1832 96.3523C61.6141 93.5574 56.5832 90.9695 56.0035 90.6383L54.9063 90.0379V76.2496V62.482L55.5895 62.8961C55.9414 63.1031 60.9723 65.691 66.7691 68.6309ZM103.041 88.568C102.958 89.2512 102.751 89.8309 102.461 90.1414C102.089 90.5555 81.0957 101.445 80.7023 101.445C80.6402 101.445 80.5781 95.2758 80.5781 87.7191V74.0137L91.8199 68.2996L103.041 62.5648L103.103 75.0281C103.145 81.8602 103.103 87.9676 103.041 88.568Z" fill="#151515"/>
<path d="M83.5802 41.8618C82.7727 42.6899 80.9302 44.6153 79.4809 46.1474L76.8517 48.9216L74.8227 47.0583C73.7255 46.0231 72.6075 45.1329 72.3384 45.0501C71.2204 44.6981 70.0196 45.8989 70.3095 47.079C70.4544 47.7001 75.8165 52.731 76.5204 52.9173C76.7895 52.9794 77.2036 52.9794 77.4313 52.9173C77.7833 52.7931 81.5927 48.9216 86.0231 44.1599C87.5552 42.5036 87.7415 41.8825 86.9755 40.9095C86.6649 40.5161 86.3751 40.3712 85.8161 40.3712C85.1536 40.3712 84.8845 40.5575 83.5802 41.8618Z" fill="#151515"/>
</g>
<defs>
<clipPath id="clip0_312_1718">
<rect width="106" height="106" fill="white" transform="translate(0.25)"/>
</clipPath>
</defs>
</svg>
