<svg width="107" height="106" viewBox="0 0 107 106" fill="none" xmlns="http://www.w3.org/2000/svg">
<path d="M33.7094 2.0707C33.3367 2.29844 32.8605 2.77461 32.6328 3.14726C32.2395 3.80976 32.2188 4.22383 32.2188 21.5316C32.2188 38.8395 32.2395 39.2535 32.6328 39.916C32.8605 40.2887 33.3367 40.7648 33.7094 40.9926C34.3512 41.3859 34.7652 41.4066 41.7422 41.4066H49.0918L50.6238 45.982C51.452 48.5078 52.3215 50.7437 52.5285 50.9508C53.0668 51.4891 54.4332 51.4891 54.9715 50.9508C55.1785 50.7437 56.048 48.5078 56.8762 45.982L58.4082 41.4066H65.7578C72.7348 41.4066 73.1488 41.3859 73.7906 40.9926C74.1633 40.7648 74.6395 40.2887 74.8672 39.916C75.2605 39.2535 75.2813 38.8395 75.2813 21.5316C75.2813 4.22383 75.2605 3.80976 74.8672 3.14726C74.6395 2.77461 74.1633 2.29844 73.7906 2.0707C73.1281 1.65664 72.6934 1.65664 53.75 1.65664C34.8066 1.65664 34.3719 1.65664 33.7094 2.0707ZM71.9688 21.5316V38.0941H64.1016C56.6484 38.0941 56.2137 38.1148 55.841 38.4875C55.634 38.6945 55.0957 39.9574 54.6609 41.2824C54.2262 42.6074 53.8121 43.684 53.75 43.684C53.6879 43.684 53.2738 42.6074 52.8391 41.2824C52.4043 39.9574 51.866 38.6945 51.659 38.4875C51.2863 38.1148 50.8516 38.0941 43.3984 38.0941H35.5313V21.5316V4.96914H53.75H71.9688V21.5316Z" fill="#151515"/>
<path d="M56.2137 10.517C55.1785 11.1795 54.9508 11.5729 53.8742 14.5334C53.4809 15.6307 53.0461 16.7279 52.9219 16.9764C52.632 17.5146 51.9695 17.9287 51.1207 18.115C50.5203 18.2393 50.4375 18.1979 50.4375 17.8252C50.4375 17.5768 50.2512 17.2041 50.0234 16.9764C49.6301 16.583 49.3402 16.5623 45.4687 16.5623C41.5973 16.5623 41.3074 16.583 40.9141 16.9764C40.5207 17.3697 40.5 17.6596 40.5 24.7607C40.5 29.1705 40.5828 32.276 40.707 32.5037C41.059 33.1455 42.0941 33.3318 45.4687 33.3318C48.8641 33.3318 49.8785 33.1455 50.2512 32.483C50.4375 32.1104 50.4996 32.1311 51.6383 32.7314L52.8184 33.3525L57.9941 33.2904C63.0664 33.2283 63.1906 33.2283 64.1016 32.7107C64.5984 32.4209 65.2816 31.8205 65.6129 31.365C66.1305 30.599 66.234 30.185 66.5859 27.1209C67.0414 23.3322 67.1035 21.6139 66.793 20.8271C66.4824 19.9783 65.1574 18.674 64.35 18.4049C63.9359 18.26 63.0457 18.1564 62.3832 18.1771C61.3273 18.2186 61.1824 18.1771 61.2859 17.8459C62.4867 13.7674 62.3211 11.8834 60.6234 10.5998C60.0437 10.165 59.6297 10.0408 58.5324 9.97871C57.3109 9.9166 57.0625 9.97871 56.2137 10.517ZM58.5531 13.5604C58.6152 13.6225 58.3461 14.9061 57.9734 16.4174C56.752 21.2205 56.8969 21.5311 60.3957 21.5311C63.1699 21.5311 63.4805 21.6553 63.4805 22.8354C63.4805 24.7814 62.8387 29.067 62.5074 29.4396C62.2176 29.7709 61.7414 29.8123 57.9113 29.8123H53.6465L52.4043 28.9842C51.7211 28.5287 50.9965 28.1561 50.8102 28.1561C50.4789 28.1561 50.4375 27.8662 50.4375 24.8643V21.5725L51.7625 21.4896C52.8598 21.4275 53.2738 21.2826 54.1434 20.7029C55.4684 19.792 55.9859 19.0467 56.9176 16.5623C57.3109 15.4857 57.7457 14.3471 57.8699 14.0158C58.077 13.4775 58.3047 13.3326 58.5531 13.5604ZM47.125 24.9471V29.8123H45.4687H43.8125V24.9471V20.0818H45.4687H47.125V24.9471Z" fill="#151515"/>
<path d="M3.89688 13.6641C3.52422 13.8918 3.04805 14.368 2.82031 14.7406C2.42695 15.4031 2.40625 15.8172 2.40625 31.4687C2.40625 47.1203 2.42695 47.5344 2.82031 48.1969C3.04805 48.5695 3.52422 49.0457 3.89688 49.2734C4.53867 49.6668 4.95273 49.6875 10.584 49.6875H16.5879L17.8301 52.648C18.5133 54.2629 19.2379 55.7535 19.4449 55.9398C19.652 56.1676 20.1074 56.3125 20.625 56.3125C21.1426 56.3125 21.598 56.1676 21.8258 55.9398C22.0121 55.7535 22.7367 54.2629 23.4199 52.648L24.6621 49.6875H30.107H35.5313V48.0312V46.375H29.0512C21.598 46.375 22.2813 46.1887 21.3289 48.4867C21.0184 49.2734 20.7078 49.8945 20.625 49.8945C20.5422 49.8945 20.2316 49.2734 19.9211 48.4867C18.9688 46.1887 19.652 46.375 12.1988 46.375H5.71875V31.4687V16.5625H16.4844H27.25V14.9062V13.25H15.9254C4.97344 13.25 4.55938 13.2707 3.89688 13.6641Z" fill="#151515"/>
<path d="M80.25 14.9062V16.5625H91.0156H101.781V31.4687V46.375H95.3012C87.848 46.375 88.5313 46.1887 87.5789 48.4867C87.2684 49.2734 86.9578 49.8945 86.875 49.8945C86.7922 49.8945 86.4816 49.2734 86.1711 48.4867C85.2188 46.1887 85.902 46.375 78.4488 46.375H71.9688V48.0312V49.6875H77.4137H82.8379L84.0801 52.648C84.7633 54.2629 85.4879 55.7535 85.6949 55.9398C85.902 56.1676 86.3574 56.3125 86.875 56.3125C87.3926 56.3125 87.848 56.1676 88.0758 55.9398C88.2621 55.7535 88.9867 54.2629 89.6699 52.648L90.9121 49.6875H96.916C102.547 49.6875 102.961 49.6668 103.603 49.2734C103.976 49.0457 104.452 48.5695 104.68 48.1969C105.073 47.5344 105.094 47.1203 105.094 31.4687C105.094 15.8172 105.073 15.4031 104.68 14.7406C104.452 14.368 103.976 13.8918 103.603 13.6641C102.941 13.2707 102.527 13.25 91.5953 13.25H80.25V14.9062Z" fill="#151515"/>
<path d="M83.2521 23.5809C80.3744 24.8852 79.0908 28.7981 80.54 31.7794C81.5545 33.8083 83.2935 35.7751 85.9643 37.8247C89.1732 40.3298 89.256 40.3298 91.9889 38.2595C94.701 36.1891 96.8334 33.8911 97.765 31.9864C98.4896 30.5165 98.5103 30.3923 98.4275 28.736C98.324 26.6657 97.8685 25.672 96.5021 24.4712C95.26 23.3946 94.4525 23.1255 92.5685 23.229C91.2435 23.2911 90.9123 23.3946 90.1049 23.9536C89.5252 24.3677 89.1111 24.5333 89.0283 24.4091C88.9455 24.2848 88.4072 23.9536 87.8275 23.6845C86.5025 23.0634 84.4736 23.022 83.2521 23.5809ZM87.3514 27.8458C88.3244 28.8188 88.5935 28.9845 89.256 28.9845C89.9185 28.9845 90.2084 28.8188 91.1814 27.8458C92.5893 26.4587 93.3553 26.3345 94.349 27.3075C94.8459 27.8251 94.9494 28.0942 94.9494 28.9223C94.9494 30.0817 94.3283 31.1997 92.8377 32.8352C91.6576 34.1188 89.3596 35.8372 89.0697 35.6716C87.4756 34.7399 85.1982 32.5247 84.1838 30.9098C83.2728 29.4606 83.4385 27.5766 84.5357 26.9348C85.426 26.4173 86.1713 26.6657 87.3514 27.8458Z" fill="#151515"/>
<path d="M11.5156 25.6719V27.3281H13.1719H14.8281V25.6719V24.0156H13.1719H11.5156V25.6719Z" fill="#151515"/>
<path d="M19.7969 25.6719V27.3281H21.4531H23.1094V25.6719V24.0156H21.4531H19.7969V25.6719Z" fill="#151515"/>
<path d="M9.09346 31.9035C9.32119 34.4086 11.2052 36.9965 13.6896 38.218C14.8489 38.777 15.0974 38.8184 17.3126 38.8184C19.5278 38.8184 19.7763 38.777 20.9356 38.218C23.42 36.9965 25.304 34.4086 25.5317 31.9035L25.656 30.6406H23.8548C22.095 30.6406 22.0743 30.6406 22.0743 31.1582C22.0743 32.5246 20.77 34.3258 19.2794 35.009C18.2649 35.4852 16.5259 35.5059 15.4907 35.0711C13.9794 34.45 12.5716 32.5867 12.5509 31.1996V30.6406H10.7704H8.96924L9.09346 31.9035Z" fill="#151515"/>
<path d="M50.6031 58.3621C49.0711 58.859 47.6219 59.7906 46.4625 61.0328C44.5785 63.041 43.8125 65.0492 43.8125 67.9477C43.8125 70.991 44.827 73.3305 47.0422 75.3387L48.1395 76.3531L47.4355 76.4773C46.152 76.7258 43.5434 78.1957 42.384 79.3344C40.9141 80.7629 40.0031 82.2121 39.3613 84.1168L38.8438 85.6902V94.5926C38.8438 103.246 38.8645 103.536 39.2578 103.93C39.6719 104.344 39.941 104.344 53.75 104.344C67.559 104.344 67.8281 104.344 68.2422 103.93C68.6355 103.536 68.6563 103.246 68.6563 94.5926V85.6902L68.1387 84.1168C67.1242 81.1355 65.116 78.7961 62.3832 77.4297C61.493 76.9742 60.4578 76.5602 60.0645 76.4773L59.3398 76.3531L60.4164 75.3801C62.6109 73.4133 63.6875 70.9703 63.6875 67.9477C63.6875 65.0492 62.9215 63.041 61.0375 61.0328C59.8574 59.7699 58.4082 58.859 56.8348 58.3621C55.1578 57.8445 52.2387 57.8445 50.6031 58.3621ZM56.8141 62.2129C58.0355 62.8754 58.9051 63.7656 59.5883 65.0699C59.9816 65.7945 60.0645 66.2707 60.0645 67.9062C60.0645 69.5418 59.9816 70.018 59.5883 70.7426C58.9051 72.0469 58.0563 72.9371 56.8141 73.6203C55.8203 74.1586 55.5305 74.2207 53.75 74.2207C52.1145 74.2207 51.6383 74.1379 50.9137 73.7445C48.7191 72.5852 47.5391 70.8047 47.3734 68.4445C47.2699 66.6641 47.5391 65.5668 48.4293 64.2418C49.1125 63.2066 50.6445 62.0473 51.7625 61.6953C52.1145 61.5918 53.1496 61.5297 54.0605 61.5504C55.427 61.6125 55.9031 61.716 56.8141 62.2129ZM57.9941 79.707C61.8242 80.266 64.5777 82.9988 65.1367 86.8496C65.2402 87.657 65.3438 91.1559 65.3438 94.6547V101.031H53.75H42.1563V94.6547C42.1563 91.1559 42.2598 87.657 42.3633 86.8496C42.6531 84.8828 43.3777 83.4336 44.7234 82.0672C46.0484 80.7629 47.5805 79.9762 49.3195 79.7277C51.0379 79.4793 56.2758 79.4793 57.9941 79.707Z" fill="#151515"/>
<path d="M18.0371 62.3785C15.5941 63.1859 13.7516 64.8008 12.6957 67.0367C12.0746 68.341 12.0332 68.548 12.0332 70.8047C12.0332 73.0406 12.0746 73.2684 12.675 74.552C13.0477 75.2973 13.7516 76.3738 14.2898 76.9121C14.8074 77.4711 15.2422 77.9266 15.2422 77.968C15.2422 77.9887 14.9523 78.0508 14.6211 78.1336C13.4617 78.3613 11.7434 79.3137 10.6047 80.3488C9.23828 81.591 8.36875 82.916 7.80977 84.6137C7.3957 85.8352 7.375 86.3527 7.375 93.8887C7.375 101.59 7.3957 101.88 7.78906 102.273C8.20313 102.688 8.47227 102.688 20.625 102.688C32.7777 102.688 33.0469 102.688 33.4609 102.273C33.8543 101.88 33.875 101.59 33.875 93.8887C33.875 86.3527 33.8543 85.8352 33.4402 84.6137C32.8813 82.916 32.0117 81.591 30.6453 80.3488C29.5066 79.3137 27.7883 78.3613 26.6289 78.1336C26.2977 78.0508 26.0078 77.968 26.0078 77.9266C26.0078 77.8852 26.4426 77.409 26.9809 76.8707C27.4984 76.3324 28.223 75.2766 28.575 74.5313C29.1754 73.2684 29.2168 73.0406 29.2168 70.8047C29.2168 68.548 29.1754 68.341 28.5543 67.0367C27.7055 65.2148 26.2148 63.7242 24.393 62.8754C23.1715 62.2957 22.7574 62.2129 20.9355 62.1715C19.6313 62.1301 18.5547 62.2129 18.0371 62.3785ZM22.5711 65.9188C23.5855 66.3328 24.8898 67.5957 25.366 68.6102C25.8836 69.6453 25.9457 71.6949 25.5109 72.7508C25.0969 73.7652 23.834 75.0695 22.8195 75.5457C21.7844 76.0633 19.7348 76.1254 18.6789 75.6906C17.6645 75.2766 16.3602 74.0137 15.884 72.9992C15.3664 71.9641 15.3043 69.9145 15.7391 68.8586C16.1531 67.8648 17.3953 66.5605 18.4098 66.0637C19.4449 65.5461 21.5152 65.484 22.5711 65.9188ZM25.8422 81.5496C27.7055 82.1293 29.5688 83.9926 30.1691 85.8766C30.3348 86.3734 30.459 88.9199 30.5004 93.0191L30.6039 99.375H20.6457H10.6875V93.8266C10.6875 87.9883 10.8531 86.1664 11.5156 84.8621C12.468 83.0195 14.207 81.7566 16.298 81.384C17.7473 81.1148 24.8484 81.2598 25.8422 81.5496Z" fill="#151515"/>
<path d="M84.2871 62.3785C81.8441 63.1859 80.0016 64.8008 78.9457 67.0367C78.3246 68.341 78.2832 68.548 78.2832 70.8047C78.2832 73.0406 78.3246 73.2684 78.925 74.552C79.2977 75.2973 80.0016 76.3738 80.5398 76.9121C81.0574 77.4711 81.4922 77.9266 81.4922 77.968C81.4922 77.9887 81.2023 78.0508 80.8711 78.1336C79.7117 78.3613 77.9934 79.3137 76.8547 80.3488C75.4883 81.591 74.6188 82.916 74.0598 84.6137C73.6457 85.8352 73.625 86.3527 73.625 93.8887C73.625 101.59 73.6457 101.88 74.0391 102.273C74.4531 102.688 74.7223 102.688 86.875 102.688C99.0277 102.688 99.2969 102.688 99.7109 102.273C100.104 101.88 100.125 101.59 100.125 93.8887C100.125 86.3527 100.104 85.8352 99.6902 84.6137C99.1313 82.916 98.2617 81.591 96.8953 80.3488C95.7566 79.3137 94.0383 78.3613 92.8789 78.1336C92.5477 78.0508 92.2578 77.968 92.2578 77.9266C92.2578 77.8852 92.6926 77.409 93.2309 76.8707C93.7484 76.3324 94.473 75.2766 94.825 74.5313C95.4254 73.2684 95.4668 73.0406 95.4668 70.8047C95.4668 68.548 95.4254 68.341 94.8043 67.0367C93.9555 65.2148 92.4648 63.7242 90.643 62.8754C89.4215 62.2957 89.0074 62.2129 87.1855 62.1715C85.8813 62.1301 84.8047 62.2129 84.2871 62.3785ZM88.8211 65.9188C89.8355 66.3328 91.1398 67.5957 91.616 68.6102C92.1336 69.6453 92.1957 71.6949 91.7609 72.7508C91.3469 73.7652 90.084 75.0695 89.0695 75.5457C88.0344 76.0633 85.9848 76.1254 84.9289 75.6906C83.9145 75.2766 82.6102 74.0137 82.134 72.9992C81.6164 71.9641 81.5543 69.9145 81.9891 68.8586C82.4031 67.8648 83.6453 66.5605 84.6598 66.0637C85.6949 65.5461 87.7652 65.484 88.8211 65.9188ZM92.0922 81.5496C93.9555 82.1293 95.8188 83.9926 96.4191 85.8766C96.5848 86.3734 96.709 88.9199 96.7504 93.0191L96.8539 99.375H86.8957H76.9375V93.8266C76.9375 87.9883 77.1031 86.1664 77.7656 84.8621C78.718 83.0195 80.457 81.7566 82.548 81.384C83.9973 81.1148 91.0984 81.2598 92.0922 81.5496Z" fill="#151515"/>
</svg>
