<svg width="107" height="106" viewBox="0 0 107 106" fill="none" xmlns="http://www.w3.org/2000/svg">
<path d="M75.8405 0.43467C69.2155 2.04951 63.9155 7.51514 62.5698 14.1194C62.1558 16.1483 62.1558 19.6472 62.5698 21.6968C62.7354 22.5663 63.1909 23.9948 63.5636 24.8437C64.2675 26.5206 78.3663 50.5569 79.0288 51.2194C79.5878 51.8198 80.7472 51.7577 81.3683 51.1366C81.9687 50.5155 96.0261 26.7069 96.73 25.1542C97.7237 22.8769 98.1378 20.8065 98.1378 17.9081C98.1378 13.8296 97.2269 10.869 94.9288 7.53584C92.4444 3.9542 88.3038 1.20069 83.9976 0.289748C81.9894 -0.124314 77.828 -0.0622049 75.8405 0.43467ZM83.5628 3.85069C88.3659 4.92725 92.3823 8.71592 94.0593 13.7675C94.5147 15.1546 94.5976 15.7964 94.5976 17.8046C94.6183 20.5167 94.2663 22.0901 93.1897 24.2226C92.548 25.5062 80.5608 45.9194 80.2917 46.2093C80.064 46.4577 67.021 24.2019 66.4206 22.5249C65.9237 21.1585 65.8616 20.7444 65.8616 18.0116C65.8616 15.2788 65.9237 14.8647 66.4206 13.4362C67.2487 11.0968 68.3253 9.39912 70.1058 7.66006C71.8862 5.9003 73.3562 4.94795 75.4472 4.22334C78.0558 3.3124 80.6022 3.20889 83.5628 3.85069Z" fill="#151515"/>
<path d="M77.7245 8.5918C77.1863 8.73672 76.3167 9.06797 75.7577 9.33711C74.3913 9.97891 72.1761 12.2562 71.5136 13.6641C69.0706 18.8398 71.4101 24.8437 76.6894 26.9555C77.6831 27.3488 78.2628 27.4316 80.2503 27.4316C82.5691 27.4316 82.6726 27.4109 84.1839 26.6863C88.0761 24.8023 89.9394 21.6969 89.7323 17.3492C89.6702 15.6309 89.5667 15.2168 88.8835 13.7883C87.248 10.3516 83.8734 8.23984 80.0433 8.30195C79.298 8.30195 78.2628 8.44687 77.7245 8.5918ZM82.0515 12.1113C83.2937 12.484 84.805 13.7469 85.571 15.0512C86.3991 16.4797 86.5027 18.7984 85.7988 20.3098C84.7843 22.5043 82.9417 23.8086 80.6437 23.9742C78.8632 24.0984 77.4968 23.643 76.2132 22.525C72.6316 19.3781 73.7702 13.7262 78.3249 12.0906C79.3601 11.718 80.7679 11.7387 82.0515 12.1113Z" fill="#151515"/>
<path d="M29.5895 20.0613C27.9746 20.4547 26.4219 21.8625 25.8215 23.4566C25.6559 23.8707 25.5938 35.5887 25.5938 61.0535V98.0707L26.0285 98.6297L26.4426 99.168H53.75H81.0574L81.4715 98.6297C81.9063 98.0707 81.9063 98.0086 81.9063 77.5953V57.1199L81.3887 56.623C80.5398 55.7535 79.2148 55.9812 78.6352 57.0785C78.4488 57.4098 78.3867 62.5234 78.3867 76.6844V95.8555H73.625H68.884L68.8219 85.5453C68.7598 76.291 68.7184 75.1937 68.4078 74.6141C67.766 73.434 66.9379 72.6059 65.8613 72.1297L64.8262 71.6328H53.75C43.0465 71.6328 42.6324 71.6535 41.7422 72.0676C40.6035 72.5852 39.7754 73.3512 39.1957 74.4277C38.7402 75.2352 38.7402 75.4629 38.6781 85.5453L38.616 95.8555H33.875H29.1133V60.184V24.4918L29.6516 23.9949L30.1898 23.498L43.9781 23.4359L57.7664 23.3945L58.2426 22.9391C58.843 22.3801 58.8844 21.1586 58.3254 20.4754L57.932 19.9785L44.0816 19.9371C36.4836 19.9371 29.9621 19.9785 29.5895 20.0613ZM51.8867 85.4004V95.8555H47.0215H42.1563V86.2078C42.1563 79.3758 42.2184 76.4359 42.384 76.1254C42.9223 75.0902 43.4398 74.9867 48.0152 74.966L51.8867 74.9453V85.4004ZM64.1016 75.2145C64.4949 75.3594 64.9297 75.6906 65.0746 75.9805C65.2816 76.3738 65.3438 78.7961 65.3438 86.1664V95.8555H60.375H55.4063V85.4004V74.9453L59.402 74.966C61.907 74.966 63.6461 75.0695 64.1016 75.2145Z" fill="#151515"/>
<path d="M36.6492 29.4812C36.2973 29.6469 35.9453 29.916 35.8625 30.123C35.8004 30.3094 35.7383 33.0215 35.7383 36.1477V41.841L36.2559 42.3379L36.7527 42.8555H42.6531C46.5453 42.8555 48.7191 42.7727 49.0504 42.6277C49.9406 42.2137 50.0234 41.7168 50.0234 35.9199V30.4543L49.5266 29.8746L49.0297 29.2949L43.15 29.2535C38.5332 29.2121 37.1461 29.2535 36.6492 29.4812ZM46.5039 36.0234V39.3359H42.8809H39.2578V36.0234V32.7109H42.8809H46.5039V36.0234Z" fill="#151515"/>
<path d="M58.7809 29.357C58.5117 29.3984 58.1184 29.6676 57.8906 29.9574C57.4973 30.4543 57.4766 30.7855 57.4766 35.9406C57.4766 39.4809 57.5594 41.5719 57.7043 41.8824C58.077 42.7105 58.7188 42.8555 62.1555 42.8555C65.2816 42.8555 65.3852 42.8348 65.8613 42.3379C66.2133 42.0066 66.3789 41.6133 66.3789 41.0957C66.3789 40.5781 66.2133 40.1848 65.8613 39.8535C65.3852 39.3773 65.2195 39.3359 63.1699 39.3359H60.9961V34.9055C60.9961 30.827 60.9754 30.4543 60.582 29.9781C60.168 29.4398 59.5883 29.2328 58.7809 29.357Z" fill="#151515"/>
<path d="M36.6285 49.4803C36.3801 49.5838 36.0902 49.8529 35.966 50.0807C35.8211 50.3291 35.7383 52.5443 35.7383 56.1674C35.7383 61.4674 35.759 61.8814 36.1316 62.3369L36.525 62.8338L42.6531 62.8959L48.802 62.958L49.4023 62.3369L50.0234 61.7365V56.1053V50.474L49.423 49.8736L48.8227 49.2732L42.943 49.2939C39.7133 49.2939 36.877 49.3768 36.6285 49.4803ZM46.5039 56.1053V59.4178H42.8809H39.2578V56.1053V52.7928H42.8809H46.5039V56.1053Z" fill="#151515"/>
<path d="M58.0977 49.8736L57.4766 50.474V56.1053V61.7365L58.0977 62.3369L58.698 62.958L64.8469 62.8959L70.975 62.8338L71.3684 62.3369C71.741 61.8814 71.7617 61.4674 71.7617 56.1053C71.7617 50.7432 71.741 50.3291 71.3684 49.8736L70.975 49.3768L64.8469 49.3146L58.698 49.2525L58.0977 49.8736ZM68.2422 56.1053V59.4178H64.6191H60.9961V56.1053V52.7928H64.6191H68.2422V56.1053Z" fill="#151515"/>
<path d="M12.6131 77.2227C12.1369 77.3262 11.4951 77.5332 11.1639 77.6988C9.67323 78.5062 9.36269 79.0652 5.05644 89.4582C0.936516 99.375 0.895109 99.4992 0.874406 101.052C0.853703 102.46 0.915812 102.729 1.4748 103.64C1.86816 104.261 2.48925 104.882 3.11034 105.275L4.1248 105.896H53.7502H103.376L104.39 105.275C106.315 104.075 107.206 101.632 106.481 99.4785C106.295 98.9402 104.39 94.2406 102.258 89.0441C97.9928 78.6926 97.7443 78.2371 95.8189 77.4918C95.0115 77.1812 94.2041 77.1191 90.9537 77.1191H87.0408L86.5232 77.7195C86.1092 78.2164 86.0264 78.4648 86.1299 79.0652C86.3369 80.3695 86.4818 80.4109 90.7053 80.5352C94.1834 80.6387 94.556 80.6801 94.9287 81.0527C95.3635 81.5082 103.231 100.555 103.231 101.176C103.231 101.404 102.982 101.797 102.692 102.087L102.154 102.584H53.7502H5.34628L4.808 102.087C4.51816 101.797 4.26972 101.404 4.26972 101.197C4.26972 100.596 12.1369 81.5289 12.5924 81.0527C12.9443 80.6801 13.317 80.6387 16.7537 80.5352C18.824 80.473 20.6252 80.3695 20.7701 80.266C20.8943 80.1832 21.1221 79.7898 21.2463 79.3965C21.5361 78.527 21.2049 77.6781 20.4182 77.2848C19.8178 76.9949 14.0623 76.9535 12.6131 77.2227Z" fill="#151515"/>
</svg>
