<svg width="107" height="104" viewBox="0 0 107 104" fill="none" xmlns="http://www.w3.org/2000/svg">
<path d="M4.43195 1.29805C2.87922 1.89844 1.28508 3.51328 0.684685 5.10742C0.00148168 6.90859 0.1257 9.41367 0.974529 10.9664C2.40304 13.6164 5.21867 14.9621 8.26203 14.4859C10.5808 14.134 12.7132 12.4156 13.4378 10.3453L13.8105 9.35156H17.7441H21.6777L29.9589 17.6328C38.2194 25.8727 38.2609 25.9141 39.1097 25.9141C39.7929 25.9141 40.062 25.8105 40.3933 25.3758C40.9109 24.734 40.9316 24.2371 40.5382 23.4711C40.1655 22.7879 23.9343 6.59805 23.2925 6.2668C23.0027 6.12187 21.2015 6.03906 18.303 6.03906H13.7484L13.6241 5.45937C13.3757 4.48633 12.1128 2.78867 11.0984 2.08476C9.23508 0.801171 6.56437 0.490624 4.43195 1.29805ZM8.82101 4.67266C11.0362 5.95625 11.1812 9.14453 9.11086 10.6352C8.55187 11.0285 8.15851 11.1113 7.04054 11.1113C5.54992 11.1113 4.92883 10.8215 4.1007 9.68281C3.4589 8.83398 3.47961 6.59805 4.14211 5.66641C5.19797 4.19648 7.26828 3.76172 8.82101 4.67266Z" fill="#151515"/>
<path d="M92.42 7.30194C88.6728 7.92303 84.9462 10.1176 82.524 13.1609C80.7021 15.4383 79.1493 19.1441 79.1286 21.1937C79.1286 21.525 79.0872 21.7734 79.0458 21.7734C78.9837 21.7734 78.2384 21.2766 77.3896 20.6555C74.6154 18.668 72.9798 18.2539 67.9697 18.2539C64.181 18.2539 63.7876 18.3574 63.0423 19.4754C62.6075 20.1172 62.5661 20.407 62.5661 22.7879C62.5661 27.591 63.5599 30.2617 66.272 32.9531C68.9841 35.6238 71.3236 36.4726 76.0853 36.4726H78.9216V45.3957C78.9216 50.3023 78.8388 54.2773 78.756 54.2359C78.6525 54.1945 73.249 51.1512 66.7482 47.466L54.906 40.7582V39.2676V37.7769L56.645 37.6527C59.3365 37.4664 60.972 36.4519 61.8829 34.423C62.4005 33.2637 62.3798 30.1582 61.8415 29.2266C61.1169 28.0051 60.3509 27.7566 57.5974 27.8394C56.2931 27.8601 55.0716 27.9637 54.8853 28.0465C54.6575 28.1707 54.4091 27.9637 53.9743 27.2598C52.8564 25.5 51.4072 24.8789 48.4052 24.8789C46.6868 24.8789 46.19 24.9617 45.631 25.293C44.513 25.9762 44.1404 26.825 44.1404 28.6883C44.1404 30.9242 44.4509 31.8144 45.6931 33.098C46.8939 34.3402 48.1982 34.8164 50.2892 34.8164H51.5935V37.8598V40.9238L39.3372 47.8594C32.6087 51.6687 26.4599 55.1469 25.6939 55.5816L24.2654 56.3891V52.8695V49.3707L26.17 49.2672C27.7021 49.1844 28.3232 49.0601 29.172 48.6254C31.4493 47.466 32.5673 45.8926 32.9814 43.3047C33.3954 40.5512 32.8365 38.6051 31.4079 38.0047C30.4763 37.632 26.9361 37.6113 25.6732 38.0047C24.431 38.3773 22.9818 39.3918 22.2779 40.3648L21.6982 41.1723L20.663 40.3648C18.9861 39.1019 17.7025 38.7086 14.8454 38.6051C11.9884 38.5016 11.2845 38.7293 10.4357 39.9922C9.9595 40.6754 9.9388 40.8617 10.0216 43.4082C10.0837 45.9133 10.1458 46.2031 10.7462 47.5074C12.3818 50.9441 15.5079 52.8281 19.6279 52.8281H20.9529V55.5609V58.3144L17.8681 60.0328C16.1704 60.9852 14.6177 61.9582 14.4107 62.1652C13.8724 62.7656 13.9138 63.9664 14.5142 64.4426C15.3216 65.1051 16.0669 64.9187 18.5927 63.4902L20.9529 62.1652V67.5273C20.9529 72.641 20.9736 72.9309 21.3669 73.3242C22.0501 74.0074 23.5615 73.8004 23.9755 72.9723C24.079 72.7652 24.2033 69.8254 24.2654 66.4094L24.3689 60.2191L27.0603 58.7078C28.5509 57.859 29.8138 57.1758 29.8966 57.1758C30.0829 57.1758 49.3368 68.0863 49.5853 68.3348C49.6681 68.4176 44.0575 71.7301 37.1013 75.6844L24.4517 82.8477L14.7833 77.2371C9.46263 74.1316 5.03216 71.5437 4.94934 71.4609C4.84583 71.3781 5.92239 70.6742 7.3302 69.8875C10.2493 68.2727 11.0154 67.6309 11.0154 66.7613C11.0154 65.9332 10.2493 65.25 9.35911 65.25C8.51028 65.25 1.51263 69.1422 0.870829 69.9703C0.229032 70.757 0.311844 72.1234 1.03645 72.8894C1.347 73.2207 13.065 80.1562 27.081 88.3133C49.0263 101.066 52.6908 103.137 53.3947 103.137C54.0779 103.137 56.8728 101.584 72.9177 92.2469C83.2279 86.243 91.8611 81.15 92.1302 80.9223C93.1033 80.032 92.3579 78.0859 91.0329 78.0859C90.7224 78.0859 88.7556 79.1004 86.3747 80.4875L82.2548 82.8891L69.5638 75.7051C62.5868 71.7508 56.8521 68.5004 56.8107 68.459C56.7072 68.3762 76.5822 57.1758 76.8306 57.1758C76.9755 57.1758 77.4931 57.4242 78.0107 57.7141L78.9216 58.2523V64.2148C78.9216 68.2312 79.0044 70.3637 79.1493 70.7156C79.6255 71.7508 81.2818 71.8957 81.9236 70.9848C82.172 70.6121 82.2341 69.5977 82.2341 65.3949C82.2341 60.8195 82.2755 60.2605 82.5447 60.3641C82.7724 60.4469 96.6228 68.2519 102.047 71.3367C102.068 71.3574 100.722 72.1441 99.0865 73.0758C96.0638 74.8355 95.4841 75.3324 95.4841 76.1605C95.4841 76.9266 96.3536 77.7547 97.1611 77.7547C97.9892 77.734 104.759 73.8832 105.691 72.8894C106.312 72.2269 106.436 71.0883 106.022 70.1566C105.753 69.5562 105.711 69.5355 92.6478 62.1238L82.2341 56.2441V53.7391V51.2133L84.9876 51.1305C88.0517 51.0062 88.9419 50.7785 90.681 49.5777C91.9853 48.6875 93.1033 47.2383 93.6415 45.6855C94.2212 44.0293 94.2005 40.4269 93.6208 39.4746C92.8755 38.2531 92.1716 38.0875 88.3829 38.1703C85.1118 38.2324 84.9876 38.2531 83.6419 38.8949L82.2341 39.5574V34.2781V29.0195H84.9876C88.6728 29.0195 91.2193 28.709 93.1861 28.0672C95.2978 27.384 95.7325 26.9699 95.6497 25.8726C95.6083 25.2308 95.4427 24.9203 95.0079 24.5891C94.5111 24.2164 94.3454 24.1957 93.6622 24.4027C93.2482 24.5269 92.2544 24.8375 91.447 25.0859C90.2876 25.4379 89.2318 25.5414 86.0849 25.6449L82.172 25.7691L82.2755 23.409C82.4618 19.3305 83.7454 16.4734 86.6025 13.8234C89.4181 11.2148 92.0681 10.3867 97.5544 10.3867H100.867V12.4156C100.867 15.3762 100.142 17.7363 98.5689 20.0551C98.1341 20.6762 97.8857 21.2973 97.8857 21.7113C97.8857 23.3262 99.8111 23.8644 100.929 22.5601C101.819 21.525 102.854 19.5789 103.476 17.7363C103.993 16.2457 104.055 15.7281 104.138 12.4984C104.242 8.54413 104.159 8.27499 102.875 7.48827C102.275 7.11561 101.84 7.07421 97.865 7.09491C95.4841 7.11561 93.0204 7.19843 92.42 7.30194ZM73.7458 22.4152C75.754 23.3883 77.0997 24.734 78.0521 26.7215C78.756 28.1707 78.7974 28.4191 78.8802 30.7172L78.963 33.1601H76.2923C72.6486 33.1601 70.806 32.6012 68.9427 30.9242C66.8931 29.0816 65.8786 26.5351 65.8786 23.2019V21.525L69.0462 21.5871C72.1724 21.6699 72.2138 21.6699 73.7458 22.4152ZM50.7861 28.7711C51.3243 29.2473 51.4486 29.5578 51.5521 30.448L51.6556 31.5453L50.1443 31.4625C48.7572 31.4004 48.5915 31.3383 48.0533 30.7172C47.5771 30.1996 47.4529 29.8476 47.4529 29.123V28.1914H48.7986C49.9786 28.1914 50.2271 28.2535 50.7861 28.7711ZM59.0466 31.7523C59.0466 33.4707 57.97 34.3609 55.8997 34.3816L54.906 34.4023V33.3465C54.906 32.4562 55.0095 32.2078 55.5064 31.6902C56.0654 31.1312 56.231 31.0898 57.5767 31.0898H59.0466V31.7523ZM29.6068 42.4351C29.4825 44.816 28.1368 45.9961 25.5283 45.9961H24.224L24.3068 44.5883C24.431 42.1867 25.7353 41.048 28.3853 41.0273H29.6896L29.6068 42.4351ZM90.7224 42.725C90.7017 44.816 89.7908 46.3273 87.9275 47.3004C87.265 47.6523 86.6232 47.7559 84.6357 47.818L82.172 47.9008L82.2755 46.493C82.3997 44.8574 82.8966 43.7394 83.9525 42.725C84.9876 41.7312 85.94 41.4621 88.5072 41.4414H90.7224V42.725ZM17.5783 42.4351C19.7314 43.5324 20.663 45.0851 20.8908 47.8387L21.015 49.5777L19.2345 49.4742C17.0607 49.3293 15.9013 48.8324 14.7626 47.5281C13.7275 46.348 13.2927 45.0644 13.2927 43.2426V41.7934L15.0111 41.8969C16.1704 41.9797 16.9986 42.1453 17.5783 42.4351ZM52.049 56.2855C52.67 56.948 53.7259 56.9273 54.3884 56.2441L54.906 55.7473V50.2402C54.906 47.2176 54.9474 44.7539 55.0095 44.7539C55.2372 44.7539 73.1247 54.9605 73.1247 55.1055C73.1247 55.1883 68.6736 57.7762 63.2079 60.8609L53.3118 66.4922L43.3536 60.8402C37.888 57.7555 33.4575 55.1676 33.5197 55.1055C33.5611 55.0434 37.6396 52.7246 42.5462 49.9297L51.49 44.8367L51.5521 50.323C51.5935 55.623 51.6142 55.8301 52.049 56.2855ZM66.1685 77.6512C76.1888 83.3445 78.6732 84.8352 78.4661 85.0215C77.9486 85.4977 53.7673 99.493 53.4361 99.493C53.2497 99.5137 47.4115 96.2012 40.4552 92.1641C29.0271 85.5184 27.8677 84.7937 28.2611 84.566C28.5095 84.4418 34.2236 81.2121 40.9314 77.382C47.6599 73.5519 53.2497 70.4465 53.374 70.4879C53.4982 70.5086 59.2536 73.7383 66.1685 77.6512Z" fill="#151515"/>
<path d="M46.0039 78.8527C45.5277 79.0391 44.7617 79.7844 44.4305 80.4055C44.2441 80.7574 44.1406 81.6062 44.1406 82.6828C44.1406 84.7531 44.6789 86.0988 45.9004 87.1754C47.0598 88.1898 47.8258 88.4383 49.834 88.4383H51.5938V90.5707C51.5938 92.5375 51.6352 92.7445 52.0699 93.1586C52.7324 93.7797 53.7469 93.759 54.3887 93.0965C54.8648 92.641 54.9063 92.4547 54.9063 90.5086V88.4383H56.459C58.1773 88.4383 59.0055 88.1691 60.0406 87.2996C61.2621 86.2644 61.6348 85.2914 61.6348 82.9933V80.9644L60.8688 80.2398L60.082 79.5359H57.6391C55.6309 79.5359 55.0719 79.598 54.4094 79.95L53.6227 80.3433L52.9602 79.8465C51.7387 78.9148 50.9313 78.7078 48.5504 78.7285C47.3289 78.7285 46.1695 78.7906 46.0039 78.8527ZM50.5793 82.2273C51.1176 82.5379 51.5938 83.5109 51.5938 84.4012V85.1258H50.1652C48.2605 85.1258 47.6602 84.6703 47.4945 83.0969L47.391 82.0203H48.7781C49.5441 82.0203 50.3516 82.1238 50.5793 82.2273ZM58.3637 83.6144C58.1773 84.7324 57.5977 85.1258 56.1277 85.1258H54.9063V84.5047C54.9063 84.1113 55.0926 83.6766 55.4238 83.366C55.8379 82.9312 56.1277 82.8484 57.2043 82.8484H58.4879L58.3637 83.6144Z" fill="#151515"/>
<path d="M3.60382 18.3156C3.04484 18.916 3.02413 19.9097 3.54171 20.5515C3.91437 21.007 4.10069 21.0484 6.39874 21.1105C8.65538 21.1726 8.90382 21.1519 9.4214 20.7379C10.1253 20.1789 10.2081 18.8953 9.56632 18.2535C9.19366 17.8808 8.88312 17.8394 6.60577 17.8394C4.20421 17.8394 4.01788 17.8601 3.60382 18.3156Z" fill="#151515"/>
<path d="M12.8787 18.2539C12.2369 18.8957 12.3197 20.1793 13.0029 20.7176C13.5205 21.1316 13.8103 21.1523 18.2822 21.1523C22.9404 21.1523 23.0025 21.1523 23.5615 20.6555C24.3275 20.0137 24.3689 18.7922 23.665 18.2332C23.2303 17.8812 22.7541 17.8398 18.2408 17.8398C13.5619 17.8398 13.2721 17.8605 12.8787 18.2539Z" fill="#151515"/>
<path d="M3.66602 24.7754C3.33477 25.0859 3.14844 25.5207 3.14844 25.9141C3.14844 26.3074 3.33477 26.7422 3.66602 27.0527L4.16289 27.5703H13.6035C19.3797 27.5703 23.1891 27.4875 23.4375 27.3633C24.3277 26.8871 24.3277 24.941 23.4375 24.4648C23.1891 24.3406 19.3797 24.2578 13.6035 24.2578H4.16289L3.66602 24.7754Z" fill="#151515"/>
<path d="M4.03859 30.8828C3.06554 31.2762 2.83781 32.7875 3.62453 33.5328C4.1007 33.9883 4.14211 33.9883 13.6448 33.9883C22.6507 33.9883 23.2097 33.9676 23.6652 33.5949C24.3691 33.0359 24.3277 31.8145 23.5616 31.1727L23.0027 30.6758L13.7484 30.6965C8.65539 30.6965 4.28703 30.7793 4.03859 30.8828Z" fill="#151515"/>
</svg>
