<svg width="107" height="108" viewBox="0 0 107 108" fill="none" xmlns="http://www.w3.org/2000/svg">
<path d="M4.14531 1.39233C2.92383 1.95131 1.88867 2.94506 1.28828 4.14584C0.853516 5.01537 0.75 5.51225 0.75 6.79584C0.75 8.07944 0.853516 8.57631 1.28828 9.44584C1.88867 10.6673 2.92383 11.6611 4.20742 12.2201L5.09766 12.6134V19.404C5.09766 25.9876 5.11836 26.1947 5.51172 26.5673C5.86367 26.8986 8.24453 27.2712 19.2172 28.7619C28.3887 30.0247 32.55 30.6665 32.6535 30.8529C32.7363 30.9978 34.6617 33.8755 36.9184 37.2294L41.0176 43.3369L41.8043 43.399C42.8395 43.4818 43.3984 43.0056 43.3984 42.0533C43.3984 41.4943 42.5289 40.0451 38.8645 34.5587C34.641 28.2443 34.2684 27.7474 33.6266 27.6439C32.6949 27.4783 8.49297 24.1865 8.22383 24.1865C8.0582 24.1865 7.99609 22.406 7.99609 18.4103V12.6341L9.11406 12.0958C11.2258 11.0607 12.3852 9.1974 12.3852 6.79584C12.3852 4.43569 11.2465 2.5517 9.19688 1.53725C7.83047 0.854045 5.47031 0.791936 4.14531 1.39233ZM8.0582 4.4978C8.59648 4.80834 9.44531 6.19545 9.44531 6.79584C9.44531 6.96147 9.25898 7.47905 9.01055 7.95522C8.43086 9.1767 7.08516 9.8599 5.92578 9.50795C3.79336 8.86615 3.08945 6.38178 4.62148 4.84975C5.57383 3.8974 6.79531 3.77319 8.0582 4.4978Z" fill="#151515"/>
<path d="M51.0999 1.53652C49.0503 2.55097 47.9116 4.43496 47.9116 6.83652C47.9116 7.97519 48.0358 8.51347 48.4706 9.38301C49.071 10.6252 50.3339 11.826 51.4312 12.24L52.1558 12.4885L52.0315 16.774C51.9073 20.8525 51.928 21.0803 52.3214 21.5771C52.8597 22.2603 53.9569 22.3225 54.5366 21.7014C54.8679 21.3494 54.9507 20.8111 55.0542 18.451C55.137 16.8982 55.1991 14.9521 55.1991 14.1447V12.6334L56.3171 12.0951C59.8366 10.3768 60.7269 5.78066 58.1183 2.82012C57.0417 1.59863 55.6132 0.99824 53.7499 0.99824C52.4663 0.99824 51.9694 1.10176 51.0999 1.53652ZM55.1991 4.47637C57.2901 5.78066 56.7933 8.78262 54.371 9.50722C52.5491 10.0662 50.4788 7.9959 51.0378 6.17402C51.5968 4.26933 53.5843 3.46191 55.1991 4.47637Z" fill="#151515"/>
<path d="M98.3031 1.53725C96.2535 2.55171 95.1148 4.43569 95.1148 6.79585C95.1148 9.19741 96.2742 11.0607 98.3859 12.0958L99.5039 12.6341V18.4103C99.5039 22.3646 99.4418 24.1865 99.2762 24.1865C99.0484 24.1865 75.2813 27.4162 73.977 27.6232C73.2109 27.7474 73.0867 27.8923 68.6355 34.5587C64.9711 40.0451 64.1016 41.4943 64.1016 42.0533C64.1016 43.0056 64.6605 43.4818 65.6957 43.399L66.4824 43.3369L70.5816 37.2294C72.8383 33.8755 74.7637 30.9978 74.8465 30.8529C74.95 30.6665 79.1734 30.004 88.2828 28.7826C99.2969 27.2712 101.616 26.8986 101.968 26.588C102.382 26.1947 102.402 26.0083 102.402 19.404V12.6134L103.293 12.2201C104.576 11.6611 105.611 10.6673 106.212 9.44585C106.646 8.57631 106.75 8.07944 106.75 6.79585C106.75 5.51225 106.646 5.01538 106.212 4.14585C105.177 2.05483 103.417 1.01967 100.932 0.998971C99.6695 0.998971 99.1727 1.10249 98.3031 1.53725ZM102.423 4.4771C103.645 5.181 104.059 6.96147 103.313 8.22436C103.106 8.57631 102.527 9.07319 102.03 9.32163C101.243 9.69428 101.015 9.71499 100.332 9.50795C99.3383 9.21811 98.5309 8.41069 98.241 7.41694C98.034 6.73374 98.0547 6.506 98.448 5.69858C99.2348 4.08374 100.87 3.56616 102.423 4.4771Z" fill="#151515"/>
<path d="M52.9838 24.8688C52.2178 25.3035 50.0853 27.9121 48.9881 29.7754C45.0959 36.3176 45.8412 43.6672 50.9342 49.1535L52.3006 50.6441V52.5281V54.3914L51.3275 53.3355C47.9736 49.7539 42.6943 47.8699 35.6139 47.725C33.3779 47.6836 33.0467 47.725 32.6533 48.077C32.0736 48.5945 32.0943 49.4227 32.7361 51.3273C34.5373 56.6273 37.6428 60.5609 41.4314 62.3828C43.9572 63.5836 45.158 63.832 48.9467 63.832L52.3006 63.8113V68.1797V72.548L51.0998 72.7965C47.8494 73.4797 44.6611 75.9434 43.1705 78.9453C42.6943 79.8977 42.2803 81.0777 42.2182 81.5746C42.1146 82.4027 42.1767 82.5477 42.6736 82.941C43.2533 83.3965 43.2947 83.3965 53.7498 83.3965C64.2049 83.3965 64.2463 83.3965 64.826 82.941C65.3228 82.5477 65.385 82.4027 65.2814 81.616C65.24 81.1191 64.8467 80.0012 64.4326 79.1316C62.9627 76.0469 59.733 73.4797 56.4205 72.7965L55.199 72.548V68.1797V63.8113L58.5736 63.832C62.3416 63.832 63.5424 63.5836 66.0682 62.3828C69.8568 60.5609 72.9623 56.6273 74.7635 51.3273C75.5916 48.843 75.3846 47.9734 73.8939 47.6629C72.9623 47.4766 67.6002 47.9527 65.5713 48.3875C61.824 49.2156 59.0498 50.582 56.731 52.7973L55.199 54.2672V52.4453V50.6441L56.5654 49.1535C58.2424 47.373 59.5674 45.1371 60.3127 42.9219C60.8303 41.4313 60.8717 40.9758 60.8717 38.3672C60.8717 35.6344 60.8303 35.3652 60.2092 33.502C59.2361 30.6863 57.9732 28.5953 55.8408 26.1523C54.8885 25.0758 54.2674 24.6203 53.7498 24.6203C53.5842 24.6203 53.2322 24.7238 52.9838 24.8688ZM54.7435 29.734C55.8615 31.2246 57.1451 33.8539 57.5592 35.4895C58.3873 38.7398 57.6834 42.4043 55.6338 45.4063L55.199 46.0273V41.6383V37.2492L54.6607 36.8352C54.3502 36.5867 53.9568 36.4004 53.7498 36.4004C53.5428 36.4004 53.1494 36.5867 52.8389 36.8352L52.3006 37.2492V41.6383V46.0273L51.8658 45.4063C50.3752 43.2117 49.6092 40.8102 49.6092 38.3672C49.6092 36.359 50.0232 34.7027 51.0584 32.5703C51.783 31.0797 53.4807 28.5332 53.7498 28.5332C53.8119 28.5332 54.2467 29.0715 54.7435 29.734ZM38.7607 50.9961C42.0732 51.3066 45.7584 52.6938 47.9736 54.4742C48.6154 54.9918 49.5471 56.0477 50.0646 56.8344C51.0584 58.3457 51.99 60.3746 51.783 60.5816C51.7209 60.6438 50.5822 60.7473 49.2365 60.7887C46.4002 60.8922 44.9303 60.6023 42.6322 59.4844C40.4998 58.4285 38.3881 56.1305 36.9803 53.3355C36.4213 52.1969 35.9451 51.141 35.9451 50.9754C35.9451 50.7477 36.1521 50.7063 36.7318 50.7891C37.1459 50.8305 38.0568 50.934 38.7607 50.9961ZM71.5545 50.9754C71.5545 51.141 71.0783 52.1969 70.5193 53.3355C69.1115 56.1305 66.9998 58.4285 64.8674 59.4844C62.5693 60.6023 61.0994 60.8922 58.2631 60.7887C56.9174 60.7473 55.7787 60.6438 55.7166 60.5816C55.5096 60.3746 56.4619 58.2836 57.4143 56.8551C59.5881 53.5633 63.8529 51.4309 69.36 50.9133C70.2916 50.8098 71.1611 50.727 71.306 50.7063C71.4303 50.7063 71.5545 50.8098 71.5545 50.9754ZM55.5924 75.757C57.7248 76.2332 59.8158 77.641 61.0166 79.3801L61.6377 80.291H53.7498H45.8619L46.483 79.3801C48.4705 76.5023 52.2592 74.991 55.5924 75.757Z" fill="#151515"/>
<path d="M4.14531 48.5954C2.92383 49.1544 1.88867 50.1481 1.28828 51.3489C0.853516 52.2185 0.75 52.7153 0.75 53.9782C0.770703 56.4626 1.80586 58.2224 3.89687 59.2575C5.42891 60.0235 7.66484 60.0235 9.19687 59.2575C10.4184 58.6571 11.4121 57.622 11.9711 56.3384L12.3645 55.4481H20.5215C28.4301 55.4481 28.7199 55.4274 29.1133 55.0341C29.6516 54.4958 29.6516 53.5021 29.1133 52.9638C28.7199 52.5704 28.4301 52.5497 20.5215 52.5497H12.3645L11.9711 51.6595C11.4121 50.3759 10.4184 49.3407 9.19687 48.7403C7.83047 48.0571 5.47031 47.995 4.14531 48.5954ZM7.70625 51.5353C8.92773 52.1149 9.61094 53.4606 9.25898 54.62C8.96914 55.6138 8.16172 56.4212 7.16797 56.711C6.48477 56.9181 6.25703 56.8974 5.47031 56.5247C3.27578 55.4481 3.23437 52.5911 5.4082 51.5146C6.44336 50.997 6.62969 50.997 7.70625 51.5353Z" fill="#151515"/>
<path d="M98.3031 48.7403C97.0816 49.3407 96.0879 50.3759 95.5289 51.6595L95.1355 52.5497H86.9785C79.0699 52.5497 78.7801 52.5704 78.3867 52.9638C78.159 53.1915 77.9727 53.647 77.9727 53.9989C77.9727 54.3509 78.159 54.8063 78.3867 55.0341C78.7801 55.4274 79.0699 55.4481 86.9785 55.4481H95.1355L95.5289 56.3384C96.0879 57.622 97.0816 58.6571 98.3031 59.2575C99.8352 60.0235 102.071 60.0235 103.603 59.2575C105.694 58.2224 106.729 56.4626 106.75 53.9782C106.75 52.7153 106.646 52.2185 106.212 51.3489C105.177 49.2579 103.417 48.2228 100.932 48.2021C99.6695 48.2021 99.1727 48.3056 98.3031 48.7403ZM102.092 51.5146C104.266 52.5704 104.245 55.4481 102.03 56.5247C101.243 56.8974 101.015 56.9181 100.332 56.711C99.3383 56.4212 98.5309 55.6138 98.241 54.62C97.8891 53.4813 98.5723 52.1356 99.773 51.5353C100.85 50.997 101.015 50.997 102.092 51.5146Z" fill="#151515"/>
<path d="M40.8727 64.9095C40.6863 65.1165 38.7609 67.9735 36.5664 71.286C34.3719 74.5778 32.55 77.3313 32.5086 77.3521C32.4879 77.3935 26.484 78.2423 19.1965 79.236C8.16172 80.7267 5.88438 81.0993 5.53242 81.4099C5.11836 81.8032 5.09766 81.9896 5.09766 88.5938V95.3845L4.20742 95.7778C2.92383 96.3368 1.88867 97.3306 1.28828 98.5521C0.853516 99.4216 0.75 99.9185 0.75 101.181C0.770703 103.666 1.80586 105.425 3.89688 106.461C5.42891 107.227 7.66484 107.227 9.19688 106.461C11.2465 105.446 12.3852 103.562 12.3852 101.161C12.3852 98.7384 11.1016 96.7509 8.88633 95.7778L7.99609 95.3845V89.6083C7.99609 85.7989 8.07891 83.8114 8.20313 83.8114C8.49297 83.8114 32.7363 80.5196 33.6266 80.354C34.2684 80.2505 34.641 79.7536 38.8645 73.4392C42.591 67.8493 43.3984 66.5036 43.3984 65.9239C43.3984 65.4063 43.2535 65.1165 42.943 64.8888C42.3219 64.454 41.266 64.4747 40.8727 64.9095ZM7.70625 98.7384C8.92773 99.3181 9.61094 100.664 9.25898 101.823C8.61719 103.956 6.13281 104.659 4.60078 103.148C3.19297 101.72 3.66914 99.4423 5.59453 98.5935C6.46406 98.2208 6.6918 98.2415 7.70625 98.7384Z" fill="#151515"/>
<path d="M64.5776 64.8681C63.5218 65.6134 63.7495 66.1103 68.6354 73.4392C73.0866 80.1056 73.2108 80.2505 73.9769 80.3747C75.1569 80.561 99.0897 83.8114 99.2968 83.8114C99.421 83.8114 99.5038 86.0681 99.5038 89.5876V95.3638L98.3858 95.9021C96.2741 96.9372 95.1147 98.8005 95.1147 101.202C95.1147 103.562 96.2534 105.446 98.303 106.461C99.8351 107.227 102.071 107.227 103.603 106.461C105.694 105.425 106.729 103.666 106.75 101.181C106.75 99.9185 106.646 99.4216 106.212 98.5521C105.611 97.3306 104.576 96.3368 103.292 95.7778L102.402 95.3845V88.5938C102.402 81.9896 102.382 81.8032 101.967 81.4099C101.616 81.0993 99.3382 80.7267 88.4069 79.236C78.987 77.9731 75.1776 77.3728 74.9499 77.145C74.7843 76.9794 72.8175 74.1017 70.5608 70.7478C66.6065 64.8474 66.4616 64.661 65.7577 64.5989C65.3437 64.5782 64.8261 64.6817 64.5776 64.8681ZM101.864 98.5935C103.81 99.4009 104.328 101.699 102.899 103.148C101.367 104.659 98.8827 103.956 98.2409 101.823C97.889 100.684 98.5722 99.3388 99.773 98.7384C100.808 98.2208 100.953 98.2208 101.864 98.5935Z" fill="#151515"/>
<path d="M52.9633 86.2535C52.6321 86.5848 52.5492 87.123 52.4457 89.5039C52.3629 91.0773 52.3008 93.0441 52.3008 93.8516V95.3629L51.1828 95.9012C47.6633 97.6195 46.7731 102.216 49.3817 105.176C50.4582 106.398 51.8867 106.998 53.75 106.998C55.6133 106.998 57.0418 106.398 58.1184 105.176C59.7125 103.375 60.0645 100.725 59.0293 98.6133C58.4289 97.3711 57.166 96.1703 56.0688 95.7562L55.3442 95.5078L55.4684 91.2223C55.5926 87.1437 55.5719 86.916 55.1785 86.4191C54.661 85.7566 53.5223 85.6945 52.9633 86.2535ZM54.9094 98.7375C56.1309 99.3172 56.7727 100.601 56.4621 101.781C55.6754 104.638 51.8867 104.659 51.0379 101.822C50.686 100.684 51.3692 99.3379 52.5699 98.7375C53.6465 98.1992 53.8121 98.1992 54.9094 98.7375Z" fill="#151515"/>
</svg>
