<svg width="106" height="91" viewBox="0 0 106 91" fill="none" xmlns="http://www.w3.org/2000/svg">
<path d="M58.2379 0.295976C56.6023 0.751445 55.5258 1.35184 54.2215 2.59402C52.793 3.96043 51.8199 5.82371 51.5094 7.7698C51.3645 8.55652 51.2402 9.23973 51.1988 9.28113C51.1574 9.32254 50.9711 9.21902 50.7848 9.0534C49.5426 7.95613 46.8719 7.23152 44.0355 7.23152C40.723 7.23152 40.1641 7.79051 40.1641 11.2065C40.1641 14.9538 40.9922 17.169 43.1246 19.1772C44.9672 20.937 47.0375 21.7237 49.7289 21.7237H51.3438V26.4647V31.185L49.998 31.3093C49.2734 31.3714 47.9484 31.6819 47.0789 31.9925L45.4848 32.5307L43.4766 30.5225L41.4684 28.5143L41.6547 27.6655C41.7789 27.0858 41.7582 26.4647 41.5926 25.7608C41.3648 24.7671 41.0336 24.4151 34.2844 17.6038C29.6055 12.9042 26.9348 10.3577 26.3965 10.1093C25.3406 9.61238 23.7258 9.61238 22.6699 10.1093C22.173 10.337 20.6824 11.662 19.0055 13.3804C16.4383 15.9889 16.1484 16.3409 16.1484 17.0034C16.1484 17.935 16.8523 18.6182 17.8254 18.6182C18.4672 18.6182 18.8191 18.3284 21.3242 15.8233C23.084 14.0636 24.2641 13.0284 24.5332 13.0284C25.0301 13.0284 38.5078 26.4233 38.5078 26.8995C38.5078 27.3757 17.5563 48.2237 17.0801 48.2237C16.8316 48.2237 14.2438 45.8014 9.99961 41.5366C4.84453 36.4022 3.3125 34.746 3.3125 34.3526C3.3125 33.9593 4.59609 32.5514 8.79883 28.3487C13.7262 23.4007 14.2852 22.7796 14.2852 22.1792C14.2852 21.2682 13.4984 20.4815 12.5875 20.4815C11.9871 20.4815 11.3453 21.0405 6.35586 26.0093C3.2918 29.0733 0.621094 31.9096 0.393359 32.3237C0.124219 32.8413 0 33.5245 0 34.4147C0 35.512 0.103516 35.8639 0.600391 36.6507C0.931641 37.1475 4.20273 40.5636 7.88789 44.2073C15.3203 51.5776 15.5066 51.7225 17.6598 51.4741L18.757 51.3292L19.8129 52.4264C20.7445 53.3581 20.9309 53.6893 21.2414 54.9522C21.759 57.1261 22.8148 58.9479 24.6367 60.9147L26.2723 62.6538L25.1336 63.7718C23.7051 65.1589 23.0426 66.2561 22.7527 67.7261C22.2559 70.1483 23.3738 72.612 25.5063 73.8542L26.6656 74.5581L26.3758 75.3862C25.9203 76.7112 26.0031 78.7815 26.5828 80.003C27.8457 82.7358 30.9512 84.0401 33.8496 83.0464L34.8641 82.6944L35.4023 83.7296C36.0234 84.9304 37.5348 86.1725 38.8391 86.5245C39.7293 86.7729 42.0273 86.7315 42.6691 86.4417C42.9383 86.3175 43.0832 86.4624 43.2695 87.0628C43.4145 87.4975 44.0148 88.3464 44.6152 88.9261C45.4641 89.7749 45.9609 90.0854 46.8926 90.3753C49.1078 90.9964 51.6129 90.3753 53.0828 88.8225C53.559 88.3257 53.8695 88.1807 54.4492 88.1807C56.4574 88.1807 58.7555 86.7936 59.6457 85.0339L60.0598 84.2057L60.5152 84.6198C61.3641 85.4272 62.8754 85.9448 64.366 85.9448C66.602 85.9448 68.2789 85.0339 69.2934 83.2534C69.5832 82.7151 69.8523 82.2597 69.873 82.2182C69.8938 82.1975 70.4113 82.4253 71.0324 82.7358C71.9641 83.2327 72.3781 83.3155 73.8066 83.3155C75.1316 83.3155 75.6492 83.212 76.3945 82.8393C77.6574 82.1768 78.4027 81.4315 79.0445 80.21C79.5 79.3405 79.6035 78.9057 79.6035 77.5186C79.6035 76.1108 79.5 75.6968 79.0238 74.7651C78.6926 74.144 78.4648 73.6264 78.5063 73.6057C78.5477 73.585 78.8375 73.4401 79.1895 73.2745C80.059 72.8397 81.1977 71.6389 81.6738 70.6866C81.9223 70.1483 82.1086 69.2788 82.15 68.2436C82.2328 66.8358 82.1707 66.5046 81.7152 65.5522C81.4047 64.9725 80.8043 64.103 80.3488 63.6682L79.5207 62.8608L81.2391 61.0389C83.1852 58.9686 84.2203 57.1675 84.7586 54.9522C85.0691 53.6893 85.2555 53.3581 86.1871 52.4264L87.243 51.3292L88.3402 51.4741C90.4934 51.7225 90.6797 51.5776 98.1121 44.2073C101.797 40.5636 105.068 37.1475 105.4 36.6507C105.896 35.8639 106 35.512 106 34.4147C106 33.5038 105.876 32.8413 105.607 32.3237C105.006 31.1643 84.1375 10.4198 83.1852 10.0264C82.15 9.61238 80.618 9.63309 79.6035 10.1093C79.0652 10.3577 76.3738 12.9042 71.7156 17.6038C64.6973 24.6636 64.6352 24.7257 64.3867 25.8643C64.2004 26.6925 64.2004 27.2307 64.3453 27.769C64.5523 28.5143 64.5316 28.5557 63.4758 29.5495C62.8754 30.1085 62.1301 30.6261 61.7781 30.6882C61.4469 30.7503 59.7078 30.8745 57.9273 30.9366L54.6563 31.0815V22.7796V14.4776H55.8777C60.8051 14.4776 64.7387 11.4343 65.6289 6.90027C65.7738 6.21707 65.8359 4.64363 65.7945 3.42215C65.7324 1.20691 65.7324 1.18621 65.0492 0.58582C64.3867 -0.0145708 64.366 -0.0145708 61.8402 0.0061323C60.3496 0.0061323 58.859 0.130351 58.2379 0.295976ZM62.482 4.93348C62.275 8.68074 60.0391 10.896 56.2711 11.1237L54.6563 11.2272V9.86082C54.6563 7.79051 55.1531 6.50691 56.5402 5.1198C57.8859 3.7534 58.9625 3.33934 61.157 3.31863L62.5855 3.29793L62.482 4.93348ZM47.9277 11.2686C50.0602 12.3038 51.3438 14.4983 51.3438 17.0655V18.4112H49.9359C48.1141 18.4112 46.8512 17.9764 45.6504 16.9206C44.2426 15.6784 43.6422 14.3327 43.518 12.221L43.4145 10.4819L45.1121 10.6061C46.3543 10.6889 47.1203 10.8546 47.9277 11.2686ZM92.2738 23.4214C100.431 31.5784 102.688 33.9386 102.688 34.3526C102.688 34.746 101.197 36.3608 96.0004 41.5366C91.8598 45.6772 89.1684 48.2237 88.9199 48.2237C88.6922 48.2237 86.9531 46.6503 84.5309 44.2487C80.7422 40.46 80.5145 40.2737 79.7691 40.2944C78.8168 40.3151 78.2578 40.9362 78.2578 41.9714C78.2578 42.6546 78.527 42.9858 81.4668 45.9464L84.6758 49.1761L83.6199 50.1905C82.357 51.4534 82.1293 51.8468 81.5703 53.9378C81.0113 56.0288 80.473 56.9397 78.6305 58.8858L77.1191 60.4593L69.9973 53.3374L62.8961 46.2155L64.0969 45.5323C65.7117 44.6007 67.2852 43.0686 67.2852 42.4061C67.2852 41.7436 66.7676 40.9983 66.1258 40.7706C65.4633 40.5221 64.8422 40.7706 63.5379 41.8057C60.2047 44.435 54.6563 45.6772 48.466 45.1389C46.8926 45.0147 45.3605 44.9112 45.05 44.9112C44.5531 44.9112 43.8906 45.4702 41.427 47.8925C39.0047 50.294 38.2594 50.9151 37.659 51.0186C35.6094 51.3913 33.9324 49.2382 34.8641 47.437C35.0297 47.1264 37.5762 44.4971 40.516 41.578C47.6172 34.4975 47.3066 34.6632 55.2773 34.3526C63.5793 34.0421 63.6414 34.0214 65.6703 32.1167L66.6848 31.185L70.2457 34.7253C72.3781 36.837 74.0344 38.3069 74.3656 38.3897C75.3594 38.6382 76.3738 37.81 76.3945 36.7542C76.3945 36.2366 75.732 35.4706 71.9434 31.6612C69.5004 29.1975 67.4922 27.0444 67.4922 26.8995C67.4922 26.4233 80.9906 13.0284 81.4668 13.0284C81.7359 13.0284 85.4211 16.5686 92.2738 23.4214ZM41.0957 32.9034L42.752 34.5596L37.4105 39.9011C32.7938 44.5179 32.0277 45.3667 31.6758 46.319C30.1023 50.4804 33.2906 54.7866 37.659 54.3725C39.4602 54.2276 40.4332 53.5858 43.2695 50.8116L45.8574 48.2651L48.5488 48.4721C51.5301 48.7206 55.7742 48.4721 58.1758 47.9132L59.5008 47.5819L69.1898 57.271L78.8789 66.96V67.8503C78.8789 68.3472 78.734 69.0097 78.5684 69.3409C77.9887 70.4589 76.3738 70.9143 75.1938 70.2932C74.8832 70.1276 71.198 66.546 66.9746 62.3225C59.3973 54.7245 59.3145 54.6417 58.4656 54.6417C57.4098 54.6417 56.8922 55.1593 56.8922 56.2151C56.8922 56.9397 57.3063 57.3745 66.5191 66.6288C74.8004 74.91 76.1875 76.38 76.291 77.0218C76.643 79.0093 74.5313 80.7483 72.8129 79.8788C72.5645 79.7546 68.0719 75.3655 62.834 70.1483C53.3934 60.7284 53.2898 60.6456 52.4617 60.6456C51.4059 60.6456 50.8469 61.2046 50.8469 62.219C50.8469 62.9022 51.3645 63.4612 58.5277 70.6452C62.7512 74.8893 66.3535 78.5745 66.5398 78.8643C67.4715 80.2929 66.3742 82.4046 64.5938 82.6116C63.4344 82.7358 63.2273 82.5702 55.7742 75.1171L48.3004 67.6432L48.1762 66.4632C48.0105 64.455 46.7684 62.6331 45.0086 61.7843C43.9113 61.246 41.5098 61.1218 40.2883 61.5358L39.3566 61.8671L38.777 60.7905C36.9758 57.4573 32.4211 56.8155 29.4398 59.4862L28.6117 60.2315L27.2246 58.7409C25.4855 56.8569 24.9887 55.9874 24.4297 53.9378C23.8707 51.8468 23.643 51.4534 22.3801 50.1905L21.3242 49.1554L30.268 40.2116C35.1953 35.2843 39.2738 31.2471 39.3359 31.2471C39.398 31.2471 40.1848 31.9925 41.0957 32.9034ZM34.6777 61.3495C35.6922 61.7843 36.2719 62.7987 36.1684 63.9374C36.0648 64.7862 35.8785 65.0347 32.8766 68.0366C29.9988 70.9143 29.5848 71.2456 28.8188 71.3491C27.1832 71.5768 25.6719 69.9827 25.9824 68.3472C26.0859 67.7468 26.6863 67.0222 29.0258 64.662C32.5867 61.0389 33.1457 60.7077 34.6777 61.3495ZM43.8492 65.0139C44.3668 65.3452 44.9258 66.4011 44.9258 67.0636C44.9258 68.0573 44.077 69.0718 38.7563 74.3511C33.9945 79.0921 33.125 79.8788 32.4418 80.003C30.0609 80.4585 28.5082 77.8499 29.9988 75.8417C30.3301 75.4069 32.918 72.7362 35.7336 69.9206C39.6879 66.0284 41.0543 64.7862 41.6133 64.6413C42.3793 64.4343 43.1039 64.5585 43.8492 65.0139ZM48.3832 72.6948C48.673 72.9639 49.0457 73.4608 49.1906 73.8335C49.7496 75.1378 49.4805 75.5932 45.7746 79.3405C43.8906 81.2659 42.0895 82.9636 41.7789 83.1292C40.2262 83.9366 38.2801 82.9429 38.0938 81.2452C37.9488 80.0237 38.1145 79.8167 41.5719 76.3179C43.4766 74.3925 45.3191 72.6327 45.6504 72.405C46.4371 71.9081 47.6586 72.0116 48.3832 72.6948ZM56.3332 80.6034C57.1406 81.68 57.1613 82.9222 56.3953 83.8124C55.6914 84.6612 55.4844 84.6198 55.4844 83.6675C55.4844 81.8042 54.0559 79.5061 52.3789 78.6573L51.5715 78.2432L52.027 77.4151L52.4824 76.6077L54.118 78.2018C55.0082 79.0714 56.002 80.1686 56.3332 80.6034ZM50.7227 81.6179C51.8613 82.1975 52.4824 83.8745 51.9441 84.9304C51.5922 85.5929 50.4949 86.7315 49.8531 87.0628C47.7621 88.16 45.3605 85.7585 46.4578 83.6675C46.7891 83.0671 47.8863 81.9491 48.5488 81.5972C49.1078 81.2866 50.0809 81.2866 50.7227 81.6179Z" fill="#151515"/>
</svg>
