<svg width="107" height="106" viewBox="0 0 107 106" fill="none" xmlns="http://www.w3.org/2000/svg">
<path d="M8.70068 0.419007C8.30732 0.812367 8.28662 1.10221 8.28662 6.21588C8.28662 11.4538 8.26592 11.5987 7.87256 11.5987C7.64482 11.5987 7.27217 11.785 7.04443 12.0128C6.65107 12.4061 6.63037 12.696 6.63037 20.1284C6.63037 27.1467 6.67178 27.9335 7.02373 28.6788C7.39639 29.5276 8.57646 30.7077 9.446 31.101C9.92217 31.3288 9.94287 31.4116 9.94287 33.4819C9.94287 36.4217 9.96357 36.4424 13.2554 36.4424C16.5265 36.4424 16.5679 36.4217 16.5679 33.544V31.4737H18.7417C20.0874 31.4737 20.9155 31.5565 20.9155 31.6807C20.9155 31.8049 20.3151 34.6206 19.5698 37.9331C18.8245 41.2663 18.2241 44.3303 18.2241 44.7651C18.2241 45.7796 18.8038 46.3799 19.7976 46.3799C20.7913 46.3799 21.2675 46.0901 21.5159 45.3034C21.6401 44.9307 22.344 41.8667 23.0687 38.5128C23.814 35.1589 24.4765 32.1983 24.5386 31.9499C24.6421 31.5358 24.7042 31.5151 25.2839 31.7221C25.9878 31.9706 26.5054 32.8815 26.5054 33.896C26.5261 34.7241 27.1679 36.0284 27.9753 36.7944C29.1554 37.8917 29.9007 38.0987 32.9233 38.0987C35.3456 38.0987 35.6562 38.0573 36.0288 37.6846C36.2979 37.4155 36.4429 37.0014 36.4429 36.4424C36.4429 35.0553 35.9874 34.7862 33.6687 34.7862C31.2464 34.7862 30.4804 34.5378 30.1077 33.6268C29.9421 33.2542 29.8179 32.6952 29.8179 32.4053C29.8179 31.0389 28.5136 29.2378 27.0229 28.5546C26.3397 28.244 25.6772 28.1612 23.0479 28.1612H19.8804V24.8487V21.5362H28.2237H36.5464L37.9542 31.3909C39.4448 41.8874 39.5276 42.1772 40.8319 43.4194C41.8464 44.3924 42.8194 44.7237 44.7241 44.7237H46.3804V46.794C46.3804 49.8995 45.9249 49.6924 53.0054 49.6924C60.0858 49.6924 59.6304 49.8995 59.6304 46.794V44.7237H61.2866C63.1913 44.7237 64.1644 44.3924 65.1788 43.4194C66.4831 42.1772 66.5659 41.8874 68.0565 31.3909L69.4644 21.5362H77.787H86.1304V24.8487V28.1612H83.0249C79.5468 28.1612 78.8636 28.3268 77.6628 29.4655C76.8554 30.2315 76.2136 31.5358 76.1929 32.3639C76.1929 32.6745 76.0686 33.2542 75.903 33.6268C75.5304 34.5378 74.7644 34.7862 72.3421 34.7862C70.6651 34.7862 70.3339 34.8483 69.9819 35.2003C69.4229 35.7592 69.4229 37.1256 69.9819 37.6846C70.3546 38.0573 70.6651 38.0987 73.0874 38.0987C76.1101 38.0987 76.8554 37.8917 78.0354 36.7944C78.8429 36.0284 79.4847 34.7241 79.5054 33.896C79.5054 32.8815 80.0229 31.9706 80.7269 31.7221C81.3065 31.5151 81.3686 31.5358 81.4722 31.9499C81.5343 32.1983 82.1968 35.1589 82.9421 38.5128C83.6667 41.8667 84.3706 44.9307 84.4948 45.3034C84.7433 46.0901 85.2194 46.3799 86.2132 46.3799C87.2069 46.3799 87.7866 45.7796 87.7866 44.7651C87.7866 44.3303 87.1862 41.2663 86.4409 37.9331C85.6956 34.6206 85.0952 31.8049 85.0952 31.6807C85.0952 31.5565 85.9233 31.4737 87.269 31.4737H89.4429V33.544C89.4429 36.4217 89.4843 36.4424 92.7554 36.4424C96.0472 36.4424 96.0679 36.4217 96.0886 33.5026V31.3702L97.0616 30.7491C97.5792 30.3971 98.3038 29.7139 98.6558 29.2378L99.2769 28.3268L99.339 20.3768C99.4011 12.6339 99.3804 12.4268 98.9663 12.0128C98.7386 11.785 98.3659 11.5987 98.1382 11.5987C97.7655 11.5987 97.7241 11.4538 97.7241 9.94245V8.2862H101.451C104.908 8.2862 105.198 8.26549 105.591 7.87213C106.15 7.31315 106.15 5.94674 105.591 5.38776C105.198 4.9944 104.908 4.9737 101.451 4.9737H97.7241V2.90338C97.7241 1.10221 97.662 0.77096 97.3101 0.419007C96.7511 -0.139977 95.3847 -0.139977 94.8257 0.419007C94.4323 0.812367 94.4116 1.10221 94.4116 6.21588V11.5987H93.1694C91.6788 11.5987 91.8444 11.4331 88.9253 15.4081L86.855 18.203L81.5343 18.2237H76.2136L76.1515 13.7104L76.0894 9.21784L75.489 7.97565C74.7022 6.38151 73.1288 4.80807 71.5347 4.02135L70.2925 3.42096H53.0054H35.7183L34.4761 4.02135C32.8819 4.80807 31.3085 6.38151 30.5218 7.97565C29.9421 9.15573 29.9214 9.36276 29.8593 12.4682C29.7765 15.5116 29.7972 15.7186 30.2112 16.1327C30.7909 16.7124 32.1366 16.7331 32.7163 16.1534C33.0476 15.8221 33.1304 15.4702 33.1304 14.4971V13.2549H53.0054H72.8804V15.7393V18.2237H46.0284L19.1558 18.203L17.0854 15.4081C14.1663 11.4331 14.3319 11.5987 12.8413 11.5987H11.5991V9.94245V8.2862H15.3257C18.7831 8.2862 19.0729 8.26549 19.4663 7.87213C20.0253 7.31315 20.0253 5.94674 19.4663 5.38776C19.0729 4.9944 18.7831 4.9737 15.3257 4.9737H11.5991V2.90338C11.5991 0.460414 11.3507 0.00494483 9.94287 0.00494483C9.38389 0.00494483 8.96982 0.149867 8.70068 0.419007ZM69.6714 7.10612C70.6237 7.54088 71.7417 8.55534 72.1765 9.36276L72.487 9.94245H53.0054H33.5237L33.8343 9.36276C34.1862 8.72096 35.3042 7.6237 35.9874 7.27174C36.2565 7.12682 36.8569 6.94049 37.3331 6.83698C37.8093 6.75416 45.0968 6.69205 53.5229 6.69205C67.7874 6.73346 68.9054 6.75416 69.6714 7.10612ZM12.8827 15.6979C13.1726 16.112 13.7315 16.8573 14.0835 17.3335L14.746 18.2237H12.3444H9.94287V16.5674V14.9112H11.1437C12.2616 14.9112 12.3444 14.9526 12.8827 15.6979ZM96.0679 16.5674V18.2237H93.6663H91.2647L91.9272 17.3335C92.2792 16.8573 92.8382 16.112 93.128 15.6979C93.6663 14.9526 93.7491 14.9112 94.8878 14.9112H96.0679V16.5674ZM16.5679 24.8487V28.1612H14.2077C10.2327 28.1612 9.94287 27.8714 9.94287 23.9171V21.5362H13.2554H16.5679V24.8487ZM65.8413 21.7018C65.8413 21.9296 64.2472 33.1921 64.0815 34.103L63.9573 34.7862H53.0054H42.0534L41.9292 34.103C41.7636 33.1921 40.1694 21.9296 40.1694 21.7018C40.1694 21.619 45.9456 21.5362 53.0054 21.5362C60.0651 21.5362 65.8413 21.619 65.8413 21.7018ZM96.0679 23.8964C96.0679 27.8714 95.778 28.1612 91.8237 28.1612H89.4429V24.8487V21.5362H92.7554H96.0679V23.8964ZM63.4811 38.5542C63.419 38.8233 63.3362 39.3616 63.2534 39.7757C63.1913 40.1897 62.9429 40.7073 62.7151 40.9143C62.3011 41.287 61.8042 41.3077 53.0054 41.3077C44.2065 41.3077 43.7097 41.287 43.2956 40.9143C43.0679 40.7073 42.8194 40.1897 42.7573 39.7757C42.6745 39.3616 42.5917 38.8233 42.5296 38.5542L42.4468 38.0987H53.0054H63.564L63.4811 38.5542ZM56.3179 45.5518V46.3799H53.0054H49.6929V45.5518V44.7237H53.0054H56.3179V45.5518Z" fill="#151515"/>
<path d="M0.419238 5.38867C-0.139746 5.94766 -0.139746 7.31406 0.419238 7.87305C0.791895 8.2457 1.10244 8.28711 3.31768 8.28711C6.21611 8.28711 6.63018 8.08008 6.63018 6.63086C6.63018 5.18164 6.21611 4.97461 3.31768 4.97461C1.10244 4.97461 0.791895 5.01602 0.419238 5.38867Z" fill="#151515"/>
<path d="M86.5444 5.38867C86.2753 5.65781 86.1304 6.07187 86.1304 6.63086C86.1304 8.08008 86.5444 8.28711 89.4429 8.28711C92.3413 8.28711 92.7554 8.08008 92.7554 6.63086C92.7554 5.18164 92.3413 4.97461 89.4429 4.97461C87.2276 4.97461 86.9171 5.01602 86.5444 5.38867Z" fill="#151515"/>
<path d="M40.4386 58.016C37.0019 61.4734 35.387 63.2332 35.2835 63.6473C34.9937 64.848 36.1944 66.0488 37.3952 65.759C37.8093 65.6555 39.569 64.0406 43.0265 60.6039C47.9952 55.6352 48.0366 55.573 48.0366 54.7035C48.0366 54.1031 47.9124 53.7098 47.6226 53.4199C47.3327 53.1301 46.9394 53.0059 46.339 53.0059C45.4694 53.0059 45.4073 53.0473 40.4386 58.016Z" fill="#151515"/>
<path d="M51.7632 53.4199C51.3698 53.8133 51.3491 54.1031 51.3491 61.2871C51.3491 68.4711 51.3698 68.7609 51.7632 69.1543C52.0323 69.4234 52.4464 69.5684 53.0054 69.5684C53.5644 69.5684 53.9784 69.4234 54.2476 69.1543C54.6409 68.7609 54.6616 68.4711 54.6616 61.2871C54.6616 54.1031 54.6409 53.8133 54.2476 53.4199C53.9784 53.1508 53.5644 53.0059 53.0054 53.0059C52.4464 53.0059 52.0323 53.1508 51.7632 53.4199Z" fill="#151515"/>
<path d="M58.3882 53.4191C58.0983 53.709 57.9741 54.1023 57.9741 54.7027C57.9741 55.5722 58.0155 55.6344 63.005 60.6031C66.1519 63.75 68.2222 65.6547 68.5741 65.7375C69.7749 66.0273 71.0171 64.8265 70.7272 63.6465C70.6237 63.2324 69.0089 61.4726 65.5722 58.0152C60.6034 53.0465 60.5413 53.0051 59.6718 53.0051C59.0714 53.0051 58.678 53.1293 58.3882 53.4191Z" fill="#151515"/>
<path d="M35.2417 54.3109C34.6206 54.9734 34.6413 56.112 35.2624 56.6917C35.8628 57.2714 37.0429 57.2921 37.7054 56.7538C38.3886 56.1948 38.3886 54.787 37.7054 54.228C37.0222 53.6691 35.8007 53.7105 35.2417 54.3109Z" fill="#151515"/>
<path d="M68.305 54.2273C67.9323 54.5172 67.8081 54.8277 67.8081 55.4902C67.8081 56.5668 68.4292 57.1465 69.5472 57.1465C70.5616 57.1465 71.2241 56.4633 71.2241 55.4695C71.2241 54.041 69.4644 53.2957 68.305 54.2273Z" fill="#151515"/>
<path d="M28.5964 55.2004C28.3479 55.5109 28.1616 56.0078 28.1616 56.3184C28.1616 56.6289 28.3479 57.1258 28.5964 57.4363C28.9276 57.8711 29.1968 57.9746 29.9214 57.9746C30.646 57.9746 30.9151 57.8711 31.2464 57.4363C31.4948 57.1258 31.6812 56.6289 31.6812 56.3184C31.6812 56.0078 31.4948 55.5109 31.2464 55.2004C30.9151 54.7656 30.646 54.6621 29.9214 54.6621C29.1968 54.6621 28.9276 54.7656 28.5964 55.2004Z" fill="#151515"/>
<path d="M74.7644 55.2004C74.5159 55.5109 74.3296 56.0078 74.3296 56.3184C74.3296 56.6289 74.5159 57.1258 74.7644 57.4363C75.0956 57.8711 75.3647 57.9746 76.0894 57.9746C76.814 57.9746 77.0831 57.8711 77.4144 57.4363C77.6628 57.1258 77.8491 56.6289 77.8491 56.3184C77.8491 56.0078 77.6628 55.5109 77.4144 55.2004C77.0831 54.7656 76.814 54.6621 76.0894 54.6621C75.3647 54.6621 75.0956 54.7656 74.7644 55.2004Z" fill="#151515"/>
<path d="M22.1369 55.8837C21.4537 56.4427 21.4537 57.8505 22.1369 58.4095C23.317 59.3618 25.0561 58.5958 25.0561 57.1259C25.0561 55.6973 23.2963 54.952 22.1369 55.8837Z" fill="#151515"/>
<path d="M81.4096 55.9664C80.3745 57.0637 81.1405 58.8027 82.6518 58.8027C83.7491 58.8027 84.3702 58.223 84.3702 57.1465C84.3702 56.484 84.246 56.1734 83.8733 55.8836C83.1901 55.3246 81.9686 55.366 81.4096 55.9664Z" fill="#151515"/>
<path d="M31.5567 67.1875C29.9419 67.8707 30.5009 70.3965 32.2813 70.3965C33.2337 70.3965 33.6892 70.0859 33.9376 69.2992C34.4759 67.7258 33.1095 66.525 31.5567 67.1875Z" fill="#151515"/>
<path d="M73.1908 67.0219C72.1764 67.2703 71.7209 68.2227 72.0729 69.2992C72.3213 70.1066 72.7768 70.3965 73.7705 70.3965C74.7021 70.3965 75.3646 69.6926 75.3646 68.6781C75.3646 67.9535 74.8057 67.084 74.3502 67.084C74.2467 67.084 74.0396 67.0426 73.874 67.0012C73.7291 66.9598 73.4186 66.9805 73.1908 67.0219Z" fill="#151515"/>
<path d="M51.7632 73.2949C51.494 73.5641 51.3491 73.9781 51.3491 74.5371C51.3491 75.0961 51.494 75.5102 51.7632 75.7793C52.0323 76.0484 52.4464 76.1934 53.0054 76.1934C54.1026 76.1934 54.6616 75.6344 54.6616 74.5371C54.6616 73.9781 54.5167 73.5641 54.2476 73.2949C53.9784 73.0258 53.5644 72.8809 53.0054 72.8809C52.4464 72.8809 52.0323 73.0258 51.7632 73.2949Z" fill="#151515"/>
<path d="M3.73174 74.9512C2.88291 75.8 3.4626 78.7398 5.20166 82.3422C6.44385 84.9301 8.1415 86.8555 9.90127 87.725C10.9364 88.2219 11.3298 88.3047 12.9653 88.3047C14.7458 88.3047 14.9321 88.2633 16.5263 87.4559L18.2239 86.6277V88.8637V91.0996H16.961H15.6981L14.0005 92.7559L12.3028 94.4121H10.7501C9.90127 94.4121 9.11455 94.4949 8.96963 94.5777C8.84541 94.6605 8.03799 95.6129 7.16846 96.6895C5.86416 98.3043 5.59502 98.7805 5.59502 99.4016C5.59502 100.395 6.27822 101.037 7.33408 101.037C8.18291 101.037 8.57627 100.727 10.0669 98.7805L10.8536 97.7246H12.4892H14.1247L15.8224 96.0684L17.52 94.4121H20.7083H23.8966L26.4017 96.8965L28.9274 99.3809H30.563H32.1985L33.8548 101.037L35.511 102.693H18.1618C1.10244 102.693 0.833301 102.693 0.419238 103.107C-0.139746 103.666 -0.139746 105.033 0.419238 105.592C0.833301 106.006 1.10244 106.006 53.0052 106.006C104.908 106.006 105.177 106.006 105.591 105.592C106.15 105.033 106.15 103.666 105.591 103.107C105.26 102.776 104.908 102.693 103.666 102.693H102.154L100.622 99.5672C99.7735 97.8488 98.904 96.3582 98.7177 96.2547C98.5313 96.1512 97.7032 96.0684 96.8751 96.0684H95.3638L92.8587 93.584L90.3329 91.0996H89.07H87.7864V88.8637V86.6277L89.4841 87.4559C91.0782 88.2633 91.2645 88.3047 93.045 88.3047C94.6806 88.3047 95.0739 88.2219 96.1091 87.725C97.8688 86.8555 99.5665 84.9301 100.809 82.3422C102.548 78.7398 103.127 75.8 102.279 74.9512C101.885 74.5578 101.595 74.5371 97.8895 74.5371C93.2935 74.5371 92.0099 74.7648 89.7946 75.9242C88.9872 76.359 87.8278 77.1871 87.2274 77.7668L86.1302 78.8434L85.0329 77.7668C82.9626 75.7586 79.9192 74.5371 76.8759 74.5371C75.0954 74.5371 74.5364 74.9098 74.5364 76.0691C74.5364 77.5391 74.8677 77.7875 77.1864 78.0566C78.0767 78.1602 79.3188 78.4293 79.9813 78.6777C81.2442 79.1539 83.0661 80.6652 83.7079 81.7418L84.0806 82.3836L82.9419 83.2324C81.679 84.1848 80.0435 84.8887 79.0704 84.8887C76.8345 84.8887 74.702 82.0523 73.3149 77.2285C72.963 76.007 72.5282 74.9512 72.3212 74.8062C71.7622 74.3922 70.4579 74.475 69.9817 74.9512L69.5677 75.3652L69.1536 74.9512C68.7603 74.5578 68.4704 74.5371 64.7645 74.5371C60.1685 74.5371 58.8849 74.7648 56.6696 75.9242C55.8622 76.359 54.7028 77.1871 54.1024 77.7668L53.0052 78.8434L51.9079 77.7668C49.8376 75.7586 46.7942 74.5371 43.7509 74.5371C41.9497 74.5371 41.4114 74.9098 41.4114 76.1105C41.4114 77.5598 41.722 77.7875 44.1028 78.0566C44.9724 78.1602 46.1938 78.4293 46.8563 78.6777C48.1192 79.1539 49.9411 80.6652 50.5829 81.7418L50.9556 82.3836L49.8169 83.2324C48.554 84.1848 46.9185 84.8887 45.9454 84.8887C43.7095 84.8887 41.577 82.0523 40.1899 77.2285C39.838 76.007 39.4032 74.9512 39.1962 74.8062C38.6372 74.3922 37.3329 74.475 36.8567 74.9512L36.4427 75.3652L36.0286 74.9512C35.6353 74.5578 35.3454 74.5371 31.6395 74.5371C27.0435 74.5371 25.7599 74.7648 23.5446 75.9242C22.7372 76.359 21.5778 77.1871 20.9774 77.7668L19.8802 78.8434L18.7829 77.7668C16.7126 75.7586 13.6692 74.5371 10.6259 74.5371C8.82471 74.5371 8.28643 74.9098 8.28643 76.1105C8.28643 77.5598 8.59697 77.7875 10.9778 78.0566C11.8474 78.1602 13.0688 78.4293 13.7313 78.6777C14.9942 79.1539 16.8161 80.6652 17.4579 81.7418L17.8306 82.3836L16.6919 83.2324C15.429 84.1848 13.7935 84.8887 12.8204 84.8887C10.5845 84.8887 8.45205 82.0523 7.06494 77.2285C6.71299 76.007 6.27822 74.9512 6.07119 74.8062C5.51221 74.3922 4.20791 74.475 3.73174 74.9512ZM36.9188 78.8227C37.5399 81.1828 39.1755 84.2883 40.604 85.7996C42.4052 87.7457 43.6474 88.3047 46.0903 88.3047C47.8708 88.3047 48.0571 88.2633 49.6513 87.4559L51.3489 86.6277V88.8637V91.0996H49.2579H47.1669L45.4692 92.7559L43.7716 94.4121H42.2188C40.4591 94.4121 40.3763 94.4535 39.1548 96.027C38.2024 97.2898 38.0782 98.0145 38.7407 98.8426C39.072 99.2773 39.3411 99.3809 40.0657 99.3809C40.8524 99.3809 41.0388 99.2773 41.6806 98.5527L42.3845 97.7246H43.9993H45.5935L47.2911 96.0684L48.9888 94.4121H52.177H55.3653L57.8704 96.8965L60.3962 99.3809H62.0317H63.6673L65.3235 101.037L66.9798 102.693H53.8333H40.7075L37.3743 99.3809L34.0411 96.0684H32.4056H30.77L28.2649 93.584L25.7392 91.0996H23.6481H21.5364V88.8637V86.6277L23.2341 87.4559C24.8282 88.2633 25.0145 88.3047 26.795 88.3047C29.238 88.3047 30.4802 87.7457 32.2813 85.7996C33.7099 84.2883 35.3454 81.1828 35.9665 78.8227C36.1528 78.0566 36.3806 77.4355 36.4427 77.4355C36.5048 77.4355 36.7325 78.0566 36.9188 78.8227ZM70.0438 78.8227C70.6649 81.1828 72.3005 84.2883 73.729 85.7996C75.5302 87.7457 76.7724 88.3047 79.2153 88.3047C80.9958 88.3047 81.1821 88.2633 82.7763 87.4559L84.4739 86.6277V88.8637V91.0996H82.3829H80.2919L78.5942 92.7559L76.8966 94.4121H75.261H73.6462L72.4247 95.6129C71.3481 96.7102 71.2239 96.9172 71.2239 97.6832C71.2239 98.8426 71.7622 99.3809 72.8802 99.3809C73.5634 99.3809 73.8739 99.2359 74.6192 98.5527C75.5095 97.7246 75.5302 97.7246 77.1243 97.7246H78.7185L80.4161 96.0684L82.1138 94.4121H85.302H88.4903L90.9954 96.8965L93.5212 99.3809H95.0532H96.606L97.372 100.934C97.786 101.803 98.138 102.548 98.138 102.59C98.138 102.652 92.2997 102.693 85.1571 102.693H72.1763L68.8431 99.3809L65.5099 96.0684H63.8743H62.2388L59.7337 93.584L57.2079 91.0996H55.945H54.6614V88.8637V86.6277L56.3591 87.4559C57.9532 88.2633 58.1395 88.3047 59.92 88.3047C62.363 88.3047 63.6052 87.7457 65.4063 85.7996C66.8349 84.2883 68.4704 81.1828 69.0915 78.8227C69.2778 78.0566 69.5056 77.4355 69.5677 77.4355C69.6298 77.4355 69.8575 78.0566 70.0438 78.8227ZM32.5091 77.9531C32.5091 77.9945 32.2813 78.657 31.9915 79.423C30.7286 82.777 28.7825 84.8887 26.9399 84.8887C25.9669 84.8887 24.3313 84.1848 23.0685 83.2324L21.9298 82.3836L22.3024 81.7418C22.9442 80.6652 24.7661 79.1539 26.0497 78.6777C26.6915 78.4293 27.8302 78.1602 28.5755 78.0566C30.1489 77.8703 32.5091 77.8082 32.5091 77.9531ZM65.6341 77.9531C65.6341 77.9945 65.4063 78.657 65.1165 79.423C63.8536 82.777 61.9075 84.8887 60.0649 84.8887C59.0919 84.8887 57.4563 84.1848 56.1935 83.2324L55.0548 82.3836L55.4274 81.7418C56.0692 80.6652 57.8911 79.1539 59.1747 78.6777C59.8165 78.4293 60.9552 78.1602 61.7005 78.0566C63.2739 77.8703 65.6341 77.8082 65.6341 77.9531ZM98.7591 77.9531C98.7591 77.9945 98.5313 78.657 98.2415 79.423C96.9786 82.777 95.0325 84.8887 93.1899 84.8887C92.2169 84.8887 90.5813 84.1848 89.3185 83.2324L88.1798 82.3836L88.5524 81.7418C89.1942 80.6652 91.0161 79.1539 92.2997 78.6777C92.9415 78.4293 94.0802 78.1602 94.8255 78.0566C96.3989 77.8703 98.7591 77.8082 98.7591 77.9531Z" fill="#151515"/>
</svg>
