<svg width="107" height="106" viewBox="0 0 107 106" fill="none" xmlns="http://www.w3.org/2000/svg">
<path d="M51.6975 1.05605L51.1592 1.71855L51.2213 6.56308L51.2834 11.4283L51.8631 11.9252C52.6705 12.6291 53.8506 12.6084 54.5752 11.8838L55.1135 11.3248V6.37675V1.4287L54.5959 0.931827C54.2232 0.538468 53.8713 0.414249 53.1674 0.414249C52.4014 0.414249 52.1736 0.517764 51.6975 1.05605Z" fill="#151515"/>
<path d="M27.6816 7.49418C27.2262 8.03246 27.1433 8.3016 27.2262 8.90199C27.3504 9.77153 31.284 16.6657 32.05 17.3282C32.816 18.0321 33.8719 17.97 34.6586 17.1832C35.1969 16.645 35.2797 16.4379 35.1762 15.7754C35.0726 14.9473 30.9113 7.57699 30.3109 7.10082C30.1246 6.9559 29.5656 6.83168 29.0894 6.83168C28.3855 6.83168 28.1371 6.9352 27.6816 7.49418Z" fill="#151515"/>
<path d="M75.9612 7.2875C75.6714 7.55664 74.512 9.41992 73.3526 11.4281C71.2823 15.0512 70.9925 15.8379 71.3858 16.873C71.5515 17.2871 72.5452 17.8047 73.1663 17.8047C74.1808 17.784 74.6362 17.225 76.8722 13.3328C79.3772 8.98516 79.5843 8.30195 78.6112 7.34961C77.9487 6.66641 76.6651 6.6457 75.9612 7.2875Z" fill="#151515"/>
<path d="M49.3162 17.1008C34.6791 18.9434 23.2096 29.5434 20.1041 44.0977C19.4623 47.0582 19.4002 53.4969 20.0006 56.623C21.6776 65.691 26.9154 73.6617 34.5135 78.7133C38.1779 81.1562 38.0123 80.7422 38.1365 87.4707L38.2401 92.8535L38.8197 94.0336C39.4408 95.2965 40.7037 96.5387 41.7596 96.9113C42.36 97.1391 42.4221 97.2633 42.6291 98.5262C43.0639 101.28 44.7408 103.598 47.2045 104.799L48.5916 105.482H53.2498H57.908L59.2123 104.799C61.7174 103.495 63.4772 101.011 63.7463 98.4434C63.8705 97.3047 63.8912 97.2633 64.8436 96.7871C65.3612 96.518 66.1479 95.9176 66.5826 95.4414C67.9905 93.8887 68.0319 93.6609 68.1561 87.6777L68.2596 82.2949L68.8393 81.3012C69.274 80.5766 69.833 80.059 70.9096 79.3551C79.2115 74.0551 84.76 65.8359 86.3955 56.3539C86.9752 53.0207 86.9752 48.2176 86.3748 44.843C84.0354 31.2617 73.6217 20.5168 59.9783 17.5977C58.3842 17.2457 57.0178 17.1422 53.9744 17.0801C51.8213 17.0387 49.7096 17.0594 49.3162 17.1008ZM57.5975 21.2207C70.3506 23.1461 80.4744 33.1871 82.5655 45.9609C83.2487 50.1844 82.876 55.3187 81.5717 59.418C79.3979 66.2293 75.3194 71.5914 69.1084 75.7734C67.949 76.5395 66.6862 77.5332 66.3135 77.968C64.9264 79.5414 64.2225 81.798 64.2225 84.7172V86.125H53.1463H42.0701V84.1789C42.0701 81.7773 41.5526 79.9348 40.476 78.527C39.5651 77.3262 39.6065 77.3676 36.8944 75.525C34.1615 73.6824 30.2279 69.7695 28.5924 67.2852C26.3358 63.8691 24.7623 60.1219 23.9135 56.1055C23.3959 53.6211 23.3959 47.6172 23.9135 45.1328C25.9217 35.7336 31.7186 28.1355 40.1033 23.9535C45.3619 21.3242 51.7799 20.3305 57.5975 21.2207ZM64.2225 91.0523C64.2225 91.6113 64.0776 92.2324 63.8912 92.5016C63.1459 93.5781 63.0838 93.5781 53.1463 93.5781C44.8029 93.5781 43.8299 93.5367 43.2916 93.2262C42.567 92.7914 42.0701 91.8184 42.0701 90.8039V90.0586H53.1463H64.2225V91.0523ZM59.8748 97.8223C59.8748 98.9402 58.674 100.555 57.2869 101.3C56.5416 101.714 56.1483 101.756 53.1463 101.756C50.1444 101.756 49.751 101.714 49.0057 101.3C48.5502 101.073 47.9705 100.638 47.7221 100.369C47.2459 99.8719 46.4385 98.2156 46.4178 97.7602C46.4178 97.5738 47.9084 97.5117 53.1463 97.5117C59.0467 97.5117 59.8748 97.5531 59.8748 97.8223Z" fill="#151515"/>
<path d="M48.7987 28.1977C48.0534 28.6324 47.8877 29.0672 47.867 30.4543V31.8207L46.9975 32.0691C46.5006 32.2141 45.5897 32.6074 44.9479 32.918L43.8092 33.477L42.8362 32.5867C42.0081 31.8 41.7596 31.6758 40.9936 31.6758C40.1034 31.6758 40.0413 31.7379 37.1428 34.6363C34.3272 37.4934 34.203 37.6383 34.203 38.4457C34.203 39.1496 34.3479 39.4602 35.1139 40.309L36.0249 41.3027L35.5487 42.2344C35.3002 42.752 34.9276 43.6008 34.7206 44.1391L34.3479 45.1328H33.3334C32.0706 45.1328 31.0354 45.5883 30.7041 46.2922C30.3729 47.0168 30.3936 54.2422 30.7249 54.9668C31.0561 55.7328 31.9049 56.1055 33.2299 56.1055H34.3479L34.9276 57.5961C35.2381 58.4242 35.6315 59.3352 35.7971 59.6043C36.087 60.0598 36.0663 60.1426 35.1553 61.0535C34.3479 61.8816 34.203 62.1508 34.203 62.834C34.203 63.6207 34.3479 63.807 37.1635 66.5812C38.7784 68.1961 40.3311 69.5625 40.6002 69.6246C41.2834 69.7902 42.0495 69.459 42.919 68.5895L43.685 67.8648L45.5483 68.6102C46.5627 69.0242 47.5151 69.3555 47.6393 69.3555C47.7842 69.3555 47.867 69.8316 47.867 70.6805C47.867 73.227 48.012 73.2891 53.3327 73.2891C57.287 73.2891 57.3698 73.2891 57.9495 72.7922C58.4463 72.3574 58.5291 72.1297 58.5913 70.8254C58.6327 70.018 58.7776 69.3555 58.9018 69.3555C59.0053 69.3555 59.8956 69.0242 60.8479 68.6102L62.6077 67.8648L63.3737 68.6102C64.3467 69.5625 65.2784 69.8523 66.1686 69.4797C67.0381 69.107 72.0276 64.0141 72.1932 63.3102C72.4002 62.5234 72.1518 61.9645 71.1995 60.9293L70.3713 60.0391L71.0131 58.6312C71.3651 57.8652 71.717 56.9957 71.7792 56.7059C71.9034 56.1883 72.0069 56.1469 73.3733 56.0641C74.6569 56.002 74.8846 55.9191 75.3194 55.4223C75.8163 54.8426 75.8163 54.7598 75.8163 50.702C75.8163 48.1348 75.7334 46.3957 75.5885 46.1266C75.278 45.5469 74.16 45.1328 72.9178 45.1328C72.276 45.1328 71.8827 45.05 71.8827 44.9051C71.8827 44.7602 71.5514 43.8699 71.1374 42.9176L70.392 41.1785L71.2409 40.2676C72.2139 39.2117 72.4417 38.5285 72.0897 37.7004C71.9655 37.3898 70.6198 35.8992 69.1084 34.3879C66.417 31.7172 66.3549 31.6758 65.444 31.6758C64.6159 31.6758 64.4088 31.7793 63.6221 32.5867L62.7319 33.4977L61.4483 32.918C60.7651 32.6074 59.8541 32.2348 59.4401 32.1105L58.6741 31.8621L58.5913 30.4336C58.5291 29.2742 58.4256 28.8809 58.053 28.5082C57.5975 28.0734 57.4319 28.0527 53.3948 27.9906C50.4756 27.9699 49.0885 28.032 48.7987 28.1977ZM54.6991 33.0008C54.6991 34.5535 55.1338 35.0504 56.8936 35.4852C58.4049 35.8578 60.5788 36.7895 61.5104 37.452C62.4834 38.1559 63.6428 38.0316 64.5952 37.1621L65.4026 36.4582L66.3963 37.4727L67.3901 38.4871L66.6448 39.3359C65.6303 40.4332 65.651 40.9922 66.7897 43.1246C67.3073 44.0562 67.9491 45.6297 68.2596 46.6234C68.9014 48.7559 69.212 49.0664 70.7854 49.0664H71.8827V50.6191V52.1719H70.7854C69.212 52.1719 68.9014 52.4824 68.2596 54.6148C67.9491 55.6086 67.3073 57.182 66.7897 58.1137C65.651 60.2668 65.6303 60.8051 66.7069 61.9645L67.5143 62.8547L66.4999 63.8691L65.4854 64.8629L64.6366 64.1176C63.4979 63.0824 62.8147 63.1031 60.6409 64.2625C59.0674 65.0906 57.7631 65.6082 56.2932 65.9395C55.962 66.0016 55.4651 66.2914 55.1959 66.5605C54.7819 66.9746 54.6991 67.2645 54.6991 68.2168V69.3555H53.2706H51.8627L51.7385 68.1961C51.5729 66.6641 51.1174 66.1879 49.3991 65.7531C47.867 65.3598 46.2729 64.6973 45.01 63.9105C43.7678 63.1031 42.8983 63.1652 41.8631 64.1176L41.0143 64.8629L39.9999 63.8691L38.9854 62.8754L39.6893 62.068C40.7038 60.95 40.6624 60.1633 39.503 57.948C38.9854 56.9957 38.385 55.5051 38.1573 54.6562C37.5983 52.648 37.1014 52.1719 35.528 52.1719H34.41V50.6191V49.0664H35.6108C37.1635 49.0664 37.5776 48.6523 38.1573 46.5613C38.385 45.7125 38.9854 44.2426 39.503 43.2902C40.6624 41.075 40.7038 40.2883 39.6893 39.1703L38.9854 38.3629L39.9999 37.3691L41.035 36.3547L41.8217 37.1207C42.8983 38.1766 43.5194 38.1352 46.1073 36.8516C47.2459 36.2719 48.7366 35.6715 49.4198 35.5059C51.076 35.0918 51.5729 34.5535 51.7385 33.0629L51.8627 31.8828H53.2706H54.6991V33.0008Z" fill="#151515"/>
<path d="M50.3928 38.1973C46.19 39.1083 42.4842 42.5036 41.0971 46.6856C40.6209 48.0934 40.5381 48.6938 40.5381 50.7227C40.5381 52.7723 40.6209 53.3106 41.0764 54.6149C41.8631 56.7887 42.7947 58.2173 44.451 59.7907C47.4943 62.6891 51.4693 63.8692 55.6514 63.1239C57.2869 62.834 60.351 61.3227 61.6553 60.1633C64.1811 57.9274 65.6717 54.7391 65.8373 51.2403C65.9408 48.6524 65.5682 46.934 64.3881 44.6567C61.7795 39.6672 55.9826 36.9965 50.3928 38.1973ZM55.2166 42.1309C56.935 42.5864 58.26 43.3731 59.4814 44.6567C63.6428 49.0665 62.3385 55.9192 56.8314 58.5278C52.5252 60.5774 47.4322 58.7348 45.2791 54.3665C42.0908 47.8657 48.2189 40.309 55.2166 42.1309Z" fill="#151515"/>
<path d="M10.084 25.0922C9.6285 25.6512 9.54569 25.8996 9.6285 26.5621C9.69061 27.0176 9.85624 27.5144 10.0219 27.6594C10.1668 27.8043 12.0094 28.9223 14.1211 30.1437C18.448 32.6281 19.1726 32.8351 20.0629 31.8C20.6426 31.1168 20.7047 29.8539 20.1871 29.2121C19.9801 28.9844 18.1168 27.8043 16.0258 26.6035C11.6574 24.0984 11.057 23.9328 10.084 25.0922Z" fill="#151515"/>
<path d="M91.2404 26.1071C89.6463 27.018 87.8658 28.0532 87.2654 28.4051C85.7955 29.2954 85.4229 30.227 86.0646 31.4692C86.3959 32.0903 86.9549 32.3594 87.8865 32.3387C88.4662 32.318 95.3811 28.488 96.2713 27.6805C96.9338 27.0594 96.9131 25.6309 96.2092 24.9477C95.3189 24.0368 94.5115 24.2231 91.2404 26.1071Z" fill="#151515"/>
<path d="M3.74885 49.0456C2.98283 49.8324 2.94143 50.8675 3.64533 51.6956L4.14221 52.2753L8.86252 52.3374C14.1625 52.3995 14.618 52.3167 15.0942 51.1781C15.3219 50.6398 15.3426 50.3292 15.1563 49.7702C14.7215 48.4867 14.5559 48.4452 9.19377 48.4452H4.34924L3.74885 49.0456Z" fill="#151515"/>
<path d="M92.1305 48.7559C91.3437 49.1906 91.0332 50.2672 91.4266 51.2195C91.6129 51.675 91.9648 52.0477 92.2754 52.1719C92.5859 52.2961 94.9047 52.3789 97.4719 52.3789H102.151L102.751 51.7785C103.186 51.323 103.352 50.9711 103.352 50.4121C103.352 49.8531 103.186 49.5012 102.751 49.0457L102.151 48.4453H97.4098C93.6832 48.466 92.5652 48.5281 92.1305 48.7559Z" fill="#151515"/>
<path d="M14.3279 70.5147C12.2162 71.7155 10.2908 72.9163 10.0217 73.2061C9.35916 73.9721 9.40057 75.028 10.1666 75.794C11.181 76.7878 11.6572 76.6635 15.9635 74.1792C18.0752 72.9577 19.9592 71.7983 20.1662 71.5913C20.4146 71.3428 20.5389 70.9081 20.5389 70.3077C20.5389 69.5417 20.4353 69.3139 19.8971 68.8585C19.5451 68.5686 19.0068 68.3202 18.717 68.3202C18.3857 68.3202 16.5846 69.2104 14.3279 70.5147Z" fill="#151515"/>
<path d="M86.8718 68.5063C85.7539 68.9825 85.4019 70.5973 86.23 71.5082C86.789 72.15 93.7039 76.1664 94.4906 76.3321C95.1945 76.477 96.2504 76.0629 96.5195 75.5453C96.8093 75.0278 96.7679 73.6614 96.4574 73.2473C96.0433 72.709 88.6316 68.4856 87.9277 68.4028C87.5965 68.3614 87.0996 68.4028 86.8718 68.5063Z" fill="#151515"/>
</svg>
