<svg width="44" height="44" viewBox="0 0 44 44" fill="none" xmlns="http://www.w3.org/2000/svg">
<rect width="44" height="44" rx="22" fill="white" fill-opacity="0.1"/>
<g clip-path="url(#clip0_427_20870)">
<path d="M31.9765 17.8801C31.9297 16.8174 31.7578 16.0868 31.5117 15.4537C31.2577 14.7818 30.867 14.1801 30.3551 13.68C29.855 13.1721 29.2494 12.7774 28.5852 12.5274C27.9485 12.2813 27.2217 12.1094 26.159 12.0626C25.0884 12.0118 24.7486 12 22.0332 12C19.3178 12 18.9779 12.0118 17.9113 12.0586C16.8486 12.1055 16.118 12.2775 15.4851 12.5235C14.813 12.7774 14.2114 13.1681 13.7113 13.68C13.2034 14.1801 12.8088 14.7857 12.5587 15.4499C12.3125 16.0868 12.1407 16.8134 12.0938 17.8761C12.043 18.9467 12.0312 19.2866 12.0312 22.002C12.0312 24.7173 12.043 25.0572 12.0899 26.1239C12.1367 27.1865 12.3087 27.9171 12.5549 28.5502C12.8088 29.2221 13.2034 29.8238 13.7113 30.3239C14.2114 30.8318 14.817 31.2265 15.4812 31.4765C16.118 31.7226 16.8447 31.8945 17.9075 31.9413C18.974 31.9883 19.314 31.9999 22.0294 31.9999C24.7447 31.9999 25.0846 31.9883 26.1513 31.9413C27.2139 31.8945 27.9445 31.7226 28.5774 31.4765C29.9215 30.9568 30.9842 29.8941 31.5039 28.5502C31.7499 27.9133 31.9219 27.1865 31.9687 26.1239C32.0156 25.0572 32.0273 24.7173 32.0273 22.002C32.0273 19.2866 32.0234 18.9467 31.9765 17.8801ZM30.1755 26.0457C30.1324 27.0225 29.9684 27.5499 29.8316 27.9015C29.4956 28.7728 28.8041 29.4643 27.9328 29.8004C27.5811 29.9372 27.0499 30.1012 26.0769 30.1441C25.022 30.1911 24.7057 30.2027 22.0372 30.2027C19.3686 30.2027 19.0483 30.1911 17.9972 30.1441C17.0205 30.1012 16.493 29.9372 16.1414 29.8004C15.7078 29.6402 15.3131 29.3862 14.9928 29.0541C14.6607 28.7298 14.4067 28.3391 14.2465 27.9055C14.1097 27.5539 13.9457 27.0225 13.9028 26.0497C13.8558 24.9948 13.8442 24.6783 13.8442 22.0097C13.8442 19.3412 13.8558 19.0209 13.9028 17.9699C13.9457 16.9932 14.1097 16.4657 14.2465 16.1141C14.4067 15.6804 14.6607 15.2859 14.9968 14.9654C15.3209 14.6333 15.7116 14.3793 16.1454 14.2192C16.497 14.0825 17.0284 13.9184 18.0012 13.8754C19.0561 13.8285 19.3726 13.8168 22.041 13.8168C24.7135 13.8168 25.0298 13.8285 26.0809 13.8754C27.0577 13.9184 27.5851 14.0825 27.9367 14.2192C28.3703 14.3793 28.765 14.6333 29.0853 14.9654C29.4174 15.2897 29.6714 15.6804 29.8316 16.1141C29.9684 16.4657 30.1324 16.997 30.1755 17.9699C30.2223 19.0248 30.2341 19.3412 30.2341 22.0097C30.2341 24.6783 30.2223 24.9908 30.1755 26.0457Z" fill="white"/>
<path d="M22.0362 16.8633C19.1998 16.8633 16.8984 19.1645 16.8984 22.001C16.8984 24.8376 19.1998 27.1387 22.0362 27.1387C24.8727 27.1387 27.1739 24.8376 27.1739 22.001C27.1739 19.1645 24.8727 16.8633 22.0362 16.8633ZM22.0362 25.3337C20.196 25.3337 18.7034 23.8413 18.7034 22.001C18.7034 20.1607 20.196 18.6683 22.0362 18.6683C23.8764 18.6683 25.3689 20.1607 25.3689 22.001C25.3689 23.8413 23.8764 25.3337 22.0362 25.3337Z" fill="white"/>
<path d="M28.5709 16.6604C28.5709 17.3227 28.0338 17.8598 27.3713 17.8598C26.7089 17.8598 26.1719 17.3227 26.1719 16.6604C26.1719 15.9978 26.7089 15.4609 27.3713 15.4609C28.0338 15.4609 28.5709 15.9978 28.5709 16.6604Z" fill="white"/>
</g>
<defs>
<clipPath id="clip0_427_20870">
<rect width="20" height="20" fill="white" transform="translate(12 12)"/>
</clipPath>
</defs>
</svg>
