<svg width="16" height="19" viewBox="0 0 16 19" fill="none" xmlns="http://www.w3.org/2000/svg">
<path d="M14.8607 8.15479C14.8607 13.5336 9.35149 16.8474 8.2066 17.4786C8.14318 17.5136 8.07193 17.5319 7.99949 17.5319C7.92706 17.5319 7.85581 17.5136 7.79238 17.4786C6.64664 16.8474 1.13916 13.5336 1.13916 8.15479C1.13916 3.86682 3.71195 0.865234 7.99992 0.865234C12.2879 0.865234 14.8607 3.86682 14.8607 8.15479Z" stroke="white" stroke-width="1.4" stroke-linecap="round" stroke-linejoin="round"/>
<path d="M4.56982 7.72726C4.56982 8.63705 4.93124 9.50958 5.57456 10.1529C6.21788 10.7962 7.09041 11.1576 8.0002 11.1576C8.91 11.1576 9.78253 10.7962 10.4258 10.1529C11.0692 9.50958 11.4306 8.63705 11.4306 7.72726C11.4306 6.81746 11.0692 5.94493 10.4258 5.30161C9.78253 4.65829 8.91 4.29688 8.0002 4.29688C7.09041 4.29688 6.21788 4.65829 5.57456 5.30161C4.93124 5.94493 4.56982 6.81746 4.56982 7.72726V7.72726Z" stroke="white" stroke-width="1.4" stroke-linecap="round" stroke-linejoin="round"/>
</svg>
