<svg width="108" height="108" viewBox="0 0 108 108" fill="none" xmlns="http://www.w3.org/2000/svg">
<path d="M78.6223 75.1351C78.5203 75.5201 78.5263 75.0991 78.2673 75.9321C74.5113 74.7381 71.4013 72.2371 70.1043 69.2251C69.0713 66.8271 69.2273 64.2701 70.5543 61.8311C72.3643 58.5051 76.3563 56.7441 80.2163 55.0401C85.5753 52.6751 90.6483 50.4381 90.6023 44.4501C90.5993 44.0761 90.8813 43.7611 91.2543 43.7361L92.5303 43.6501C92.9263 43.6231 93.2703 43.9311 93.2773 44.3291C93.4203 52.1401 86.9893 54.9771 81.2953 57.4891C77.6863 59.0811 74.2773 60.5851 72.9033 63.1101C71.9693 64.8261 71.8543 66.5271 72.5603 68.1671C73.6763 70.7591 76.5383 72.6451 79.0933 73.4841C79.4483 73.6011 79.6543 73.9691 79.5583 74.3301L78.6203 75.1341L78.6223 75.1351Z" fill="#2C4DAE"/>
<path d="M64.4955 77.7668C55.1255 77.7668 47.5495 73.4008 43.5525 69.2708C40.5865 66.2058 39.0285 62.8728 39.1645 59.8838C39.4565 53.4628 45.6595 50.1828 51.6585 47.0108C57.8065 43.7598 63.6255 40.6828 63.4055 34.6288C63.3915 34.2568 63.6605 33.9348 64.0305 33.8958L65.3025 33.7618C65.6995 33.7198 66.0555 34.0178 66.0745 34.4158C66.4505 42.2148 59.2675 46.0128 52.9085 49.3758C47.3295 52.3258 42.0595 55.1128 41.8365 60.0048C41.7355 62.2168 43.0615 64.9158 45.4745 67.4088C49.1375 71.1938 56.1585 75.1998 64.8455 75.0878C78.8765 74.9088 89.4575 70.0028 89.4575 63.6758C89.4575 60.5038 86.6525 59.1968 82.0765 57.3278C76.6055 55.0938 69.8305 52.3268 71.1155 43.1078C71.1705 42.7158 71.5425 42.4458 71.9325 42.5158L73.1905 42.7398C73.5605 42.8058 73.8095 43.1538 73.7595 43.5258C72.8025 50.6498 77.8025 52.6918 83.0875 54.8498C87.5345 56.6658 92.1325 58.5438 92.1325 63.6748C92.1325 67.9328 89.1565 71.5488 83.5255 74.1318C78.6205 76.3818 71.9985 77.6718 64.8785 77.7618C64.7505 77.7638 64.6205 77.7638 64.4935 77.7638L64.4955 77.7668Z" fill="url(#paint0_linear_592_113865)"/>
<path d="M52.7801 40.1654C52.5131 40.1654 52.2441 40.1434 51.9751 40.1004C49.2731 39.6624 47.4311 37.1084 47.8691 34.4054C48.0811 33.0964 48.7901 31.9484 49.8661 31.1734C50.9411 30.3974 52.2541 30.0874 53.5641 30.2994C54.8731 30.5114 56.0211 31.2204 56.7961 32.2964C57.5721 33.3724 57.8821 34.6854 57.6701 35.9944C57.4581 37.3034 56.7491 38.4514 55.6731 39.2264C54.8181 39.8424 53.8141 40.1654 52.7801 40.1654ZM52.7641 32.9104C52.2881 32.9104 51.8241 33.0594 51.4301 33.3434C50.9341 33.7014 50.6071 34.2304 50.5091 34.8334C50.3071 36.0784 51.1561 37.2564 52.4021 37.4584C53.0051 37.5564 53.6101 37.4134 54.1061 37.0554C54.6021 36.6974 54.9291 36.1684 55.0271 35.5654C55.1251 34.9624 54.9821 34.3564 54.6241 33.8614C54.2671 33.3654 53.7371 33.0384 53.1341 32.9414C53.0101 32.9214 52.8861 32.9114 52.7631 32.9114L52.7641 32.9104Z" fill="#919CAE"/>
<path d="M81.4963 49.0117C81.2623 49.0117 81.0263 48.9927 80.7873 48.9547C78.3843 48.5657 76.7463 46.2937 77.1353 43.8897C77.3243 42.7257 77.9553 41.7047 78.9113 41.0147C79.8673 40.3247 81.0363 40.0487 82.2003 40.2377C83.3643 40.4267 84.3853 41.0567 85.0753 42.0137C85.7653 42.9707 86.0413 44.1387 85.8523 45.3027C85.5013 47.4677 83.6223 49.0117 81.4963 49.0117ZM81.4893 42.4437C81.0413 42.4437 80.6063 42.5837 80.2353 42.8507C79.7693 43.1867 79.4623 43.6847 79.3703 44.2517C79.1803 45.4227 79.9793 46.5297 81.1493 46.7187C82.3223 46.9087 83.4273 46.1097 83.6163 44.9397C83.7083 44.3727 83.5733 43.8037 83.2373 43.3377C82.9013 42.8717 82.4043 42.5647 81.8363 42.4727C81.7203 42.4537 81.6033 42.4447 81.4873 42.4447L81.4893 42.4437Z" fill="#2C4DAE"/>
<path d="M28.5548 74.1186L27.6968 73.1546C27.4128 72.8356 27.4768 72.3396 27.8328 72.1056C27.8868 72.0696 27.9438 72.0326 28.0028 71.9946C29.8508 70.7886 33.6958 68.2776 33.3978 62.6336C33.2198 59.2546 29.3188 57.5266 25.1898 55.6976C22.4238 54.4726 19.5638 53.2056 17.5268 51.3106C15.2498 49.1916 14.3488 46.5386 14.8418 43.4166C14.9038 43.0226 15.2928 42.7666 15.6828 42.8526L16.9258 43.1276C17.2838 43.2066 17.5278 43.5476 17.4718 43.9096C16.7498 48.6546 20.3598 50.6326 26.2728 53.2516C30.9588 55.3266 35.8038 57.4736 36.0698 62.4926C36.4488 69.6756 31.3758 72.9876 29.4658 74.2346C29.4638 74.2356 29.4618 74.2376 29.4598 74.2386C29.1698 74.4286 28.7848 74.3766 28.5538 74.1186H28.5548Z" fill="#A4C639"/>
<path d="M42.1596 77.0092C36.1806 77.0092 29.4706 75.3972 24.2096 72.6982C18.0946 69.5602 14.7266 65.3912 14.7266 60.9602C14.7266 54.9102 19.5676 53.5822 23.8386 52.4102C28.3846 51.1632 32.3336 50.0802 32.9246 44.5702C32.9646 44.1972 33.2846 43.9182 33.6586 43.9392L34.9346 44.0092C35.3316 44.0312 35.6336 44.3802 35.5936 44.7752C34.8426 52.1662 29.1496 53.7272 24.5466 54.9902C19.9846 56.2422 17.4026 57.1362 17.4026 60.9602C17.4026 65.5172 22.4326 68.7792 25.4316 70.3182C30.3316 72.8332 36.5846 74.3342 42.1596 74.3342C47.2856 74.3342 53.0406 72.1882 57.5536 68.5942C62.0906 64.9802 64.6936 60.5472 64.6936 56.4322C64.6936 51.4642 60.6876 50.2122 54.0906 48.7422C50.7656 48.0012 47.3276 47.2352 44.7506 45.4962C41.8236 43.5222 40.4876 40.6542 40.6796 36.7422C40.6996 36.3452 41.0496 36.0442 41.4456 36.0812L42.7166 36.2002C43.0916 36.2352 43.3666 36.5602 43.3496 36.9362C43.0766 43.0842 47.4916 44.5292 54.6736 46.1302C60.6246 47.4572 67.3706 48.9602 67.3706 56.4322C67.3706 61.3672 64.4006 66.5632 59.2216 70.6872C54.1766 74.7052 47.9576 77.0102 42.1606 77.0102L42.1596 77.0092Z" fill="url(#paint1_linear_592_113865)"/>
<path d="M25.3935 48.7817C24.3555 48.7817 23.3675 48.4027 22.5915 47.7017C21.7615 46.9517 21.2735 45.9237 21.2165 44.8067C21.1595 43.6897 21.5415 42.6167 22.2915 41.7867C23.0415 40.9567 24.0695 40.4677 25.1865 40.4117C27.4915 40.2947 29.4645 42.0757 29.5815 44.3817C29.6385 45.4987 29.2565 46.5717 28.5065 47.4017C27.7565 48.2317 26.7285 48.7197 25.6105 48.7767C25.5375 48.7807 25.4655 48.7827 25.3935 48.7827V48.7817ZM25.3995 42.6697C25.3665 42.6697 25.3335 42.6697 25.3005 42.6727C24.7875 42.6987 24.3145 42.9227 23.9705 43.3047C23.6255 43.6857 23.4505 44.1787 23.4765 44.6917C23.5025 45.2047 23.7265 45.6777 24.1085 46.0217C24.4895 46.3657 24.9815 46.5397 25.4955 46.5157C26.0085 46.4897 26.4815 46.2657 26.8255 45.8837C27.1705 45.5027 27.3455 45.0097 27.3195 44.4967C27.2675 43.4707 26.4155 42.6707 25.3995 42.6707V42.6697Z" fill="#A4C639"/>
<path d="M53.9987 94.3421C40.1907 94.3421 27.1877 90.2091 17.3847 82.7061C7.41869 75.0771 1.92969 64.8831 1.92969 54.0031C1.92969 43.1231 7.41869 32.9281 17.3847 25.3001C27.1877 17.7961 40.1907 13.6641 53.9987 13.6641C67.8067 13.6641 80.8097 17.7971 90.6117 25.3001C100.578 32.9291 106.067 43.1231 106.067 54.0031C106.067 64.8831 100.578 75.0781 90.6117 82.7061C80.8087 90.2101 67.8057 94.3421 53.9987 94.3421ZM53.9987 17.7791C27.5587 17.7791 6.04769 34.0281 6.04769 54.0021C6.04769 73.9761 27.5587 90.2251 53.9987 90.2251C80.4387 90.2251 101.95 73.9761 101.95 54.0021C101.95 34.0281 80.4387 17.7791 53.9987 17.7791Z" fill="#626874"/>
<defs>
<linearGradient id="paint0_linear_592_113865" x1="64.4315" y1="57.5188" x2="56.0605" y2="52.9848" gradientUnits="userSpaceOnUse">
<stop stop-color="#2C4DAE"/>
<stop offset="1" stop-color="#919CAE"/>
</linearGradient>
<linearGradient id="paint1_linear_592_113865" x1="43.9406" y1="57.5422" x2="49.2886" y2="54.0542" gradientUnits="userSpaceOnUse">
<stop stop-color="#A4C639"/>
<stop offset="1" stop-color="#919CAE"/>
</linearGradient>
</defs>
</svg>
