<svg width="48" height="52" viewBox="0 0 48 52" fill="none" xmlns="http://www.w3.org/2000/svg">
<path d="M17.9025 3.19687C15.4087 3.83437 13.4212 5.78437 12.8775 8.10937C12.6806 8.9625 12.7369 10.8844 12.9712 11.5781C13.815 13.9781 15.7181 16.1625 18.9244 18.3562C20.5369 19.4719 23.5462 21.0938 23.9962 21.0938C24.4462 21.0938 26.9494 19.7531 28.8244 18.5062C32.0494 16.3594 34.1025 14.1094 34.9369 11.8125C35.1713 11.1656 35.19 10.9969 35.19 9.65625C35.1994 8.37187 35.1713 8.12812 34.9838 7.59375C34.2806 5.60625 32.5931 3.99375 30.5119 3.30937C29.6025 3.01875 27.8962 2.90625 26.9681 3.09375C26.19 3.24375 25.1587 3.675 24.5212 4.125L23.9962 4.5L23.5462 4.18125C22.8806 3.7125 22.1869 3.38437 21.39 3.17812C20.4337 2.93437 18.8681 2.94375 17.9025 3.19687ZM21.3337 4.875C21.9244 5.07187 22.6931 5.52187 23.3869 6.09375C23.8931 6.49687 24.1931 6.44062 25.0556 5.78437C25.8712 5.15625 26.3494 4.92187 27.1181 4.725C29.4431 4.125 32.0681 5.30625 33.1181 7.41562C33.5588 8.325 33.6806 8.925 33.6338 10.0219C33.6056 10.7625 33.54 11.0437 33.3056 11.5875C32.3119 13.9312 29.2275 16.65 25.0931 18.8437L24.0056 19.4156L23.415 19.1156C20.9025 17.85 18.6337 16.2844 16.9462 14.6437C15.8212 13.5562 15.1087 12.5812 14.6869 11.5875C14.3119 10.7344 14.2275 9.34687 14.4806 8.475C14.9869 6.74062 16.3369 5.33437 18.0431 4.78125C18.9431 4.48125 20.2744 4.52812 21.3337 4.875Z" fill="#D0FF2A"/>
<path d="M10.0748 8.23827C9.65294 8.4914 8.09669 10.1414 7.32794 11.1351C5.09669 14.032 3.60606 17.6039 3.14669 21.1851C2.95919 22.6101 2.94981 25.3851 3.12794 26.7164C3.28731 27.8883 3.61544 29.4351 3.81231 29.9226C4.05606 30.5414 4.92794 30.6351 5.23731 30.0726C5.35919 29.857 5.36856 29.7445 5.25606 29.2758C4.67481 26.6414 4.67481 26.6039 4.61856 24.6351C4.56231 22.507 4.64669 21.5226 5.02169 19.8164C5.81856 16.2164 7.60919 12.9633 10.2998 10.2351C11.1998 9.32577 11.3404 9.13827 11.3404 8.87577C11.3311 8.53827 11.2092 8.33202 10.8998 8.17265C10.6186 8.01327 10.4029 8.03202 10.0748 8.23827Z" fill="#D0FF2A"/>
<path d="M37.0781 8.17453C36.7875 8.34328 36.6656 8.54953 36.6562 8.88703C36.6562 9.15891 36.7781 9.31828 37.5937 10.1339C40.3969 12.9558 42.1594 16.1339 42.975 19.8183C43.35 21.5245 43.4344 22.5089 43.3781 24.637C43.3219 26.6058 43.3219 26.6433 42.7406 29.2777C42.6281 29.7464 42.6375 29.8589 42.7594 30.0745C43.0312 30.5714 43.7156 30.5808 44.0719 30.0933C44.2875 29.8027 44.6719 28.1714 44.8687 26.6714C45.0656 25.2183 45.0094 21.862 44.7656 20.5308C43.9687 16.1152 42.1219 12.487 39.0656 9.30891C37.8844 8.09016 37.5562 7.90266 37.0781 8.17453Z" fill="#D0FF2A"/>
<path d="M22.5874 24.8062C21.5749 25.0687 20.7124 25.575 19.9531 26.3437C19.0999 27.2062 18.6499 28.0406 18.4062 29.2406C18.0312 31.1437 18.7156 33.225 20.1687 34.5375C20.6656 34.9875 20.7124 35.0625 20.5531 35.1375C20.4593 35.1844 19.5874 35.4844 18.6031 35.8125C16.3999 36.5344 15.9031 36.7969 15.1531 37.5844C14.0468 38.7656 13.7468 39.7781 13.7937 42.15C13.8218 43.6406 13.8218 43.6594 14.1031 44.1094C14.2906 44.4094 14.5249 44.6344 14.7968 44.7844L15.2093 45H23.9656C31.0906 45 32.7781 44.9719 33.0218 44.8781C33.5281 44.6625 33.9968 44.0625 34.1187 43.4344C34.2968 42.6094 34.1843 40.2562 33.9406 39.4594C33.5937 38.3531 32.7593 37.3031 31.7562 36.7125C31.5124 36.5719 30.4437 36.1687 29.3656 35.8125C28.2968 35.4469 27.3593 35.1375 27.2843 35.1094C27.1999 35.0719 27.3031 34.95 27.5843 34.7344C28.4374 34.0875 29.2624 32.7562 29.5343 31.5937C29.6937 30.8719 29.6749 29.5969 29.4781 28.875C28.9624 26.8875 27.3593 25.3031 25.3531 24.7969C24.6593 24.6187 23.2718 24.6281 22.5874 24.8062ZM25.6249 26.6062C27.1437 27.3187 28.0437 28.7062 28.0437 30.3281C28.0343 33.3187 24.9031 35.3062 22.2593 33.9937C18.9218 32.3437 19.2124 27.6937 22.7281 26.4375C23.5718 26.1469 24.7812 26.2125 25.6249 26.6062ZM24.8937 36.1031C25.5781 36.225 30.1624 37.725 30.7718 38.0344C31.3999 38.3437 31.9343 38.9156 32.2718 39.6281C32.5343 40.2094 32.5531 40.3312 32.5999 41.625C32.6281 42.5719 32.6093 43.0594 32.5343 43.2L32.4218 43.4062H24.0124C17.5906 43.4062 15.5656 43.3781 15.4812 43.2937C15.4062 43.2187 15.3687 42.7687 15.3687 41.8969C15.3687 40.3594 15.5468 39.6375 16.1093 38.925C16.6812 38.2031 17.1687 37.9687 19.9812 37.0312C23.1968 35.9719 23.6656 35.8781 24.8937 36.1031Z" fill="#D0FF2A"/>
<path d="M10.1801 26.5875C7.87382 27.1406 6.31757 29.4563 6.64569 31.8188C6.77694 32.7656 7.22694 33.7313 7.88319 34.4438C8.21132 34.8 8.32382 34.9781 8.23007 35.0156C8.16444 35.0344 7.48007 35.2781 6.70194 35.5406C5.93319 35.7938 5.09882 36.1406 4.85507 36.2906C4.22694 36.6938 3.68319 37.3219 3.34569 38.0438C3.05507 38.6625 3.04569 38.7 3.01757 40.2469C2.99882 41.1188 3.00819 41.9344 3.03632 42.0563C3.12069 42.375 3.64569 42.9469 4.00194 43.0875C4.23632 43.1906 5.12694 43.2188 8.10819 43.2188H11.9144L12.1394 42.9844C12.3738 42.7594 12.4394 42.375 12.3176 42.0469C12.1582 41.6531 11.9051 41.625 8.16444 41.625H4.59257L4.53632 41.3813C4.43319 40.9875 4.56444 39.2438 4.72382 38.8688C5.13632 37.875 5.53007 37.6406 8.23944 36.7313C10.4144 36.0094 10.5926 35.9719 11.3426 35.9719C11.9426 35.9719 12.3176 36.0375 12.8894 36.2156C13.9957 36.5813 14.3426 36.5531 14.5863 36.075C14.7457 35.7656 14.6988 35.4 14.4644 35.1375C14.3332 34.9875 14.3519 34.9313 14.7551 34.4906C15.6551 33.4875 16.0488 32.475 16.0488 31.1719C16.0488 28.0781 13.2082 25.8563 10.1801 26.5875ZM12.7019 28.3969C13.7613 28.9219 14.3519 29.8219 14.4176 31.0219C14.4738 32.0156 14.2207 32.6719 13.5082 33.3844C12.0082 34.8844 9.61757 34.5094 8.57694 32.6156C8.23007 31.9781 8.14569 30.9188 8.38007 30.225C8.99882 28.3969 10.9957 27.5531 12.7019 28.3969Z" fill="#D0FF2A"/>
<path d="M35.6701 26.55C34.5357 26.7656 33.3545 27.5813 32.6701 28.6219C31.6764 30.1406 31.6951 32.2969 32.717 33.825C32.9326 34.1344 33.242 34.5188 33.4107 34.6688L33.7201 34.9406L33.4951 35.1938C33.2139 35.5313 33.2139 35.9438 33.5139 36.2344C33.7951 36.5156 34.1232 36.5344 34.8545 36.2906C35.1451 36.1875 35.7264 36.0656 36.1389 36.0094C36.8232 35.9156 36.9639 35.925 37.8264 36.1406C39.167 36.4688 41.9795 37.4625 42.392 37.7438C42.7576 38.0063 43.142 38.5031 43.3107 38.9531C43.442 39.2906 43.5451 41.0344 43.4607 41.3719L43.4045 41.6156L39.692 41.6438L35.9795 41.6719L35.8014 41.8969C35.5482 42.2063 35.567 42.7594 35.8389 43.0125C36.0545 43.2188 36.0826 43.2188 39.8701 43.2188C42.8701 43.2188 43.7607 43.1906 43.9951 43.0875C44.3514 42.9469 44.8764 42.375 44.9607 42.0563C44.9889 41.9344 44.9982 41.1188 44.9795 40.2469C44.9514 38.7 44.942 38.6625 44.6514 38.0438C44.3139 37.3219 43.7701 36.6938 43.142 36.2906C42.8982 36.1406 42.0732 35.7938 41.2951 35.5406C40.5264 35.2781 39.8326 35.0344 39.767 35.0156C39.6732 34.9781 39.7857 34.8 40.1139 34.4438C41.1545 33.3094 41.6045 31.7625 41.3045 30.3188C41.1076 29.325 40.6951 28.5281 40.0482 27.8719C38.9139 26.7281 37.3107 26.2406 35.6701 26.55ZM37.8264 28.3031C38.5201 28.6125 39.0264 29.0719 39.3732 29.7281C39.8045 30.5344 39.8701 31.4719 39.5514 32.2969C39.1107 33.4688 37.9014 34.3125 36.6545 34.3125C34.967 34.3125 33.5514 32.8875 33.5607 31.1906C33.5795 28.9688 35.8482 27.4313 37.8264 28.3031Z" fill="#D0FF2A"/>
<line y1="51.5" x2="48" y2="51.5" stroke="#ABC452"/>
</svg>
