<svg width="20" height="21" viewBox="0 0 20 21" fill="none" xmlns="http://www.w3.org/2000/svg">
<path d="M12.2514 17.8861L12.2605 17.8925C13.0476 18.3936 13.982 18.6112 14.9095 18.5094C15.837 18.4075 16.7019 17.9923 17.3615 17.3323L17.9344 16.7593C18.0614 16.6324 18.1621 16.4818 18.2308 16.316C18.2995 16.1501 18.3349 15.9724 18.3349 15.7929C18.3349 15.6134 18.2995 15.4356 18.2308 15.2698C18.1621 15.104 18.0614 14.9533 17.9344 14.8264L15.5178 12.4117C15.3909 12.2847 15.2403 12.184 15.0745 12.1153C14.9086 12.0466 14.7309 12.0112 14.5514 12.0112C14.3719 12.0112 14.1941 12.0466 14.0283 12.1153C13.8625 12.184 13.7118 12.2847 13.5849 12.4117C13.3287 12.6678 12.9813 12.8117 12.619 12.8117C12.2567 12.8117 11.9092 12.6678 11.653 12.4117L7.78901 8.54683C7.53287 8.29061 7.38897 7.94314 7.38897 7.58085C7.38897 7.21855 7.53287 6.87108 7.78901 6.61486C7.91598 6.48797 8.0167 6.33731 8.08542 6.17148C8.15414 6.00566 8.18951 5.82792 8.18951 5.64841C8.18951 5.46891 8.15414 5.29117 8.08542 5.12534C8.0167 4.95952 7.91598 4.80886 7.78901 4.68197L5.37336 2.26723C5.11714 2.01108 4.76967 1.86719 4.40737 1.86719C4.04507 1.86719 3.69761 2.01108 3.44138 2.26723L2.86753 2.84017C2.20768 3.49981 1.79262 4.36483 1.69093 5.29229C1.58924 6.21975 1.80701 7.15415 2.30825 7.9411L2.31371 7.95021C4.9609 11.8668 8.33434 15.2396 12.2514 17.8861V17.8861Z" stroke="white" stroke-width="1.4" stroke-linecap="round" stroke-linejoin="round"/>
</svg>
