<svg width="27" height="27" viewBox="0 0 27 27" fill="none" xmlns="http://www.w3.org/2000/svg">
<path d="M12.9776 0.954289C12.5174 1.42492 12.2089 1.91648 12.0102 2.47601C11.8271 2.98848 11.7748 4.02911 11.9056 4.57818C12.0572 5.2423 12.486 6.00055 12.9514 6.44504L13.1397 6.62806V7.12484V7.62685L12.6847 7.18237C11.9369 6.4555 11.2205 6.15743 10.0753 6.0999C9.47396 6.07376 9.43735 6.07376 9.32754 6.18357C9.23341 6.2777 9.21772 6.35091 9.21772 6.79017C9.21772 7.48566 9.33277 8.00859 9.60992 8.56813C10.0335 9.43096 10.525 9.92251 11.3879 10.3461C11.8742 10.5866 12.4651 10.7383 12.9044 10.7383H13.1397V11.4547V12.1711L12.873 11.873C12.3867 11.3292 11.6389 10.8795 10.9277 10.7121C10.7447 10.6703 10.3472 10.6337 9.99688 10.6337C9.18112 10.6337 9.1968 10.618 9.22818 11.507C9.27001 12.626 9.58377 13.3477 10.3682 14.1373C10.7028 14.4772 10.9172 14.6393 11.2415 14.8067C11.7539 15.0734 12.3501 15.2355 12.8102 15.2355H13.1397V15.9048V16.5794L12.7057 16.1506C12.3501 15.8002 12.1775 15.6747 11.7748 15.476C11.1787 15.1832 10.8127 15.089 10.1538 15.042C9.28047 14.9897 9.21772 15.0367 9.21772 15.7584C9.21772 16.0408 9.25433 16.4382 9.29616 16.6421C9.64652 18.2998 11.0637 19.5601 12.7109 19.6647L13.1397 19.696V21.0923V22.4937L12.5279 22.5251C10.6192 22.6297 9.12359 22.8545 7.38747 23.2886C6.84886 23.4245 5.47355 23.8429 5.23301 23.9422C5.14411 23.9788 5.13888 23.9213 5.13888 23.1683V22.363L5.60951 22.3002C6.54033 22.18 7.31949 21.793 7.947 21.1236C8.65296 20.3811 8.95626 19.6437 8.99286 18.5561C9.02947 17.6462 9.05561 17.6723 8.10911 17.7037C7.52866 17.7246 7.34564 17.7507 6.99528 17.871C6.41482 18.0697 5.91281 18.3783 5.49447 18.7966L5.13888 19.1522V18.5038V17.8501H5.34805C6.32593 17.8501 7.5705 17.2069 8.19801 16.3754C8.74186 15.659 9.00855 14.8433 9.00855 13.902C9.00855 13.2379 8.96672 13.196 8.36535 13.196C7.19399 13.196 6.3573 13.5203 5.54676 14.289L5.13888 14.6759V14.0223V13.3686L5.60951 13.3059C6.54033 13.1856 7.31949 12.7986 7.947 12.1293C8.65296 11.3867 8.95626 10.6494 8.99286 9.56169C9.02947 8.65179 9.05561 8.67794 8.10911 8.70932C7.52866 8.73023 7.34564 8.75638 6.99528 8.87665C6.41482 9.07537 5.91281 9.38389 5.49447 9.80224L5.13888 10.1578V9.62444V9.08582L5.35328 8.88188C5.67227 8.57336 6.01217 8.02428 6.19519 7.53796C6.34161 7.15622 6.36253 7.02549 6.38345 6.42412C6.41482 5.4201 6.22657 4.77167 5.69318 4.02911C5.39511 3.60554 4.86173 3.10352 4.72054 3.10352C4.57935 3.10352 4.04596 3.60554 3.74789 4.02911C3.46028 4.42653 3.22496 4.93377 3.12038 5.39395C2.98964 5.94303 3.04194 6.98365 3.22496 7.49612C3.41322 8.02428 3.72697 8.53675 4.09825 8.91849L4.40678 9.23224V9.73949V10.2415L4.12963 9.94866C3.76358 9.55123 3.46028 9.32114 3.02102 9.10151C2.4458 8.8139 2.14773 8.74069 1.39471 8.71455C0.479587 8.67794 0.516192 8.63611 0.552797 9.60875C0.568485 10.231 0.594631 10.4088 0.709676 10.7278C1.24306 12.2234 2.44057 13.149 4.08256 13.3268L4.40678 13.3634V14.0536V14.7439L3.97275 14.3203C3.49165 13.8549 3.1256 13.6144 2.59222 13.4314C1.91241 13.196 0.887471 13.1124 0.652154 13.2797C0.542339 13.3529 0.537109 13.4 0.537109 13.9752C0.537109 15.1256 0.861325 15.931 1.63526 16.6997C1.88104 16.9454 2.21571 17.2226 2.38305 17.3219C2.82231 17.5782 3.49688 17.7978 3.98321 17.8344L4.40678 17.8658V18.5979V19.33L4.08779 18.9796C3.57009 18.4149 2.85891 17.9913 2.1425 17.824C1.69801 17.7194 0.6783 17.7194 0.589402 17.824C0.542339 17.8815 0.53188 18.0959 0.547568 18.6188C0.568485 19.2202 0.599861 19.4032 0.709676 19.7222C1.24306 21.2178 2.44057 22.1433 4.08256 22.3211L4.40678 22.3577L4.39632 23.299L4.38063 24.2455L3.91 24.439C2.97919 24.8155 1.94902 25.2914 1.26398 25.6574C0.60509 26.013 0.563256 26.0444 0.547568 26.2013C0.521422 26.4418 0.615549 26.583 0.798574 26.583C0.882242 26.583 1.36857 26.3738 1.93333 26.0915C9.72496 22.1956 17.4277 22.2322 25.3605 26.2117C25.7736 26.4157 26.1658 26.583 26.2338 26.583C26.4273 26.583 26.5371 26.447 26.5162 26.2222C26.5005 26.0339 26.5005 26.0339 25.6115 25.579C24.9003 25.2182 23.6401 24.6482 22.725 24.2769C22.6047 24.2351 22.6047 24.2194 22.6047 23.2938V22.3577L22.9603 22.3211C24.4245 22.1747 25.5122 21.4426 26.1397 20.1771C26.4221 19.6019 26.5267 19.147 26.5267 18.4201C26.5267 17.6932 26.5267 17.6932 25.7893 17.6932C25.4913 17.6932 25.0834 17.7298 24.8794 17.7717C24.1578 17.9233 23.2427 18.4724 22.8139 19.011L22.6047 19.2777V18.5613V17.8501H22.84C23.1799 17.8501 23.8283 17.7089 24.1996 17.552C25.2036 17.1337 26.009 16.2552 26.3541 15.2093C26.4639 14.8642 26.4953 14.6655 26.5162 14.0746L26.5371 13.3634L26.4011 13.2745C26.2809 13.1908 26.1763 13.1856 25.6481 13.2117C24.7592 13.2588 24.2624 13.4157 23.593 13.8549C23.3995 13.9804 23.1015 14.2367 22.9237 14.4249L22.6047 14.7701V14.0693V13.3634L22.9603 13.3268C24.4245 13.1804 25.5122 12.4483 26.1397 11.1828C26.4221 10.6075 26.5267 10.1526 26.5267 9.42573C26.5267 8.69886 26.5267 8.69886 25.7893 8.69886C25.4913 8.69886 25.0834 8.73546 24.8794 8.7773C24.1578 8.92895 23.2427 9.47802 22.8139 10.0166L22.6047 10.2833V9.69242V9.10151L22.9341 8.75638C23.8597 7.77327 24.1473 6.31953 23.6767 4.97038C23.4884 4.43176 23.2531 4.06571 22.7511 3.55324C22.1968 2.98325 22.1707 2.98325 21.6373 3.54801C20.8267 4.41085 20.4764 5.32597 20.5287 6.45027C20.5757 7.39154 20.9052 8.18116 21.5379 8.85574L21.8726 9.2061V9.70288V10.1997L21.4647 9.80224C20.9941 9.33683 20.5496 9.06491 19.9639 8.87142C19.6188 8.76161 19.4201 8.73023 18.8291 8.70932L18.118 8.6884L18.0291 8.82436C17.9454 8.94463 17.9402 9.04922 17.9663 9.57738C17.982 9.91205 18.0343 10.3199 18.0814 10.482C18.4213 11.7266 19.3625 12.7202 20.6019 13.149C20.7692 13.2065 21.1196 13.2797 21.3863 13.3111L21.8726 13.3686V14.0432V14.723L21.4856 14.336C20.7117 13.5621 19.7913 13.196 18.6357 13.196C18.2173 13.196 18.1703 13.2065 18.0552 13.3268C17.9402 13.447 17.9349 13.4784 17.9663 14.0693C17.9977 14.8014 18.0866 15.1675 18.369 15.7322C18.9546 16.9193 20.1469 17.7298 21.4699 17.8344L21.8726 17.8658V18.5299V19.194L21.4647 18.7966C20.9941 18.3312 20.5496 18.0593 19.9639 17.8658C19.6188 17.756 19.4201 17.7246 18.8291 17.7037L18.118 17.6828L18.0291 17.8187C17.9454 17.939 17.9402 18.0436 17.9663 18.5717C17.982 18.9064 18.0343 19.3143 18.0814 19.4764C18.4213 20.721 19.3625 21.7145 20.6019 22.1433C20.7692 22.2009 21.1196 22.2741 21.3863 22.3055L21.8726 22.363V23.1683C21.8726 23.6075 21.8674 23.9684 21.8569 23.9684C21.8464 23.9684 21.5954 23.8847 21.2921 23.7853C19.2527 23.0951 16.9414 22.6715 14.4365 22.5251L13.8718 22.4937V21.0923V19.696L14.3058 19.6647C15.4092 19.5915 16.5178 18.9483 17.1401 18.0018C17.595 17.3272 17.7937 16.6265 17.7937 15.7322C17.7937 15.2616 17.7885 15.2407 17.6526 15.1309C17.5166 15.0211 17.4695 15.0158 16.9309 15.042C16.2093 15.0838 15.8589 15.1727 15.2366 15.476C14.834 15.6747 14.6614 15.8002 14.3058 16.1506L13.8718 16.5794V15.9048V15.2355H14.2012C14.6614 15.2355 15.2575 15.0734 15.77 14.8067C16.0942 14.6393 16.3086 14.4772 16.6433 14.1373C17.1558 13.6248 17.3754 13.2745 17.6003 12.6365C17.7362 12.2443 17.7624 12.077 17.7833 11.507C17.8147 10.618 17.8304 10.6337 17.0146 10.6337C16.6642 10.6337 16.2668 10.6703 16.0838 10.7121C15.3726 10.8795 14.6248 11.3292 14.1385 11.873L13.8718 12.1711V11.4547V10.7383H14.1071C15.1111 10.7383 16.3505 10.1055 16.9832 9.26362C17.5271 8.54721 17.7937 7.73144 17.7937 6.79017C17.7937 6.12605 17.7519 6.08422 17.1558 6.08422C16.3557 6.08422 15.6236 6.26724 15.0327 6.6176C14.8706 6.71173 14.5411 6.97842 14.3058 7.20851L13.8718 7.63208V7.16668V6.70127L14.1019 6.44504C15.2209 5.20047 15.4876 3.44343 14.7869 1.974C14.4784 1.33603 13.762 0.541176 13.49 0.541176C13.4168 0.541176 13.2338 0.687595 12.9776 0.954289ZM14.0914 2.29821C14.6405 3.4382 14.5045 4.66185 13.7097 5.73385L13.4848 6.03192L13.3384 5.89073C13.0769 5.64496 12.8155 5.19524 12.6481 4.7246C12.5122 4.33764 12.4913 4.2069 12.4913 3.73104C12.4913 3.27086 12.5174 3.11398 12.6377 2.76885C12.805 2.2773 12.9619 2.00015 13.2547 1.66547L13.4744 1.41447L13.6835 1.64455C13.7933 1.77006 13.9764 2.0629 14.0914 2.29821ZM5.42649 4.85533C5.85529 5.73385 5.87621 6.54962 5.49447 7.45952C5.36374 7.77327 5.04998 8.25437 4.86696 8.42694L4.74145 8.54198L4.51659 8.27006C3.53349 7.06732 3.53872 5.41487 4.51659 4.2069L4.74668 3.92975L4.99769 4.2069C5.13888 4.36378 5.33236 4.65139 5.42649 4.85533ZM22.7877 4.69846C23.0806 5.19001 23.2061 5.65541 23.2008 6.24109C23.1956 7.02026 22.9498 7.65823 22.4007 8.32758L22.2125 8.55767L21.9929 8.30143C21.4961 7.7419 21.2294 7.01503 21.2294 6.24109C21.2294 5.47239 21.4909 4.76121 21.9876 4.18076L22.2073 3.92452L22.4007 4.15461C22.5106 4.28011 22.6831 4.52589 22.7877 4.69846ZM10.7604 6.9209C10.9852 6.97842 11.3251 7.10916 11.5134 7.21897C11.9526 7.46475 12.4913 8.00336 12.737 8.44262C12.9514 8.82436 13.1397 9.47802 13.1397 9.83361V10.0585H12.9148C12.5592 10.0585 11.9056 9.87022 11.5238 9.65582C11.0846 9.41004 10.546 8.87142 10.3002 8.43216C10.0858 8.05043 9.89753 7.39677 9.89753 7.04118V6.81632H10.1224C10.2479 6.81632 10.5355 6.86338 10.7604 6.9209ZM17.1139 7.04118C17.1139 7.39677 16.9257 8.05043 16.7113 8.43216C16.4655 8.87142 15.9269 9.41004 15.4876 9.65582C15.1059 9.87022 14.4522 10.0585 14.0966 10.0585H13.8718V9.83361C13.8718 9.47802 14.06 8.82436 14.2744 8.44262C14.5202 8.00336 15.0588 7.46475 15.4981 7.21897C15.8903 6.99934 16.4969 6.82155 16.8682 6.82155L17.1139 6.81632V7.04118ZM2.01177 9.51463C2.54515 9.64013 2.98964 9.89636 3.41844 10.3199C4.04596 10.937 4.34926 11.5854 4.35449 12.2914C4.35449 12.7202 4.38586 12.6993 3.88385 12.6156C2.40396 12.375 1.32673 11.188 1.20123 9.65582L1.18031 9.38389L1.447 9.41527C1.59342 9.42573 1.84966 9.47279 2.01177 9.51463ZM8.32874 9.62444C8.32351 10.299 7.947 11.1671 7.41885 11.6952C6.88023 12.2339 6.20042 12.5633 5.44218 12.647L5.13888 12.6783V12.2914C5.13888 11.1619 6.03309 9.99572 7.21491 9.58261C7.46591 9.49371 7.76398 9.43619 8.26599 9.38389C8.30783 9.37866 8.32874 9.4571 8.32874 9.62444ZM19.2736 9.4571C20.6385 9.6349 21.8726 10.9788 21.8726 12.2966V12.6783L21.5745 12.647C20.445 12.5215 19.4985 11.8678 19.0279 10.8795C18.7821 10.3722 18.6827 10.0009 18.6827 9.60875V9.37344L18.8553 9.39958C18.9442 9.41527 19.1377 9.44142 19.2736 9.4571ZM25.8468 9.65582C25.8468 10.3461 25.486 11.1514 24.9317 11.7057C24.3826 12.2548 23.7342 12.5633 22.9498 12.647L22.6047 12.6836V12.4849C22.6099 11.826 22.9498 10.9997 23.4361 10.4664C24.0637 9.78655 24.6912 9.49371 25.7841 9.38389C25.8259 9.37866 25.8468 9.46756 25.8468 9.65582ZM10.4884 11.3396C11.8376 11.5122 13.0037 12.7672 13.124 14.1791L13.1554 14.5661L12.7946 14.5295C11.6598 14.4092 10.7185 13.7556 10.2427 12.762C9.99688 12.2548 9.89753 11.8835 9.89753 11.4913V11.256L10.0701 11.2821C10.159 11.2978 10.3525 11.324 10.4884 11.3396ZM17.0983 11.69C16.978 13.1019 15.8118 14.3569 14.4627 14.5295C14.3267 14.5452 14.1332 14.5713 14.0444 14.587L13.8718 14.6132V14.3779C13.8718 13.7974 14.1908 12.9816 14.6196 12.4535C14.8967 12.1136 15.5085 11.69 15.9374 11.5279C16.2459 11.4129 16.6433 11.3292 16.9518 11.3187L17.1296 11.3135L17.0983 11.69ZM2.268 14.1059C3.00533 14.3622 3.65376 14.9165 4.00935 15.6015C4.2499 16.0565 4.35449 16.4382 4.35449 16.8461V17.186L4.03027 17.1494C2.61836 17.003 1.37379 15.8002 1.23783 14.4563C1.22215 14.2942 1.20123 14.1059 1.18554 14.038C1.15939 13.9125 1.15939 13.9125 1.52544 13.9438C1.72416 13.9595 2.05883 14.0327 2.268 14.1059ZM8.32874 14.153C8.32874 14.5086 8.14049 15.1623 7.92609 15.544C7.68031 15.9832 7.1417 16.5219 6.70244 16.7676C6.33116 16.9768 5.66704 17.1703 5.33759 17.1703H5.13888V16.8147C5.13888 15.6015 6.15859 14.3726 7.44499 14.0327C7.65939 13.9804 7.94178 13.9334 8.08297 13.9334L8.32874 13.9281V14.153ZM19.5456 14.0327C20.0946 14.1739 20.5705 14.4511 20.9888 14.8642C21.5588 15.4394 21.8726 16.1244 21.8726 16.8147V17.1703H21.6739C21.3444 17.1703 20.6803 16.9768 20.309 16.7676C19.8698 16.5219 19.3312 15.9832 19.0854 15.544C18.871 15.1623 18.6827 14.5086 18.6827 14.153V13.9281H18.9076C19.0331 13.9281 19.3207 13.9752 19.5456 14.0327ZM25.8468 14.1635C25.8468 14.54 25.7475 14.9217 25.5226 15.3923C25.3553 15.7427 25.2246 15.9205 24.9108 16.229C24.6755 16.4643 24.3774 16.6944 24.1892 16.7938C23.8179 16.9873 23.1642 17.1703 22.8295 17.1703C22.6099 17.1703 22.6047 17.1651 22.6047 16.9977C22.6047 16.731 22.7406 16.1715 22.8818 15.8368C23.3316 14.7701 24.4977 13.9543 25.6011 13.9334L25.8468 13.9281V14.1635ZM10.6871 15.8577C11.4559 16.0565 12.0625 16.4487 12.4965 17.0291C12.8834 17.5573 13.1345 18.2371 13.1397 18.7757V19.0005H12.9044C12.5279 19.0005 12.1461 18.9012 11.6755 18.6763C11.3251 18.509 11.1473 18.3783 10.8388 18.0645C10.6035 17.8292 10.3734 17.5311 10.274 17.3429C10.0806 16.9716 9.89753 16.3179 9.89753 15.9832V15.7584H10.0962C10.2113 15.7584 10.4727 15.8055 10.6871 15.8577ZM17.1139 15.9832C17.1139 16.3179 16.9309 16.9716 16.7374 17.3429C16.6381 17.5311 16.408 17.8292 16.1727 18.0645C15.8641 18.3783 15.6863 18.509 15.336 18.6763C14.8601 18.9012 14.4836 19.0005 14.0966 19.0005H13.8561L13.8875 18.6397C13.9502 17.8919 14.3686 17.0605 14.9386 16.5689C15.4353 16.1297 16.3139 15.7688 16.8943 15.7636L17.1139 15.7584V15.9832ZM2.01177 18.509C2.54515 18.6345 2.98964 18.8907 3.41844 19.3143C4.04596 19.9314 4.34926 20.5798 4.35449 21.2857C4.35449 21.7145 4.38586 21.6936 3.88385 21.61C2.40396 21.3694 1.32673 20.1824 1.20123 18.6502L1.18031 18.3783L1.447 18.4096C1.59342 18.4201 1.84966 18.4672 2.01177 18.509ZM8.32874 18.6188C8.32351 19.2934 7.947 20.1614 7.41885 20.6896C6.88023 21.2282 6.20042 21.5577 5.44218 21.6413L5.13888 21.6727V21.2857C5.13888 20.1562 6.03309 18.9901 7.21491 18.577C7.46591 18.4881 7.76398 18.4306 8.26599 18.3783C8.30783 18.373 8.32874 18.4515 8.32874 18.6188ZM19.2736 18.4515C20.6385 18.6293 21.8726 19.9732 21.8726 21.291V21.6727L21.5745 21.6413C20.445 21.5158 19.4985 20.8622 19.0279 19.8738C18.7821 19.3666 18.6827 18.9953 18.6827 18.6031V18.3678L18.8553 18.3939C18.9442 18.4096 19.1377 18.4358 19.2736 18.4515ZM25.8468 18.6502C25.8468 19.3405 25.486 20.1458 24.9317 20.7001C24.3826 21.2491 23.7342 21.5577 22.9498 21.6413L22.6047 21.6779V21.4792C22.6099 20.8203 22.9498 19.9941 23.4361 19.4607C24.0637 18.7809 24.6912 18.4881 25.7841 18.3783C25.8259 18.373 25.8468 18.4619 25.8468 18.6502Z" fill="#174B24"/>
</svg>
