<svg width="180" height="44" viewBox="0 0 180 44" fill="none" xmlns="http://www.w3.org/2000/svg">
<rect width="180" height="44" rx="22" fill="white" fill-opacity="0.08"/>
<rect x="0.5" y="0.5" width="179" height="43" rx="21.5" stroke="white" stroke-opacity="0.12"/>
<path d="M17.232 29V17.08H21.568C22.368 17.08 23.072 17.2293 23.68 17.528C24.2987 17.816 24.7787 18.2427 25.12 18.808C25.4613 19.3627 25.632 20.0293 25.632 20.808C25.632 21.576 25.456 22.2373 25.104 22.792C24.7627 23.3467 24.288 23.7733 23.68 24.072C23.072 24.3707 22.368 24.52 21.568 24.52H19.12V29H17.232ZM19.12 22.84H21.616C22.0427 22.84 22.416 22.7547 22.736 22.584C23.056 22.4133 23.3067 22.1787 23.488 21.88C23.6693 21.5707 23.76 21.208 23.76 20.792C23.76 20.376 23.6693 20.0187 23.488 19.72C23.3067 19.4107 23.056 19.176 22.736 19.016C22.416 18.8453 22.0427 18.76 21.616 18.76H19.12V22.84ZM29.4293 29.192C28.8426 29.192 28.3253 29.0907 27.8773 28.888C27.4399 28.6747 27.0986 28.3867 26.8533 28.024C26.6079 27.6507 26.4853 27.2133 26.4853 26.712C26.4853 26.2427 26.5866 25.8213 26.7893 25.448C27.0026 25.0747 27.3279 24.76 27.7653 24.504C28.2026 24.248 28.7519 24.0667 29.4133 23.96L32.4213 23.464V24.888L29.7653 25.352C29.2853 25.4373 28.9333 25.592 28.7093 25.816C28.4853 26.0293 28.3733 26.3067 28.3733 26.648C28.3733 26.9787 28.4959 27.2507 28.7413 27.464C28.9973 27.6667 29.3226 27.768 29.7173 27.768C30.2079 27.768 30.6346 27.6613 30.9973 27.448C31.3706 27.2347 31.6586 26.952 31.8613 26.6C32.0639 26.2373 32.1653 25.8373 32.1653 25.4V23.176C32.1653 22.7493 32.0053 22.4027 31.6853 22.136C31.3759 21.8587 30.9599 21.72 30.4373 21.72C29.9573 21.72 29.5359 21.848 29.1733 22.104C28.8213 22.3493 28.5599 22.6693 28.3893 23.064L26.8853 22.312C27.0453 21.8853 27.3066 21.512 27.6693 21.192C28.0319 20.8613 28.4533 20.6053 28.9333 20.424C29.4239 20.2427 29.9413 20.152 30.4852 20.152C31.1679 20.152 31.7706 20.28 32.2933 20.536C32.8266 20.792 33.2373 21.1493 33.5253 21.608C33.8239 22.056 33.9733 22.5787 33.9733 23.176V29H32.2453V27.432L32.6133 27.48C32.4106 27.832 32.1493 28.136 31.8293 28.392C31.5199 28.648 31.1626 28.8453 30.7573 28.984C30.3626 29.1227 29.9199 29.192 29.4293 29.192ZM40.1993 29.192C39.3353 29.192 38.5673 28.9947 37.8953 28.6C37.2339 28.1947 36.7059 27.6507 36.3113 26.968C35.9273 26.2853 35.7353 25.512 35.7353 24.648C35.7353 23.7947 35.9273 23.0267 36.3113 22.344C36.6953 21.6613 37.2233 21.128 37.8953 20.744C38.5673 20.3493 39.3353 20.152 40.1993 20.152C40.7859 20.152 41.3353 20.2587 41.8473 20.472C42.3593 20.6747 42.8019 20.9573 43.1753 21.32C43.5593 21.6827 43.8419 22.104 44.0233 22.584L42.4393 23.32C42.2579 22.872 41.9646 22.5147 41.5593 22.248C41.1646 21.9707 40.7113 21.832 40.1993 21.832C39.7086 21.832 39.2659 21.9547 38.8713 22.2C38.4873 22.4347 38.1833 22.7707 37.9593 23.208C37.7353 23.6347 37.6233 24.12 37.6233 24.664C37.6233 25.208 37.7353 25.6987 37.9593 26.136C38.1833 26.5627 38.4873 26.8987 38.8713 27.144C39.2659 27.3893 39.7086 27.512 40.1993 27.512C40.7219 27.512 41.1753 27.3787 41.5593 27.112C41.9539 26.8347 42.2473 26.4667 42.4393 26.008L44.0233 26.76C43.8526 27.2187 43.5753 27.6347 43.1913 28.008C42.8179 28.3707 42.3753 28.6587 41.8633 28.872C41.3513 29.0853 40.7966 29.192 40.1993 29.192ZM45.7904 29V16.888H47.5984V25L46.8944 24.824L51.2304 20.344H53.4864L50.2224 23.816L53.6304 29H51.5504L48.5104 24.408L49.5824 24.264L47.0224 26.984L47.5984 25.784V29H45.7904ZM57.4605 29.192C56.8738 29.192 56.3565 29.0907 55.9085 28.888C55.4712 28.6747 55.1298 28.3867 54.8845 28.024C54.6392 27.6507 54.5165 27.2133 54.5165 26.712C54.5165 26.2427 54.6178 25.8213 54.8205 25.448C55.0338 25.0747 55.3592 24.76 55.7965 24.504C56.2338 24.248 56.7832 24.0667 57.4445 23.96L60.4525 23.464V24.888L57.7965 25.352C57.3165 25.4373 56.9645 25.592 56.7405 25.816C56.5165 26.0293 56.4045 26.3067 56.4045 26.648C56.4045 26.9787 56.5272 27.2507 56.7725 27.464C57.0285 27.6667 57.3538 27.768 57.7485 27.768C58.2392 27.768 58.6658 27.6613 59.0285 27.448C59.4018 27.2347 59.6898 26.952 59.8925 26.6C60.0952 26.2373 60.1965 25.8373 60.1965 25.4V23.176C60.1965 22.7493 60.0365 22.4027 59.7165 22.136C59.4072 21.8587 58.9912 21.72 58.4685 21.72C57.9885 21.72 57.5672 21.848 57.2045 22.104C56.8525 22.3493 56.5912 22.6693 56.4205 23.064L54.9165 22.312C55.0765 21.8853 55.3378 21.512 55.7005 21.192C56.0632 20.8613 56.4845 20.6053 56.9645 20.424C57.4552 20.2427 57.9725 20.152 58.5165 20.152C59.1992 20.152 59.8018 20.28 60.3245 20.536C60.8578 20.792 61.2685 21.1493 61.5565 21.608C61.8552 22.056 62.0045 22.5787 62.0045 23.176V29H60.2765V27.432L60.6445 27.48C60.4418 27.832 60.1805 28.136 59.8605 28.392C59.5512 28.648 59.1938 28.8453 58.7885 28.984C58.3938 29.1227 57.9512 29.192 57.4605 29.192ZM68.2945 32.52C67.6652 32.52 67.0838 32.4187 66.5505 32.216C66.0172 32.0133 65.5585 31.7307 65.1745 31.368C64.7905 31.016 64.5025 30.6 64.3105 30.12L65.9745 29.432C66.1238 29.8373 66.3958 30.1733 66.7905 30.44C67.1958 30.7067 67.6918 30.84 68.2785 30.84C68.7372 30.84 69.1478 30.7493 69.5105 30.568C69.8732 30.3973 70.1612 30.1413 70.3745 29.8C70.5878 29.4693 70.6945 29.0693 70.6945 28.6V26.648L71.0145 27.016C70.7158 27.5707 70.2998 27.992 69.7665 28.28C69.2438 28.568 68.6518 28.712 67.9905 28.712C67.1905 28.712 66.4705 28.5253 65.8305 28.152C65.1905 27.7787 64.6838 27.2667 64.3105 26.616C63.9478 25.9653 63.7665 25.2347 63.7665 24.424C63.7665 23.6027 63.9478 22.872 64.3105 22.232C64.6838 21.592 65.1852 21.0853 65.8145 20.712C66.4438 20.3387 67.1638 20.152 67.9745 20.152C68.6358 20.152 69.2225 20.296 69.7345 20.584C70.2572 20.8613 70.6838 21.2667 71.0145 21.8L70.7745 22.248V20.344H72.4865V28.6C72.4865 29.3467 72.3052 30.0133 71.9425 30.6C71.5905 31.1973 71.0998 31.6667 70.4705 32.008C69.8412 32.3493 69.1158 32.52 68.2945 32.52ZM68.1985 27.032C68.6785 27.032 69.1052 26.92 69.4785 26.696C69.8518 26.4613 70.1452 26.152 70.3585 25.768C70.5825 25.3733 70.6945 24.9307 70.6945 24.44C70.6945 23.9493 70.5825 23.5067 70.3585 23.112C70.1345 22.7173 69.8358 22.408 69.4625 22.184C69.0892 21.9493 68.6678 21.832 68.1985 21.832C67.7078 21.832 67.2705 21.9493 66.8865 22.184C66.5025 22.408 66.1985 22.7173 65.9745 23.112C65.7612 23.496 65.6545 23.9387 65.6545 24.44C65.6545 24.92 65.7612 25.3573 65.9745 25.752C66.1985 26.1467 66.5025 26.4613 66.8865 26.696C67.2705 26.92 67.7078 27.032 68.1985 27.032ZM78.6669 29.192C77.8029 29.192 77.0349 28.9947 76.3629 28.6C75.7015 28.1947 75.1842 27.6507 74.8109 26.968C74.4375 26.2747 74.2509 25.5013 74.2509 24.648C74.2509 23.7733 74.4375 23 74.8109 22.328C75.1949 21.656 75.7069 21.128 76.3469 20.744C76.9869 20.3493 77.7122 20.152 78.5229 20.152C79.1735 20.152 79.7549 20.264 80.2669 20.488C80.7789 20.712 81.2109 21.0213 81.5629 21.416C81.9149 21.8 82.1815 22.2427 82.3629 22.744C82.5549 23.2453 82.6509 23.7787 82.6509 24.344C82.6509 24.4827 82.6455 24.6267 82.6349 24.776C82.6242 24.9253 82.6029 25.064 82.5709 25.192H75.6749V23.752H81.5469L80.6829 24.408C80.7895 23.8853 80.7522 23.4213 80.5709 23.016C80.4002 22.6 80.1335 22.2747 79.7709 22.04C79.4189 21.7947 79.0029 21.672 78.5229 21.672C78.0429 21.672 77.6162 21.7947 77.2429 22.04C76.8695 22.2747 76.5815 22.616 76.3789 23.064C76.1762 23.5013 76.0962 24.0347 76.1389 24.664C76.0855 25.2507 76.1655 25.7627 76.3789 26.2C76.6029 26.6373 76.9122 26.9787 77.3069 27.224C77.7122 27.4693 78.1709 27.592 78.6829 27.592C79.2055 27.592 79.6482 27.4747 80.0109 27.24C80.3842 27.0053 80.6775 26.7013 80.8909 26.328L82.3629 27.048C82.1922 27.4533 81.9255 27.8213 81.5629 28.152C81.2109 28.472 80.7842 28.728 80.2829 28.92C79.7922 29.1013 79.2535 29.192 78.6669 29.192ZM87.6154 29.192C86.73 29.192 85.9514 28.9733 85.2794 28.536C84.618 28.0987 84.154 27.512 83.8874 26.776L85.2794 26.12C85.514 26.6107 85.834 27 86.2394 27.288C86.6554 27.576 87.114 27.72 87.6154 27.72C88.042 27.72 88.3887 27.624 88.6554 27.432C88.922 27.24 89.0554 26.9787 89.0554 26.648C89.0554 26.4347 88.9967 26.264 88.8794 26.136C88.762 25.9973 88.6127 25.8853 88.4314 25.8C88.2607 25.7147 88.0847 25.6507 87.9034 25.608L86.5434 25.224C85.7967 25.0107 85.2367 24.6907 84.8634 24.264C84.5007 23.8267 84.3194 23.32 84.3194 22.744C84.3194 22.2213 84.4527 21.768 84.7194 21.384C84.986 20.9893 85.354 20.6853 85.8234 20.472C86.2927 20.2587 86.8207 20.152 87.4074 20.152C88.1967 20.152 88.9007 20.3493 89.5194 20.744C90.138 21.128 90.5754 21.6667 90.8314 22.36L89.4394 23.016C89.2687 22.6 88.9967 22.2693 88.6234 22.024C88.2607 21.7787 87.85 21.656 87.3914 21.656C86.9967 21.656 86.682 21.752 86.4474 21.944C86.2127 22.1253 86.0954 22.3653 86.0954 22.664C86.0954 22.8667 86.1487 23.0373 86.2554 23.176C86.362 23.304 86.5007 23.4107 86.6714 23.496C86.842 23.5707 87.018 23.6347 87.1994 23.688L88.6074 24.104C89.322 24.3067 89.8714 24.6267 90.2554 25.064C90.6394 25.4907 90.8314 26.0027 90.8314 26.6C90.8314 27.112 90.6927 27.5653 90.4154 27.96C90.1487 28.344 89.7754 28.648 89.2954 28.872C88.8154 29.0853 88.2554 29.192 87.6154 29.192ZM99.0318 29.192C98.3278 29.192 97.7091 29.064 97.1758 28.808C96.6424 28.5413 96.2211 28.1733 95.9118 27.704C95.6131 27.224 95.4638 26.6693 95.4638 26.04C95.4638 25.5067 95.5598 25.0427 95.7518 24.648C95.9438 24.2427 96.1838 23.9013 96.4718 23.624C96.7598 23.336 97.0478 23.096 97.3358 22.904C97.6238 22.712 97.8638 22.5627 98.0558 22.456L99.0318 21.912C99.3518 21.7307 99.6558 21.5387 99.9438 21.336C100.232 21.1333 100.466 20.904 100.648 20.648C100.829 20.392 100.92 20.104 100.92 19.784C100.92 19.4 100.792 19.08 100.536 18.824C100.28 18.5573 99.9598 18.424 99.5758 18.424C99.1918 18.424 98.8718 18.552 98.6158 18.808C98.3598 19.064 98.2318 19.3947 98.2318 19.8C98.2318 20.0773 98.2958 20.3493 98.4238 20.616C98.5624 20.8827 98.7224 21.1333 98.9038 21.368C99.0958 21.592 99.2824 21.8053 99.4638 22.008L105.864 29H103.608L98.1198 23.096C97.8638 22.8187 97.6078 22.5253 97.3518 22.216C97.1064 21.896 96.8984 21.544 96.7278 21.16C96.5678 20.776 96.4878 20.3493 96.4878 19.88C96.4878 19.272 96.6264 18.744 96.9038 18.296C97.1918 17.848 97.5651 17.5013 98.0238 17.256C98.4931 17.0107 99.0051 16.888 99.5598 16.888C100.125 16.888 100.637 17.016 101.096 17.272C101.554 17.5173 101.917 17.8587 102.184 18.296C102.461 18.7333 102.6 19.2293 102.6 19.784C102.6 20.36 102.466 20.856 102.2 21.272C101.933 21.688 101.608 22.04 101.224 22.328C100.85 22.616 100.498 22.8613 100.168 23.064L99.1918 23.64C98.9358 23.7893 98.6638 23.976 98.3758 24.2C98.0984 24.4133 97.8638 24.6693 97.6718 24.968C97.4798 25.256 97.3838 25.6027 97.3838 26.008C97.3838 26.5093 97.5384 26.8987 97.8478 27.176C98.1678 27.4533 98.5838 27.592 99.0958 27.592C99.4264 27.592 99.7198 27.5387 99.9758 27.432C100.232 27.3253 100.456 27.1867 100.648 27.016C100.85 26.8453 101.026 26.6587 101.176 26.456C101.336 26.2427 101.48 26.0453 101.608 25.864L103.464 23.144H105.4L103.256 26.472C103.085 26.728 102.882 27.016 102.648 27.336C102.413 27.6453 102.13 27.944 101.8 28.232C101.469 28.5093 101.074 28.7387 100.616 28.92C100.168 29.1013 99.6398 29.192 99.0318 29.192ZM110.763 29V17.08H115.099C115.899 17.08 116.603 17.2293 117.211 17.528C117.83 17.816 118.31 18.2427 118.651 18.808C118.993 19.3627 119.163 20.0293 119.163 20.808C119.163 21.576 118.987 22.2373 118.635 22.792C118.294 23.3467 117.819 23.7733 117.211 24.072C116.603 24.3707 115.899 24.52 115.099 24.52H112.651V29H110.763ZM112.651 22.84H115.147C115.574 22.84 115.947 22.7547 116.267 22.584C116.587 22.4133 116.838 22.1787 117.019 21.88C117.201 21.5707 117.291 21.208 117.291 20.792C117.291 20.376 117.201 20.0187 117.019 19.72C116.838 19.4107 116.587 19.176 116.267 19.016C115.947 18.8453 115.574 18.76 115.147 18.76H112.651V22.84ZM120.931 29V20.344H122.659V22.088L122.499 21.832C122.691 21.2667 123 20.8613 123.427 20.616C123.854 20.36 124.366 20.232 124.963 20.232H125.491V21.88H124.739C124.142 21.88 123.656 22.0667 123.283 22.44C122.92 22.8027 122.739 23.3253 122.739 24.008V29H120.931ZM126.728 29V20.344H128.536V29H126.728ZM126.728 19.16V17.08H128.536V19.16H126.728ZM134.762 29.192C133.898 29.192 133.13 28.9947 132.458 28.6C131.796 28.1947 131.268 27.6507 130.874 26.968C130.49 26.2853 130.298 25.512 130.298 24.648C130.298 23.7947 130.49 23.0267 130.874 22.344C131.258 21.6613 131.786 21.128 132.458 20.744C133.13 20.3493 133.898 20.152 134.762 20.152C135.348 20.152 135.898 20.2587 136.41 20.472C136.922 20.6747 137.364 20.9573 137.738 21.32C138.122 21.6827 138.404 22.104 138.586 22.584L137.002 23.32C136.82 22.872 136.527 22.5147 136.122 22.248C135.727 21.9707 135.274 21.832 134.762 21.832C134.271 21.832 133.828 21.9547 133.434 22.2C133.05 22.4347 132.746 22.7707 132.522 23.208C132.298 23.6347 132.186 24.12 132.186 24.664C132.186 25.208 132.298 25.6987 132.522 26.136C132.746 26.5627 133.05 26.8987 133.434 27.144C133.828 27.3893 134.271 27.512 134.762 27.512C135.284 27.512 135.738 27.3787 136.122 27.112C136.516 26.8347 136.81 26.4667 137.002 26.008L138.586 26.76C138.415 27.2187 138.138 27.6347 137.754 28.008C137.38 28.3707 136.938 28.6587 136.426 28.872C135.914 29.0853 135.359 29.192 134.762 29.192ZM140.353 29V20.344H142.161V29H140.353ZM140.353 19.16V17.08H142.161V19.16H140.353ZM144.275 29V20.344H146.003V22.04L145.795 21.816C146.008 21.272 146.349 20.8613 146.819 20.584C147.288 20.296 147.832 20.152 148.451 20.152C149.091 20.152 149.656 20.2907 150.147 20.568C150.637 20.8453 151.021 21.2293 151.299 21.72C151.576 22.2107 151.715 22.776 151.715 23.416V29H149.923V23.896C149.923 23.4587 149.843 23.0907 149.683 22.792C149.523 22.4827 149.293 22.248 148.995 22.088C148.707 21.9173 148.376 21.832 148.003 21.832C147.629 21.832 147.293 21.9173 146.995 22.088C146.707 22.248 146.483 22.4827 146.323 22.792C146.163 23.1013 146.083 23.4693 146.083 23.896V29H144.275ZM157.826 32.52C157.196 32.52 156.615 32.4187 156.082 32.216C155.548 32.0133 155.09 31.7307 154.706 31.368C154.322 31.016 154.034 30.6 153.842 30.12L155.506 29.432C155.655 29.8373 155.927 30.1733 156.322 30.44C156.727 30.7067 157.223 30.84 157.81 30.84C158.268 30.84 158.679 30.7493 159.042 30.568C159.404 30.3973 159.692 30.1413 159.906 29.8C160.119 29.4693 160.226 29.0693 160.226 28.6V26.648L160.546 27.016C160.247 27.5707 159.831 27.992 159.298 28.28C158.775 28.568 158.183 28.712 157.522 28.712C156.722 28.712 156.002 28.5253 155.362 28.152C154.722 27.7787 154.215 27.2667 153.842 26.616C153.479 25.9653 153.298 25.2347 153.298 24.424C153.298 23.6027 153.479 22.872 153.842 22.232C154.215 21.592 154.716 21.0853 155.346 20.712C155.975 20.3387 156.695 20.152 157.506 20.152C158.167 20.152 158.754 20.296 159.266 20.584C159.788 20.8613 160.215 21.2667 160.546 21.8L160.306 22.248V20.344H162.018V28.6C162.018 29.3467 161.836 30.0133 161.474 30.6C161.122 31.1973 160.631 31.6667 160.002 32.008C159.372 32.3493 158.647 32.52 157.826 32.52ZM157.73 27.032C158.21 27.032 158.636 26.92 159.01 26.696C159.383 26.4613 159.676 26.152 159.89 25.768C160.114 25.3733 160.226 24.9307 160.226 24.44C160.226 23.9493 160.114 23.5067 159.89 23.112C159.666 22.7173 159.367 22.408 158.994 22.184C158.62 21.9493 158.199 21.832 157.73 21.832C157.239 21.832 156.802 21.9493 156.418 22.184C156.034 22.408 155.73 22.7173 155.506 23.112C155.292 23.496 155.186 23.9387 155.186 24.44C155.186 24.92 155.292 25.3573 155.506 25.752C155.73 26.1467 156.034 26.4613 156.418 26.696C156.802 26.92 157.239 27.032 157.73 27.032Z" fill="white"/>
</svg>
