<svg width="162" height="58" viewBox="0 0 162 58" fill="none" xmlns="http://www.w3.org/2000/svg">
<g filter="url(#filter0_i_534_24982)">
<g clip-path="url(#clip0_534_24982)">
<rect y="0.5" width="162" height="57" rx="28.5" fill="white" fill-opacity="0.02"/>
<path d="M49.32 37.5V22.6H55.04C56.0667 22.6 56.9733 22.78 57.76 23.14C58.56 23.5 59.1867 24.0333 59.64 24.74C60.0933 25.4467 60.32 26.32 60.32 27.36C60.32 28.3733 60.0867 29.2333 59.62 29.94C59.1667 30.6467 58.54 31.1867 57.74 31.56C56.9533 31.92 56.0533 32.1 55.04 32.1H52.42V37.5H49.32ZM52.42 29.4H55.06C55.5 29.4 55.88 29.3133 56.2 29.14C56.52 28.9667 56.7667 28.7267 56.94 28.42C57.1267 28.1133 57.22 27.76 57.22 27.36C57.22 26.9467 57.1267 26.5867 56.94 26.28C56.7667 25.9733 56.52 25.7333 56.2 25.56C55.88 25.3867 55.5 25.3 55.06 25.3H52.42V29.4ZM62.0883 37.5V26.58H64.8883V29.2L64.6883 28.82C64.9283 27.9 65.3216 27.28 65.8683 26.96C66.4283 26.6267 67.0883 26.46 67.8483 26.46H68.4883V29.06H67.5483C66.8149 29.06 66.2216 29.2867 65.7683 29.74C65.3149 30.18 65.0883 30.8067 65.0883 31.62V37.5H62.0883ZM75.2231 37.74C74.1431 37.74 73.1565 37.4933 72.2631 37C71.3831 36.5067 70.6765 35.8333 70.1431 34.98C69.6231 34.1133 69.3631 33.1333 69.3631 32.04C69.3631 30.9333 69.6231 29.9533 70.1431 29.1C70.6765 28.2467 71.3831 27.5733 72.2631 27.08C73.1565 26.5867 74.1431 26.34 75.2231 26.34C76.3031 26.34 77.2831 26.5867 78.1631 27.08C79.0431 27.5733 79.7431 28.2467 80.2631 29.1C80.7965 29.9533 81.0631 30.9333 81.0631 32.04C81.0631 33.1333 80.7965 34.1133 80.2631 34.98C79.7431 35.8333 79.0431 36.5067 78.1631 37C77.2831 37.4933 76.3031 37.74 75.2231 37.74ZM75.2231 35.04C75.7698 35.04 76.2431 34.9133 76.6431 34.66C77.0565 34.4067 77.3765 34.0533 77.6031 33.6C77.8431 33.1467 77.9631 32.6267 77.9631 32.04C77.9631 31.4533 77.8431 30.94 77.6031 30.5C77.3765 30.0467 77.0565 29.6933 76.6431 29.44C76.2431 29.1733 75.7698 29.04 75.2231 29.04C74.6765 29.04 74.1965 29.1733 73.7831 29.44C73.3698 29.6933 73.0431 30.0467 72.8031 30.5C72.5765 30.94 72.4631 31.4533 72.4631 32.04C72.4631 32.6267 72.5765 33.1467 72.8031 33.6C73.0431 34.0533 73.3698 34.4067 73.7831 34.66C74.1965 34.9133 74.6765 35.04 75.2231 35.04ZM82.8305 37.5V26.58H85.6305V29.24L85.3305 28.8C85.4905 27.96 85.8771 27.34 86.4905 26.94C87.1038 26.54 87.8371 26.34 88.6905 26.34C89.5971 26.34 90.3905 26.5733 91.0705 27.04C91.7638 27.4933 92.1971 28.1067 92.3705 28.88L91.5105 28.96C91.8705 28.0667 92.3838 27.4067 93.0505 26.98C93.7171 26.5533 94.4971 26.34 95.3905 26.34C96.1771 26.34 96.8705 26.5133 97.4705 26.86C98.0838 27.2067 98.5638 27.6933 98.9105 28.32C99.2571 28.9333 99.4305 29.6533 99.4305 30.48V37.5H96.4305V31.12C96.4305 30.6933 96.3505 30.3267 96.1905 30.02C96.0438 29.7133 95.8305 29.4733 95.5505 29.3C95.2705 29.1267 94.9305 29.04 94.5305 29.04C94.1438 29.04 93.8038 29.1267 93.5105 29.3C93.2305 29.4733 93.0105 29.7133 92.8505 30.02C92.7038 30.3267 92.6305 30.6933 92.6305 31.12V37.5H89.6305V31.12C89.6305 30.6933 89.5505 30.3267 89.3905 30.02C89.2438 29.7133 89.0305 29.4733 88.7505 29.3C88.4705 29.1267 88.1305 29.04 87.7305 29.04C87.3438 29.04 87.0038 29.1267 86.7105 29.3C86.4305 29.4733 86.2105 29.7133 86.0505 30.02C85.9038 30.3267 85.8305 30.6933 85.8305 31.12V37.5H82.8305ZM106.825 37.74C105.745 37.74 104.758 37.4933 103.865 37C102.985 36.5067 102.278 35.8333 101.745 34.98C101.225 34.1133 100.965 33.1333 100.965 32.04C100.965 30.9333 101.225 29.9533 101.745 29.1C102.278 28.2467 102.985 27.5733 103.865 27.08C104.758 26.5867 105.745 26.34 106.825 26.34C107.905 26.34 108.885 26.5867 109.765 27.08C110.645 27.5733 111.345 28.2467 111.865 29.1C112.398 29.9533 112.665 30.9333 112.665 32.04C112.665 33.1333 112.398 34.1133 111.865 34.98C111.345 35.8333 110.645 36.5067 109.765 37C108.885 37.4933 107.905 37.74 106.825 37.74ZM106.825 35.04C107.371 35.04 107.845 34.9133 108.245 34.66C108.658 34.4067 108.978 34.0533 109.205 33.6C109.445 33.1467 109.565 32.6267 109.565 32.04C109.565 31.4533 109.445 30.94 109.205 30.5C108.978 30.0467 108.658 29.6933 108.245 29.44C107.845 29.1733 107.371 29.04 106.825 29.04C106.278 29.04 105.798 29.1733 105.385 29.44C104.971 29.6933 104.645 30.0467 104.405 30.5C104.178 30.94 104.065 31.4533 104.065 32.04C104.065 32.6267 104.178 33.1467 104.405 33.6C104.645 34.0533 104.971 34.4067 105.385 34.66C105.798 34.9133 106.278 35.04 106.825 35.04Z" fill="#FCE803"/>
<g opacity="0.08" filter="url(#filter1_f_534_24982)">
<path d="M293 -299.5C293 -182.416 198.084 -87.5 81 -87.5C-36.0844 -87.5 -131 -182.416 -131 -299.5C-131 -416.584 -36.0844 -511.5 81 -511.5C198.084 -511.5 293 -416.584 293 -299.5Z" fill="url(#paint0_radial_534_24982)"/>
</g>
<g opacity="0.08" filter="url(#filter2_f_534_24982)">
<path d="M334 140.5C334 268.63 230.13 372.5 102 372.5C-26.1301 372.5 -130 268.63 -130 140.5C-130 12.3699 -26.1301 -91.5 102 -91.5C230.13 -91.5 334 12.3699 334 140.5Z" fill="url(#paint1_radial_534_24982)"/>
</g>
<g opacity="0.02" filter="url(#filter3_f_534_24982)">
<path d="M564 140.5C564 268.63 460.13 372.5 332 372.5C203.87 372.5 100 268.63 100 140.5C100 12.3699 203.87 -91.5 332 -91.5C460.13 -91.5 564 12.3699 564 140.5Z" fill="url(#paint2_radial_534_24982)"/>
</g>
</g>
<rect x="0.5" y="1" width="161" height="56" rx="28" stroke="white" stroke-opacity="0.04"/>
</g>
<defs>
<filter id="filter0_i_534_24982" x="0" y="0.5" width="162" height="57" filterUnits="userSpaceOnUse" color-interpolation-filters="sRGB">
<feFlood flood-opacity="0" result="BackgroundImageFix"/>
<feBlend mode="normal" in="SourceGraphic" in2="BackgroundImageFix" result="shape"/>
<feColorMatrix in="SourceAlpha" type="matrix" values="0 0 0 0 0 0 0 0 0 0 0 0 0 0 0 0 0 0 127 0" result="hardAlpha"/>
<feOffset dy="1"/>
<feComposite in2="hardAlpha" operator="arithmetic" k2="-1" k3="1"/>
<feColorMatrix type="matrix" values="0 0 0 0 1 0 0 0 0 1 0 0 0 0 1 0 0 0 0.08 0"/>
<feBlend mode="normal" in2="shape" result="effect1_innerShadow_534_24982"/>
</filter>
<filter id="filter1_f_534_24982" x="-259" y="-639.5" width="680" height="680" filterUnits="userSpaceOnUse" color-interpolation-filters="sRGB">
<feFlood flood-opacity="0" result="BackgroundImageFix"/>
<feBlend mode="normal" in="SourceGraphic" in2="BackgroundImageFix" result="shape"/>
<feGaussianBlur stdDeviation="64" result="effect1_foregroundBlur_534_24982"/>
</filter>
<filter id="filter2_f_534_24982" x="-258" y="-219.5" width="720" height="720" filterUnits="userSpaceOnUse" color-interpolation-filters="sRGB">
<feFlood flood-opacity="0" result="BackgroundImageFix"/>
<feBlend mode="normal" in="SourceGraphic" in2="BackgroundImageFix" result="shape"/>
<feGaussianBlur stdDeviation="64" result="effect1_foregroundBlur_534_24982"/>
</filter>
<filter id="filter3_f_534_24982" x="-28" y="-219.5" width="720" height="720" filterUnits="userSpaceOnUse" color-interpolation-filters="sRGB">
<feFlood flood-opacity="0" result="BackgroundImageFix"/>
<feBlend mode="normal" in="SourceGraphic" in2="BackgroundImageFix" result="shape"/>
<feGaussianBlur stdDeviation="64" result="effect1_foregroundBlur_534_24982"/>
</filter>
<radialGradient id="paint0_radial_534_24982" cx="0" cy="0" r="1" gradientUnits="userSpaceOnUse" gradientTransform="translate(81 -299.5) rotate(89.8527) scale(212.001)">
<stop stop-color="#FCE803"/>
<stop offset="1" stop-color="#FCE803" stop-opacity="0"/>
</radialGradient>
<radialGradient id="paint1_radial_534_24982" cx="0" cy="0" r="1" gradientUnits="userSpaceOnUse" gradientTransform="translate(102 140.5) rotate(89.8527) scale(232.001)">
<stop stop-color="#FCE803"/>
<stop offset="1" stop-color="#FCE803" stop-opacity="0"/>
</radialGradient>
<radialGradient id="paint2_radial_534_24982" cx="0" cy="0" r="1" gradientUnits="userSpaceOnUse" gradientTransform="translate(332 140.5) rotate(89.8527) scale(232.001)">
<stop stop-color="#FCE803"/>
<stop offset="1" stop-color="#FCE803" stop-opacity="0"/>
</radialGradient>
<clipPath id="clip0_534_24982">
<rect y="0.5" width="162" height="57" rx="28.5" fill="white"/>
</clipPath>
</defs>
</svg>
