<svg width="81" height="81" viewBox="0 0 81 81" fill="none" xmlns="http://www.w3.org/2000/svg">
<rect width="81" height="81" rx="40.5" fill="#F7F7F7"/>
<g clip-path="url(#clip0_2121_3366)">
<path d="M48.4935 33.1195C48.2373 33.332 48.1623 33.5758 48.2498 33.882C48.2935 34.032 49.1123 34.8945 51.356 37.1508L54.406 40.2195L39.9373 40.2508C28.781 40.2758 25.4373 40.3008 25.3373 40.357C25.0185 40.5383 24.8873 41.1258 25.0998 41.4258C25.3435 41.7758 24.3185 41.7508 40.0123 41.7508H54.4685L51.3685 44.857C49.3935 46.8383 48.2498 48.0258 48.2248 48.132C48.1748 48.357 48.2873 48.707 48.4623 48.8695C48.656 49.057 49.0498 49.107 49.2873 48.982C49.3873 48.9258 51.1623 47.1883 53.2373 45.1133L56.9998 41.3445V41.0008V40.657L53.1623 36.8195L49.3248 32.982L49.0248 32.957C48.756 32.932 48.6935 32.9508 48.4935 33.1195Z" fill="#182948"/>
</g>
<defs>
<clipPath id="clip0_2121_3366">
<rect width="32" height="32" fill="white" transform="translate(25 25)"/>
</clipPath>
</defs>
</svg>
