<svg width="48" height="52" viewBox="0 0 48 52" fill="none" xmlns="http://www.w3.org/2000/svg">
<path d="M37.4719 3.54375C37.2656 3.77812 37.275 4.24687 37.4813 4.43437C37.6125 4.54687 38.0531 4.64062 39.0844 4.75312C40.2094 4.875 40.4813 4.93125 40.3875 5.025C40.3219 5.08125 35.5031 8.89687 29.6719 13.5C23.85 18.1031 18.8531 22.0594 18.5906 22.2844C18.1781 22.6312 18.0938 22.7531 18.0938 23.0062C18.0938 23.3812 18.3375 23.625 18.7125 23.625C18.9281 23.625 21.1594 21.9 30.1313 14.8031C36.2625 9.95625 41.2875 6.00937 41.3156 6.0375C41.3344 6.05625 41.2875 6.69375 41.2031 7.44375C41.0531 8.70937 41.0531 8.83125 41.1938 9.04687C41.3156 9.23437 41.4281 9.28125 41.7094 9.28125C41.925 9.28125 42.1219 9.225 42.1969 9.13125C42.3563 8.93437 42.8625 4.45312 42.75 4.17187C42.7031 4.05937 42.5906 3.92812 42.4969 3.89062C42.3 3.81562 38.4656 3.38437 37.9594 3.375C37.7531 3.375 37.5656 3.44062 37.4719 3.54375Z" fill="#D0FF2A"/>
<path d="M6.39317 11.0142C3.93692 11.5767 2.1838 13.208 1.7338 15.3548C1.57442 16.1048 1.55567 17.0142 1.6963 17.7736C1.81817 18.4861 2.4088 19.6955 2.91505 20.2955C3.56192 21.0642 3.6838 21.4392 3.74942 22.8267C3.80567 24.0923 3.92755 24.5048 4.29317 24.7673C4.42442 24.8517 4.48067 25.0486 4.51817 25.4611C4.5838 26.1455 4.79005 26.5767 5.21192 26.933C5.39005 27.083 5.53067 27.2705 5.53067 27.3642C5.53067 27.6548 6.09317 28.3861 6.54317 28.6767C7.9588 29.5767 9.9838 29.1173 10.6963 27.7298C10.79 27.533 10.8744 27.3267 10.8744 27.2611C10.8744 27.1955 11.0244 27.0173 11.2119 26.8673C11.6338 26.5392 11.8119 26.1173 11.8119 25.4892C11.8119 25.0673 11.8588 24.9548 12.1307 24.6455C12.4963 24.2423 12.5338 24.083 12.59 22.6673C12.6369 21.5423 12.7869 21.1298 13.3682 20.4548C14.3338 19.3205 14.765 18.1673 14.7557 16.6861C14.7463 13.9673 13.2557 12.0548 10.4525 11.1548C9.6088 10.883 7.3213 10.808 6.39317 11.0142ZM9.84317 12.3267C10.715 12.5611 11.6619 13.0861 12.215 13.6486C13.7619 15.1861 13.9213 17.5955 12.5994 19.2923C11.5119 20.6798 11.3432 21.1205 11.3432 22.6017C11.3432 24.083 11.5307 23.9986 8.21192 23.9986C6.28067 23.9986 5.51192 23.9611 5.34317 23.8767C5.11817 23.7642 5.1088 23.708 5.0338 22.5642C4.94005 21.083 4.78067 20.6236 4.00255 19.5642C3.07442 18.3361 2.95255 17.9798 2.95255 16.6392C2.95255 15.5705 2.9713 15.4861 3.25255 14.8861C3.91817 13.4798 5.2963 12.5142 7.10567 12.1861C7.6963 12.0736 9.20567 12.1486 9.84317 12.3267ZM10.5932 25.3861C10.5932 25.4798 10.5275 25.6486 10.4432 25.7611C10.3025 25.9673 10.265 25.9673 8.15567 25.9673C6.13067 25.9673 5.99942 25.958 5.90567 25.7892C5.8588 25.6861 5.81192 25.5173 5.81192 25.4142C5.81192 25.2173 5.84942 25.2173 8.20255 25.2173C10.4338 25.2173 10.5932 25.2267 10.5932 25.3861ZM9.2713 27.4298C8.8213 27.9736 7.48067 27.9642 7.0213 27.4111C6.92755 27.2986 7.0963 27.2798 8.15567 27.2798C9.2713 27.2798 9.3838 27.2986 9.2713 27.4298Z" fill="#D0FF2A"/>
<path d="M36.7094 14.0781C36.5782 14.2656 36.5594 15.8219 36.5594 28.8437V43.4031H34.6844H32.8094V34.1781V24.9437L32.5657 24.7562C32.3219 24.5687 32.2094 24.5594 29.3407 24.5594C26.4719 24.5594 26.3594 24.5687 26.1157 24.7562L25.8719 24.9437V34.1781V43.4031H23.9969H22.1219V36.9062C22.1219 31.1781 22.1032 30.3906 21.9719 30.2031C21.8313 29.9969 21.8313 29.9969 18.6625 29.9969C15.7094 29.9969 15.4844 30.0062 15.3438 30.1656C15.1938 30.325 15.1844 30.925 15.1844 36.8687V43.4031H13.3094H11.4344V37.9656C11.4344 32.65 11.4344 32.5281 11.2469 32.3406C11.0688 32.1625 10.9375 32.1531 7.93753 32.1531C5.02191 32.1531 4.79691 32.1625 4.65628 32.3219C4.51566 32.4812 4.49691 33.0062 4.49691 37.9469V43.4031H3.14691C1.72191 43.4031 1.59066 43.4406 1.45003 43.8719C1.39378 44.0594 1.53441 44.425 1.72191 44.5469C1.85316 44.6406 46.1407 44.6406 46.2719 44.5469C46.4594 44.425 46.6 44.0594 46.5438 43.8719C46.4032 43.4406 46.2719 43.4031 44.8469 43.4031H43.4969V28.7969C43.4969 14.7531 43.4875 14.1719 43.3282 14.0312C43.1688 13.8906 42.8032 13.8719 40 13.8719C36.85 13.8719 36.85 13.8719 36.7094 14.0781ZM42.2782 29.2469V43.4031H40.075H37.8719V29.2469V15.0906H40.075H42.2782V29.2469ZM31.4969 34.6375V43.4031H29.3407H27.1844V34.6375V25.8719H29.3407H31.4969V34.6375ZM20.8094 37.3094V43.4031H18.6532H16.4969V37.3094V31.2156H18.6532H20.8094V37.3094ZM10.1219 38.3875V43.4031H7.91878H5.71566V38.3875V33.3719H7.91878H10.1219V38.3875Z" fill="#D0FF2A"/>
<line y1="51.5" x2="48" y2="51.5" stroke="#ABC452"/>
</svg>
