<svg width="48" height="52" viewBox="0 0 48 52" fill="none" xmlns="http://www.w3.org/2000/svg">
<g clip-path="url(#clip0_636_30029)">
<path d="M23.0719 0.246308C22.8844 0.490058 22.875 0.602557 22.875 3.51818C22.875 6.43381 22.8844 6.54631 23.0719 6.79006C23.3156 7.09006 23.8594 7.12756 24.1969 6.85568L24.4219 6.67756V3.51818V0.358808L24.1969 0.180683C23.8594 -0.0911923 23.3156 -0.0536923 23.0719 0.246308Z" fill="#D0FF2A"/>
<path d="M34.8375 3.1146C34.4531 3.47085 31.7812 8.19585 31.7812 8.53335C31.7812 9.12398 32.4844 9.48023 32.9625 9.14273C33.075 9.06773 33.375 8.63648 33.6375 8.18648C33.8906 7.73648 34.5563 6.58335 35.1 5.63648C35.7281 4.5396 36.0938 3.79898 36.0938 3.6396C36.0938 3.02085 35.3063 2.69273 34.8375 3.1146Z" fill="#D0FF2A"/>
<path d="M11.5315 3.46906C11.1378 3.86281 11.2409 4.15343 12.7596 6.77843C13.5378 8.12843 14.2503 9.30968 14.344 9.40343C14.6065 9.67531 15.1784 9.63781 15.4409 9.32843C15.694 9.03781 15.7128 8.81281 15.5065 8.40968C15.094 7.61281 12.7878 3.67531 12.6284 3.48781C12.3753 3.21593 11.794 3.20656 11.5315 3.46906Z" fill="#D0FF2A"/>
<path d="M43.6781 11.3236C43.6031 11.3611 42.4125 12.0361 41.0438 12.833C38.5688 14.258 38.3438 14.4361 38.3438 14.8955C38.3438 14.9892 38.4281 15.1767 38.5406 15.3174C38.925 15.8049 39.1969 15.7111 41.925 14.1455C43.2844 13.3674 44.4656 12.6455 44.5594 12.5424C44.8594 12.1861 44.7563 11.6049 44.3344 11.3892C44.0531 11.2392 43.9125 11.2299 43.6781 11.3236Z" fill="#D0FF2A"/>
<path d="M3.14532 12.1406C2.86407 12.4125 2.83594 12.8344 3.07969 13.1062C3.35157 13.4344 8.26407 16.2188 8.56407 16.2188C9.18282 16.2188 9.52969 15.3469 9.07969 14.9344C8.95782 14.8219 7.75782 14.1 6.41719 13.3219C3.76407 11.7937 3.55782 11.7187 3.14532 12.1406Z" fill="#D0FF2A"/>
<path d="M23.2201 12.75C22.6951 12.8906 22.1701 13.1812 21.7482 13.5844L21.3639 13.95L21.092 13.725C20.5482 13.2656 19.9857 13.0781 19.1232 13.0781C18.4107 13.0781 18.2607 13.1062 17.6982 13.3875C16.9482 13.7531 16.3951 14.3437 16.1232 15.0562C15.9732 15.4594 15.9357 15.7969 15.9357 16.6406V17.7187H14.8107C13.9107 17.7187 13.592 17.7562 13.1795 17.9156C12.4576 18.1781 11.792 18.8156 11.417 19.575L11.1076 20.2031L11.0795 25.575C11.0514 31.5375 11.0514 31.5375 11.642 32.3719C11.8107 32.6156 12.7764 33.4969 13.7795 34.3406C14.792 35.1844 15.6732 36 15.7482 36.15C15.8701 36.375 15.8982 37.35 15.9357 42.075C15.9826 47.5406 15.992 47.7375 16.1607 47.8687C16.2639 47.9437 16.517 48 16.7232 48C16.9389 48 20.9232 47.325 25.592 46.5094C33.7857 45.0656 34.0857 45.0094 34.2826 44.7656C34.4795 44.5406 34.4982 44.4281 34.5076 43.3312C34.5076 42.675 34.5451 40.6875 34.5732 38.9062C34.6482 35.1937 34.517 35.7 35.7639 34.1625C37.0014 32.6437 36.8889 33.6094 36.8889 24.1406V15.9844L36.6264 15.45C35.7826 13.7344 33.6826 13.1156 32.0514 14.0906L31.5545 14.3906L31.1514 13.9594C30.542 13.3125 29.7732 12.9937 28.8264 12.9937C28.0107 12.9937 27.4857 13.1625 26.8576 13.6406L26.5295 13.8937L26.0607 13.4719C25.7982 13.2375 25.3951 12.975 25.142 12.8906C24.5889 12.7031 23.6889 12.6375 23.2201 12.75ZM24.7482 14.4375C25.2264 14.6812 25.4795 15.0562 25.6014 15.7031C25.6576 16.0312 25.6857 17.55 25.667 19.6687C25.6389 23.025 25.6295 23.1187 25.4326 23.5031C24.7951 24.6937 23.0514 24.6375 22.4889 23.4C22.2451 22.8656 22.2639 22.7344 22.6295 22.5C23.1264 22.2 23.9232 21.2812 24.2045 20.7C24.542 20.0156 24.7482 19.2094 24.7482 18.6094C24.7389 17.8031 24.4482 17.625 23.1451 17.625H22.3107V16.6406C22.3107 15.5812 22.4232 15.15 22.8076 14.7281C23.267 14.2406 24.1014 14.1094 24.7482 14.4375ZM29.6701 14.7469C29.8951 14.8781 30.1389 15.1219 30.2795 15.375L30.5139 15.7969V19.5937C30.5139 23.1281 30.5045 23.4187 30.3357 23.7469C30.0545 24.3187 29.6139 24.6 28.9295 24.6375C28.2639 24.675 27.9357 24.5156 27.5045 23.9437L27.2326 23.5969L27.2045 19.8375C27.1764 15.825 27.1951 15.6 27.6264 15.0844C28.1139 14.5031 28.9857 14.3625 29.6701 14.7469ZM19.8732 14.8125C20.5389 15.15 20.8107 15.8156 20.8107 17.1187V17.7187H19.1232H17.4357V16.875C17.4357 15.9656 17.567 15.5062 17.9326 15.1031C18.392 14.6156 19.2264 14.4844 19.8732 14.8125ZM34.5357 15.4125C34.7607 15.5437 35.0232 15.8062 35.1545 16.05L35.3889 16.4531L35.417 19.5187C35.4545 23.1 35.4076 23.4844 34.8826 24.0094C34.2357 24.6656 33.3545 24.6844 32.6514 24.0656C32.0701 23.55 32.0607 23.5125 32.0607 19.875C32.0607 16.35 32.0795 16.1906 32.5576 15.6656C33.0357 15.15 33.8982 15.0375 34.5357 15.4125ZM23.0607 19.4531C22.7514 20.2594 22.3482 20.7937 21.7201 21.2156C20.8764 21.7875 20.5295 21.8437 17.7076 21.8437C15.2232 21.8437 15.1951 21.8437 14.9514 22.0594C14.7639 22.2187 14.6982 22.3594 14.6982 22.6219C14.6982 23.1094 14.9232 23.325 15.4764 23.4L15.9357 23.4656V25.1437C15.9357 26.0719 15.9732 26.9062 16.0295 27C16.2451 27.4031 17.1264 27.4031 17.342 27C17.3982 26.9062 17.4357 26.0625 17.4357 25.1344V23.4375H18.4014C18.9357 23.4375 19.6951 23.4094 20.0889 23.3812C20.7451 23.325 20.8107 23.3344 20.8576 23.4937C21.0076 24 21.5232 24.8719 21.8232 25.1344C22.9389 26.1094 24.7107 26.2031 25.8357 25.35C26.0607 25.1719 26.267 25.0312 26.2857 25.0312C26.3045 25.0312 26.4732 25.1719 26.6514 25.35C27.8326 26.4656 29.7357 26.5125 30.9076 25.4625L31.3576 25.05L31.6389 25.2844C31.7982 25.4156 32.1545 25.6312 32.4357 25.7625C33.1201 26.1 34.3014 26.1187 34.9951 25.8094L35.4357 25.6031V28.5C35.4357 30.1594 35.3982 31.5937 35.342 31.8562C35.2576 32.2125 35.0701 32.5125 34.442 33.2906C33.4951 34.4344 33.1764 35.0437 33.1201 35.85C33.092 36.1594 33.0451 38.0437 33.017 40.0312L32.9514 43.6312L25.3576 44.9719C21.1857 45.7031 17.6889 46.3031 17.6045 46.3125C17.4451 46.3125 17.4357 46.0125 17.4357 41.2969C17.4357 35.85 17.4357 35.8594 16.9014 35.0437C16.7607 34.8469 15.8232 33.9844 14.8014 33.1219C13.6389 32.1469 12.8889 31.4531 12.8045 31.2656C12.6732 30.9937 12.6545 30.2625 12.6545 25.8C12.6545 22.3781 12.692 20.55 12.7576 20.3719C12.8982 19.9969 13.292 19.6031 13.7326 19.3969C14.0795 19.2375 14.4264 19.2187 18.6264 19.2187H23.1545L23.0607 19.4531Z" fill="#D0FF2A"/>
<path d="M41.2733 22.9406C41.0671 23.025 40.8608 23.5313 40.9265 23.8219C41.0483 24.3656 41.0858 24.375 44.489 24.375H47.6015L47.7983 24.1594C48.0796 23.8594 48.0702 23.3438 47.789 23.0813C47.5733 22.875 47.5265 22.875 44.4796 22.8844C42.7827 22.8844 41.339 22.9125 41.2733 22.9406Z" fill="#D0FF2A"/>
<path d="M0.405246 23.625C-0.0166285 23.7937 -0.138503 24.4687 0.180247 24.8531L0.358371 25.0781H3.51775H6.67712L6.90212 24.8156C7.249 24.4125 7.14587 23.8406 6.6865 23.6344C6.41462 23.5125 0.714621 23.5031 0.405246 23.625Z" fill="#D0FF2A"/>
<path d="M38.9287 31.9969C38.6756 32.2594 38.6569 32.7188 38.8912 32.9813C39.0975 33.225 44.0569 36.0938 44.2725 36.0938C44.7131 36.0938 45.0975 35.7 45.0975 35.2406C45.0975 34.9031 44.6287 34.5656 42.1819 33.1594C39.585 31.6688 39.3225 31.575 38.9287 31.9969Z" fill="#D0FF2A"/>
<path d="M6.13034 33.7781C4.78034 34.5656 3.58972 35.2875 3.47722 35.3813C3.03659 35.7844 3.39284 36.6562 4.01159 36.6562C4.18034 36.6562 5.15534 36.15 6.79597 35.1938C8.19284 34.3969 9.39284 33.675 9.46784 33.6C9.69284 33.375 9.64597 32.7281 9.38347 32.5219C8.96159 32.1844 8.70847 32.2781 6.13034 33.7781Z" fill="#D0FF2A"/>
</g>
<line y1="51.5" x2="48" y2="51.5" stroke="#ABC452"/>
<defs>
<clipPath id="clip0_636_30029">
<rect width="48" height="48" fill="white"/>
</clipPath>
</defs>
</svg>
