<svg width="24" height="24" viewBox="0 0 24 24" fill="none" xmlns="http://www.w3.org/2000/svg">
<mask id="path-1-inside-1_427_20716" fill="white">
<path d="M11.3942 0.731842C9.0551 0.933405 7.10041 1.65528 5.34729 2.97247C4.79416 3.38497 3.85666 4.29434 3.40198 4.85215C2.13635 6.4084 1.31604 8.30215 1.00198 10.36C0.903538 11.0256 0.894163 12.61 0.983225 13.2662C1.17073 14.649 1.57385 15.9381 2.1551 17.049L2.38479 17.4756L1.59729 20.3537C1.16135 21.9334 0.814475 23.2365 0.828538 23.2459C0.837913 23.2553 2.16916 22.9178 3.78635 22.4912L6.72541 21.7178L7.30198 21.9943C9.56604 23.0772 12.3082 23.349 14.7692 22.735C16.3207 22.3459 17.8723 21.5772 19.1145 20.5787C20.3239 19.599 21.491 18.1178 22.152 16.7115C23.1598 14.5881 23.4739 12.3053 23.0848 9.98497C22.2926 5.26934 18.477 1.54278 13.7285 0.844343C13.1473 0.759968 11.8254 0.694344 11.3942 0.731842ZM13.3817 2.74747C15.3598 3.01934 17.141 3.91465 18.5942 5.36309C20.8207 7.59434 21.7488 10.674 21.1207 13.7443C20.8207 15.2022 20.127 16.6412 19.166 17.7897C17.7129 19.5334 15.7629 20.6397 13.4801 21.0334C12.8239 21.1412 11.3098 21.1412 10.6676 21.0334C9.47229 20.8225 8.4176 20.4475 7.43791 19.8803L7.02073 19.6412L5.31448 20.0912C4.37229 20.335 3.59416 20.5272 3.58479 20.5178C3.57541 20.5084 3.7676 19.749 4.02073 18.8303L4.47541 17.1615L4.23635 16.7725C2.97073 14.7006 2.55823 12.3897 3.02698 10.0553C3.68791 6.77872 6.13479 4.07403 9.33635 3.07559C10.691 2.65372 11.952 2.55059 13.3817 2.74747Z"/>
</mask>
<path d="M11.3942 0.731842L11.9139 6.70929L11.9093 6.70969L11.3942 0.731842ZM5.34729 2.97247L8.95139 7.76939L8.94282 7.77583L8.93423 7.78223L5.34729 2.97247ZM3.40198 4.85215L-1.253 1.06648L-1.24873 1.06125L3.40198 4.85215ZM1.00198 10.36L-4.93347 9.48219L-4.93144 9.46845L-4.92934 9.45473L1.00198 10.36ZM0.983225 13.2662L6.92872 12.4593L6.92882 12.46L0.983225 13.2662ZM2.1551 17.049L-3.12773 19.8936L-3.14465 19.8622L-3.16121 19.8306L2.1551 17.049ZM2.38479 17.4756L7.66761 14.631L8.80547 16.7441L8.17206 19.0591L2.38479 17.4756ZM1.59729 20.3537L7.38458 21.9372L7.38109 21.9498L1.59729 20.3537ZM0.828538 23.2459L4.15674 18.2536L4.65107 18.5832L5.07118 19.0033L0.828538 23.2459ZM3.78635 22.4912L2.25608 16.6896L2.25939 16.6888L3.78635 22.4912ZM6.72541 21.7178L5.19845 15.9153L7.33158 15.354L9.32037 16.308L6.72541 21.7178ZM7.30198 21.9943L4.71324 27.4071L4.70702 27.4042L7.30198 21.9943ZM14.7692 22.735L16.2285 28.5548L16.2218 28.5565L14.7692 22.735ZM19.1145 20.5787L22.8912 25.2409L22.8823 25.2481L22.8734 25.2553L19.1145 20.5787ZM22.152 16.7115L16.7218 14.1594L16.7266 14.1491L16.7315 14.1389L22.152 16.7115ZM23.0848 9.98497L29.0019 8.99094L29.0022 8.99276L23.0848 9.98497ZM13.7285 0.844343L14.5905 -5.09344L14.6017 -5.09179L13.7285 0.844343ZM13.3817 2.74747L12.5647 8.69159L12.5632 8.69138L13.3817 2.74747ZM18.5942 5.36309L22.8299 1.1136L22.8356 1.11925L22.8413 1.12491L18.5942 5.36309ZM21.1207 13.7443L26.999 14.9469L26.9976 14.9537L21.1207 13.7443ZM19.166 17.7897L14.5567 13.9485L14.5644 13.9393L19.166 17.7897ZM13.4801 21.0334L14.4999 26.9461L14.4764 26.9502L14.4528 26.954L13.4801 21.0334ZM10.6676 21.0334L9.6742 26.9506L9.64953 26.9465L9.62489 26.9421L10.6676 21.0334ZM7.43791 19.8803L10.421 14.6744L10.4326 14.681L10.4441 14.6877L7.43791 19.8803ZM7.02073 19.6412L5.49063 13.8396L7.86938 13.2122L10.0039 14.4354L7.02073 19.6412ZM5.31448 20.0912L6.84457 25.8928L6.83091 25.8964L6.81724 25.9L5.31448 20.0912ZM4.02073 18.8303L9.80968 20.4076L9.80745 20.4158L9.8052 20.424L4.02073 18.8303ZM4.47541 17.1615L9.58748 14.0204L10.9471 16.2331L10.2644 18.7389L4.47541 17.1615ZM4.23635 16.7725L-0.875713 19.9136L-0.879822 19.9069L-0.883913 19.9002L4.23635 16.7725ZM3.02698 10.0553L-2.8556 8.87404L-2.85456 8.86887L3.02698 10.0553ZM9.33635 3.07559L7.55004 -2.65233L7.55235 -2.65305L9.33635 3.07559ZM11.3942 0.731842L11.9093 6.70969C10.601 6.82243 9.7368 7.17928 8.95139 7.76939L5.34729 2.97247L1.74319 -1.82445C4.46403 -3.86872 7.50925 -4.95562 10.879 -5.246L11.3942 0.731842ZM5.34729 2.97247L8.93423 7.78223C8.97043 7.75524 8.93967 7.77633 8.8367 7.8669C8.74424 7.94823 8.63093 8.05267 8.50966 8.17C8.38872 8.287 8.27653 8.4007 8.18481 8.49795C8.08578 8.60294 8.04586 8.65143 8.05268 8.64306L3.40198 4.85215L-1.24873 1.06125C-0.508774 0.153471 0.780301 -1.10642 1.76034 -1.8373L5.34729 2.97247ZM3.40198 4.85215L8.05694 8.63782C7.50052 9.32202 7.0946 10.2083 6.93329 11.2652L1.00198 10.36L-4.92934 9.45473C-4.46253 6.39605 -3.22782 3.49479 -1.25299 1.06649L3.40198 4.85215ZM1.00198 10.36L6.93742 11.2377C6.95284 11.1335 6.94591 11.1436 6.93664 11.319C6.92896 11.4645 6.92344 11.6513 6.92217 11.8542C6.9209 12.0571 6.92408 12.2433 6.92989 12.3877C6.93695 12.5631 6.94363 12.5692 6.92872 12.4593L0.983225 13.2662L-4.96227 14.0731C-5.06634 13.3062 -5.08146 12.3966 -5.07759 11.779C-5.07371 11.1593 -5.04702 10.25 -4.93347 9.48219L1.00198 10.36ZM0.983225 13.2662L6.92882 12.46C7.03091 13.2129 7.2399 13.825 7.47141 14.2675L2.1551 17.049L-3.16121 19.8306C-4.0922 18.0512 -4.68946 16.0851 -4.96237 14.0724L0.983225 13.2662ZM2.1551 17.049L7.43793 14.2044L7.66761 14.631L2.38479 17.4756L-2.89804 20.3202L-3.12773 19.8936L2.1551 17.049ZM2.38479 17.4756L8.17206 19.0591L7.38456 21.9372L1.59729 20.3537L-4.18999 18.7702L-3.40249 15.8921L2.38479 17.4756ZM1.59729 20.3537L7.38109 21.9498C7.16638 22.7279 6.97587 23.4296 6.84265 23.9306C6.77504 24.1849 6.72721 24.3686 6.69939 24.4789C6.68364 24.5414 6.68363 24.5435 6.69086 24.5116C6.69138 24.5094 6.71274 24.4171 6.73571 24.2891C6.743 24.2485 6.7791 24.0505 6.80291 23.7923C6.81195 23.6943 6.8439 23.3463 6.81825 22.9001C6.80646 22.695 6.77001 22.201 6.59727 21.5966C6.50796 21.2841 6.34085 20.7932 6.02366 20.2442C5.70895 19.6995 5.13484 18.9057 4.15674 18.2536L0.828538 23.2459L-2.49966 28.2382C-4.32976 27.0181 -4.83514 25.2637 -4.94072 24.8943C-5.11359 24.2895 -5.15013 23.7948 -5.16196 23.589C-5.18771 23.1412 -5.15567 22.791 -5.14637 22.6902C-5.12205 22.4265 -5.08474 22.2204 -5.07558 22.1694C-5.04886 22.0205 -5.02106 21.8977 -5.01156 21.8558C-4.98634 21.7447 -4.95815 21.6312 -4.93655 21.5455C-4.88966 21.3595 -4.82616 21.1169 -4.75432 20.8467C-4.60864 20.2989 -4.40774 19.5592 -4.18652 18.7576L1.59729 20.3537ZM0.828538 23.2459L5.07118 19.0033C4.15239 18.0845 3.17954 17.7074 2.75381 17.5632C2.25901 17.3956 1.84559 17.3283 1.61717 17.2981C1.16087 17.2376 0.799982 17.2446 0.663215 17.2484C0.35201 17.2571 0.111121 17.289 0.0452746 17.2977C-0.131598 17.3212 -0.266841 17.3476 -0.293438 17.3528C-0.343631 17.3625 -0.381169 17.3705 -0.39718 17.3739C-0.415917 17.3779 -0.428815 17.3808 -0.433555 17.3819C-0.443465 17.3842 -0.423655 17.3797 -0.356775 17.3634C-0.233149 17.3332 -0.0369597 17.284 0.223896 17.2176C0.740603 17.086 1.4609 16.8994 2.25608 16.6896L3.78635 22.4912L5.31662 28.2928C4.49462 28.5096 3.74069 28.705 3.18513 28.8465C2.90986 28.9166 2.6704 28.9767 2.49124 29.0205C2.40673 29.0411 2.30837 29.0648 2.21754 29.0854C2.18153 29.0936 2.0912 29.1139 1.9845 29.1346C1.94725 29.1418 1.8038 29.1696 1.62124 29.1938C1.55255 29.2029 1.30945 29.2351 0.996669 29.2438C0.859113 29.2476 0.497593 29.2546 0.0408269 29.1941C-0.187822 29.1638 -0.601443 29.0964 -1.0964 28.9288C-1.52228 28.7845 -2.49524 28.4074 -3.4141 27.4885L0.828538 23.2459ZM3.78635 22.4912L2.25939 16.6888L5.19845 15.9153L6.72541 21.7178L8.25237 27.5202L5.31331 28.2937L3.78635 22.4912ZM6.72541 21.7178L9.32037 16.308L9.89693 16.5845L7.30198 21.9943L4.70702 27.4042L4.13046 27.1276L6.72541 21.7178ZM7.30198 21.9943L9.89071 16.5815C10.8813 17.0553 12.1933 17.1937 13.3166 16.9135L14.7692 22.735L16.2218 28.5565C12.4232 29.5043 8.25075 29.099 4.71324 27.4071L7.30198 21.9943ZM14.7692 22.735L13.3098 16.9151C14.0285 16.7349 14.7941 16.3534 15.3556 15.9021L19.1145 20.5787L22.8734 25.2553C20.9504 26.8009 18.613 27.9569 16.2285 28.5548L14.7692 22.735ZM19.1145 20.5787L15.3377 15.9165C15.8541 15.4982 16.4514 14.7348 16.7218 14.1594L22.152 16.7115L27.5821 19.2637C26.5307 21.5007 24.7936 23.6998 22.8912 25.2409L19.1145 20.5787ZM22.152 16.7115L16.7315 14.1389C17.2093 13.1323 17.3547 12.0944 17.1674 10.9772L23.0848 9.98497L29.0022 8.99276C29.593 12.5161 29.1103 16.0439 27.5725 19.2842L22.152 16.7115ZM23.0848 9.98497L17.1677 10.979C16.8092 8.84511 15.0432 7.10227 12.8554 6.78047L13.7285 0.844343L14.6017 -5.09179C21.9108 -4.01671 27.776 1.69357 29.0019 8.99094L23.0848 9.98497ZM13.7285 0.844343L12.8666 6.78211C12.8976 6.78661 12.8451 6.77865 12.6885 6.76579C12.5496 6.7544 12.3832 6.74356 12.2131 6.73528C12.0411 6.7269 11.8939 6.72252 11.791 6.72135C11.7399 6.72077 11.7171 6.7212 11.7189 6.72116C11.7206 6.72112 11.7365 6.72079 11.7638 6.71952C11.7892 6.71834 11.8417 6.71557 11.9139 6.70929L11.3942 0.731842L10.8744 -5.2456C11.5482 -5.30419 12.3671 -5.27145 12.7971 -5.2505C13.3109 -5.22547 14.0132 -5.17722 14.5905 -5.09342L13.7285 0.844343ZM13.3817 2.74747L14.1986 -3.19665C17.5125 -2.7412 20.4825 -1.22626 22.8299 1.1136L18.5942 5.36309L14.3584 9.61258C13.7996 9.05556 13.2071 8.77988 12.5647 8.69159L13.3817 2.74747ZM18.5942 5.36309L22.8413 1.12491C26.4803 4.77162 28.0333 9.89094 26.999 14.9469L21.1207 13.7443L15.2425 12.5418C15.4644 11.4571 15.1611 10.4171 14.3471 9.60127L18.5942 5.36309ZM21.1207 13.7443L26.9976 14.9537C26.4974 17.384 25.3654 19.7305 23.7677 21.64L19.166 17.7897L14.5644 13.9393C14.8885 13.552 15.144 13.0203 15.2439 12.535L21.1207 13.7443ZM19.166 17.7897L23.7754 21.6308C21.3794 24.5059 18.1399 26.3183 14.4999 26.9461L13.4801 21.0334L12.4603 15.1207C13.386 14.961 14.0464 14.5609 14.5567 13.9485L19.166 17.7897ZM13.4801 21.0334L14.4528 26.954C13.6284 27.0895 12.6902 27.1143 12.0686 27.1143C11.4537 27.1143 10.5061 27.0903 9.6742 26.9506L10.6676 21.0334L11.661 15.1162C11.5641 15.0999 11.5127 15.0956 11.5255 15.0968C11.5318 15.0974 11.5622 15.1002 11.6186 15.1033C11.7336 15.1097 11.8912 15.1143 12.0686 15.1143C12.2458 15.1143 12.4051 15.1097 12.5236 15.1032C12.5817 15.1 12.6149 15.0971 12.6247 15.0961C12.6406 15.0946 12.5959 15.0982 12.5074 15.1128L13.4801 21.0334ZM10.6676 21.0334L9.62489 26.9421C7.79638 26.6194 6.06804 26.0202 4.4317 25.0728L7.43791 19.8803L10.4441 14.6877C10.7672 14.8747 11.1482 15.0255 11.7103 15.1247L10.6676 21.0334ZM7.43791 19.8803L4.45478 25.0861L4.0376 24.8471L7.02073 19.6412L10.0039 14.4354L10.421 14.6744L7.43791 19.8803ZM7.02073 19.6412L8.55082 25.4428L6.84457 25.8928L5.31448 20.0912L3.78438 14.2896L5.49063 13.8396L7.02073 19.6412ZM5.31448 20.0912L6.81724 25.9C6.33175 26.0256 5.87878 26.1404 5.5371 26.2247C5.37064 26.2658 5.20797 26.3052 5.07391 26.3361C5.01514 26.3497 4.91503 26.3724 4.80718 26.3942C4.76772 26.4021 4.63627 26.4286 4.47241 26.4528C4.41201 26.4617 4.19316 26.4941 3.91219 26.5093C3.79288 26.5158 3.45551 26.5321 3.02654 26.492C2.81626 26.4723 2.40392 26.4236 1.90323 26.2774C1.51648 26.1645 0.386228 25.8045 -0.657853 24.7604L3.58479 20.5178L7.82743 16.2751C6.78349 15.2312 5.65348 14.8714 5.26707 14.7585C4.76671 14.6124 4.3548 14.5638 4.14504 14.5442C3.7171 14.5041 3.38115 14.5205 3.26361 14.5268C2.98619 14.5419 2.77236 14.5737 2.71841 14.5817C2.56743 14.604 2.45458 14.627 2.43913 14.6301C2.37931 14.6422 2.34889 14.6496 2.37911 14.6426C2.42303 14.6325 2.51554 14.6104 2.66255 14.5741C2.94783 14.5037 3.35502 14.4006 3.81171 14.2825L5.31448 20.0912ZM3.58479 20.5178L-0.657853 24.7604C-1.68733 23.7309 -2.05051 22.6194 -2.16857 22.2207C-2.31787 21.7164 -2.36804 21.3003 -2.38849 21.0855C-2.43006 20.6489 -2.41312 20.3055 -2.40631 20.1827C-2.39037 19.8951 -2.35642 19.6712 -2.34697 19.6088C-2.32146 19.4404 -2.29359 19.3056 -2.28515 19.2648C-2.26215 19.1536 -2.23818 19.0514 -2.22391 18.9914C-2.19134 18.8544 -2.1503 18.6909 -2.10725 18.5232C-2.01904 18.1796 -1.89856 17.7259 -1.76375 17.2366L4.02073 18.8303L9.8052 20.424C9.68688 20.8534 9.58471 21.2388 9.51589 21.5069C9.48042 21.6451 9.45935 21.7305 9.45061 21.7673C9.44423 21.7941 9.45275 21.76 9.46604 21.6957C9.46963 21.6784 9.49409 21.5618 9.51769 21.406C9.52618 21.3499 9.55955 21.1309 9.5753 20.8467C9.58201 20.7257 9.59895 20.3836 9.55748 19.9481C9.53708 19.7338 9.48698 19.3182 9.33778 18.8142C9.21982 18.4157 8.85676 17.3045 7.82743 16.2751L3.58479 20.5178ZM4.02073 18.8303L-1.76823 17.2529L-1.31354 15.5842L4.47541 17.1615L10.2644 18.7389L9.80968 20.4076L4.02073 18.8303ZM4.47541 17.1615L-0.63665 20.3027L-0.875713 19.9136L4.23635 16.7725L9.34841 13.6313L9.58748 14.0204L4.47541 17.1615ZM4.23635 16.7725L-0.883913 19.9002C-2.92511 16.5587 -3.62622 12.7118 -2.8556 8.87404L3.02698 10.0553L8.90955 11.2365C8.74268 12.0675 8.86656 12.8425 9.35661 13.6447L4.23635 16.7725ZM3.02698 10.0553L-2.85456 8.86887C-1.75785 3.43202 2.26839 -1.0052 7.55004 -2.65233L9.33635 3.07559L11.1227 8.80352C10.0012 9.15326 9.13368 10.1254 8.90851 11.2417L3.02698 10.0553ZM9.33635 3.07559L7.55235 -2.65305C9.75939 -3.34036 11.9094 -3.51189 14.2002 -3.19644L13.3817 2.74747L12.5632 8.69138C11.9946 8.61308 11.6227 8.6478 11.1204 8.80423L9.33635 3.07559Z" fill="white" mask="url(#path-1-inside-1_427_20716)"/>
<mask id="path-3-inside-2_427_20716" fill="white">
<path d="M7.86559 6.74575C7.34059 6.91919 6.65621 7.82388 6.4734 8.58325C6.19215 9.78325 6.55778 10.9879 7.68278 12.5348C8.70465 13.9411 9.8109 15.0333 11.025 15.8301C11.8125 16.3458 13.1812 16.9411 14.0859 17.1614C14.5593 17.2739 15.4171 17.2833 15.8156 17.1801C16.4343 17.0161 17.2078 16.4911 17.4562 16.0645C17.6203 15.7879 17.7281 15.3192 17.7375 14.8926C17.7421 14.5598 17.7328 14.5176 17.6296 14.4426C17.4046 14.2692 15.2296 13.2661 15.0281 13.2379C14.7843 13.2004 14.775 13.2098 14.3015 13.8239C13.814 14.452 13.5843 14.6723 13.4296 14.6723C13.2328 14.6723 12.0375 14.0629 11.5453 13.7067C11.3109 13.5379 10.9406 13.2286 10.725 13.0176C10.0734 12.3754 9.32809 11.3489 9.32809 11.0911C9.32809 11.0067 9.41715 10.852 9.58121 10.6458C10.0921 10.0083 10.2187 9.79731 10.2187 9.59106C10.2187 9.34731 9.30465 7.12544 9.10777 6.89575C8.97652 6.74106 8.97652 6.74106 8.48434 6.72231C8.21246 6.71294 7.9359 6.72231 7.86559 6.74575Z"/>
</mask>
<path d="M7.86559 6.74575L9.76295 12.4378L9.75532 12.4404L9.74769 12.4429L7.86559 6.74575ZM6.4734 8.58325L0.631702 7.2141L0.635828 7.1965L0.640059 7.17893L6.4734 8.58325ZM7.68278 12.5348L12.5352 9.00578L12.5366 9.00771L7.68278 12.5348ZM11.025 15.8301L7.73824 20.8498L7.7326 20.8461L11.025 15.8301ZM14.0859 17.1614L12.6988 22.9988L12.6825 22.995L12.6662 22.991L14.0859 17.1614ZM15.8156 17.1801L17.3534 22.9797L17.3362 22.9843L17.319 22.9887L15.8156 17.1801ZM17.4562 16.0645L12.2715 13.0448L12.2836 13.024L12.2959 13.0033L17.4562 16.0645ZM17.7375 14.8926L23.7369 14.9771L23.7365 15.0008L23.736 15.0245L17.7375 14.8926ZM17.6296 14.4426L14.1006 19.295L14.0329 19.2458L13.9666 19.1947L17.6296 14.4426ZM15.0281 13.2379L14.1989 19.1804L14.1573 19.1746L14.1157 19.1682L15.0281 13.2379ZM14.3015 13.8239L19.0532 17.4874L19.0473 17.495L19.0414 17.5026L14.3015 13.8239ZM11.5453 13.7067L15.0511 8.83748L15.0572 8.84187L15.0633 8.84628L11.5453 13.7067ZM10.725 13.0176L6.5292 17.3066L6.52117 17.2988L6.51318 17.2909L10.725 13.0176ZM9.58121 10.6458L4.88561 6.91061L4.89247 6.90198L4.89936 6.89338L9.58121 10.6458ZM9.10777 6.89575L4.55223 10.8005L4.54245 10.7891L4.53272 10.7776L9.10777 6.89575ZM8.48434 6.72231L8.69111 0.725876L8.70193 0.72625L8.71274 0.726662L8.48434 6.72231ZM7.86559 6.74575L9.74769 12.4429C10.6323 12.1507 11.173 11.713 11.3635 11.5493C11.603 11.3433 11.7476 11.1684 11.8244 11.067C11.932 10.9249 12.1593 10.5999 12.3067 9.98757L6.4734 8.58325L0.640059 7.17893C0.970283 5.80723 1.63118 4.65018 2.25791 3.82257C2.73682 3.19014 3.959 1.71739 5.98349 1.04858L7.86559 6.74575ZM6.4734 8.58325L12.3151 9.9524C12.3641 9.74329 12.3909 9.50205 12.3807 9.24822C12.3706 8.99761 12.3272 8.80106 12.289 8.67617C12.2238 8.46268 12.2006 8.54577 12.5352 9.00578L7.68278 12.5348L2.83036 16.0638C1.23441 13.8694 -0.221841 10.8559 0.631702 7.2141L6.4734 8.58325ZM7.68278 12.5348L12.5366 9.00771C13.2167 9.94358 13.8189 10.487 14.3173 10.8141L11.025 15.8301L7.7326 20.8461C5.80289 19.5795 4.19264 17.9385 2.82896 16.0619L7.68278 12.5348ZM11.025 15.8301L14.3117 10.8104C14.2993 10.8023 14.351 10.8361 14.478 10.9022C14.5974 10.9644 14.7442 11.0346 14.9045 11.1043C15.0649 11.1741 15.2151 11.233 15.3395 11.2771C15.4726 11.3242 15.5273 11.337 15.5056 11.3317L14.0859 17.1614L12.6662 22.991C11.0902 22.6072 9.09098 21.7356 7.73825 20.8498L11.025 15.8301ZM14.0859 17.1614L15.473 11.3239C15.2472 11.2702 15.1055 11.2569 15.0878 11.2551C15.0672 11.2531 15.0553 11.2524 15.0515 11.2522C15.0473 11.252 15.0454 11.252 15.0441 11.252C15.0429 11.252 15.037 11.2519 15.0253 11.2523C15.0142 11.2526 14.9892 11.2536 14.9506 11.2568C14.9139 11.2599 14.8469 11.2663 14.7547 11.2802C14.6688 11.2931 14.5134 11.3194 14.3122 11.3715L15.8156 17.1801L17.319 22.9887C16.3483 23.24 15.4063 23.2566 14.9137 23.2513C14.3582 23.2452 13.5361 23.1978 12.6988 22.9988L14.0859 17.1614ZM15.8156 17.1801L14.2778 11.3805C13.9874 11.4575 13.7898 11.5448 13.6876 11.5942C13.5764 11.6479 13.4848 11.7022 13.4022 11.7583C13.324 11.8115 13.1974 11.9046 13.0397 12.0551C12.911 12.1779 12.5872 12.5028 12.2715 13.0448L17.4562 16.0645L22.6409 19.0842C21.8563 20.4314 20.7462 21.2762 20.1473 21.6832C19.4432 22.1617 18.479 22.6812 17.3534 22.9797L15.8156 17.1801ZM17.4562 16.0645L12.2959 13.0033C12.1139 13.31 12.006 13.5678 11.9452 13.7311C11.8812 13.903 11.8417 14.0452 11.8168 14.1504C11.7701 14.3473 11.7437 14.5432 11.7389 14.7608L17.7375 14.8926L23.736 15.0245C23.713 16.0712 23.484 17.6635 22.6165 19.1257L17.4562 16.0645ZM17.7375 14.8926L11.7381 14.8081C11.7392 14.7239 11.7369 14.792 11.7408 14.9039C11.7438 14.9878 11.757 15.4142 11.8871 15.9607C12.0454 16.6252 12.3616 17.4182 12.9526 18.179C13.4658 18.8394 13.9982 19.2206 14.1006 19.295L17.6296 14.4426L21.1587 9.59021C21.3126 9.70217 21.8849 10.1167 22.4287 10.8166C23.0504 11.6168 23.388 12.4552 23.5608 13.1812C23.7056 13.7892 23.7267 14.2933 23.7334 14.481C23.741 14.6968 23.738 14.8949 23.7369 14.9771L17.7375 14.8926ZM17.6296 14.4426L13.9666 19.1947C14.0533 19.2615 14.1279 19.3151 14.1834 19.3538C14.2402 19.3934 14.2892 19.4261 14.3273 19.4509C14.4017 19.4994 14.4607 19.5351 14.495 19.5556C14.5314 19.5773 14.5589 19.5929 14.5744 19.6017C14.5905 19.6107 14.6009 19.6164 14.6043 19.6182C14.6099 19.6212 14.6022 19.617 14.5778 19.6045C14.5545 19.5925 14.5227 19.5764 14.4819 19.556C14.3995 19.515 14.2962 19.4647 14.177 19.4078C14.0588 19.3514 13.9315 19.2917 13.8027 19.2321C13.6738 19.1726 13.5471 19.1149 13.4299 19.0625C13.3115 19.0095 13.2103 18.9652 13.1311 18.9313C13.0919 18.9146 13.0627 18.9024 13.0429 18.8943C13.0215 18.8855 13.0202 18.8852 13.0348 18.8908C13.0428 18.8939 13.0602 18.9005 13.0853 18.9096C13.1091 18.9183 13.1511 18.9333 13.2067 18.9516C13.2353 18.961 13.2717 18.9728 13.3146 18.9859C13.3569 18.9988 13.4124 19.0152 13.4784 19.0332C13.5427 19.0507 13.6321 19.0738 13.7402 19.0977C13.7952 19.1099 13.8605 19.1235 13.9343 19.1373C14.0076 19.1509 14.0968 19.1661 14.1989 19.1804L15.0281 13.2379L15.8573 7.29551C16.4599 7.37959 16.9364 7.54587 16.9694 7.55677C17.1241 7.60788 17.257 7.65776 17.3422 7.69052C17.5193 7.75862 17.6972 7.83288 17.8449 7.89594C18.1508 8.02661 18.5048 8.18565 18.8375 8.33944C19.1706 8.49344 19.5253 8.66193 19.8313 8.81434C19.9808 8.88877 20.1527 8.97627 20.3188 9.06623C20.3375 9.07636 20.8218 9.3276 21.2927 9.69056L17.6296 14.4426ZM15.0281 13.2379L14.1157 19.1682C13.8823 19.1322 14.6799 19.2962 15.6061 19.183C16.9037 19.0244 17.89 18.4646 18.5244 17.9514C18.7864 17.7395 18.9681 17.5525 19.0565 17.4581C19.1483 17.3599 19.2062 17.2894 19.2145 17.2794C19.2169 17.2764 19.1934 17.3055 19.0532 17.4874L14.3015 13.8239L9.54983 10.1604C9.64633 10.0352 9.80156 9.83291 9.94655 9.65663C10.0495 9.53141 10.4262 9.06762 10.9775 8.62172C11.7039 8.03411 12.7678 7.44059 14.1505 7.27162C14.7246 7.20147 15.1936 7.226 15.4666 7.24976C15.715 7.27139 15.9266 7.30558 15.9404 7.30771L15.0281 13.2379ZM14.3015 13.8239L19.0414 17.5026C18.78 17.8395 18.382 18.3406 17.9188 18.7899C17.6837 19.0181 17.2501 19.4136 16.6441 19.7763C16.035 20.1409 14.9187 20.6723 13.4296 20.6723V14.6723V8.67231C12.018 8.67231 10.9883 9.17622 10.4811 9.47985C9.97691 9.78161 9.66019 10.0828 9.56276 10.1773C9.375 10.3595 9.33559 10.4363 9.5616 10.1451L14.3015 13.8239ZM13.4296 14.6723V20.6723C12.3333 20.6723 11.4619 20.3531 11.4284 20.342C11.1582 20.2526 10.9262 20.158 10.7734 20.093C10.4538 19.9571 10.136 19.803 9.86625 19.665C9.39445 19.4238 8.64898 19.0171 8.02726 18.5671L11.5453 13.7067L15.0633 8.84628C14.9549 8.76784 14.929 8.75894 15.0364 8.82138C15.1191 8.86948 15.2252 8.92746 15.3302 8.98114C15.4454 9.04008 15.494 9.06052 15.4693 9.05002C15.4639 9.04773 15.3615 9.00351 15.1963 8.94888C15.1141 8.9217 14.9501 8.86977 14.7324 8.81945C14.6204 8.79357 14.4611 8.76037 14.2668 8.73229C14.0822 8.7056 13.7905 8.67231 13.4296 8.67231V14.6723ZM11.5453 13.7067L8.03945 18.5759C7.56999 18.2379 6.96781 17.7357 6.5292 17.3066L10.725 13.0176L14.9207 8.72862C14.904 8.71223 14.8946 8.70354 14.8942 8.70319C14.8934 8.70242 14.8972 8.70597 14.9059 8.71374C14.9242 8.73006 14.9512 8.7535 14.9834 8.78054C15.0156 8.80753 15.0439 8.83046 15.064 8.84633C15.0737 8.85392 15.0785 8.85756 15.0783 8.85742C15.078 8.85723 15.0758 8.85554 15.0716 8.85246C15.0675 8.84942 15.0606 8.84434 15.0511 8.83748L11.5453 13.7067ZM10.725 13.0176L6.51318 17.2909C5.91323 16.6996 5.35224 16.0216 4.92544 15.4333C4.71183 15.1388 4.45579 14.7625 4.2234 14.3488C4.11023 14.1473 3.94532 13.8359 3.79242 13.4546C3.7006 13.2256 3.32809 12.3072 3.32809 11.0911H9.32809H15.3281C15.3281 10.4333 15.2166 9.92238 15.1474 9.65326C15.0713 9.35754 14.9865 9.12853 14.9304 8.98846C14.8208 8.71512 14.7192 8.53127 14.686 8.4723C14.6138 8.34361 14.5848 8.31247 14.6389 8.38713C14.7477 8.53706 14.8851 8.69348 14.9367 8.74435L10.725 13.0176ZM9.32809 11.0911H3.32809C3.32809 9.36645 4.07609 8.12591 4.18116 7.94166C4.43403 7.49828 4.7019 7.14156 4.88561 6.91061L9.58121 10.6458L14.2768 14.3809C14.2965 14.3562 14.4378 14.1799 14.6051 13.8866C14.6899 13.7379 14.8365 13.4636 14.9739 13.0911C15.0938 12.7661 15.3281 12.0472 15.3281 11.0911H9.32809ZM9.58121 10.6458L4.89936 6.89338C5.00768 6.75823 5.05988 6.69002 5.08064 6.66209C5.10711 6.62647 5.04611 6.70486 4.95502 6.85574C4.86426 7.00607 4.67095 7.34638 4.5067 7.83248C4.32325 8.37538 4.21871 8.97159 4.21871 9.59106H10.2187H16.2187C16.2187 11.1939 15.6329 12.3871 15.2281 13.0576C14.9 13.6011 14.5019 14.1001 14.2631 14.3981L9.58121 10.6458ZM10.2187 9.59106H4.21871C4.21871 10.0042 4.26285 10.3243 4.28491 10.4687C4.3109 10.6388 4.33931 10.7723 4.35711 10.8507C4.39206 11.0048 4.4239 11.1115 4.43245 11.14C4.45159 11.2037 4.45587 11.2104 4.42858 11.1347C4.37916 10.9977 4.29379 10.7771 4.18911 10.5229C4.0848 10.2696 3.9877 10.047 3.92154 9.90441C3.88615 9.82812 3.88156 9.8222 3.90356 9.86396C3.91391 9.8836 3.95403 9.95945 4.01867 10.0663C4.05193 10.1213 4.10619 10.2086 4.17915 10.3151C4.24517 10.4114 4.37166 10.5898 4.55223 10.8005L9.10777 6.89575L13.6633 2.991C14.191 3.6066 14.5123 4.25555 14.5205 4.27106C14.6302 4.47925 14.7293 4.6865 14.8073 4.85462C14.9679 5.20082 15.1362 5.59202 15.285 5.95337C15.4335 6.31383 15.5889 6.70876 15.717 7.06404C15.7785 7.23454 15.8558 7.4566 15.9256 7.6894C15.9596 7.80243 16.0113 7.9821 16.0597 8.19557C16.0812 8.29035 16.2187 8.86445 16.2187 9.59106H10.2187ZM9.10777 6.89575L4.53272 10.7776C4.39484 10.6151 4.71787 11.0232 5.15662 11.3932C5.8123 11.946 6.56176 12.3267 7.3233 12.5385C7.88958 12.6961 8.33544 12.7198 8.34651 12.7205C8.39654 12.7241 8.42052 12.7242 8.25593 12.718L8.48434 6.72231L8.71274 0.726662C8.79425 0.729767 9.00279 0.736944 9.19536 0.750599C9.34896 0.761492 9.8953 0.798355 10.5395 0.97757C11.379 1.21111 12.1838 1.62198 12.8918 2.21889C13.1803 2.46216 13.3888 2.68312 13.4985 2.80358C13.5558 2.8664 13.6017 2.91922 13.6288 2.95064C13.6545 2.98042 13.6781 3.00829 13.6828 3.01389L9.10777 6.89575ZM8.48434 6.72231L8.27756 12.7187C8.27809 12.7188 8.27768 12.7187 8.2767 12.7187C8.27572 12.7187 8.27539 12.7187 8.27611 12.7187C8.27677 12.7187 8.27996 12.7187 8.28597 12.7186C8.29178 12.7185 8.30288 12.7183 8.31912 12.7177C8.33881 12.717 8.42495 12.7138 8.55396 12.7008C8.61818 12.6943 8.73808 12.681 8.89175 12.6553C8.97064 12.6421 9.08048 12.622 9.2114 12.5922C9.33551 12.564 9.52953 12.5157 9.76295 12.4378L7.86559 6.74575L5.96822 1.05365C6.68118 0.815998 7.30672 0.76568 7.35343 0.760984C7.56257 0.739956 7.74803 0.730576 7.87963 0.725752C8.15075 0.715815 8.43122 0.716915 8.69111 0.725876L8.48434 6.72231Z" fill="white" mask="url(#path-3-inside-2_427_20716)"/>
</svg>
