<svg width="25" height="24" viewBox="0 0 25 24" fill="none" xmlns="http://www.w3.org/2000/svg">
<mask id="path-1-inside-1_413_14876" fill="white">
<path d="M11.8942 0.731843C9.5551 0.933405 7.60041 1.65528 5.84729 2.97247C5.29416 3.38497 4.35666 4.29434 3.90198 4.85215C2.63635 6.4084 1.81604 8.30215 1.50198 10.36C1.40354 11.0256 1.39416 12.61 1.48323 13.2662C1.67073 14.649 2.07385 15.9381 2.6551 17.049L2.88479 17.4756L2.09729 20.3537C1.66135 21.9334 1.31448 23.2365 1.32854 23.2459C1.33791 23.2553 2.66916 22.9178 4.28635 22.4912L7.22541 21.7178L7.80198 21.9943C10.066 23.0772 12.8082 23.349 15.2692 22.735C16.8207 22.3459 18.3723 21.5772 19.6145 20.5787C20.8239 19.599 21.991 18.1178 22.652 16.7115C23.6598 14.5881 23.9739 12.3053 23.5848 9.98497C22.7926 5.26934 18.977 1.54278 14.2285 0.844343C13.6473 0.759968 12.3254 0.694343 11.8942 0.731843ZM13.8817 2.74747C15.8598 3.01934 17.641 3.91465 19.0942 5.36309C21.3207 7.59434 22.2489 10.674 21.6207 13.7443C21.3207 15.2022 20.627 16.6412 19.666 17.7897C18.2129 19.5334 16.2629 20.6397 13.9801 21.0334C13.3239 21.1412 11.8098 21.1412 11.1676 21.0334C9.97229 20.8225 8.9176 20.4475 7.93791 19.8803L7.52073 19.6412L5.81448 20.0912C4.87229 20.335 4.09416 20.5272 4.08479 20.5178C4.07541 20.5084 4.2676 19.749 4.52073 18.8303L4.97541 17.1615L4.73635 16.7725C3.47073 14.7006 3.05823 12.3897 3.52698 10.0553C4.18791 6.77872 6.63479 4.07403 9.83635 3.07559C11.191 2.65372 12.452 2.55059 13.8817 2.74747Z"/>
</mask>
<path d="M11.8942 0.731843L12.4139 6.70929L12.4093 6.70969L11.8942 0.731843ZM5.84729 2.97247L9.45139 7.76939L9.44282 7.77583L9.43423 7.78223L5.84729 2.97247ZM3.90198 4.85215L-0.752995 1.06648L-0.748725 1.06125L3.90198 4.85215ZM1.50198 10.36L-4.43347 9.48219L-4.43144 9.46845L-4.42934 9.45473L1.50198 10.36ZM1.48323 13.2662L7.42872 12.4593L7.42882 12.46L1.48323 13.2662ZM2.6551 17.049L-2.62773 19.8936L-2.64465 19.8622L-2.66121 19.8306L2.6551 17.049ZM2.88479 17.4756L8.16761 14.631L9.30547 16.7441L8.67206 19.0591L2.88479 17.4756ZM2.09729 20.3537L7.88458 21.9372L7.88109 21.9498L2.09729 20.3537ZM1.32854 23.2459L4.65674 18.2536L5.15107 18.5832L5.57118 19.0033L1.32854 23.2459ZM4.28635 22.4912L2.75608 16.6896L2.75939 16.6888L4.28635 22.4912ZM7.22541 21.7178L5.69845 15.9153L7.83158 15.354L9.82037 16.308L7.22541 21.7178ZM7.80198 21.9943L5.21324 27.4071L5.20702 27.4042L7.80198 21.9943ZM15.2692 22.735L16.7285 28.5548L16.7218 28.5565L15.2692 22.735ZM19.6145 20.5787L23.3912 25.2409L23.3823 25.2481L23.3734 25.2553L19.6145 20.5787ZM22.652 16.7115L17.2218 14.1594L17.2266 14.1491L17.2315 14.1389L22.652 16.7115ZM23.5848 9.98497L29.5019 8.99094L29.5022 8.99276L23.5848 9.98497ZM14.2285 0.844343L15.0905 -5.09343L15.1017 -5.09179L14.2285 0.844343ZM13.8817 2.74747L13.0647 8.69159L13.0632 8.69138L13.8817 2.74747ZM19.0942 5.36309L23.3299 1.1136L23.3356 1.11925L23.3413 1.12491L19.0942 5.36309ZM21.6207 13.7443L27.499 14.9469L27.4976 14.9537L21.6207 13.7443ZM19.666 17.7897L15.0567 13.9485L15.0644 13.9393L19.666 17.7897ZM13.9801 21.0334L14.9999 26.9461L14.9764 26.9502L14.9528 26.954L13.9801 21.0334ZM11.1676 21.0334L10.1742 26.9506L10.1495 26.9465L10.1249 26.9421L11.1676 21.0334ZM7.93791 19.8803L10.921 14.6744L10.9326 14.681L10.9441 14.6877L7.93791 19.8803ZM7.52073 19.6412L5.99063 13.8396L8.36938 13.2122L10.5039 14.4354L7.52073 19.6412ZM5.81448 20.0912L7.34457 25.8928L7.33091 25.8964L7.31724 25.9L5.81448 20.0912ZM4.52073 18.8303L10.3097 20.4076L10.3075 20.4158L10.3052 20.424L4.52073 18.8303ZM4.97541 17.1615L10.0875 14.0204L11.4471 16.2331L10.7644 18.7389L4.97541 17.1615ZM4.73635 16.7725L-0.375713 19.9136L-0.379822 19.9069L-0.383913 19.9002L4.73635 16.7725ZM3.52698 10.0553L-2.3556 8.87404L-2.35456 8.86887L3.52698 10.0553ZM9.83635 3.07559L8.05004 -2.65233L8.05235 -2.65305L9.83635 3.07559ZM11.8942 0.731843L12.4093 6.70969C11.101 6.82243 10.2368 7.17928 9.45139 7.76939L5.84729 2.97247L2.24319 -1.82445C4.96403 -3.86872 8.00925 -4.95562 11.379 -5.246L11.8942 0.731843ZM5.84729 2.97247L9.43423 7.78223C9.47043 7.75524 9.43967 7.77633 9.3367 7.8669C9.24424 7.94823 9.13093 8.05267 9.00966 8.17C8.88872 8.287 8.77653 8.4007 8.68481 8.49795C8.58578 8.60294 8.54586 8.65143 8.55268 8.64306L3.90198 4.85215L-0.748725 1.06125C-0.00877424 0.153471 1.2803 -1.10642 2.26034 -1.8373L5.84729 2.97247ZM3.90198 4.85215L8.55694 8.63782C8.00052 9.32202 7.5946 10.2083 7.43329 11.2652L1.50198 10.36L-4.42934 9.45473C-3.96253 6.39605 -2.72782 3.49479 -0.752992 1.06649L3.90198 4.85215ZM1.50198 10.36L7.43742 11.2377C7.45284 11.1335 7.44591 11.1436 7.43664 11.319C7.42896 11.4645 7.42344 11.6513 7.42217 11.8542C7.4209 12.0571 7.42408 12.2433 7.42989 12.3877C7.43695 12.5631 7.44363 12.5692 7.42872 12.4593L1.48323 13.2662L-4.46227 14.0731C-4.56634 13.3062 -4.58146 12.3966 -4.57759 11.779C-4.57371 11.1593 -4.54702 10.25 -4.43347 9.48219L1.50198 10.36ZM1.48323 13.2662L7.42882 12.46C7.53091 13.2129 7.7399 13.825 7.97141 14.2675L2.6551 17.049L-2.66121 19.8306C-3.5922 18.0512 -4.18946 16.0851 -4.46237 14.0724L1.48323 13.2662ZM2.6551 17.049L7.93793 14.2044L8.16761 14.631L2.88479 17.4756L-2.39804 20.3202L-2.62773 19.8936L2.6551 17.049ZM2.88479 17.4756L8.67206 19.0591L7.88456 21.9372L2.09729 20.3537L-3.68999 18.7702L-2.90249 15.8921L2.88479 17.4756ZM2.09729 20.3537L7.88109 21.9498C7.66638 22.7279 7.47587 23.4296 7.34265 23.9306C7.27504 24.1849 7.22721 24.3686 7.19939 24.4789C7.18364 24.5414 7.18363 24.5435 7.19086 24.5116C7.19138 24.5094 7.21274 24.4171 7.23571 24.2891C7.243 24.2485 7.2791 24.0505 7.30291 23.7923C7.31195 23.6943 7.34391 23.3463 7.31825 22.9001C7.30646 22.695 7.27001 22.201 7.09727 21.5966C7.00796 21.2841 6.84085 20.7932 6.52366 20.2442C6.20895 19.6995 5.63484 18.9057 4.65674 18.2536L1.32854 23.2459L-1.99966 28.2382C-3.82976 27.0181 -4.33514 25.2637 -4.44072 24.8943C-4.61359 24.2895 -4.65013 23.7948 -4.66196 23.589C-4.68771 23.1412 -4.65567 22.791 -4.64637 22.6902C-4.62205 22.4265 -4.58474 22.2204 -4.57558 22.1694C-4.54886 22.0205 -4.52106 21.8977 -4.51156 21.8558C-4.48634 21.7447 -4.45815 21.6312 -4.43655 21.5455C-4.38966 21.3595 -4.32616 21.1169 -4.25432 20.8467C-4.10864 20.2989 -3.90774 19.5592 -3.68652 18.7576L2.09729 20.3537ZM1.32854 23.2459L5.57118 19.0033C4.65239 18.0845 3.67954 17.7074 3.25381 17.5632C2.75901 17.3956 2.34559 17.3283 2.11717 17.2981C1.66087 17.2376 1.29998 17.2446 1.16321 17.2484C0.85201 17.2571 0.611121 17.289 0.545275 17.2977C0.368402 17.3212 0.233159 17.3476 0.206562 17.3528C0.156369 17.3625 0.118831 17.3705 0.10282 17.3739C0.0840826 17.3779 0.0711846 17.3808 0.0664451 17.3819C0.0565349 17.3842 0.0763454 17.3797 0.143225 17.3634C0.266851 17.3332 0.46304 17.284 0.723896 17.2176C1.2406 17.086 1.9609 16.8994 2.75608 16.6896L4.28635 22.4912L5.81662 28.2928C4.99462 28.5096 4.24069 28.705 3.68513 28.8465C3.40986 28.9166 3.1704 28.9767 2.99124 29.0205C2.90673 29.0411 2.80837 29.0648 2.71754 29.0854C2.68153 29.0936 2.5912 29.1139 2.4845 29.1346C2.44725 29.1418 2.3038 29.1696 2.12124 29.1938C2.05255 29.2029 1.80945 29.2351 1.49667 29.2438C1.35911 29.2476 0.997593 29.2546 0.540827 29.1941C0.312178 29.1638 -0.101443 29.0964 -0.596398 28.9288C-1.02228 28.7845 -1.99524 28.4074 -2.9141 27.4885L1.32854 23.2459ZM4.28635 22.4912L2.75939 16.6888L5.69845 15.9153L7.22541 21.7178L8.75237 27.5202L5.81331 28.2937L4.28635 22.4912ZM7.22541 21.7178L9.82037 16.308L10.3969 16.5845L7.80198 21.9943L5.20702 27.4042L4.63046 27.1276L7.22541 21.7178ZM7.80198 21.9943L10.3907 16.5815C11.3813 17.0553 12.6933 17.1937 13.8166 16.9135L15.2692 22.735L16.7218 28.5565C12.9232 29.5043 8.75075 29.099 5.21324 27.4071L7.80198 21.9943ZM15.2692 22.735L13.8098 16.9151C14.5285 16.7349 15.2941 16.3534 15.8556 15.9021L19.6145 20.5787L23.3734 25.2553C21.4504 26.8009 19.113 27.9569 16.7285 28.5548L15.2692 22.735ZM19.6145 20.5787L15.8377 15.9165C16.3541 15.4982 16.9514 14.7348 17.2218 14.1594L22.652 16.7115L28.0821 19.2637C27.0307 21.5007 25.2936 23.6998 23.3912 25.2409L19.6145 20.5787ZM22.652 16.7115L17.2315 14.1389C17.7093 13.1323 17.8547 12.0944 17.6674 10.9772L23.5848 9.98497L29.5022 8.99276C30.093 12.5161 29.6103 16.0439 28.0725 19.2842L22.652 16.7115ZM23.5848 9.98497L17.6677 10.979C17.3092 8.84511 15.5432 7.10227 13.3554 6.78047L14.2285 0.844343L15.1017 -5.09179C22.4108 -4.01671 28.276 1.69357 29.5019 8.99094L23.5848 9.98497ZM14.2285 0.844343L13.3666 6.78211C13.3976 6.78661 13.3451 6.77865 13.1885 6.76579C13.0496 6.7544 12.8832 6.74357 12.7131 6.73528C12.5411 6.7269 12.3939 6.72252 12.291 6.72135C12.2399 6.72077 12.2171 6.72119 12.2189 6.72116C12.2206 6.72112 12.2365 6.72079 12.2638 6.71952C12.2892 6.71834 12.3417 6.71557 12.4139 6.70929L11.8942 0.731843L11.3744 -5.2456C12.0482 -5.30419 12.8671 -5.27145 13.2971 -5.2505C13.8109 -5.22547 14.5132 -5.17722 15.0905 -5.09342L14.2285 0.844343ZM13.8817 2.74747L14.6986 -3.19665C18.0125 -2.7412 20.9825 -1.22626 23.3299 1.1136L19.0942 5.36309L14.8584 9.61258C14.2996 9.05556 13.7071 8.77988 13.0647 8.69159L13.8817 2.74747ZM19.0942 5.36309L23.3413 1.12491C26.9803 4.77162 28.5333 9.89094 27.499 14.9469L21.6207 13.7443L15.7425 12.5418C15.9644 11.4571 15.6611 10.4171 14.8471 9.60127L19.0942 5.36309ZM21.6207 13.7443L27.4976 14.9537C26.9974 17.384 25.8654 19.7305 24.2677 21.64L19.666 17.7897L15.0644 13.9393C15.3885 13.552 15.644 13.0203 15.7439 12.535L21.6207 13.7443ZM19.666 17.7897L24.2754 21.6308C21.8794 24.5059 18.6399 26.3183 14.9999 26.9461L13.9801 21.0334L12.9603 15.1207C13.886 14.961 14.5464 14.5609 15.0567 13.9485L19.666 17.7897ZM13.9801 21.0334L14.9528 26.954C14.1284 27.0895 13.1902 27.1143 12.5686 27.1143C11.9537 27.1143 11.0061 27.0903 10.1742 26.9506L11.1676 21.0334L12.161 15.1162C12.0641 15.0999 12.0127 15.0956 12.0255 15.0968C12.0318 15.0974 12.0622 15.1002 12.1186 15.1033C12.2336 15.1097 12.3912 15.1143 12.5686 15.1143C12.7458 15.1143 12.9051 15.1097 13.0236 15.1032C13.0817 15.1 13.1149 15.0971 13.1247 15.0961C13.1406 15.0946 13.0959 15.0982 13.0074 15.1128L13.9801 21.0334ZM11.1676 21.0334L10.1249 26.9421C8.29638 26.6194 6.56804 26.0202 4.9317 25.0728L7.93791 19.8803L10.9441 14.6877C11.2672 14.8747 11.6482 15.0255 12.2103 15.1247L11.1676 21.0334ZM7.93791 19.8803L4.95478 25.0861L4.5376 24.8471L7.52073 19.6412L10.5039 14.4354L10.921 14.6744L7.93791 19.8803ZM7.52073 19.6412L9.05082 25.4428L7.34457 25.8928L5.81448 20.0912L4.28438 14.2896L5.99063 13.8396L7.52073 19.6412ZM5.81448 20.0912L7.31724 25.9C6.83175 26.0256 6.37878 26.1404 6.0371 26.2247C5.87064 26.2658 5.70797 26.3052 5.57391 26.3361C5.51514 26.3497 5.41503 26.3724 5.30718 26.3942C5.26772 26.4021 5.13627 26.4286 4.97241 26.4528C4.91201 26.4617 4.69316 26.4941 4.41219 26.5093C4.29288 26.5158 3.95551 26.5321 3.52654 26.492C3.31626 26.4723 2.90392 26.4236 2.40323 26.2774C2.01648 26.1645 0.886228 25.8045 -0.157853 24.7604L4.08479 20.5178L8.32743 16.2751C7.28349 15.2312 6.15348 14.8714 5.76707 14.7585C5.26671 14.6124 4.8548 14.5638 4.64504 14.5442C4.2171 14.5041 3.88115 14.5205 3.76361 14.5268C3.48619 14.5419 3.27236 14.5737 3.21841 14.5817C3.06743 14.604 2.95458 14.627 2.93913 14.6301C2.87931 14.6422 2.84889 14.6496 2.87911 14.6426C2.92303 14.6325 3.01554 14.6104 3.16255 14.5741C3.44783 14.5037 3.85502 14.4006 4.31171 14.2825L5.81448 20.0912ZM4.08479 20.5178L-0.157853 24.7604C-1.18733 23.7309 -1.55051 22.6194 -1.66857 22.2207C-1.81787 21.7164 -1.86804 21.3003 -1.88849 21.0855C-1.93006 20.6489 -1.91312 20.3055 -1.90631 20.1827C-1.89037 19.8951 -1.85642 19.6712 -1.84697 19.6088C-1.82146 19.4404 -1.79359 19.3056 -1.78515 19.2648C-1.76215 19.1536 -1.73818 19.0514 -1.72391 18.9914C-1.69134 18.8544 -1.6503 18.6909 -1.60725 18.5232C-1.51904 18.1796 -1.39856 17.7259 -1.26375 17.2366L4.52073 18.8303L10.3052 20.424C10.1869 20.8534 10.0847 21.2388 10.0159 21.5069C9.98042 21.6451 9.95935 21.7305 9.95061 21.7673C9.94423 21.7941 9.95275 21.76 9.96604 21.6957C9.96963 21.6784 9.99409 21.5618 10.0177 21.406C10.0262 21.3499 10.0596 21.1309 10.0753 20.8467C10.082 20.7257 10.099 20.3836 10.0575 19.9481C10.0371 19.7338 9.98698 19.3182 9.83778 18.8142C9.71982 18.4157 9.35676 17.3045 8.32743 16.2751L4.08479 20.5178ZM4.52073 18.8303L-1.26823 17.2529L-0.813545 15.5842L4.97541 17.1615L10.7644 18.7389L10.3097 20.4076L4.52073 18.8303ZM4.97541 17.1615L-0.13665 20.3027L-0.375713 19.9136L4.73635 16.7725L9.84841 13.6313L10.0875 14.0204L4.97541 17.1615ZM4.73635 16.7725L-0.383913 19.9002C-2.42511 16.5587 -3.12622 12.7118 -2.3556 8.87404L3.52698 10.0553L9.40955 11.2365C9.24268 12.0675 9.36656 12.8425 9.85661 13.6447L4.73635 16.7725ZM3.52698 10.0553L-2.35456 8.86887C-1.25785 3.43202 2.76839 -1.0052 8.05004 -2.65233L9.83635 3.07559L11.6227 8.80352C10.5012 9.15326 9.63368 10.1254 9.40851 11.2417L3.52698 10.0553ZM9.83635 3.07559L8.05235 -2.65305C10.2594 -3.34036 12.4094 -3.51189 14.7002 -3.19644L13.8817 2.74747L13.0632 8.69138C12.4946 8.61308 12.1227 8.6478 11.6204 8.80423L9.83635 3.07559Z" fill="#17191E" mask="url(#path-1-inside-1_413_14876)"/>
<mask id="path-3-inside-2_413_14876" fill="white">
<path d="M8.36559 6.74575C7.84059 6.91919 7.15621 7.82388 6.9734 8.58325C6.69215 9.78325 7.05778 10.9879 8.18278 12.5348C9.20465 13.9411 10.3109 15.0333 11.525 15.8301C12.3125 16.3458 13.6812 16.9411 14.5859 17.1614C15.0593 17.2739 15.9171 17.2833 16.3156 17.1801C16.9343 17.0161 17.7078 16.4911 17.9562 16.0645C18.1203 15.7879 18.2281 15.3192 18.2375 14.8926C18.2421 14.5598 18.2328 14.5176 18.1296 14.4426C17.9046 14.2692 15.7296 13.2661 15.5281 13.2379C15.2843 13.2004 15.275 13.2098 14.8015 13.8239C14.314 14.452 14.0843 14.6723 13.9296 14.6723C13.7328 14.6723 12.5375 14.0629 12.0453 13.7067C11.8109 13.5379 11.4406 13.2286 11.225 13.0176C10.5734 12.3754 9.82809 11.3489 9.82809 11.0911C9.82809 11.0067 9.91715 10.852 10.0812 10.6458C10.5921 10.0083 10.7187 9.79731 10.7187 9.59106C10.7187 9.34731 9.80465 7.12544 9.60777 6.89575C9.47652 6.74106 9.47652 6.74106 8.98434 6.72231C8.71246 6.71294 8.4359 6.72231 8.36559 6.74575Z"/>
</mask>
<path d="M8.36559 6.74575L10.263 12.4378L10.2553 12.4404L10.2477 12.4429L8.36559 6.74575ZM6.9734 8.58325L1.1317 7.2141L1.13583 7.1965L1.14006 7.17893L6.9734 8.58325ZM8.18278 12.5348L13.0352 9.00578L13.0366 9.00771L8.18278 12.5348ZM11.525 15.8301L8.23824 20.8498L8.2326 20.8461L11.525 15.8301ZM14.5859 17.1614L13.1988 22.9988L13.1825 22.995L13.1662 22.991L14.5859 17.1614ZM16.3156 17.1801L17.8534 22.9797L17.8362 22.9843L17.819 22.9887L16.3156 17.1801ZM17.9562 16.0645L12.7715 13.0448L12.7836 13.024L12.7959 13.0033L17.9562 16.0645ZM18.2375 14.8926L24.2369 14.9771L24.2365 15.0008L24.236 15.0245L18.2375 14.8926ZM18.1296 14.4426L14.6006 19.295L14.5329 19.2458L14.4666 19.1947L18.1296 14.4426ZM15.5281 13.2379L14.6989 19.1804L14.6573 19.1746L14.6157 19.1682L15.5281 13.2379ZM14.8015 13.8239L19.5532 17.4874L19.5473 17.495L19.5414 17.5026L14.8015 13.8239ZM12.0453 13.7067L15.5511 8.83748L15.5572 8.84187L15.5633 8.84628L12.0453 13.7067ZM11.225 13.0176L7.0292 17.3066L7.02117 17.2988L7.01318 17.2909L11.225 13.0176ZM10.0812 10.6458L5.38561 6.91061L5.39247 6.90198L5.39936 6.89338L10.0812 10.6458ZM9.60777 6.89575L5.05223 10.8005L5.04245 10.7891L5.03272 10.7776L9.60777 6.89575ZM8.98434 6.72231L9.19111 0.725877L9.20193 0.72625L9.21274 0.726662L8.98434 6.72231ZM8.36559 6.74575L10.2477 12.4429C11.1323 12.1507 11.673 11.713 11.8635 11.5493C12.103 11.3433 12.2476 11.1684 12.3244 11.067C12.432 10.9249 12.6593 10.5999 12.8067 9.98757L6.9734 8.58325L1.14006 7.17893C1.47028 5.80723 2.13118 4.65018 2.7579 3.82257C3.23682 3.19014 4.459 1.71739 6.48349 1.04858L8.36559 6.74575ZM6.9734 8.58325L12.8151 9.9524C12.8641 9.74329 12.8909 9.50205 12.8807 9.24822C12.8706 8.99761 12.8272 8.80106 12.789 8.67617C12.7238 8.46268 12.7006 8.54577 13.0352 9.00578L8.18278 12.5348L3.33036 16.0638C1.73441 13.8694 0.278159 10.8559 1.1317 7.2141L6.9734 8.58325ZM8.18278 12.5348L13.0366 9.00771C13.7167 9.94358 14.3189 10.487 14.8173 10.8141L11.525 15.8301L8.2326 20.8461C6.30289 19.5795 4.69264 17.9385 3.32896 16.0619L8.18278 12.5348ZM11.525 15.8301L14.8117 10.8104C14.7993 10.8023 14.851 10.8361 14.978 10.9022C15.0974 10.9644 15.2442 11.0346 15.4045 11.1043C15.5649 11.1741 15.7151 11.233 15.8395 11.2771C15.9726 11.3242 16.0273 11.337 16.0056 11.3317L14.5859 17.1614L13.1662 22.991C11.5902 22.6072 9.59098 21.7356 8.23825 20.8498L11.525 15.8301ZM14.5859 17.1614L15.973 11.3239C15.7472 11.2703 15.6055 11.2569 15.5878 11.2551C15.5672 11.2531 15.5553 11.2524 15.5515 11.2522C15.5473 11.252 15.5454 11.252 15.5441 11.252C15.5429 11.252 15.537 11.2519 15.5253 11.2523C15.5142 11.2526 15.4892 11.2536 15.4506 11.2568C15.4139 11.2599 15.3469 11.2663 15.2547 11.2802C15.1688 11.2931 15.0134 11.3194 14.8122 11.3715L16.3156 17.1801L17.819 22.9887C16.8483 23.24 15.9063 23.2566 15.4137 23.2513C14.8582 23.2452 14.0361 23.1978 13.1988 22.9988L14.5859 17.1614ZM16.3156 17.1801L14.7778 11.3805C14.4874 11.4575 14.2898 11.5448 14.1876 11.5942C14.0764 11.6479 13.9848 11.7022 13.9022 11.7583C13.824 11.8115 13.6974 11.9046 13.5397 12.0551C13.411 12.1779 13.0872 12.5028 12.7715 13.0448L17.9562 16.0645L23.141 19.0842C22.3563 20.4314 21.2462 21.2762 20.6473 21.6832C19.9432 22.1617 18.979 22.6812 17.8534 22.9797L16.3156 17.1801ZM17.9562 16.0645L12.7959 13.0033C12.6139 13.31 12.506 13.5678 12.4452 13.7311C12.3812 13.903 12.3417 14.0452 12.3168 14.1504C12.2701 14.3473 12.2437 14.5432 12.2389 14.7608L18.2375 14.8926L24.236 15.0245C24.213 16.0712 23.984 17.6635 23.1165 19.1257L17.9562 16.0645ZM18.2375 14.8926L12.2381 14.8081C12.2392 14.7239 12.2369 14.792 12.2408 14.9039C12.2438 14.9878 12.257 15.4142 12.3871 15.9607C12.5454 16.6252 12.8616 17.4182 13.4526 18.179C13.9658 18.8394 14.4982 19.2206 14.6006 19.295L18.1296 14.4426L21.6587 9.59021C21.8126 9.70217 22.3849 10.1167 22.9287 10.8166C23.5504 11.6168 23.888 12.4552 24.0608 13.1812C24.2056 13.7892 24.2267 14.2933 24.2334 14.481C24.241 14.6968 24.238 14.8949 24.2369 14.9771L18.2375 14.8926ZM18.1296 14.4426L14.4666 19.1947C14.5533 19.2615 14.6279 19.3151 14.6834 19.3538C14.7402 19.3934 14.7892 19.4261 14.8273 19.4509C14.9017 19.4994 14.9607 19.5351 14.995 19.5556C15.0314 19.5773 15.0589 19.5929 15.0744 19.6017C15.0905 19.6107 15.1009 19.6164 15.1043 19.6182C15.1099 19.6212 15.1022 19.617 15.0778 19.6045C15.0545 19.5925 15.0227 19.5764 14.9819 19.556C14.8995 19.515 14.7962 19.4647 14.677 19.4078C14.5588 19.3514 14.4315 19.2917 14.3027 19.2321C14.1738 19.1726 14.0471 19.1149 13.9299 19.0625C13.8115 19.0095 13.7103 18.9652 13.6311 18.9313C13.5919 18.9146 13.5627 18.9024 13.5429 18.8943C13.5215 18.8855 13.5202 18.8852 13.5348 18.8908C13.5428 18.8939 13.5602 18.9005 13.5853 18.9096C13.6091 18.9183 13.6511 18.9333 13.7067 18.9516C13.7353 18.961 13.7717 18.9728 13.8146 18.9859C13.8569 18.9988 13.9124 19.0152 13.9784 19.0332C14.0427 19.0507 14.1321 19.0738 14.2402 19.0977C14.2952 19.1099 14.3605 19.1235 14.4343 19.1373C14.5076 19.1509 14.5968 19.1661 14.6989 19.1804L15.5281 13.2379L16.3573 7.29551C16.9599 7.37959 17.4364 7.54587 17.4694 7.55677C17.6241 7.60788 17.757 7.65776 17.8422 7.69052C18.0193 7.75862 18.1972 7.83288 18.3449 7.89594C18.6508 8.02661 19.0048 8.18565 19.3375 8.33944C19.6706 8.49344 20.0253 8.66193 20.3313 8.81434C20.4808 8.88877 20.6527 8.97627 20.8188 9.06623C20.8375 9.07636 21.3218 9.3276 21.7927 9.69056L18.1296 14.4426ZM15.5281 13.2379L14.6157 19.1682C14.3823 19.1322 15.1799 19.2962 16.1061 19.183C17.4037 19.0244 18.39 18.4646 19.0244 17.9514C19.2864 17.7395 19.4681 17.5525 19.5565 17.4581C19.6483 17.3599 19.7062 17.2894 19.7145 17.2794C19.7169 17.2764 19.6934 17.3055 19.5532 17.4874L14.8015 13.8239L10.0498 10.1604C10.1463 10.0352 10.3016 9.83291 10.4465 9.65663C10.5495 9.53141 10.9262 9.06762 11.4775 8.62172C12.2039 8.03411 13.2678 7.44059 14.6505 7.27162C15.2246 7.20147 15.6936 7.226 15.9666 7.24976C16.215 7.27139 16.4266 7.30559 16.4404 7.30771L15.5281 13.2379ZM14.8015 13.8239L19.5414 17.5026C19.28 17.8395 18.882 18.3406 18.4188 18.7899C18.1837 19.0181 17.7501 19.4136 17.1441 19.7763C16.535 20.1409 15.4187 20.6723 13.9296 20.6723V14.6723V8.67231C12.518 8.67231 11.4883 9.17622 10.9811 9.47985C10.4769 9.78161 10.1602 10.0828 10.0628 10.1773C9.875 10.3595 9.83559 10.4363 10.0616 10.1451L14.8015 13.8239ZM13.9296 14.6723V20.6723C12.8333 20.6723 11.9619 20.3531 11.9284 20.342C11.6582 20.2526 11.4262 20.158 11.2734 20.093C10.9538 19.9571 10.636 19.803 10.3662 19.665C9.89445 19.4238 9.14898 19.0171 8.52726 18.5671L12.0453 13.7067L15.5633 8.84628C15.4549 8.76784 15.429 8.75894 15.5364 8.82138C15.6191 8.86948 15.7252 8.92746 15.8302 8.98115C15.9454 9.04008 15.994 9.06052 15.9693 9.05002C15.9639 9.04773 15.8615 9.00351 15.6963 8.94888C15.6141 8.9217 15.4501 8.86977 15.2324 8.81945C15.1204 8.79357 14.9611 8.76037 14.7668 8.73229C14.5822 8.7056 14.2905 8.67231 13.9296 8.67231V14.6723ZM12.0453 13.7067L8.53945 18.5759C8.06999 18.2379 7.46781 17.7357 7.0292 17.3066L11.225 13.0176L15.4207 8.72862C15.404 8.71223 15.3946 8.70354 15.3942 8.70319C15.3934 8.70242 15.3972 8.70597 15.4059 8.71374C15.4242 8.73006 15.4512 8.7535 15.4834 8.78054C15.5156 8.80753 15.5439 8.83046 15.564 8.84633C15.5737 8.85392 15.5785 8.85756 15.5783 8.85742C15.578 8.85723 15.5758 8.85554 15.5716 8.85246C15.5675 8.84942 15.5606 8.84434 15.5511 8.83748L12.0453 13.7067ZM11.225 13.0176L7.01318 17.2909C6.41323 16.6996 5.85224 16.0216 5.42544 15.4333C5.21183 15.1388 4.95579 14.7625 4.7234 14.3488C4.61023 14.1473 4.44532 13.8359 4.29242 13.4546C4.2006 13.2256 3.82809 12.3072 3.82809 11.0911H9.82809H15.8281C15.8281 10.4333 15.7166 9.92238 15.6474 9.65326C15.5713 9.35754 15.4865 9.12853 15.4304 8.98846C15.3208 8.71512 15.2192 8.53127 15.186 8.4723C15.1138 8.34361 15.0848 8.31247 15.1389 8.38713C15.2477 8.53706 15.3851 8.69348 15.4367 8.74435L11.225 13.0176ZM9.82809 11.0911H3.82809C3.82809 9.36645 4.57609 8.1259 4.68116 7.94166C4.93403 7.49828 5.2019 7.14156 5.38561 6.91061L10.0812 10.6458L14.7768 14.3809C14.7965 14.3562 14.9378 14.1799 15.1051 13.8866C15.1899 13.7379 15.3365 13.4636 15.4739 13.0911C15.5938 12.7661 15.8281 12.0472 15.8281 11.0911H9.82809ZM10.0812 10.6458L5.39936 6.89338C5.50768 6.75823 5.55988 6.69002 5.58064 6.66209C5.60711 6.62647 5.54611 6.70486 5.45502 6.85574C5.36426 7.00607 5.17095 7.34638 5.0067 7.83248C4.82325 8.37538 4.71871 8.97159 4.71871 9.59106H10.7187H16.7187C16.7187 11.1939 16.1329 12.3871 15.7281 13.0576C15.4 13.6011 15.0019 14.1001 14.7631 14.3981L10.0812 10.6458ZM10.7187 9.59106H4.71871C4.71871 10.0042 4.76285 10.3243 4.78491 10.4687C4.8109 10.6388 4.83931 10.7723 4.85711 10.8507C4.89206 11.0048 4.9239 11.1115 4.93245 11.14C4.95159 11.2037 4.95587 11.2104 4.92858 11.1347C4.87916 10.9977 4.79379 10.7771 4.68911 10.5229C4.5848 10.2696 4.4877 10.047 4.42154 9.90441C4.38615 9.82812 4.38156 9.8222 4.40356 9.86396C4.41391 9.8836 4.45403 9.95945 4.51867 10.0663C4.55193 10.1213 4.60619 10.2086 4.67915 10.3151C4.74517 10.4114 4.87166 10.5898 5.05223 10.8005L9.60777 6.89575L14.1633 2.991C14.691 3.6066 15.0123 4.25555 15.0205 4.27106C15.1302 4.47925 15.2293 4.6865 15.3073 4.85462C15.4679 5.20082 15.6362 5.59203 15.785 5.95337C15.9335 6.31383 16.0889 6.70876 16.217 7.06404C16.2785 7.23454 16.3558 7.4566 16.4256 7.6894C16.4596 7.80243 16.5113 7.9821 16.5597 8.19557C16.5812 8.29035 16.7187 8.86445 16.7187 9.59106H10.7187ZM9.60777 6.89575L5.03272 10.7776C4.89484 10.6151 5.21787 11.0232 5.65662 11.3932C6.3123 11.946 7.06176 12.3267 7.8233 12.5385C8.38958 12.6961 8.83544 12.7198 8.84651 12.7205C8.89654 12.7241 8.92052 12.7242 8.75593 12.718L8.98434 6.72231L9.21274 0.726662C9.29425 0.729767 9.50279 0.736944 9.69536 0.750599C9.84896 0.761492 10.3953 0.798355 11.0395 0.97757C11.879 1.21111 12.6838 1.62198 13.3918 2.21889C13.6803 2.46216 13.8888 2.68312 13.9985 2.80358C14.0558 2.8664 14.1017 2.91922 14.1288 2.95064C14.1545 2.98042 14.1781 3.00829 14.1828 3.01389L9.60777 6.89575ZM8.98434 6.72231L8.77756 12.7187C8.77809 12.7188 8.77768 12.7187 8.7767 12.7187C8.77572 12.7187 8.77539 12.7187 8.77611 12.7187C8.77677 12.7187 8.77996 12.7187 8.78597 12.7186C8.79178 12.7185 8.80288 12.7183 8.81912 12.7177C8.83881 12.717 8.92495 12.7138 9.05396 12.7008C9.11818 12.6943 9.23808 12.681 9.39175 12.6553C9.47064 12.6421 9.58048 12.622 9.7114 12.5922C9.83551 12.564 10.0295 12.5157 10.263 12.4378L8.36559 6.74575L6.46822 1.05365C7.18118 0.815998 7.80672 0.765681 7.85343 0.760984C8.06257 0.739956 8.24803 0.730575 8.37963 0.725752C8.65075 0.715816 8.93122 0.716915 9.19111 0.725877L8.98434 6.72231Z" fill="#17191E" mask="url(#path-3-inside-2_413_14876)"/>
</svg>
