<svg width="28" height="28" viewBox="0 0 28 28" fill="none" xmlns="http://www.w3.org/2000/svg">
<circle cx="14" cy="14" r="14" fill="#274781"/>
<path d="M20.2052 10.9851C19.7862 11.1713 19.3439 11.2877 18.8783 11.3575C19.3439 11.0782 19.7163 10.6359 19.8793 10.1005C19.437 10.3565 18.9481 10.5428 18.4127 10.6591C17.9937 10.2168 17.3884 9.9375 16.7366 9.9375C15.4795 9.9375 14.4553 10.9618 14.4553 12.2188C14.4553 12.4051 14.4785 12.568 14.5251 12.731C12.6395 12.6379 10.9401 11.73 9.79946 10.3332C9.61323 10.6824 9.49683 11.0549 9.49683 11.4739C9.49683 12.2654 9.89257 12.9638 10.5211 13.3828C10.1486 13.3595 9.79946 13.2664 9.47355 13.1034V13.1267C9.47355 14.2441 10.265 15.1753 11.3126 15.3848C11.1264 15.4313 10.9168 15.4546 10.7073 15.4546C10.5677 15.4546 10.4047 15.4313 10.265 15.4081C10.5677 16.316 11.4057 16.991 12.4067 16.991C11.6152 17.5963 10.6375 17.9688 9.56667 17.9688C9.38044 17.9688 9.1942 17.9688 9.03125 17.9455C10.0555 18.5973 11.2428 18.9698 12.5464 18.9698C16.7599 18.9698 19.0645 15.4779 19.0645 12.4516C19.0645 12.3585 19.0645 12.2421 19.0645 12.149C19.5068 11.8464 19.9025 11.4506 20.2052 10.9851Z" fill="#ABC452"/>
</svg>
