<svg width="28" height="28" viewBox="0 0 28 28" fill="none" xmlns="http://www.w3.org/2000/svg">
<circle cx="14" cy="14" r="14" fill="#274781"/>
<path d="M10.0761 9.08049C9.39801 9.11057 8.9277 9.17893 8.4902 9.31564C7.80114 9.53166 7.3609 9.95549 7.16676 10.5926C7.01911 11.0738 7.01637 11.1094 7.00543 13.5348C6.9945 15.8891 7.00543 16.2199 7.11207 16.7422C7.23239 17.3356 7.42653 17.7321 7.76559 18.0766C8.31247 18.6317 9.01247 18.8586 10.3632 18.9242C10.7679 18.9434 12.1953 18.9488 14.5195 18.9406C18.2574 18.927 18.3148 18.927 18.9218 18.7985C20.0019 18.5715 20.5789 18.0274 20.8332 16.9938C20.9836 16.3895 20.9863 16.3184 20.9863 13.7809C20.9863 12.009 20.9781 11.3856 20.9507 11.2024C20.7922 10.1196 20.3957 9.60002 19.5097 9.31564C19.0777 9.17619 18.632 9.1133 17.8363 9.07775C17.1718 9.04768 10.7597 9.05041 10.0761 9.08049ZM13.2562 12.1375C14.1777 12.5996 16.0152 13.5703 16.0726 13.625C16.264 13.8 16.2586 14.0653 16.0589 14.2485C15.9687 14.3332 13.0785 15.8481 12.9336 15.8863C12.7504 15.9356 12.5425 15.8371 12.4578 15.6567C12.4195 15.5746 12.414 15.3805 12.414 13.9231V12.2852L12.4769 12.1922C12.5097 12.143 12.5808 12.0719 12.63 12.0391C12.7804 11.9379 12.8925 11.9543 13.2562 12.1375Z" fill="#ABC452"/>
</svg>
