<svg width="238" height="238" viewBox="0 0 238 238" fill="none" xmlns="http://www.w3.org/2000/svg">
<path d="M237.406 0H0V237.406H237.406V0Z" fill="#FEFEFE"/>
<path fill-rule="evenodd" clip-rule="evenodd" d="M118.703 54.1758C154.34 54.1758 183.23 83.066 183.23 118.702C183.23 154.339 154.339 183.229 118.703 183.229C83.066 183.229 54.1768 154.338 54.1768 118.702C54.1768 83.0651 83.067 54.1758 118.703 54.1758Z" stroke="#174B24" stroke-width="4.8" stroke-miterlimit="2.61313" stroke-linecap="round" stroke-linejoin="round"/>
<mask id="mask0_138_3246" style="mask-type:luminance" maskUnits="userSpaceOnUse" x="58" y="58" width="121" height="121">
<path d="M118.703 58.6484C151.87 58.6484 178.757 85.5352 178.757 118.702C178.757 151.869 151.87 178.756 118.703 178.756C85.5361 178.756 58.6494 151.869 58.6494 118.702C58.6494 85.5352 85.5361 58.6484 118.703 58.6484Z" fill="white"/>
</mask>
<g mask="url(#mask0_138_3246)">
<path fill-rule="evenodd" clip-rule="evenodd" d="M162.225 125.383C197.862 125.383 226.752 154.272 226.752 189.909C226.752 225.546 197.862 254.436 162.225 254.436C126.588 254.436 97.6987 225.546 97.6987 189.909C97.6987 154.272 126.588 125.383 162.225 125.383ZM162.225 136.074C191.957 136.074 216.06 160.177 216.06 189.909C216.06 219.641 191.957 243.744 162.225 243.744C132.493 243.744 108.39 219.641 108.39 189.909C108.39 160.177 132.493 136.074 162.225 136.074Z" fill="#118D37"/>
<path fill-rule="evenodd" clip-rule="evenodd" d="M160.344 141.797C185.171 141.797 205.297 161.145 205.297 185.012C205.297 208.879 185.171 228.228 160.344 228.228C135.516 228.228 115.389 208.88 115.389 185.012C115.389 161.146 135.515 141.797 160.344 141.797ZM163.297 152.303C184.877 152.303 202.37 169.12 202.37 189.865C202.37 210.61 184.877 227.427 163.297 227.427C141.718 227.427 124.224 210.61 124.224 189.865C124.224 169.12 141.717 152.303 163.297 152.303Z" fill="#0E7033"/>
<path d="M158.662 210.004C173.141 210.004 184.879 198.266 184.879 183.787C184.879 169.308 173.141 157.57 158.662 157.57C144.183 157.57 132.446 169.308 132.446 183.787C132.446 198.266 144.183 210.004 158.662 210.004Z" fill="#174B24"/>
<path fill-rule="evenodd" clip-rule="evenodd" d="M75.3267 124.885C90.3353 124.885 104.147 130.01 115.108 138.604C112.542 141.102 110.144 143.764 107.931 146.574C98.8822 139.676 87.584 135.577 75.3267 135.577C45.5945 135.577 21.4918 159.679 21.4918 189.412C21.4918 219.144 45.5936 243.247 75.3267 243.247C84.728 243.247 93.5638 240.834 101.255 236.6C102.991 239.729 104.923 242.741 107.029 245.624C97.6649 250.916 86.8496 253.939 75.3267 253.939C39.6896 253.939 10.8003 225.05 10.8003 189.413C10.8003 153.776 39.6896 124.887 75.3267 124.887V124.885Z" fill="#118D37"/>
<path fill-rule="evenodd" clip-rule="evenodd" d="M96.6072 226.777C81.5064 232.75 63.3076 229.895 50.0049 217.941C31.5384 201.346 29.5012 173.502 45.4536 155.75C60.5265 138.976 86.267 137.218 104.637 151.072C102.606 154.054 100.77 157.172 99.1512 160.418C83.268 149.23 61.5912 151.009 48.78 165.265C34.9137 180.694 36.6849 204.896 52.7352 219.32C65.1758 230.5 82.5432 232.522 96.1819 225.683C96.3211 226.048 96.4612 226.413 96.6052 226.777H96.6072Z" fill="#0E7033"/>
<path fill-rule="evenodd" clip-rule="evenodd" d="M77.9676 157.57C85.3663 157.57 92.0479 160.636 96.8134 165.565C92.6537 175.638 90.4908 186.734 90.7922 198.389C90.8614 201.063 91.0639 203.705 91.3836 206.315C87.4582 208.659 82.8703 210.005 77.9666 210.005C63.487 210.005 51.75 198.268 51.75 183.789C51.75 169.309 63.4879 157.572 77.9666 157.572L77.9676 157.57Z" fill="#174B24"/>
<path fill-rule="evenodd" clip-rule="evenodd" d="M83.2025 100.268C85.1801 111.767 102.379 112.741 94.2128 125.847C90.6118 121.758 87.4006 116.734 84.6483 110.611C86.0221 117.717 89.6153 123.422 94.2128 128.492C81.1827 124.107 76.9558 115.626 83.2025 100.268Z" fill="#118D37"/>
<path fill-rule="evenodd" clip-rule="evenodd" d="M110.515 110.607C104.652 116.439 111.095 126.81 100.168 127.414C101.072 123.661 102.676 119.75 105.106 115.66C101.694 119.197 99.8587 123.392 98.772 127.898L98.6702 130.455L97.6968 129.953L98.1739 127.375L98.3707 127.548C96.0945 118.75 99.4536 113.152 110.514 110.607H110.515Z" fill="#118D37"/>
</g>
<path fill-rule="evenodd" clip-rule="evenodd" d="M142.074 134.135L140.372 134.291L139.82 135.282L138.155 134.905L137.324 135.677L135.857 134.804L134.828 135.282L133.7 133.997L132.574 134.135L131.9 132.565L130.787 132.346L130.63 130.645L129.64 130.093L130.016 128.427L129.244 127.596L130.118 126.128L129.64 125.099L130.924 123.972L130.787 122.846L132.356 122.172L132.575 121.058L134.276 120.902L134.828 119.911L136.494 120.287L137.325 119.516L138.793 120.389L139.822 119.911L140.949 121.196L142.076 121.058L142.749 122.628L143.863 122.847L144.02 124.548L145.01 125.1L144.634 126.766L145.406 127.596L144.532 129.064L145.01 130.093L143.726 131.22L143.863 132.346L142.293 133.02L142.075 134.134L142.074 134.135ZM137.324 123.206C139.749 123.206 141.715 125.172 141.715 127.597C141.715 130.023 139.748 131.988 137.324 131.988C134.898 131.988 132.932 130.022 132.932 127.597C132.932 125.171 134.899 123.206 137.324 123.206Z" fill="#373435"/>
<path fill-rule="evenodd" clip-rule="evenodd" d="M142.074 134.135L140.372 134.291L139.82 135.282L138.155 134.905L137.324 135.677L135.857 134.804L134.828 135.282L133.7 133.997L132.574 134.135L131.9 132.565L130.787 132.346L130.63 130.645L129.64 130.093L130.016 128.427L129.244 127.596L130.118 126.128L129.64 125.099L130.924 123.972L130.787 122.846L132.356 122.172L132.575 121.058L134.276 120.902L134.828 119.911L136.494 120.287L137.325 119.516L138.793 120.389L139.822 119.911L140.949 121.196L142.076 121.058L142.749 122.628L143.863 122.847L144.02 124.548L145.01 125.1L144.634 126.766L145.406 127.596L144.532 129.064L145.01 130.093L143.726 131.22L143.863 132.346L142.293 133.02L142.075 134.134L142.074 134.135ZM137.324 123.206C139.749 123.206 141.715 125.172 141.715 127.597C141.715 130.023 139.748 131.988 137.324 131.988C134.898 131.988 132.932 130.022 132.932 127.597C132.932 125.171 134.899 123.206 137.324 123.206Z" fill="#373435"/>
<path fill-rule="evenodd" clip-rule="evenodd" d="M137.324 124.029C139.295 124.029 140.892 125.627 140.892 127.598C140.892 129.568 139.295 131.166 137.324 131.166C135.353 131.166 133.755 129.568 133.755 127.598C133.755 125.627 135.353 124.029 137.324 124.029ZM137.324 125.93C138.244 125.93 138.991 126.677 138.991 127.598C138.991 128.518 138.244 129.265 137.324 129.265C136.403 129.265 135.656 128.518 135.656 127.598C135.656 126.677 136.403 125.93 137.324 125.93Z" fill="#373435"/>
<path d="M137.356 128.35C137.719 128.35 138.013 128.056 138.013 127.694C138.013 127.331 137.719 127.037 137.356 127.037C136.994 127.037 136.7 127.331 136.7 127.694C136.7 128.056 136.994 128.35 137.356 128.35Z" fill="#555F3D"/>
<path fill-rule="evenodd" clip-rule="evenodd" d="M117 134.249L115.91 134.348L115.557 134.983L114.49 134.742L113.959 135.236L113.018 134.677L112.358 134.983L111.636 134.16L110.915 134.248L110.483 133.242L109.77 133.101L109.67 132.012L109.036 131.658L109.277 130.591L108.782 130.058L109.342 129.118L109.036 128.459L109.858 127.737L109.771 127.016L110.777 126.584L110.917 125.871L112.007 125.771L112.361 125.136L113.428 125.377L113.96 124.883L114.9 125.442L115.56 125.136L116.282 125.959L117.003 125.872L117.435 126.877L118.148 127.017L118.248 128.106L118.882 128.46L118.641 129.526L119.136 130.058L118.576 130.999L118.882 131.658L118.06 132.38L118.147 133.101L117.142 133.533L117.002 134.247L117 134.249ZM113.958 127.247C115.512 127.247 116.77 128.507 116.77 130.06C116.77 131.614 115.511 132.873 113.958 132.873C112.403 132.873 111.145 131.613 111.145 130.06C111.145 128.506 112.404 127.247 113.958 127.247Z" fill="#373435"/>
<path fill-rule="evenodd" clip-rule="evenodd" d="M117 134.249L115.91 134.348L115.557 134.983L114.49 134.742L113.959 135.236L113.018 134.677L112.358 134.983L111.636 134.16L110.915 134.248L110.483 133.242L109.77 133.101L109.67 132.012L109.036 131.658L109.277 130.591L108.782 130.058L109.342 129.118L109.036 128.459L109.858 127.737L109.771 127.016L110.777 126.584L110.917 125.871L112.007 125.771L112.361 125.136L113.428 125.377L113.96 124.883L114.9 125.442L115.56 125.136L116.282 125.959L117.003 125.872L117.435 126.877L118.148 127.017L118.248 128.106L118.882 128.46L118.641 129.526L119.136 130.058L118.576 130.999L118.882 131.658L118.06 132.38L118.147 133.101L117.142 133.533L117.002 134.247L117 134.249ZM113.958 127.247C115.512 127.247 116.77 128.507 116.77 130.06C116.77 131.614 115.511 132.873 113.958 132.873C112.403 132.873 111.145 131.613 111.145 130.06C111.145 128.506 112.404 127.247 113.958 127.247Z" fill="#373435"/>
<path fill-rule="evenodd" clip-rule="evenodd" d="M113.958 127.775C115.22 127.775 116.243 128.799 116.243 130.061C116.243 131.324 115.22 132.347 113.958 132.347C112.695 132.347 111.672 131.324 111.672 130.061C111.672 128.799 112.695 127.775 113.958 127.775ZM113.958 128.994C114.547 128.994 115.025 129.472 115.025 130.061C115.025 130.651 114.547 131.129 113.958 131.129C113.368 131.129 112.89 130.651 112.89 130.061C112.89 129.472 113.368 128.994 113.958 128.994Z" fill="#373435"/>
<path d="M113.978 130.542C114.21 130.542 114.398 130.354 114.398 130.122C114.398 129.889 114.21 129.701 113.978 129.701C113.745 129.701 113.557 129.889 113.557 130.122C113.557 130.354 113.745 130.542 113.978 130.542Z" fill="#555F3D"/>
<path d="M110.266 102.934C114.071 102.934 117.155 99.8499 117.155 96.0452C117.155 92.2405 114.071 89.1562 110.266 89.1562C106.462 89.1562 103.377 92.2405 103.377 96.0452C103.377 99.8499 106.462 102.934 110.266 102.934Z" stroke="#E9AD3D" stroke-width="0.66624" stroke-miterlimit="2.61313" stroke-linecap="round" stroke-linejoin="round"/>
<path fill-rule="evenodd" clip-rule="evenodd" d="M140.575 86.6543L144.315 92.325C144.204 95.6505 146.04 97.941 148.9 99.6854L149.585 99.1343C149.242 96.3465 148.074 93.8485 145.662 91.7903L140.575 86.6543Z" fill="#118D37"/>
<path fill-rule="evenodd" clip-rule="evenodd" d="M139.854 93.2578L143.846 97.9349C147.388 98.6712 149.214 100.997 149.957 104.354C146.798 104.354 144.476 102.018 143.009 99.1177L139.854 93.2578Z" fill="#118D37"/>
<path fill-rule="evenodd" clip-rule="evenodd" d="M149.585 89.666L151.231 95.7399C149.49 98.9108 150.073 101.81 152.143 104.555C154.194 102.153 153.926 98.8695 152.675 95.8714L149.586 89.666H149.585Z" fill="#118D37"/>
<path fill-rule="evenodd" clip-rule="evenodd" d="M141.747 99.0957L145.74 103.773C149.281 104.509 151.107 106.835 151.85 110.191C148.692 110.191 146.369 107.856 144.903 104.956L141.747 99.0957Z" fill="#118D37"/>
<path fill-rule="evenodd" clip-rule="evenodd" d="M143.019 104.244L146.706 109.166C150.194 110.126 151.867 112.563 152.395 115.961C149.244 115.76 147.074 113.281 145.794 110.294L143.018 104.245L143.019 104.244Z" fill="#118D37"/>
<path fill-rule="evenodd" clip-rule="evenodd" d="M144.229 109.828L147.5 115.035C150.898 116.277 152.366 118.843 152.615 122.273C149.489 121.814 147.531 119.165 146.501 116.084L144.229 109.828H144.229Z" fill="#118D37"/>
<path fill-rule="evenodd" clip-rule="evenodd" d="M154.888 95.7207L154.847 102.013C152.321 104.603 152.107 107.552 153.365 110.75C155.985 108.986 156.606 105.751 156.203 102.526L154.888 95.7207Z" fill="#118D37"/>
<path fill-rule="evenodd" clip-rule="evenodd" d="M157.657 102.354L156.501 108.54C153.557 110.64 152.823 113.504 153.495 116.875C156.385 115.603 157.57 112.53 157.745 109.285L157.658 102.354H157.657Z" fill="#118D37"/>
<path fill-rule="evenodd" clip-rule="evenodd" d="M159.61 109.02L157.522 114.955C154.29 116.58 153.127 119.299 153.275 122.733C156.326 121.918 157.967 119.061 158.636 115.882L159.61 109.02Z" fill="#118D37"/>
<path fill-rule="evenodd" clip-rule="evenodd" d="M148.812 99.4193C152.333 108.775 154.721 118.823 151.775 127.125H154.098C155.724 126.449 157.504 126.24 158.976 125.099C157.526 125.387 156.114 126.049 154.626 125.963C156.398 123.434 158.907 122.05 162.072 121.686C159.478 121.063 156.835 122.19 154.152 124.749C155.069 114.978 153.199 106.533 149.437 98.9863L148.813 99.4193H148.812Z" fill="#118D37"/>
<path fill-rule="evenodd" clip-rule="evenodd" d="M144.678 124.917C145.404 121.617 149.833 121.519 151.358 125.383L151.871 124.357C149.642 120.604 144.228 121.48 144.678 124.917Z" fill="#118D37"/>
<path fill-rule="evenodd" clip-rule="evenodd" d="M148.107 123.799C149.74 124.035 150.8 125.045 151.229 126.768L150.511 127.124C150.538 125.658 149.517 124.692 148.107 123.8V123.799Z" fill="#118D37"/>
<path fill-rule="evenodd" clip-rule="evenodd" d="M140.011 103.436C140.634 104.406 140.45 105.112 139.853 105.682V106.617L141.258 107.013L140.271 109.019L140.738 116.363L142.208 115.81C143.6 115.286 143.69 116.142 143.354 117.363C143.416 117.74 143.759 117.775 143.963 117.98L143.926 121.066L143.536 121.17C141.937 119.662 139.773 118.738 137.39 118.738C130.412 118.738 128.672 125.102 128.672 125.452L128.427 129.126L127.248 129.41V130.627C127.248 131.214 126.914 131.218 126.398 131.218H125.368C124.91 131.218 124.536 130.843 124.536 130.386V129.898L124.434 129.462L122.911 129.436L122.524 130.908L120.477 130.874C120.484 130.748 120.488 130.622 120.488 130.495C120.488 126.796 117.65 123.796 114.15 123.796C111.53 123.796 109.282 125.476 108.316 127.872L108.116 127.823C107.653 126.415 107.283 124.07 107.958 120.646C112.194 117.67 115.055 116.629 122.967 115.82L123.34 113.505C123.709 112.29 125.029 110.61 123.434 108.325C123.221 108.097 121.91 105.877 121.951 107.779L121.933 110.693C121.799 111.474 121.025 111.557 120.803 110.729L120.745 107.406C120.879 106.278 121.717 105.883 123.068 106.331C124.227 106.761 124.652 107.411 126.424 106.894C130.057 106.342 133.716 106.165 137.402 106.404L138.917 106.568C138.972 106.427 139.153 106.098 138.938 105.85C138.217 105.02 138.512 103.888 139.556 103.347C139.863 103.189 139.835 103.161 140.012 103.439L140.011 103.436ZM135.256 108.621H137.837C139.374 108.621 139.248 111.453 139.33 112.472L139.543 116.25C138.113 115.872 136.684 115.889 135.255 116.373V108.622L135.256 108.621ZM124.82 108.267L124.875 109.187L124.162 108.797L124.82 108.267ZM126.604 108.897C128.86 108.39 131.177 108.184 133.575 108.365C133.842 108.385 134.062 108.585 134.062 108.852V116.387C134.062 116.654 133.828 116.787 133.575 116.874C132.422 117.268 131.269 118.194 130.117 118.855L129.912 118.673L127.965 114.504C127.75 114.042 127.167 113.688 127.024 114.122C126.848 114.659 127.237 114.679 127.408 115.098C127.905 116.318 125.989 118.238 126.293 116.725L126.806 114.162C126.841 113.992 126.313 114 125.84 114.168C125.562 114.266 125.356 114.513 125.152 114.562C124.896 114.623 124.763 114.336 124.822 114.075L125.8 109.701C125.897 109.269 126.174 108.994 126.606 108.896L126.604 108.897ZM127.207 117.88C127.444 117.874 127.693 117.962 127.954 118.159L128.895 118.396L129.033 118.966C130.095 119.677 128.75 120.217 128.609 120.843L127.207 120.839L125.804 120.843C125.663 120.217 124.318 119.677 125.381 118.966L125.518 118.396L126.46 118.159C126.722 117.962 126.97 117.874 127.207 117.88ZM116.617 118.875C116.746 118.83 116.887 118.897 116.933 119.026L117.708 121.204C117.753 121.332 117.685 121.474 117.558 121.52C117.429 121.565 117.288 121.498 117.242 121.369L116.467 119.191C116.422 119.063 116.489 118.921 116.617 118.875ZM117.952 118.77C118.081 118.725 118.222 118.793 118.268 118.921L119.043 121.099C119.088 121.227 119.021 121.369 118.893 121.415C118.765 121.46 118.623 121.393 118.577 121.265L117.803 119.086C117.757 118.959 117.825 118.817 117.952 118.77ZM119.288 118.77C119.416 118.725 119.557 118.793 119.604 118.921L120.378 121.099C120.423 121.227 120.356 121.369 120.229 121.415C120.1 121.46 119.959 121.393 119.913 121.265L119.138 119.086C119.093 118.959 119.16 118.817 119.288 118.77ZM120.74 118.875C120.869 118.83 121.01 118.897 121.056 119.026L121.831 121.204C121.876 121.332 121.809 121.474 121.681 121.52C121.552 121.565 121.411 121.498 121.365 121.369L120.59 119.191C120.545 119.063 120.613 118.921 120.74 118.875ZM142.809 119.657C137.084 116.459 130.853 118.22 127.82 124.149L127.754 123.555C130.534 117.786 136.213 115.315 142.984 118.367L142.81 119.657H142.809ZM113.973 122.629C120.325 123.577 121.221 127.338 121.38 130.482H121.856C122.397 126.093 118.681 122.011 113.973 122.629ZM125.406 127.114H126.685C126.83 127.114 126.949 127.232 126.949 127.377V127.774C126.949 127.919 126.83 128.037 126.685 128.037H125.406C125.261 128.037 125.143 127.919 125.143 127.774V127.377C125.143 127.232 125.261 127.114 125.406 127.114ZM125.406 125.516H126.685C126.83 125.516 126.949 125.634 126.949 125.779V126.177C126.949 126.322 126.83 126.44 126.685 126.44H125.406C125.261 126.44 125.143 126.322 125.143 126.177V125.779C125.143 125.634 125.261 125.516 125.406 125.516ZM125.758 129.258H126.333C126.515 129.258 126.663 129.407 126.663 129.589V130.221C126.663 130.403 126.515 130.552 126.333 130.552H125.758C125.577 130.552 125.428 130.403 125.428 130.221V129.589C125.428 129.407 125.577 129.258 125.758 129.258Z" fill="#940202"/>
<path d="M74.5559 125.383C74.2285 123.204 74.0576 120.973 74.0576 118.702C74.0576 94.0458 94.0467 74.0566 118.703 74.0566C143.36 74.0566 163.349 94.0458 163.349 118.702C163.349 120.973 163.178 123.204 162.851 125.383" stroke="#118D37" stroke-width="1.00032" stroke-miterlimit="2.61313" stroke-linecap="round" stroke-linejoin="round" stroke-dasharray="1 3"/>
<path d="M66.0403 119.802L66.0326 119.208C67.1568 119.203 67.3843 119.408 67.3881 119.759C67.3948 120.272 66.9283 120.331 65.1926 120.35C63.456 120.371 62.9884 120.323 62.9827 119.774C62.9798 119.576 63.0777 119.449 63.2563 119.385C63.4272 119.318 63.6777 119.289 64.0012 119.286L63.982 117.666C62.4259 117.684 61.8336 118.537 61.8489 119.724C61.872 121.702 63.0643 122.102 65.2128 122.076C67.3353 122.051 68.5478 121.884 68.5276 120.184C68.5209 119.617 68.3692 119.026 67.8182 118.808V118.789L68.3846 118.747L68.3702 117.613L64.8816 117.655L64.9065 119.813L66.0403 119.8V119.802Z" fill="#940202"/>
<path d="M68.3329 116.896L68.4722 115.229L65.908 115.018L65.9454 114.579C65.979 114.176 66.1797 114.048 66.9045 114.107L67.3346 114.143C67.6043 114.165 68.213 114.215 68.5672 114.082L68.7141 112.308L68.6238 112.3C68.5614 112.402 68.4866 112.432 68.4117 112.473C68.2792 112.543 67.8491 112.506 67.5179 112.479L66.9707 112.434C66.1192 112.363 65.5874 112.562 65.4491 113.364L65.4309 113.362C65.3771 112.592 64.8501 112.213 63.9986 112.142C63.0126 112.062 62.2542 112.486 62.1496 113.758L61.9336 116.365L68.332 116.896H68.3329ZM63.2738 114.799L63.3006 114.475C63.341 113.974 63.5838 113.786 64.1022 113.83C64.5592 113.868 64.8453 114.118 64.8069 114.592L64.78 114.923L63.2738 114.799Z" fill="#940202"/>
<path d="M68.7588 111.772L69.3751 107.936L68.0263 107.72L67.6749 109.904L66.4135 109.7L66.7303 107.73L65.4353 107.521L65.1185 109.492L64.0346 109.318L64.3725 107.214L63.0228 106.996L62.4189 110.753L68.7588 111.772Z" fill="#940202"/>
<path d="M69.5328 107.377L70.6771 103.664L69.3705 103.26L68.7187 105.376L67.4985 104.999L68.0861 103.091L66.8304 102.704L66.2438 104.612L65.1945 104.289L65.8224 102.252L64.5168 101.85L63.3945 105.485L69.5328 107.377Z" fill="#940202"/>
<path d="M70.8184 102.976L71.3791 101.514L67.6754 100.094L67.6811 100.078L71.7832 100.457L72.4408 98.7436L66.4456 96.4453L65.8859 97.9055L69.58 99.3234L69.5733 99.3397L65.4914 98.9298L64.8223 100.677L70.8184 102.976Z" fill="#940202"/>
<path d="M72.7506 93.7614L72.7419 93.7777L68.6274 92.0286L67.8315 93.4379L73.9602 95.6449L74.8626 94.0475L71.3797 91.4372L71.3893 91.4209L75.4203 93.0606L76.3247 91.4641L71.276 87.3477L70.4783 88.7569L74.1234 91.3364L74.1147 91.3509L69.9263 89.7352L69.1823 91.0504L72.7506 93.7614Z" fill="#940202"/>
<path d="M74.4377 88.32C76.3164 89.8157 77.4118 89.9424 78.4764 88.6061C79.543 87.2698 79.1753 86.2291 77.2966 84.7325C75.4188 83.2359 74.3244 83.1101 73.2578 84.4464C72.1932 85.7818 72.5599 86.8224 74.4377 88.32ZM75.5148 86.9693C74.1583 85.8864 73.8252 85.5533 74.1458 85.152C74.4646 84.7517 74.863 85.0003 76.2214 86.0832C77.5778 87.1651 77.911 87.4992 77.5903 87.8995C77.2706 88.3008 76.8713 88.0502 75.5148 86.9693Z" fill="#940202"/>
<path d="M80.1158 86.2393L81.2736 85.0326L79.416 83.2517L79.7213 82.933C80.0025 82.6412 80.2368 82.6681 80.7629 83.173L81.0758 83.4716C81.2697 83.6578 81.7113 84.0812 82.0694 84.2012L83.3011 82.9157L83.2368 82.8543C83.1225 82.8937 83.0467 82.8706 82.9622 82.8524C82.8153 82.8246 82.5043 82.525 82.2643 82.2956L81.8678 81.9154C81.2505 81.325 80.7129 81.1455 80.1024 81.6802L80.0889 81.6677C80.5325 81.0351 80.3606 80.4082 79.7443 79.8169C79.0291 79.1324 78.1747 78.9865 77.2905 79.9062L75.48 81.7964L80.1139 86.2393H80.1158ZM77.5085 81.422L77.7341 81.1877C78.0816 80.8249 78.3869 80.8306 78.7641 81.1926C79.0944 81.5094 79.1597 81.8828 78.8304 82.2274L78.599 82.4684L77.5085 81.422Z" fill="#940202"/>
<path d="M83.6881 82.4007L86.5355 79.9882L85.6523 78.9447L84.0808 80.2762L80.8129 76.4199L79.5371 77.5009L83.6881 82.4007Z" fill="#940202"/>
<path d="M85.0743 74.5486L85.3402 74.3489C85.8557 73.9592 86.0842 74.1262 87.1287 75.5115C88.1741 76.8977 88.2721 77.1617 87.7546 77.5515L87.4887 77.7512L85.0743 74.5496V74.5486ZM86.8781 79.7201L88.8173 78.259C90.361 77.0955 89.5201 75.8148 88.5082 74.4718C87.4954 73.1288 86.4961 71.9691 84.9524 73.1326L83.0132 74.5937L86.8781 79.7201Z" fill="#940202"/>
<path d="M92.2811 75.8783L93.8286 74.997L93.4197 73.9352L94.5765 73.2776L95.2821 74.1695L96.8277 73.2882L92.2897 68.4844L90.4609 69.526L92.2801 75.8783H92.2811ZM93.7816 72.2812L92.9694 72.7439L92.02 70.15L92.0353 70.1413L93.7825 72.2812H93.7816Z" fill="#940202"/>
<path d="M98.1025 70.188L98.642 69.9423C99.1009 70.9685 99.0049 71.2594 98.6852 71.4053C98.2186 71.6175 97.9757 71.2143 97.2557 69.6351C96.5357 68.0559 96.3908 67.6076 96.89 67.381C97.0695 67.2994 97.226 67.3378 97.3565 67.4741C97.4842 67.6027 97.6148 67.8207 97.7482 68.1154L99.2218 67.4453C98.5776 66.0283 97.5581 65.8315 96.4772 66.3231C94.6781 67.1439 94.7933 68.3957 95.6842 70.3512C96.5655 72.2818 97.2077 73.3234 98.7543 72.6187C99.2688 72.3835 99.7498 72.0072 99.7268 71.4139L99.7431 71.4082L100.01 71.9074L101.042 71.4379L99.5952 68.2623L97.6311 69.157L98.1015 70.188H98.1025Z" fill="#940202"/>
<path d="M101.686 71.2113L103.292 70.7409L102.57 68.2727L102.993 68.1499C103.383 68.0366 103.574 68.1767 103.777 68.8756L103.898 69.2903C103.974 69.5495 104.145 70.1351 104.396 70.4174L106.105 69.9182L106.08 69.8308C105.962 69.8107 105.906 69.7511 105.843 69.6955C105.731 69.5966 105.609 69.1819 105.517 68.8631L105.362 68.3361C105.122 67.5163 104.746 67.0919 103.949 67.2513L103.943 67.2331C104.645 66.9067 104.808 66.2779 104.568 65.459C104.291 64.5096 103.622 63.9547 102.396 64.3127L99.8833 65.0471L101.686 71.2103V71.2113ZM101.827 65.7355L102.137 65.6443C102.621 65.5031 102.882 65.6596 103.03 66.1617C103.158 66.6023 103.028 66.9576 102.57 67.091L102.252 67.1851L101.828 65.7355H101.827Z" fill="#940202"/>
<path d="M105.9 66.5899C106.277 68.962 107 69.7934 108.69 69.5256C110.377 69.2568 110.806 68.2411 110.429 65.8689C110.052 63.4987 109.327 62.6664 107.64 62.9352C105.953 63.204 105.522 64.2196 105.9 66.5899ZM107.605 66.3182C107.33 64.6046 107.31 64.1352 107.818 64.0536C108.324 63.9739 108.451 64.427 108.723 66.1406C108.996 67.8552 109.016 68.3265 108.51 68.4062C108.004 68.4878 107.877 68.0337 107.605 66.3192V66.3182Z" fill="#940202"/>
<path d="M115.806 66.0687L116.398 66.0207C116.48 67.1429 116.292 67.3829 115.941 67.4107C115.429 67.453 115.338 66.9903 115.198 65.2613C115.058 63.5314 115.074 63.061 115.621 63.0159C115.817 62.9995 115.952 63.0888 116.028 63.2616C116.104 63.4287 116.152 63.6763 116.178 63.9989L117.792 63.8684C117.666 62.318 116.775 61.7852 115.592 61.8821C113.62 62.0415 113.303 63.2578 113.477 65.3995C113.648 67.5154 113.897 68.7135 115.593 68.5762C116.158 68.5292 116.737 68.3381 116.916 67.7736L116.935 67.7717L117.017 68.3333L118.145 68.2412L117.865 64.765L115.713 64.9387L115.805 66.0667L115.806 66.0687Z" fill="#940202"/>
<path d="M118.847 68.359L122.732 68.4137L122.751 67.0466L120.539 67.0159L120.556 65.7382L122.553 65.766L122.57 64.4537L120.574 64.4259L120.59 63.3286L122.721 63.3574L122.739 61.9923L118.935 61.9395L118.847 68.359Z" fill="#940202"/>
<path d="M123.341 68.5855L124.891 68.7958L125.424 64.8646L125.442 64.8675L126.015 68.9475L127.834 69.1942L128.695 62.8294L127.143 62.6201L126.613 66.5407L126.594 66.5398L126.056 62.4732L124.202 62.2227L123.341 68.5855Z" fill="#940202"/>
<path d="M128.66 69.3382L132.452 70.1868L132.75 68.8515L130.591 68.3705L130.87 67.1235L132.817 67.5593L133.105 66.2777L131.156 65.8419L131.395 64.7705L133.475 65.2361L133.773 63.9017L130.061 63.0723L128.66 69.3382Z" fill="#940202"/>
<path d="M133.056 70.3719L134.637 70.9191L135.48 68.4893L135.897 68.6333C136.279 68.7668 136.352 68.9924 136.114 69.6807L135.973 70.0877C135.883 70.344 135.685 70.922 135.724 71.2973L137.408 71.88L137.437 71.7965C137.353 71.7092 137.343 71.6304 137.324 71.5479C137.288 71.402 137.429 70.9949 137.539 70.68L137.719 70.1607C137.998 69.3543 137.937 68.7888 137.196 68.4557L137.201 68.4394C137.963 68.5796 138.46 68.161 138.74 67.3546C139.064 66.4196 138.84 65.5805 137.633 65.162L135.161 64.3047L133.056 70.3709V70.3719ZM136.347 65.9924L136.652 66.097C137.129 66.2621 137.25 66.5434 137.08 67.0359C136.93 67.4688 136.618 67.6848 136.166 67.5284L135.851 67.4189L136.347 65.9914V65.9924Z" fill="#940202"/>
<path d="M137.38 71.9034L139.002 72.6397L139.621 71.6855L140.834 72.2346L140.526 73.33L142.147 74.0644L143.371 67.57L141.453 66.7012L137.378 71.9044L137.38 71.9034ZM141.174 71.0058L140.321 70.6199L141.862 68.3274L141.879 68.3341L141.174 71.0058Z" fill="#940202"/>
<path d="M142.382 74.3059L145.631 76.1443L146.304 74.9549L144.511 73.9402L147.001 69.5415L145.544 68.7188L142.382 74.3059Z" fill="#940202"/>
<path d="M148.376 78.0264L149.69 79.0603L152.78 75.1291L153.77 75.9067L154.649 74.7893L151.353 72.1992L150.475 73.3166L151.465 74.0952L148.376 78.0264Z" fill="#940202"/>
<path d="M150.943 79.962L152.15 81.1198L153.93 79.2622L154.249 79.5675C154.541 79.8487 154.514 80.083 154.009 80.6091L153.711 80.922C153.525 81.1159 153.101 81.5585 152.981 81.9156L154.266 83.1473L154.328 83.083C154.288 82.9687 154.312 82.8929 154.33 82.8084C154.358 82.6615 154.657 82.3505 154.887 82.1105L155.267 81.714C155.857 81.0967 156.037 80.5582 155.502 79.9486L155.514 79.9351C156.147 80.3787 156.773 80.2078 157.365 79.5905C158.05 78.8753 158.196 78.0199 157.276 77.1367L155.385 75.3262L150.943 79.9611V79.962ZM155.76 77.3537L155.994 77.5784C156.357 77.9259 156.352 78.2311 155.991 78.6084C155.674 78.9387 155.299 79.0039 154.956 78.6747L154.714 78.4433L155.76 77.3527V77.3537Z" fill="#940202"/>
<path d="M154.484 83.1062L155.635 84.4646L156.604 83.8675L157.463 84.8832L156.716 85.7414L157.867 87.0989L161.755 81.7545L160.394 80.1484L154.483 83.1062H154.484ZM158.297 83.9193L157.692 83.2051L160.067 81.7929L160.079 81.8064L158.297 83.9193Z" fill="#940202"/>
<path d="M163.314 85.689L163.504 85.9617C163.874 86.4925 163.699 86.7134 162.275 87.707C160.851 88.6986 160.584 88.7879 160.213 88.2561L160.023 87.9834L163.313 85.689H163.314ZM158.078 87.299L159.468 89.2919C160.572 90.8778 161.885 90.0849 163.262 89.122C164.642 88.162 165.84 87.2058 164.734 85.619L163.346 83.627L158.077 87.299H158.078Z" fill="#940202"/>
<path d="M161.039 91.4819L161.946 92.8873L167.34 89.4045L166.432 87.998L161.039 91.4819Z" fill="#940202"/>
<path d="M162.303 93.5309L163.039 94.9123L166.539 93.048L166.549 93.0624L163.572 95.9117L164.435 97.5322L170.103 94.513L169.367 93.1316L165.874 94.9911L165.865 94.9757L168.851 92.1629L167.971 90.5117L162.303 93.5309Z" fill="#940202"/>
<path d="M167.695 99.3666L167.914 99.9186C166.865 100.324 166.579 100.215 166.45 99.8888C166.262 99.4117 166.678 99.189 168.291 98.5506C169.905 97.9112 170.359 97.7902 170.56 98.3C170.633 98.4843 170.587 98.637 170.445 98.7608C170.309 98.8827 170.085 99.0008 169.784 99.1198L170.379 100.625C171.826 100.052 172.074 99.045 171.637 97.941C170.909 96.1016 169.652 96.1534 167.654 96.9454C165.681 97.7259 164.609 98.3154 165.233 99.8965C165.442 100.424 165.795 100.923 166.387 100.928L166.395 100.946L165.88 101.187L166.298 102.24L169.542 100.956L168.747 98.9499L167.694 99.3656L167.695 99.3666Z" fill="#940202"/>
<path d="M167.225 105.081L168.058 108.719L169.389 108.414L168.931 106.407L173.857 105.279L173.484 103.648L167.225 105.081Z" fill="#940202"/>
<path d="M168.128 109.242L168.365 110.735L170.124 110.455L169.887 108.963L168.128 109.242Z" fill="#940202"/>
<path d="M168.474 111.477L168.969 115.175L170.323 114.994L170.05 112.952L175.061 112.285L174.839 110.625L168.474 111.477Z" fill="#940202"/>
<path d="M168.995 115.634L169.012 117.145L170.794 117.124L170.774 115.613L168.995 115.634Z" fill="#940202"/>
<path d="M173.148 120.574L173.125 122.194L173.53 122.2C174.771 122.217 175.569 121.662 175.59 120.151C175.614 118.414 174.74 117.845 172.286 117.812C169.894 117.78 168.944 118.18 168.918 120.059C168.903 121.129 169.319 122.187 171.118 122.212L171.595 122.219L171.617 120.599C170.403 120.584 170.045 120.489 170.052 120.075C170.058 119.562 170.526 119.514 172.262 119.538C173.997 119.562 174.465 119.623 174.457 120.136C174.453 120.459 174.236 120.592 173.508 120.581L173.148 120.575V120.574Z" fill="#940202"/>
</svg>
